<?xml version="1.0" encoding="utf-8"?>
<!-- Generator: Adobe Illustrator 24.2.3, SVG Export Plug-In . SVG Version: 6.00 Build 0)  -->
<svg version="1.1" xmlns="http://www.w3.org/2000/svg" xmlns:xlink="http://www.w3.org/1999/xlink" x="0px" y="0px"
	 viewBox="0 0 314 220" style="enable-background:new 0 0 314 220;" xml:space="preserve">
<g id="Layer_2">
</g>
<g id="Layer_1">
	<g>
		<polygon points="179.9,201 179.9,191.8 179.8,191.4 179.6,191.1 179.6,191.1 95.3,191.1 95.3,201 		"/>
		<path d="M179.9,201.2H95.3c-0.1,0-0.2-0.1-0.2-0.2v-9.9c0-0.1,0.1-0.2,0.2-0.2h84.4c0.1,0,0.2,0.1,0.2,0.2l0.1,0.2
			c0,0,0,0.1,0,0.1l0.1,0.4l0,9.2C180.1,201.1,180,201.2,179.9,201.2z M95.5,200.7h84.1v-8.9l0-0.3l-0.1-0.2H95.5V200.7z"/>
	</g>
	<g>
		<path d="M180.3,201.5H94.8v-10.9h85.5V201.5z M95.8,200.5h83.5v-8.9H95.8V200.5z"/>
	</g>
	<g>
		<path d="M245.2,187H67.1c-0.3,0-0.5-0.2-0.5-0.5V69.7c0-0.3,0.2-0.5,0.5-0.5h178.1c0.3,0,0.5,0.2,0.5,0.5v116.8
			C245.7,186.8,245.5,187,245.2,187z M67.6,186h177.1V70.2H67.6V186z"/>
	</g>
	<g>
		<path d="M143.5,191.6H67.1c-0.3,0-0.5-0.2-0.5-0.5v-4.6c0-0.3,0.2-0.5,0.5-0.5s0.5,0.2,0.5,0.5v4.1h75.8c0.3,0,0.5,0.2,0.5,0.5
			S143.7,191.6,143.5,191.6z"/>
	</g>
	<g>
		<path d="M245.2,191.6H169c-0.3,0-0.5-0.2-0.5-0.5s0.2-0.5,0.5-0.5h75.8v-4.1c0-0.3,0.2-0.5,0.5-0.5s0.5,0.2,0.5,0.5v4.6
			C245.7,191.4,245.5,191.6,245.2,191.6z"/>
	</g>
	<g>
		<path d="M69,71.2v113.2h174.4V71.2H69z M239.6,175.4H72.8v-100h166.7V175.4z"/>
	</g>
	<g>
		<path d="M94.9,58.3h-5.4c-0.1,0-0.2-0.1-0.2-0.2v-5.9c0-0.1,0.1-0.2,0.2-0.2h5.4c0.1,0,0.2,0.1,0.2,0.2v5.9
			C95.2,58.2,95.1,58.3,94.9,58.3z M89.8,57.8h4.9v-5.4h-4.9V57.8z"/>
	</g>
	<g>
		<path d="M92.2,57.6c-1.4,0-2.5-1.1-2.5-2.5s1.1-2.5,2.5-2.5s2.5,1.1,2.5,2.5S93.6,57.6,92.2,57.6z M92.2,53.1c-1.1,0-2,0.9-2,2
			s0.9,2,2,2s2-0.9,2-2S93.3,53.1,92.2,53.1z"/>
	</g>
	<g>
		<path d="M94.9,58.3c0,0-0.1,0-0.1,0l-0.2-0.1c-0.1-0.1-0.1-0.2-0.1-0.3c0.1-0.1,0.2-0.1,0.3-0.1l0.2,0.1c0.1,0.1,0.1,0.2,0.1,0.3
			C95.1,58.3,95,58.3,94.9,58.3z"/>
	</g>
	<g>
		<path d="M94.9,57.5c-0.1,0-0.2-0.1-0.2-0.2v-1.4c0-0.1,0.1-0.2,0.2-0.2s0.2,0.1,0.2,0.2v1.4C95.2,57.4,95.1,57.5,94.9,57.5z"/>
	</g>
	<g>
		<path d="M95.2,57.5h-0.2c-0.1,0-0.2-0.1-0.2-0.2c0-0.1,0.1-0.2,0.2-0.2V56c-0.1,0-0.2-0.1-0.2-0.2c0-0.1,0.1-0.2,0.2-0.2h0.2
			c0.1,0,0.2,0.1,0.2,0.2v1.4C95.4,57.4,95.3,57.5,95.2,57.5z"/>
	</g>
	<g>
		<path d="M89.5,57.5c-0.1,0-0.2-0.1-0.2-0.2v-1.4c0-0.1,0.1-0.2,0.2-0.2s0.2,0.1,0.2,0.2v1.4C89.8,57.4,89.7,57.5,89.5,57.5z"/>
	</g>
	<g>
		<path d="M89.5,57.5h-0.3c-0.1,0-0.2-0.1-0.2-0.2v-1.4c0-0.1,0.1-0.2,0.2-0.2h0.3c0.1,0,0.2,0.1,0.2,0.2S89.7,56,89.5,56h-0.1V57
			h0.1c0.1,0,0.2,0.1,0.2,0.2S89.7,57.5,89.5,57.5z"/>
	</g>
	<g>
		<path d="M94.9,54.7c-0.1,0-0.2-0.1-0.2-0.2V53c0-0.1,0.1-0.2,0.2-0.2s0.2,0.1,0.2,0.2v1.4C95.2,54.5,95.1,54.7,94.9,54.7z"/>
	</g>
	<g>
		<path d="M95.2,54.7h-0.2c-0.1,0-0.2-0.1-0.2-0.2c0-0.1,0.1-0.2,0.2-0.2v-0.9c-0.1,0-0.2-0.1-0.2-0.2c0-0.1,0.1-0.2,0.2-0.2h0.2
			c0.1,0,0.2,0.1,0.2,0.2v1.4C95.4,54.5,95.3,54.7,95.2,54.7z"/>
	</g>
	<g>
		<path d="M89.5,54.7c-0.1,0-0.2-0.1-0.2-0.2V53c0-0.1,0.1-0.2,0.2-0.2s0.2,0.1,0.2,0.2v1.4C89.8,54.5,89.7,54.7,89.5,54.7z"/>
	</g>
	<g>
		<path d="M89.5,54.7h-0.3c-0.1,0-0.2-0.1-0.2-0.2V53c0-0.1,0.1-0.2,0.2-0.2h0.3c0.1,0,0.2,0.1,0.2,0.2s-0.1,0.2-0.2,0.2h-0.1v0.9
			h0.1c0.1,0,0.2,0.1,0.2,0.2S89.7,54.7,89.5,54.7z"/>
	</g>
	<g>
		<path d="M251.1,78.4c-0.5,0-0.8-0.4-0.8-0.8s0.4-0.8,0.8-0.8s0.8,0.4,0.8,0.8S251.5,78.4,251.1,78.4z M251.1,77.2
			c-0.2,0-0.3,0.1-0.3,0.3s0.1,0.3,0.3,0.3s0.3-0.1,0.3-0.3S251.2,77.2,251.1,77.2z"/>
	</g>
	<g>
		<path d="M251.1,78.7c-0.7,0-1.2-0.5-1.2-1.2s0.5-1.2,1.2-1.2s1.2,0.5,1.2,1.2S251.7,78.7,251.1,78.7z M251.1,76.9
			c-0.4,0-0.7,0.3-0.7,0.7s0.3,0.7,0.7,0.7s0.7-0.3,0.7-0.7S251.4,76.9,251.1,76.9z"/>
	</g>
	<g>
		<path d="M258.9,78.4c-0.5,0-0.8-0.4-0.8-0.8s0.4-0.8,0.8-0.8s0.8,0.4,0.8,0.8S259.3,78.4,258.9,78.4z M258.9,77.2
			c-0.2,0-0.3,0.1-0.3,0.3s0.1,0.3,0.3,0.3c0.2,0,0.3-0.1,0.3-0.3S259,77.2,258.9,77.2z"/>
	</g>
	<g>
		<path d="M258.9,78.7c-0.7,0-1.2-0.5-1.2-1.2s0.5-1.2,1.2-1.2c0.7,0,1.2,0.5,1.2,1.2S259.5,78.7,258.9,78.7z M258.9,76.9
			c-0.4,0-0.7,0.3-0.7,0.7s0.3,0.7,0.7,0.7s0.7-0.3,0.7-0.7S259.2,76.9,258.9,76.9z"/>
	</g>
	<g>
		<path d="M261.1,81.2h-0.2c-0.1,0-0.2-0.1-0.2-0.2s0.1-0.2,0.2-0.2h0.2c0.1,0,0.2,0.1,0.2,0.2S261.2,81.2,261.1,81.2z"/>
	</g>
	<g>
		<path d="M261.1,74.4h-0.2c-0.1,0-0.2-0.1-0.2-0.2s0.1-0.2,0.2-0.2h0.2c0.1,0,0.2,0.1,0.2,0.2S261.2,74.4,261.1,74.4z"/>
	</g>
	<g>
		<path d="M262.7,74.3h-1.7c-0.3,0-0.5-0.2-0.5-0.5s0.2-0.5,0.5-0.5h1.7c0.3,0,0.5,0.2,0.5,0.5S263,74.3,262.7,74.3z"/>
	</g>
	<g>
		<path d="M262.7,81.7h-1.7c-0.3,0-0.5-0.2-0.5-0.5s0.2-0.5,0.5-0.5h1.2v-6.9c0-0.3,0.2-0.5,0.5-0.5s0.5,0.2,0.5,0.5v7.4
			C263.2,81.5,263,81.7,262.7,81.7z"/>
	</g>
	<g>
		<path d="M261.1,78.7h-0.2c-0.1,0-0.2-0.1-0.2-0.2s0.1-0.2,0.2-0.2h0.2c0.1,0,0.2,0.1,0.2,0.2S261.2,78.7,261.1,78.7z"/>
	</g>
	<g>
		<path d="M261.1,79.5h-0.2c-0.1,0-0.2-0.1-0.2-0.2s0.1-0.2,0.2-0.2h0.2c0.1,0,0.2,0.1,0.2,0.2S261.2,79.5,261.1,79.5z"/>
	</g>
	<g>
		<path d="M261.1,77h-0.2c-0.1,0-0.2-0.1-0.2-0.2s0.1-0.2,0.2-0.2h0.2c0.1,0,0.2,0.1,0.2,0.2S261.2,77,261.1,77z"/>
	</g>
	<g>
		<path d="M261.1,76.1h-0.2c-0.1,0-0.2-0.1-0.2-0.2s0.1-0.2,0.2-0.2h0.2c0.1,0,0.2,0.1,0.2,0.2S261.2,76.1,261.1,76.1z"/>
	</g>
	<g>
		<path d="M261.1,81.5c-0.1,0-0.2-0.1-0.2-0.2v-7.4c0-0.1,0.1-0.2,0.2-0.2s0.2,0.1,0.2,0.2v7.4C261.3,81.4,261.2,81.5,261.1,81.5z"
			/>
	</g>
	<g>
		<path d="M71.6,58.2c0,1.2,1,2.1,2.1,2.1c1.2,0,2.1-1,2.1-2.1c0-1.2-1-2.1-2.1-2.1C72.6,56,71.6,57,71.6,58.2"/>
	</g>
	<g>
		<path d="M73.8,63.4c-2.9,0-5.2-2.3-5.2-5.2s2.3-5.2,5.2-5.2s5.2,2.3,5.2,5.2S76.6,63.4,73.8,63.4z M73.8,53.5
			c-2.6,0-4.7,2.1-4.7,4.7c0,2.6,2.1,4.7,4.7,4.7c2.6,0,4.7-2.1,4.7-4.7C78.5,55.6,76.4,53.5,73.8,53.5z"/>
	</g>
	<g>
		<path d="M236.1,58.2c0,1.2,1,2.1,2.1,2.1c1.2,0,2.1-1,2.1-2.1c0-1.2-1-2.1-2.1-2.1C237.1,56,236.1,57,236.1,58.2"/>
	</g>
	<g>
		<path d="M238.2,63.4c-2.9,0-5.2-2.3-5.2-5.2s2.3-5.2,5.2-5.2s5.2,2.3,5.2,5.2S241.1,63.4,238.2,63.4z M238.2,53.5
			c-2.6,0-4.7,2.1-4.7,4.7c0,2.6,2.1,4.7,4.7,4.7c2.6,0,4.7-2.1,4.7-4.7C242.9,55.6,240.8,53.5,238.2,53.5z"/>
	</g>
	<g>
		<path d="M70.4,201.2c-0.1,0-0.2-0.1-0.2-0.2v-9.9c0-0.1,0.1-0.2,0.2-0.2s0.2,0.1,0.2,0.2v9.9C70.6,201.1,70.5,201.2,70.4,201.2z"
			/>
	</g>
	<g>
		<path d="M258.9,78.8c-0.7,0-1.3-0.6-1.3-1.3s0.6-1.3,1.3-1.3s1.3,0.6,1.3,1.3S259.6,78.8,258.9,78.8z M258.9,76.7
			c-0.4,0-0.8,0.4-0.8,0.8c0,0.4,0.4,0.8,0.8,0.8c0.4,0,0.8-0.4,0.8-0.8C259.7,77.1,259.3,76.7,258.9,76.7z"/>
	</g>
	<g>
		<path d="M251.1,78.8c-0.7,0-1.3-0.6-1.3-1.3s0.6-1.3,1.3-1.3s1.3,0.6,1.3,1.3S251.8,78.8,251.1,78.8z M251.1,76.7
			c-0.4,0-0.8,0.4-0.8,0.8c0,0.4,0.4,0.8,0.8,0.8s0.8-0.4,0.8-0.8C251.9,77.1,251.5,76.7,251.1,76.7z"/>
	</g>
	<g>
		<path d="M238.2,64.4c-3.4,0-6.2-2.8-6.2-6.2s2.8-6.2,6.2-6.2s6.2,2.8,6.2,6.2S241.7,64.4,238.2,64.4z M238.2,52.4
			c-3.2,0-5.7,2.6-5.7,5.7c0,3.2,2.6,5.7,5.7,5.7c3.2,0,5.7-2.6,5.7-5.7C243.9,55,241.4,52.4,238.2,52.4z"/>
	</g>
	<g>
		<path d="M238.2,67.2c-5,0-9-4-9-9s4-9,9-9s9,4,9,9S243.2,67.2,238.2,67.2z M238.2,50.1c-4.4,0-8,3.6-8,8s3.6,8,8,8s8-3.6,8-8
			S242.6,50.1,238.2,50.1z"/>
	</g>
	<g>
		<path d="M192.5,55.5c0-0.8-0.6-1.4-1.4-1.4c-0.8,0-1.4,0.6-1.4,1.4s0.6,1.4,1.4,1.4C191.8,56.9,192.5,56.2,192.5,55.5"/>
	</g>
	<g>
		<path d="M185.3,55.5c0-0.8-0.6-1.4-1.4-1.4s-1.4,0.6-1.4,1.4s0.6,1.4,1.4,1.4S185.3,56.2,185.3,55.5"/>
	</g>
	<g>
		<path d="M178.1,55.5c0-0.8-0.6-1.4-1.4-1.4c-0.8,0-1.4,0.6-1.4,1.4s0.6,1.4,1.4,1.4C177.4,56.9,178.1,56.2,178.1,55.5"/>
	</g>
	<g>
		<path d="M170.9,55.5c0-0.8-0.6-1.4-1.4-1.4s-1.4,0.6-1.4,1.4s0.6,1.4,1.4,1.4S170.9,56.2,170.9,55.5"/>
	</g>
	<g>
		<path d="M163.7,55.5c0-0.8-0.6-1.4-1.4-1.4s-1.4,0.6-1.4,1.4s0.6,1.4,1.4,1.4S163.7,56.2,163.7,55.5"/>
	</g>
	<g>
		<path d="M156.5,55.5c0-0.8-0.6-1.4-1.4-1.4c-0.8,0-1.4,0.6-1.4,1.4s0.6,1.4,1.4,1.4C155.8,56.9,156.5,56.2,156.5,55.5"/>
	</g>
	<g>
		<path d="M149.3,55.5c0-0.8-0.6-1.4-1.4-1.4s-1.4,0.6-1.4,1.4s0.6,1.4,1.4,1.4S149.3,56.2,149.3,55.5"/>
	</g>
	<g>
		<path d="M142,55.5c0-0.8-0.6-1.4-1.4-1.4c-0.8,0-1.4,0.6-1.4,1.4s0.6,1.4,1.4,1.4C141.4,56.9,142,56.2,142,55.5"/>
	</g>
	<g>
		<path d="M134.8,55.5c0-0.8-0.6-1.4-1.4-1.4s-1.4,0.6-1.4,1.4s0.6,1.4,1.4,1.4S134.8,56.2,134.8,55.5"/>
	</g>
	<g>
		<path d="M127.6,55.5c0-0.8-0.6-1.4-1.4-1.4s-1.4,0.6-1.4,1.4s0.6,1.4,1.4,1.4S127.6,56.2,127.6,55.5"/>
	</g>
	<g>
		<path d="M73.8,64.4c-3.4,0-6.2-2.8-6.2-6.2s2.8-6.2,6.2-6.2s6.2,2.8,6.2,6.2S77.2,64.4,73.8,64.4z M73.8,52.4
			c-3.2,0-5.7,2.6-5.7,5.7c0,3.2,2.6,5.7,5.7,5.7c3.2,0,5.7-2.6,5.7-5.7C79.5,55,76.9,52.4,73.8,52.4z"/>
	</g>
	<g>
		<path d="M73.8,67.2c-5,0-9-4-9-9s4-9,9-9s9,4,9,9S78.7,67.2,73.8,67.2z M73.8,50.1c-4.4,0-8,3.6-8,8s3.6,8,8,8s8-3.6,8-8
			S78.2,50.1,73.8,50.1z"/>
	</g>
	<path d="M167.3,194.4h-22.1c-1.1,0-1.9-0.9-1.9-1.9v-5.4c0-0.1,0.1-0.2,0.2-0.2H169c0.1,0,0.2,0.1,0.2,0.2v5.4
		C169.2,193.5,168.3,194.4,167.3,194.4z M143.7,187.3v5.1c0,0.8,0.6,1.4,1.4,1.4h22.1c0.8,0,1.4-0.6,1.4-1.4v-5.1H143.7z"/>
	<g>
		<g>
			<path d="M154.2,194.4c-0.1,0-0.2-0.1-0.2-0.2v-7c0-0.1,0.1-0.2,0.2-0.2s0.2,0.1,0.2,0.2v7C154.4,194.3,154.3,194.4,154.2,194.4z"
				/>
		</g>
		<g>
			<path d="M152.9,194.4c-0.1,0-0.2-0.1-0.2-0.2v-7c0-0.1,0.1-0.2,0.2-0.2s0.2,0.1,0.2,0.2v7C153.1,194.3,153,194.4,152.9,194.4z"/>
		</g>
		<g>
			<path d="M151.5,194.4c-0.1,0-0.2-0.1-0.2-0.2v-7c0-0.1,0.1-0.2,0.2-0.2s0.2,0.1,0.2,0.2v7C151.8,194.3,151.6,194.4,151.5,194.4z"
				/>
		</g>
		<g>
			<path d="M150.2,194.4c-0.1,0-0.2-0.1-0.2-0.2v-7c0-0.1,0.1-0.2,0.2-0.2s0.2,0.1,0.2,0.2v7C150.4,194.3,150.3,194.4,150.2,194.4z"
				/>
		</g>
		<g>
			<path d="M148.8,194.4c-0.1,0-0.2-0.1-0.2-0.2v-7c0-0.1,0.1-0.2,0.2-0.2s0.2,0.1,0.2,0.2v7C149.1,194.3,149,194.4,148.8,194.4z"/>
		</g>
		<g>
			<path d="M147.5,194.4c-0.1,0-0.2-0.1-0.2-0.2v-7c0-0.1,0.1-0.2,0.2-0.2s0.2,0.1,0.2,0.2v7C147.7,194.3,147.6,194.4,147.5,194.4z"
				/>
		</g>
		<g>
			<path d="M146.1,194.4c-0.1,0-0.2-0.1-0.2-0.2v-7c0-0.1,0.1-0.2,0.2-0.2s0.2,0.1,0.2,0.2v7C146.4,194.3,146.3,194.4,146.1,194.4z"
				/>
		</g>
		<g>
			<path d="M144.8,194.4c-0.1,0-0.2-0.1-0.2-0.2v-7c0-0.1,0.1-0.2,0.2-0.2s0.2,0.1,0.2,0.2v7C145,194.3,144.9,194.4,144.8,194.4z"/>
		</g>
		<g>
			<path d="M156.9,194.4c-0.1,0-0.2-0.1-0.2-0.2v-7c0-0.1,0.1-0.2,0.2-0.2s0.2,0.1,0.2,0.2v7C157.1,194.3,157,194.4,156.9,194.4z"/>
		</g>
		<g>
			<path d="M167.6,194.4c-0.1,0-0.2-0.1-0.2-0.2v-7c0-0.1,0.1-0.2,0.2-0.2s0.2,0.1,0.2,0.2v7C167.9,194.3,167.8,194.4,167.6,194.4z"
				/>
		</g>
		<g>
			<path d="M166.3,194.4c-0.1,0-0.2-0.1-0.2-0.2v-7c0-0.1,0.1-0.2,0.2-0.2s0.2,0.1,0.2,0.2v7C166.5,194.3,166.4,194.4,166.3,194.4z"
				/>
		</g>
		<g>
			<path d="M164.9,194.4c-0.1,0-0.2-0.1-0.2-0.2v-7c0-0.1,0.1-0.2,0.2-0.2s0.2,0.1,0.2,0.2v7C165.2,194.3,165.1,194.4,164.9,194.4z"
				/>
		</g>
		<g>
			<path d="M163.6,194.4c-0.1,0-0.2-0.1-0.2-0.2v-7c0-0.1,0.1-0.2,0.2-0.2s0.2,0.1,0.2,0.2v7C163.8,194.3,163.7,194.4,163.6,194.4z"
				/>
		</g>
		<g>
			<path d="M162.2,194.4c-0.1,0-0.2-0.1-0.2-0.2v-7c0-0.1,0.1-0.2,0.2-0.2s0.2,0.1,0.2,0.2v7C162.5,194.3,162.4,194.4,162.2,194.4z"
				/>
		</g>
		<g>
			<path d="M160.9,194.4c-0.1,0-0.2-0.1-0.2-0.2v-7c0-0.1,0.1-0.2,0.2-0.2s0.2,0.1,0.2,0.2v7C161.2,194.3,161,194.4,160.9,194.4z"/>
		</g>
		<g>
			<path d="M159.6,194.4c-0.1,0-0.2-0.1-0.2-0.2v-7c0-0.1,0.1-0.2,0.2-0.2s0.2,0.1,0.2,0.2v7C159.8,194.3,159.7,194.4,159.6,194.4z"
				/>
		</g>
		<g>
			<path d="M158.2,194.4c-0.1,0-0.2-0.1-0.2-0.2v-7c0-0.1,0.1-0.2,0.2-0.2s0.2,0.1,0.2,0.2v7C158.5,194.3,158.4,194.4,158.2,194.4z"
				/>
		</g>
		<g>
			<path d="M155.5,194.4c-0.1,0-0.2-0.1-0.2-0.2v-7c0-0.1,0.1-0.2,0.2-0.2s0.2,0.1,0.2,0.2v7C155.8,194.3,155.7,194.4,155.5,194.4z"
				/>
		</g>
	</g>
	<g>
		<g>
			<path d="M256.4,162.3c0-0.8-0.6-1.4-1.4-1.4s-1.4,0.6-1.4,1.4s0.6,1.4,1.4,1.4S256.4,163.1,256.4,162.3"/>
		</g>
		<g>
			<path d="M256.4,155.1c0-0.8-0.6-1.4-1.4-1.4s-1.4,0.6-1.4,1.4c0,0.8,0.6,1.4,1.4,1.4S256.4,155.9,256.4,155.1"/>
		</g>
		<g>
			<path d="M256.4,147.9c0-0.8-0.6-1.4-1.4-1.4s-1.4,0.6-1.4,1.4s0.6,1.4,1.4,1.4S256.4,148.7,256.4,147.9"/>
		</g>
		<g>
			<path d="M256.4,140.7c0-0.8-0.6-1.4-1.4-1.4s-1.4,0.6-1.4,1.4c0,0.8,0.6,1.4,1.4,1.4S256.4,141.5,256.4,140.7"/>
		</g>
		<g>
			<path d="M256.4,133.5c0-0.8-0.6-1.4-1.4-1.4s-1.4,0.6-1.4,1.4s0.6,1.4,1.4,1.4S256.4,134.3,256.4,133.5"/>
		</g>
		<g>
			<path d="M256.4,126.3c0-0.8-0.6-1.4-1.4-1.4s-1.4,0.6-1.4,1.4c0,0.8,0.6,1.4,1.4,1.4S256.4,127.1,256.4,126.3"/>
		</g>
		<g>
			<path d="M256.4,119.1c0-0.8-0.6-1.4-1.4-1.4s-1.4,0.6-1.4,1.4c0,0.8,0.6,1.4,1.4,1.4S256.4,119.9,256.4,119.1"/>
		</g>
		<g>
			<path d="M256.4,111.9c0-0.8-0.6-1.4-1.4-1.4s-1.4,0.6-1.4,1.4c0,0.8,0.6,1.4,1.4,1.4S256.4,112.7,256.4,111.9"/>
		</g>
		<g>
			<path d="M256.4,104.7c0-0.8-0.6-1.4-1.4-1.4s-1.4,0.6-1.4,1.4c0,0.8,0.6,1.4,1.4,1.4S256.4,105.5,256.4,104.7"/>
		</g>
		<g>
			<path d="M256.4,97.5c0-0.8-0.6-1.4-1.4-1.4s-1.4,0.6-1.4,1.4s0.6,1.4,1.4,1.4S256.4,98.3,256.4,97.5"/>
		</g>
		<g>
			<path d="M58.3,162.3c0-0.8-0.6-1.4-1.4-1.4c-0.8,0-1.4,0.6-1.4,1.4s0.6,1.4,1.4,1.4C57.6,163.7,58.3,163.1,58.3,162.3"/>
		</g>
		<g>
			<path d="M56.8,165.4c-1.7,0-3.1-1.4-3.1-3.1c0-1.7,1.4-3.1,3.1-3.1c1.7,0,3.1,1.4,3.1,3.1C59.9,164,58.5,165.4,56.8,165.4z
				 M56.8,159.7c-1.4,0-2.6,1.2-2.6,2.6s1.2,2.6,2.6,2.6s2.6-1.2,2.6-2.6S58.3,159.7,56.8,159.7z"/>
		</g>
		<g>
			<path d="M58.3,155.1c0-0.8-0.6-1.4-1.4-1.4c-0.8,0-1.4,0.6-1.4,1.4c0,0.8,0.6,1.4,1.4,1.4C57.6,156.5,58.3,155.9,58.3,155.1"/>
		</g>
		<g>
			<path d="M56.8,158.2c-1.7,0-3.1-1.4-3.1-3.1s1.4-3.1,3.1-3.1c1.7,0,3.1,1.4,3.1,3.1S58.5,158.2,56.8,158.2z M56.8,152.5
				c-1.4,0-2.6,1.2-2.6,2.6s1.2,2.6,2.6,2.6s2.6-1.2,2.6-2.6S58.3,152.5,56.8,152.5z"/>
		</g>
		<g>
			<path d="M58.3,147.9c0-0.8-0.6-1.4-1.4-1.4c-0.8,0-1.4,0.6-1.4,1.4s0.6,1.4,1.4,1.4C57.6,149.3,58.3,148.7,58.3,147.9"/>
		</g>
		<g>
			<path d="M56.8,151c-1.7,0-3.1-1.4-3.1-3.1c0-1.7,1.4-3.1,3.1-3.1c1.7,0,3.1,1.4,3.1,3.1C59.9,149.6,58.5,151,56.8,151z
				 M56.8,145.3c-1.4,0-2.6,1.2-2.6,2.6s1.2,2.6,2.6,2.6s2.6-1.2,2.6-2.6S58.3,145.3,56.8,145.3z"/>
		</g>
		<g>
			<path d="M56.8,143.8c-1.7,0-3.1-1.4-3.1-3.1s1.4-3.1,3.1-3.1c1.7,0,3.1,1.4,3.1,3.1S58.5,143.8,56.8,143.8z M56.8,138.1
				c-1.4,0-2.6,1.2-2.6,2.6s1.2,2.6,2.6,2.6s2.6-1.2,2.6-2.6S58.3,138.1,56.8,138.1z"/>
		</g>
		<g>
			<path d="M58.3,133.5c0-0.8-0.6-1.4-1.4-1.4c-0.8,0-1.4,0.6-1.4,1.4s0.6,1.4,1.4,1.4C57.6,134.9,58.3,134.3,58.3,133.5"/>
		</g>
		<g>
			<path d="M56.8,136.6c-1.7,0-3.1-1.4-3.1-3.1c0-1.7,1.4-3.1,3.1-3.1c1.7,0,3.1,1.4,3.1,3.1C59.9,135.2,58.5,136.6,56.8,136.6z
				 M56.8,130.9c-1.4,0-2.6,1.2-2.6,2.6s1.2,2.6,2.6,2.6s2.6-1.2,2.6-2.6S58.3,130.9,56.8,130.9z"/>
		</g>
		<g>
			<path d="M58.3,126.3c0-0.8-0.6-1.4-1.4-1.4c-0.8,0-1.4,0.6-1.4,1.4c0,0.8,0.6,1.4,1.4,1.4C57.6,127.7,58.3,127.1,58.3,126.3"/>
		</g>
		<g>
			<path d="M58.3,119.1c0-0.8-0.6-1.4-1.4-1.4c-0.8,0-1.4,0.6-1.4,1.4c0,0.8,0.6,1.4,1.4,1.4C57.6,120.5,58.3,119.9,58.3,119.1"/>
		</g>
		<g>
			<path d="M56.8,122.2c-1.7,0-3.1-1.4-3.1-3.1s1.4-3.1,3.1-3.1c1.7,0,3.1,1.4,3.1,3.1S58.5,122.2,56.8,122.2z M56.8,116.5
				c-1.4,0-2.6,1.2-2.6,2.6s1.2,2.6,2.6,2.6s2.6-1.2,2.6-2.6S58.3,116.5,56.8,116.5z"/>
		</g>
		<g>
			<path d="M58.3,111.9c0-0.8-0.6-1.4-1.4-1.4c-0.8,0-1.4,0.6-1.4,1.4c0,0.8,0.6,1.4,1.4,1.4C57.6,113.3,58.3,112.7,58.3,111.9"/>
		</g>
		<g>
			<path d="M56.8,115c-1.7,0-3.1-1.4-3.1-3.1c0-1.7,1.4-3.1,3.1-3.1c1.7,0,3.1,1.4,3.1,3.1C59.9,113.6,58.5,115,56.8,115z
				 M56.8,109.3c-1.4,0-2.6,1.2-2.6,2.6s1.2,2.6,2.6,2.6s2.6-1.2,2.6-2.6S58.3,109.3,56.8,109.3z"/>
		</g>
		<g>
			<path d="M58.3,104.7c0-0.8-0.6-1.4-1.4-1.4c-0.8,0-1.4,0.6-1.4,1.4c0,0.8,0.6,1.4,1.4,1.4C57.6,106.1,58.3,105.5,58.3,104.7"/>
		</g>
		<g>
			<path d="M56.8,107.8c-1.7,0-3.1-1.4-3.1-3.1s1.4-3.1,3.1-3.1c1.7,0,3.1,1.4,3.1,3.1S58.5,107.8,56.8,107.8z M56.8,102.1
				c-1.4,0-2.6,1.2-2.6,2.6s1.2,2.6,2.6,2.6s2.6-1.2,2.6-2.6S58.3,102.1,56.8,102.1z"/>
		</g>
		<g>
			<path d="M58.3,97.5c0-0.8-0.6-1.4-1.4-1.4c-0.8,0-1.4,0.6-1.4,1.4s0.6,1.4,1.4,1.4C57.6,98.9,58.3,98.3,58.3,97.5"/>
		</g>
		<g>
			<path d="M58.3,140.7c0-0.8-0.6-1.4-1.4-1.4c-0.8,0-1.4,0.6-1.4,1.4c0,0.8,0.6,1.4,1.4,1.4C57.6,142.1,58.3,141.5,58.3,140.7"/>
		</g>
		<g>
			<path d="M56.8,129.4c-1.7,0-3.1-1.4-3.1-3.1c0-1.7,1.4-3.1,3.1-3.1c1.7,0,3.1,1.4,3.1,3.1C59.9,128,58.5,129.4,56.8,129.4z
				 M56.8,123.7c-1.4,0-2.6,1.2-2.6,2.6s1.2,2.6,2.6,2.6s2.6-1.2,2.6-2.6S58.3,123.7,56.8,123.7z"/>
		</g>
		<g>
			<path d="M59.7,100.6H54c-0.1,0-0.2-0.1-0.2-0.2v-5.7c0-0.1,0.1-0.2,0.2-0.2h5.7c0.1,0,0.2,0.1,0.2,0.2v5.7
				C59.9,100.5,59.8,100.6,59.7,100.6z M54.3,100.1h5.2v-5.2h-5.2V100.1z"/>
		</g>
		<g>
			<path d="M255,165.4c-1.7,0-3.1-1.4-3.1-3.1c0-1.7,1.4-3.1,3.1-3.1c1.7,0,3.1,1.4,3.1,3.1C258.1,164,256.7,165.4,255,165.4z
				 M255,159.7c-1.4,0-2.6,1.2-2.6,2.6s1.2,2.6,2.6,2.6c1.4,0,2.6-1.2,2.6-2.6S256.5,159.7,255,159.7z"/>
		</g>
		<g>
			<path d="M255,158.2c-1.7,0-3.1-1.4-3.1-3.1s1.4-3.1,3.1-3.1c1.7,0,3.1,1.4,3.1,3.1S256.7,158.2,255,158.2z M255,152.5
				c-1.4,0-2.6,1.2-2.6,2.6s1.2,2.6,2.6,2.6c1.4,0,2.6-1.2,2.6-2.6S256.5,152.5,255,152.5z"/>
		</g>
		<g>
			<path d="M255,151c-1.7,0-3.1-1.4-3.1-3.1c0-1.7,1.4-3.1,3.1-3.1c1.7,0,3.1,1.4,3.1,3.1C258.1,149.6,256.7,151,255,151z
				 M255,145.3c-1.4,0-2.6,1.2-2.6,2.6s1.2,2.6,2.6,2.6c1.4,0,2.6-1.2,2.6-2.6S256.5,145.3,255,145.3z"/>
		</g>
		<g>
			<path d="M255,143.8c-1.7,0-3.1-1.4-3.1-3.1s1.4-3.1,3.1-3.1c1.7,0,3.1,1.4,3.1,3.1S256.7,143.8,255,143.8z M255,138.1
				c-1.4,0-2.6,1.2-2.6,2.6s1.2,2.6,2.6,2.6c1.4,0,2.6-1.2,2.6-2.6S256.5,138.1,255,138.1z"/>
		</g>
		<g>
			<path d="M255,136.6c-1.7,0-3.1-1.4-3.1-3.1c0-1.7,1.4-3.1,3.1-3.1c1.7,0,3.1,1.4,3.1,3.1C258.1,135.2,256.7,136.6,255,136.6z
				 M255,130.9c-1.4,0-2.6,1.2-2.6,2.6s1.2,2.6,2.6,2.6c1.4,0,2.6-1.2,2.6-2.6S256.5,130.9,255,130.9z"/>
		</g>
		<g>
			<path d="M255,122.2c-1.7,0-3.1-1.4-3.1-3.1s1.4-3.1,3.1-3.1c1.7,0,3.1,1.4,3.1,3.1S256.7,122.2,255,122.2z M255,116.5
				c-1.4,0-2.6,1.2-2.6,2.6s1.2,2.6,2.6,2.6c1.4,0,2.6-1.2,2.6-2.6S256.5,116.5,255,116.5z"/>
		</g>
		<g>
			<path d="M255,115c-1.7,0-3.1-1.4-3.1-3.1c0-1.7,1.4-3.1,3.1-3.1c1.7,0,3.1,1.4,3.1,3.1C258.1,113.6,256.7,115,255,115z
				 M255,109.3c-1.4,0-2.6,1.2-2.6,2.6s1.2,2.6,2.6,2.6c1.4,0,2.6-1.2,2.6-2.6S256.5,109.3,255,109.3z"/>
		</g>
		<g>
			<path d="M255,107.8c-1.7,0-3.1-1.4-3.1-3.1s1.4-3.1,3.1-3.1c1.7,0,3.1,1.4,3.1,3.1S256.7,107.8,255,107.8z M255,102.1
				c-1.4,0-2.6,1.2-2.6,2.6s1.2,2.6,2.6,2.6c1.4,0,2.6-1.2,2.6-2.6S256.5,102.1,255,102.1z"/>
		</g>
		<g>
			<path d="M255,129.4c-1.7,0-3.1-1.4-3.1-3.1c0-1.7,1.4-3.1,3.1-3.1c1.7,0,3.1,1.4,3.1,3.1C258.1,128,256.7,129.4,255,129.4z
				 M255,123.7c-1.4,0-2.6,1.2-2.6,2.6s1.2,2.6,2.6,2.6c1.4,0,2.6-1.2,2.6-2.6S256.5,123.7,255,123.7z"/>
		</g>
		<g>
			<path d="M257.9,100.6h-5.7c-0.1,0-0.2-0.1-0.2-0.2v-5.7c0-0.1,0.1-0.2,0.2-0.2h5.7c0.1,0,0.2,0.1,0.2,0.2v5.7
				C258.1,100.5,258,100.6,257.9,100.6z M252.4,100.1h5.2v-5.2h-5.2V100.1z"/>
		</g>
	</g>
	<g>
		<path d="M193.9,58.5h-5.7c-0.1,0-0.2-0.1-0.2-0.2v-5.7c0-0.1,0.1-0.2,0.2-0.2h5.7c0.1,0,0.2,0.1,0.2,0.2v5.7
			C194.2,58.4,194,58.5,193.9,58.5z M188.5,58h5.2v-5.2h-5.2V58z"/>
	</g>
	<g>
		<path d="M183.9,58.5c-1.7,0-3.1-1.4-3.1-3.1c0-1.7,1.4-3.1,3.1-3.1c1.7,0,3.1,1.4,3.1,3.1C186.9,57.2,185.6,58.5,183.9,58.5z
			 M183.9,52.9c-1.4,0-2.6,1.2-2.6,2.6s1.2,2.6,2.6,2.6s2.6-1.2,2.6-2.6S185.3,52.9,183.9,52.9z"/>
	</g>
	<g>
		<path d="M176.7,58.5c-1.7,0-3.1-1.4-3.1-3.1c0-1.7,1.4-3.1,3.1-3.1c1.7,0,3.1,1.4,3.1,3.1C179.8,57.2,178.4,58.5,176.7,58.5z
			 M176.7,52.9c-1.4,0-2.6,1.2-2.6,2.6s1.2,2.6,2.6,2.6s2.6-1.2,2.6-2.6S178.1,52.9,176.7,52.9z"/>
	</g>
	<g>
		<path d="M169.5,58.5c-1.7,0-3.1-1.4-3.1-3.1c0-1.7,1.4-3.1,3.1-3.1c1.7,0,3.1,1.4,3.1,3.1C172.5,57.2,171.2,58.5,169.5,58.5z
			 M169.5,52.9c-1.4,0-2.6,1.2-2.6,2.6s1.2,2.6,2.6,2.6s2.6-1.2,2.6-2.6S170.9,52.9,169.5,52.9z"/>
	</g>
	<g>
		<path d="M162.3,58.5c-1.7,0-3.1-1.4-3.1-3.1c0-1.7,1.4-3.1,3.1-3.1s3.1,1.4,3.1,3.1C165.3,57.2,164,58.5,162.3,58.5z M162.3,52.9
			c-1.4,0-2.6,1.2-2.6,2.6s1.2,2.6,2.6,2.6s2.6-1.2,2.6-2.6S163.7,52.9,162.3,52.9z"/>
	</g>
	<g>
		<path d="M155.1,58.5c-1.7,0-3.1-1.4-3.1-3.1c0-1.7,1.4-3.1,3.1-3.1c1.7,0,3.1,1.4,3.1,3.1C158.2,57.2,156.8,58.5,155.1,58.5z
			 M155.1,52.9c-1.4,0-2.6,1.2-2.6,2.6s1.2,2.6,2.6,2.6s2.6-1.2,2.6-2.6S156.5,52.9,155.1,52.9z"/>
	</g>
	<g>
		<path d="M147.9,58.5c-1.7,0-3.1-1.4-3.1-3.1c0-1.7,1.4-3.1,3.1-3.1c1.7,0,3.1,1.4,3.1,3.1C150.9,57.2,149.6,58.5,147.9,58.5z
			 M147.9,52.9c-1.4,0-2.6,1.2-2.6,2.6s1.2,2.6,2.6,2.6s2.6-1.2,2.6-2.6S149.3,52.9,147.9,52.9z"/>
	</g>
	<g>
		<path d="M140.6,58.5c-1.7,0-3.1-1.4-3.1-3.1c0-1.7,1.4-3.1,3.1-3.1c1.7,0,3.1,1.4,3.1,3.1C143.7,57.2,142.3,58.5,140.6,58.5z
			 M140.6,52.9c-1.4,0-2.6,1.2-2.6,2.6s1.2,2.6,2.6,2.6s2.6-1.2,2.6-2.6S142,52.9,140.6,52.9z"/>
	</g>
	<g>
		<path d="M133.4,58.5c-1.7,0-3.1-1.4-3.1-3.1c0-1.7,1.4-3.1,3.1-3.1c1.7,0,3.1,1.4,3.1,3.1C136.5,57.2,135.1,58.5,133.4,58.5z
			 M133.4,52.9c-1.4,0-2.6,1.2-2.6,2.6s1.2,2.6,2.6,2.6s2.6-1.2,2.6-2.6S134.8,52.9,133.4,52.9z"/>
	</g>
	<g>
		<path d="M126.2,58.5c-1.7,0-3.1-1.4-3.1-3.1c0-1.7,1.4-3.1,3.1-3.1s3.1,1.4,3.1,3.1C129.3,57.2,127.9,58.5,126.2,58.5z
			 M126.2,52.9c-1.4,0-2.6,1.2-2.6,2.6s1.2,2.6,2.6,2.6s2.6-1.2,2.6-2.6S127.6,52.9,126.2,52.9z"/>
	</g>
	<g>
		<path d="M12.7,99.8h-0.5l0-0.5c-0.4,0.4-0.7,0.6-1.2,0.6c-0.9,0-1.4-0.6-1.4-1.4c0-0.6,0.2-1.2,0.6-1.7c0.4-0.5,1-0.7,1.6-0.7
			c0.8,0,1.4,0.4,1.4,1.1c0,0,0,0.1,0,0.2h-0.7c0-0.4-0.3-0.6-0.8-0.6c-0.4,0-0.8,0.2-1,0.6c-0.2,0.3-0.3,0.7-0.3,1.1
			c0,0.5,0.4,0.9,0.9,0.9c0.3,0,0.6-0.1,0.8-0.4c0.1-0.1,0.2-0.3,0.3-0.5h-0.8l0.1-0.6h1.5L12.7,99.8z"/>
		<path d="M14.6,99.8h-0.8l0.8-3.6h1.5c0.3,0,0.5,0.1,0.7,0.2c0.2,0.2,0.3,0.4,0.3,0.7c0,0.4-0.2,0.8-0.4,1.1
			c-0.3,0.3-0.6,0.4-1,0.4h-0.9L14.6,99.8z M15.8,97.8c0.3,0,0.4-0.1,0.6-0.3c0.1-0.1,0.1-0.3,0.1-0.4c0-0.2-0.2-0.4-0.5-0.4h-0.8
			l-0.2,1.1H15.8z"/>
		<path d="M18.4,99.8h-0.8l0.8-3.6h0.8L18.4,99.8z"/>
		<path d="M23.3,97.5c0,0.6-0.2,1.2-0.6,1.7c-0.4,0.5-0.9,0.7-1.6,0.7c-0.9,0-1.4-0.5-1.4-1.4c0-0.6,0.2-1.2,0.6-1.7
			c0.4-0.5,0.9-0.7,1.5-0.7C22.8,96.1,23.3,96.6,23.3,97.5z M20.8,97.2c-0.2,0.3-0.4,0.7-0.4,1.1c0,0.5,0.3,0.9,0.8,0.9
			c0.4,0,0.7-0.2,1-0.5c0.2-0.3,0.4-0.7,0.4-1.1c0-0.6-0.3-0.9-0.8-0.9C21.4,96.7,21.1,96.9,20.8,97.2z"/>
		<path d="M26.3,97.3l0.1-0.5c0.6,0,1-0.2,1.2-0.6h0.5l-0.8,3.5h-0.7l0.5-2.4H26.3z"/>
		<path d="M31.2,97c0-0.2-0.2-0.3-0.4-0.3c-0.3,0-0.5,0.2-0.6,0.5c-0.1,0.2-0.1,0.2-0.2,0.5c0.2-0.2,0.5-0.3,0.7-0.3
			c0.5,0,0.8,0.3,0.8,0.8c0,0.4-0.1,0.8-0.4,1.1c-0.3,0.4-0.7,0.6-1.1,0.6c-0.6,0-1-0.4-1-1c0-0.6,0.2-1.5,0.5-2
			c0.3-0.5,0.8-0.8,1.3-0.8c0.6,0,0.9,0.3,0.9,0.8c0,0,0,0.1,0,0.1H31.2z M29.8,98.8c0,0.3,0.2,0.4,0.4,0.4c0.4,0,0.7-0.4,0.7-0.9
			c0-0.3-0.2-0.4-0.4-0.4C30.1,98,29.8,98.4,29.8,98.8z"/>
	</g>
	<g>
		<path d="M12.7,106.9h-0.5l0-0.5c-0.4,0.4-0.7,0.6-1.2,0.6c-0.9,0-1.4-0.6-1.4-1.4c0-0.6,0.2-1.2,0.6-1.7c0.4-0.5,1-0.7,1.6-0.7
			c0.8,0,1.4,0.4,1.4,1.1c0,0,0,0.1,0,0.2h-0.7c0-0.4-0.3-0.6-0.8-0.6c-0.4,0-0.8,0.2-1,0.6c-0.2,0.3-0.3,0.7-0.3,1.1
			c0,0.5,0.4,0.9,0.9,0.9c0.3,0,0.6-0.1,0.8-0.4c0.1-0.1,0.2-0.3,0.3-0.5h-0.8l0.1-0.6h1.5L12.7,106.9z"/>
		<path d="M14.6,106.9h-0.8l0.8-3.6h1.5c0.3,0,0.5,0.1,0.7,0.2c0.2,0.2,0.3,0.4,0.3,0.7c0,0.4-0.2,0.8-0.4,1.1
			c-0.3,0.3-0.6,0.4-1,0.4h-0.9L14.6,106.9z M15.8,104.9c0.3,0,0.4-0.1,0.6-0.3c0.1-0.1,0.1-0.3,0.1-0.4c0-0.2-0.2-0.4-0.5-0.4h-0.8
			l-0.2,1.1H15.8z"/>
		<path d="M18.4,106.9h-0.8l0.8-3.6h0.8L18.4,106.9z"/>
		<path d="M23.3,104.6c0,0.6-0.2,1.2-0.6,1.7c-0.4,0.5-0.9,0.7-1.6,0.7c-0.9,0-1.4-0.5-1.4-1.4c0-0.6,0.2-1.2,0.6-1.7
			c0.4-0.5,0.9-0.7,1.5-0.7C22.8,103.2,23.3,103.7,23.3,104.6z M20.8,104.3c-0.2,0.3-0.4,0.7-0.4,1.1c0,0.5,0.3,0.9,0.8,0.9
			c0.4,0,0.7-0.2,1-0.5c0.2-0.3,0.4-0.7,0.4-1.1c0-0.6-0.3-0.9-0.8-0.9C21.4,103.8,21.1,104,20.8,104.3z"/>
		<path d="M28.5,104.2c0,0.5-0.2,1.4-0.4,1.8c-0.3,0.6-0.7,0.9-1.3,0.9c-0.6,0-1-0.4-1-1c0-0.5,0.2-1.4,0.4-1.8
			c0.3-0.6,0.7-0.9,1.3-0.9C28.2,103.2,28.5,103.6,28.5,104.2z M27,104.1c-0.2,0.3-0.4,1.4-0.4,1.9c0,0.3,0.2,0.4,0.4,0.4
			c0.3,0,0.5-0.2,0.6-0.7c0.1-0.5,0.3-1.1,0.3-1.5c0-0.3-0.2-0.4-0.4-0.4C27.3,103.8,27.1,103.9,27,104.1z"/>
		<path d="M30.3,104.8L30.3,104.8c0.5,0,0.8-0.3,0.8-0.7c0-0.2-0.2-0.4-0.4-0.4c-0.2,0-0.4,0.1-0.5,0.3c-0.1,0.1-0.1,0.2-0.1,0.4
			h-0.6c0.1-0.4,0.2-0.6,0.4-0.8c0.2-0.3,0.6-0.4,1-0.4c0.6,0,1,0.3,1,0.8c0,0.4-0.2,0.7-0.6,1c0.3,0.2,0.4,0.3,0.4,0.6
			c0,0.3-0.1,0.7-0.3,0.9c-0.3,0.3-0.7,0.5-1.1,0.5c-0.7,0-1-0.3-1-0.9c0-0.1,0-0.2,0-0.3h0.7l0,0.1v0.1c0,0.2,0.2,0.4,0.5,0.4
			c0.2,0,0.4-0.1,0.5-0.3c0.1-0.1,0.1-0.2,0.1-0.4c0-0.2-0.1-0.3-0.3-0.4c-0.1,0-0.1,0-0.4,0L30.3,104.8z"/>
	</g>
	<g>
		<path d="M12.7,114h-0.5l0-0.5c-0.4,0.4-0.7,0.6-1.2,0.6c-0.9,0-1.4-0.6-1.4-1.4c0-0.6,0.2-1.2,0.6-1.7c0.4-0.5,1-0.7,1.6-0.7
			c0.8,0,1.4,0.4,1.4,1.1c0,0,0,0.1,0,0.2h-0.7c0-0.4-0.3-0.6-0.8-0.6c-0.4,0-0.8,0.2-1,0.6c-0.2,0.3-0.3,0.7-0.3,1.1
			c0,0.5,0.4,0.9,0.9,0.9c0.3,0,0.6-0.1,0.8-0.4c0.1-0.1,0.2-0.3,0.3-0.5h-0.8l0.1-0.6h1.5L12.7,114z"/>
		<path d="M14.6,114h-0.8l0.8-3.6h1.5c0.3,0,0.5,0.1,0.7,0.2c0.2,0.2,0.3,0.4,0.3,0.7c0,0.4-0.2,0.8-0.4,1.1c-0.3,0.3-0.6,0.4-1,0.4
			h-0.9L14.6,114z M15.8,112.1c0.3,0,0.4-0.1,0.6-0.3c0.1-0.1,0.1-0.3,0.1-0.4c0-0.2-0.2-0.4-0.5-0.4h-0.8l-0.2,1.1H15.8z"/>
		<path d="M18.4,114h-0.8l0.8-3.6h0.8L18.4,114z"/>
		<path d="M23.3,111.7c0,0.6-0.2,1.2-0.6,1.7c-0.4,0.5-0.9,0.7-1.6,0.7c-0.9,0-1.4-0.5-1.4-1.4c0-0.6,0.2-1.2,0.6-1.7
			c0.4-0.5,0.9-0.7,1.5-0.7C22.8,110.3,23.3,110.8,23.3,111.7z M20.8,111.4c-0.2,0.3-0.4,0.7-0.4,1.1c0,0.5,0.3,0.9,0.8,0.9
			c0.4,0,0.7-0.2,1-0.5c0.2-0.3,0.4-0.7,0.4-1.1c0-0.6-0.3-0.9-0.8-0.9C21.4,110.9,21.1,111.1,20.8,111.4z"/>
		<path d="M28.5,111.4c0,0.5-0.2,1.4-0.4,1.8c-0.3,0.6-0.7,0.9-1.3,0.9c-0.6,0-1-0.4-1-1c0-0.5,0.2-1.4,0.4-1.8
			c0.3-0.6,0.7-0.9,1.3-0.9C28.2,110.4,28.5,110.7,28.5,111.4z M27,111.2c-0.2,0.3-0.4,1.4-0.4,1.9c0,0.3,0.2,0.4,0.4,0.4
			c0.3,0,0.5-0.2,0.6-0.7c0.1-0.5,0.3-1.1,0.3-1.5c0-0.3-0.2-0.4-0.4-0.4C27.3,110.9,27.1,111,27,111.2z"/>
		<path d="M31.3,114h-2.4c0.2-0.7,0.4-1,1.1-1.4c0.6-0.4,0.7-0.5,0.9-0.6c0.2-0.2,0.3-0.4,0.3-0.6c0-0.2-0.2-0.4-0.4-0.4
			c-0.4,0-0.6,0.3-0.6,0.8h-0.7c0.1-0.8,0.6-1.3,1.4-1.3c0.7,0,1,0.3,1,0.9c0,0.3-0.1,0.6-0.3,0.9c-0.2,0.2-0.3,0.3-0.8,0.6
			c-0.6,0.4-0.7,0.5-0.9,0.7h1.5L31.3,114z"/>
	</g>
	<g>
		<path d="M12.7,121.1h-0.5l0-0.5c-0.4,0.4-0.7,0.6-1.2,0.6c-0.9,0-1.4-0.6-1.4-1.4c0-0.6,0.2-1.2,0.6-1.7c0.4-0.5,1-0.7,1.6-0.7
			c0.8,0,1.4,0.4,1.4,1.1c0,0,0,0.1,0,0.2h-0.7c0-0.4-0.3-0.6-0.8-0.6c-0.4,0-0.8,0.2-1,0.6c-0.2,0.3-0.3,0.7-0.3,1.1
			c0,0.5,0.4,0.9,0.9,0.9c0.3,0,0.6-0.1,0.8-0.4c0.1-0.1,0.2-0.3,0.3-0.5h-0.8l0.1-0.6h1.5L12.7,121.1z"/>
		<path d="M14.6,121.1h-0.8l0.8-3.6h1.5c0.3,0,0.5,0.1,0.7,0.2c0.2,0.2,0.3,0.4,0.3,0.7c0,0.4-0.2,0.8-0.4,1.1
			c-0.3,0.3-0.6,0.4-1,0.4h-0.9L14.6,121.1z M15.8,119.2c0.3,0,0.4-0.1,0.6-0.3c0.1-0.1,0.1-0.3,0.1-0.4c0-0.2-0.2-0.4-0.5-0.4h-0.8
			l-0.2,1.1H15.8z"/>
		<path d="M18.4,121.1h-0.8l0.8-3.6h0.8L18.4,121.1z"/>
		<path d="M23.3,118.8c0,0.6-0.2,1.2-0.6,1.7c-0.4,0.5-0.9,0.7-1.6,0.7c-0.9,0-1.4-0.5-1.4-1.4c0-0.6,0.2-1.2,0.6-1.7
			c0.4-0.5,0.9-0.7,1.5-0.7C22.8,117.4,23.3,117.9,23.3,118.8z M20.8,118.5c-0.2,0.3-0.4,0.7-0.4,1.1c0,0.5,0.3,0.9,0.8,0.9
			c0.4,0,0.7-0.2,1-0.5c0.2-0.3,0.4-0.7,0.4-1.1c0-0.6-0.3-0.9-0.8-0.9C21.4,118,21.1,118.2,20.8,118.5z"/>
		<path d="M26.3,118.6l0.1-0.5c0.6,0,1-0.2,1.2-0.6h0.5l-0.8,3.5h-0.7l0.5-2.4H26.3z"/>
		<path d="M31.5,120.3h-0.4l-0.2,0.8h-0.7l0.2-0.8H29l0.1-0.6l1.8-2.2h0.8l-0.5,2.2h0.4L31.5,120.3z M30.9,118.2l-1.2,1.5h0.9
			L30.9,118.2z"/>
	</g>
	<g>
		<path d="M12.7,128.2h-0.5l0-0.5c-0.4,0.4-0.7,0.6-1.2,0.6c-0.9,0-1.4-0.6-1.4-1.4c0-0.6,0.2-1.2,0.6-1.7c0.4-0.5,1-0.7,1.6-0.7
			c0.8,0,1.4,0.4,1.4,1.1c0,0,0,0.1,0,0.2h-0.7c0-0.4-0.3-0.6-0.8-0.6c-0.4,0-0.8,0.2-1,0.6c-0.2,0.3-0.3,0.7-0.3,1.1
			c0,0.5,0.4,0.9,0.9,0.9c0.3,0,0.6-0.1,0.8-0.4c0.1-0.1,0.2-0.3,0.3-0.5h-0.8l0.1-0.6h1.5L12.7,128.2z"/>
		<path d="M14.6,128.2h-0.8l0.8-3.6h1.5c0.3,0,0.5,0.1,0.7,0.2c0.2,0.2,0.3,0.4,0.3,0.7c0,0.4-0.2,0.8-0.4,1.1
			c-0.3,0.3-0.6,0.4-1,0.4h-0.9L14.6,128.2z M15.8,126.3c0.3,0,0.4-0.1,0.6-0.3c0.1-0.1,0.1-0.3,0.1-0.4c0-0.2-0.2-0.4-0.5-0.4h-0.8
			l-0.2,1.1H15.8z"/>
		<path d="M18.4,128.2h-0.8l0.8-3.6h0.8L18.4,128.2z"/>
		<path d="M23.3,125.9c0,0.6-0.2,1.2-0.6,1.7c-0.4,0.5-0.9,0.7-1.6,0.7c-0.9,0-1.4-0.5-1.4-1.4c0-0.6,0.2-1.2,0.6-1.7
			c0.4-0.5,0.9-0.7,1.5-0.7C22.8,124.5,23.3,125,23.3,125.9z M20.8,125.7c-0.2,0.3-0.4,0.7-0.4,1.1c0,0.5,0.3,0.9,0.8,0.9
			c0.4,0,0.7-0.2,1-0.5c0.2-0.3,0.4-0.7,0.4-1.1c0-0.6-0.3-0.9-0.8-0.9C21.4,125.1,21.1,125.3,20.8,125.7z"/>
		<path d="M26.3,125.8l0.1-0.5c0.6,0,1-0.2,1.2-0.6h0.5l-0.8,3.5h-0.7l0.5-2.4H26.3z"/>
		<path d="M31.8,125.3h-1.5l-0.3,0.7c0.2-0.2,0.4-0.2,0.7-0.2c0.5,0,0.9,0.3,0.9,0.9c0,0.4-0.1,0.7-0.3,1c-0.3,0.4-0.7,0.6-1.2,0.6
			c-0.6,0-1-0.3-1-0.8c0-0.1,0-0.1,0-0.2h0.7c0,0,0,0.1,0,0.1c0,0.2,0.2,0.3,0.4,0.3c0.4,0,0.7-0.4,0.7-0.9c0-0.3-0.2-0.5-0.5-0.5
			c-0.2,0-0.4,0.1-0.5,0.3h-0.6l0.7-2H32L31.8,125.3z"/>
	</g>
	<g>
		<path d="M12.7,135.3h-0.5l0-0.5c-0.4,0.4-0.7,0.6-1.2,0.6c-0.9,0-1.4-0.6-1.4-1.4c0-0.6,0.2-1.2,0.6-1.7c0.4-0.5,1-0.7,1.6-0.7
			c0.8,0,1.4,0.4,1.4,1.1c0,0,0,0.1,0,0.2h-0.7c0-0.4-0.3-0.6-0.8-0.6c-0.4,0-0.8,0.2-1,0.6c-0.2,0.3-0.3,0.7-0.3,1.1
			c0,0.5,0.4,0.9,0.9,0.9c0.3,0,0.6-0.1,0.8-0.4c0.1-0.1,0.2-0.3,0.3-0.5h-0.8l0.1-0.6h1.5L12.7,135.3z"/>
		<path d="M14.6,135.3h-0.8l0.8-3.6h1.5c0.3,0,0.5,0.1,0.7,0.2c0.2,0.2,0.3,0.4,0.3,0.7c0,0.4-0.2,0.8-0.4,1.1
			c-0.3,0.3-0.6,0.4-1,0.4h-0.9L14.6,135.3z M15.8,133.4c0.3,0,0.4-0.1,0.6-0.3c0.1-0.1,0.1-0.3,0.1-0.4c0-0.2-0.2-0.4-0.5-0.4h-0.8
			l-0.2,1.1H15.8z"/>
		<path d="M18.4,135.3h-0.8l0.8-3.6h0.8L18.4,135.3z"/>
		<path d="M23.3,133c0,0.6-0.2,1.2-0.6,1.7c-0.4,0.5-0.9,0.7-1.6,0.7c-0.9,0-1.4-0.5-1.4-1.4c0-0.6,0.2-1.2,0.6-1.7
			c0.4-0.5,0.9-0.7,1.5-0.7C22.8,131.6,23.3,132.1,23.3,133z M20.8,132.8c-0.2,0.3-0.4,0.7-0.4,1.1c0,0.5,0.3,0.9,0.8,0.9
			c0.4,0,0.7-0.2,1-0.5c0.2-0.3,0.4-0.7,0.4-1.1c0-0.6-0.3-0.9-0.8-0.9C21.4,132.2,21.1,132.4,20.8,132.8z"/>
		<path d="M26.3,132.9l0.1-0.5c0.6,0,1-0.2,1.2-0.6h0.5l-0.8,3.5h-0.7l0.5-2.4H26.3z"/>
		<path d="M31.6,134.1c0,0.3-0.2,0.7-0.4,1c-0.3,0.3-0.7,0.4-1.1,0.4c-0.7,0-1.1-0.3-1.1-0.9c0-0.3,0.1-0.6,0.3-0.8
			c0.1-0.1,0.3-0.2,0.5-0.4c-0.2-0.2-0.3-0.3-0.3-0.5c0-0.6,0.6-1.1,1.3-1.1c0.6,0,1,0.3,1,0.8c0,0.2-0.1,0.5-0.3,0.7
			c-0.1,0.1-0.2,0.2-0.3,0.2C31.5,133.6,31.6,133.8,31.6,134.1z M29.8,134.4c0,0.2,0.2,0.4,0.5,0.4c0.4,0,0.7-0.3,0.7-0.7
			c0-0.3-0.2-0.4-0.5-0.4C30.1,133.7,29.8,134,29.8,134.4z M30.1,132.8c0,0.2,0.2,0.4,0.4,0.4c0.4,0,0.6-0.3,0.6-0.6
			c0-0.2-0.2-0.4-0.5-0.4C30.4,132.3,30.1,132.5,30.1,132.8z"/>
	</g>
	<g>
		<path d="M28,139.5h-1.5l-0.3,0.7c0.2-0.2,0.4-0.2,0.7-0.2c0.5,0,0.9,0.3,0.9,0.9c0,0.4-0.1,0.7-0.3,1c-0.3,0.4-0.7,0.6-1.2,0.6
			c-0.6,0-1-0.3-1-0.8c0-0.1,0-0.1,0-0.2h0.7c0,0,0,0.1,0,0.1c0,0.2,0.2,0.3,0.4,0.3c0.4,0,0.7-0.4,0.7-0.9c0-0.3-0.2-0.5-0.5-0.5
			c-0.2,0-0.4,0.1-0.5,0.3h-0.6l0.7-2h1.9L28,139.5z"/>
		<path d="M29.6,142.4l-0.5-3.6h0.8l0.2,2.7l1.4-2.7h0.8l-2,3.6H29.6z"/>
	</g>
	<g>
		<path d="M23.2,147.5L23.2,147.5c0.5,0,0.8-0.3,0.8-0.7c0-0.2-0.2-0.4-0.4-0.4c-0.2,0-0.4,0.1-0.5,0.3c0,0.1-0.1,0.2-0.1,0.4h-0.6
			c0.1-0.4,0.2-0.6,0.4-0.8c0.2-0.3,0.6-0.4,1-0.4c0.6,0,1,0.3,1,0.8c0,0.4-0.2,0.7-0.6,1c0.3,0.2,0.4,0.3,0.4,0.6
			c0,0.3-0.1,0.7-0.3,0.9c-0.3,0.3-0.7,0.5-1.1,0.5c-0.7,0-1-0.3-1-0.9c0-0.1,0-0.2,0-0.3h0.7l0,0.1v0.1c0,0.2,0.2,0.4,0.5,0.4
			c0.2,0,0.4-0.1,0.5-0.3c0.1-0.1,0.1-0.2,0.1-0.4c0-0.2-0.1-0.3-0.3-0.4c-0.1,0-0.1,0-0.4,0L23.2,147.5z"/>
		<path d="M26.3,149.5l-0.5-3.6h0.8l0.2,2.7l1.4-2.7h0.8l-2,3.6H26.3z"/>
		<path d="M30.3,147.5L30.3,147.5c0.5,0,0.8-0.3,0.8-0.7c0-0.2-0.2-0.4-0.4-0.4c-0.2,0-0.4,0.1-0.5,0.3c-0.1,0.1-0.1,0.2-0.1,0.4
			h-0.6c0.1-0.4,0.2-0.6,0.4-0.8c0.2-0.3,0.6-0.4,1-0.4c0.6,0,1,0.3,1,0.8c0,0.4-0.2,0.7-0.6,1c0.3,0.2,0.4,0.3,0.4,0.6
			c0,0.3-0.1,0.7-0.3,0.9c-0.3,0.3-0.7,0.5-1.1,0.5c-0.7,0-1-0.3-1-0.9c0-0.1,0-0.2,0-0.3h0.7l0,0.1v0.1c0,0.2,0.2,0.4,0.5,0.4
			c0.2,0,0.4-0.1,0.5-0.3c0.1-0.1,0.1-0.2,0.1-0.4c0-0.2-0.1-0.3-0.3-0.4c-0.1,0-0.1,0-0.4,0L30.3,147.5z"/>
	</g>
	<g>
		<path d="M23,156.7h-0.5l0-0.5c-0.4,0.4-0.7,0.6-1.2,0.6c-0.9,0-1.4-0.6-1.4-1.4c0-0.6,0.2-1.2,0.6-1.7c0.4-0.5,1-0.7,1.6-0.7
			c0.8,0,1.4,0.4,1.4,1.1c0,0,0,0.1,0,0.2h-0.7c0-0.4-0.3-0.6-0.8-0.6c-0.4,0-0.8,0.2-1,0.6c-0.2,0.3-0.3,0.7-0.3,1.1
			c0,0.5,0.4,0.9,0.9,0.9c0.3,0,0.6-0.1,0.8-0.4c0.1-0.1,0.2-0.3,0.3-0.5h-0.8l0.1-0.6h1.5L23,156.7z"/>
		<path d="M27.1,156.7h-0.7l-1-2.6l-0.6,2.6h-0.7l0.8-3.6h0.8l1,2.6l0.5-2.6h0.7L27.1,156.7z"/>
		<path d="M29.1,153h1.4c0.9,0,1.3,0.4,1.3,1.3c0,0.6-0.2,1.2-0.6,1.7c-0.4,0.5-0.8,0.7-1.5,0.7h-1.4L29.1,153z M29.9,156
			c0.4,0,0.7-0.1,0.9-0.5c0.2-0.3,0.3-0.8,0.3-1.2c0-0.5-0.2-0.7-0.7-0.7h-0.7l-0.5,2.4H29.9z"/>
	</g>
	<g>
		<path d="M23,163.8h-0.5l0-0.5c-0.4,0.4-0.7,0.6-1.2,0.6c-0.9,0-1.4-0.6-1.4-1.4c0-0.6,0.2-1.2,0.6-1.7c0.4-0.5,1-0.7,1.6-0.7
			c0.8,0,1.4,0.4,1.4,1.1c0,0,0,0.1,0,0.2h-0.7c0-0.4-0.3-0.6-0.8-0.6c-0.4,0-0.8,0.2-1,0.6c-0.2,0.3-0.3,0.7-0.3,1.1
			c0,0.5,0.4,0.9,0.9,0.9c0.3,0,0.6-0.1,0.8-0.4c0.1-0.1,0.2-0.3,0.3-0.5h-0.8l0.1-0.6h1.5L23,163.8z"/>
		<path d="M27.1,163.8h-0.7l-1-2.6l-0.6,2.6h-0.7l0.8-3.6h0.8l1,2.6l0.5-2.6h0.7L27.1,163.8z"/>
		<path d="M29.1,160.1h1.4c0.9,0,1.3,0.4,1.3,1.3c0,0.6-0.2,1.2-0.6,1.7c-0.4,0.5-0.8,0.7-1.5,0.7h-1.4L29.1,160.1z M29.9,163.1
			c0.4,0,0.7-0.1,0.9-0.5c0.2-0.3,0.3-0.8,0.3-1.2c0-0.5-0.2-0.7-0.7-0.7h-0.7l-0.5,2.4H29.9z"/>
	</g>
	<g>
		<path d="M283.6,99.8h-0.5l0-0.5c-0.4,0.4-0.7,0.6-1.2,0.6c-0.9,0-1.4-0.6-1.4-1.4c0-0.6,0.2-1.2,0.6-1.7c0.4-0.5,1-0.7,1.6-0.7
			c0.8,0,1.4,0.4,1.4,1.1c0,0,0,0.1,0,0.2h-0.7c0-0.4-0.3-0.6-0.8-0.6c-0.4,0-0.8,0.2-1,0.6c-0.2,0.3-0.3,0.7-0.3,1.1
			c0,0.5,0.4,0.9,0.9,0.9c0.3,0,0.6-0.1,0.8-0.4c0.1-0.1,0.2-0.3,0.3-0.5h-0.8l0.1-0.6h1.5L283.6,99.8z"/>
		<path d="M285.6,99.8h-0.8l0.8-3.6h1.5c0.3,0,0.5,0.1,0.7,0.2c0.2,0.2,0.3,0.4,0.3,0.7c0,0.4-0.2,0.8-0.4,1.1
			c-0.3,0.3-0.6,0.4-1,0.4h-0.9L285.6,99.8z M286.7,97.8c0.3,0,0.4-0.1,0.6-0.3c0.1-0.1,0.1-0.3,0.1-0.4c0-0.2-0.2-0.4-0.5-0.4h-0.8
			l-0.2,1.1H286.7z"/>
		<path d="M289.3,99.8h-0.8l0.8-3.6h0.8L289.3,99.8z"/>
		<path d="M294.3,97.5c0,0.6-0.2,1.2-0.6,1.7c-0.4,0.5-0.9,0.7-1.6,0.7c-0.9,0-1.4-0.5-1.4-1.4c0-0.6,0.2-1.2,0.6-1.7
			c0.4-0.5,0.9-0.7,1.5-0.7C293.7,96.1,294.3,96.6,294.3,97.5z M291.8,97.2c-0.2,0.3-0.4,0.7-0.4,1.1c0,0.5,0.3,0.9,0.8,0.9
			c0.4,0,0.7-0.2,1-0.5c0.2-0.3,0.4-0.7,0.4-1.1c0-0.6-0.3-0.9-0.8-0.9C292.3,96.7,292,96.9,291.8,97.2z"/>
		<path d="M299.5,97.1c0,0.5-0.2,1.4-0.4,1.8c-0.3,0.6-0.7,0.9-1.3,0.9c-0.6,0-1-0.4-1-1c0-0.5,0.2-1.4,0.4-1.8
			c0.3-0.6,0.7-0.9,1.3-0.9C299.1,96.1,299.5,96.5,299.5,97.1z M297.9,97c-0.2,0.3-0.4,1.4-0.4,1.9c0,0.3,0.1,0.4,0.4,0.4
			c0.3,0,0.5-0.2,0.6-0.7c0.1-0.5,0.3-1.1,0.3-1.5c0-0.3-0.2-0.4-0.4-0.4C298.2,96.7,298,96.8,297.9,97z"/>
		<path d="M302.1,97c0-0.2-0.2-0.3-0.4-0.3c-0.3,0-0.5,0.2-0.6,0.5c-0.1,0.2-0.1,0.2-0.2,0.5c0.3-0.2,0.5-0.3,0.7-0.3
			c0.5,0,0.8,0.3,0.8,0.8c0,0.4-0.1,0.8-0.4,1.1c-0.3,0.4-0.7,0.6-1.1,0.6c-0.6,0-1-0.4-1-1c0-0.6,0.2-1.5,0.5-2
			c0.3-0.5,0.8-0.8,1.3-0.8c0.6,0,0.9,0.3,0.9,0.8c0,0,0,0.1,0,0.1H302.1z M300.8,98.8c0,0.3,0.2,0.4,0.4,0.4c0.4,0,0.7-0.4,0.7-0.9
			c0-0.3-0.2-0.4-0.4-0.4C301.1,98,300.8,98.4,300.8,98.8z"/>
	</g>
	<g>
		<path d="M283.6,106.9h-0.5l0-0.5c-0.4,0.4-0.7,0.6-1.2,0.6c-0.9,0-1.4-0.6-1.4-1.4c0-0.6,0.2-1.2,0.6-1.7c0.4-0.5,1-0.7,1.6-0.7
			c0.8,0,1.4,0.4,1.4,1.1c0,0,0,0.1,0,0.2h-0.7c0-0.4-0.3-0.6-0.8-0.6c-0.4,0-0.8,0.2-1,0.6c-0.2,0.3-0.3,0.7-0.3,1.1
			c0,0.5,0.4,0.9,0.9,0.9c0.3,0,0.6-0.1,0.8-0.4c0.1-0.1,0.2-0.3,0.3-0.5h-0.8l0.1-0.6h1.5L283.6,106.9z"/>
		<path d="M285.6,106.9h-0.8l0.8-3.6h1.5c0.3,0,0.5,0.1,0.7,0.2c0.2,0.2,0.3,0.4,0.3,0.7c0,0.4-0.2,0.8-0.4,1.1
			c-0.3,0.3-0.6,0.4-1,0.4h-0.9L285.6,106.9z M286.7,104.9c0.3,0,0.4-0.1,0.6-0.3c0.1-0.1,0.1-0.3,0.1-0.4c0-0.2-0.2-0.4-0.5-0.4
			h-0.8l-0.2,1.1H286.7z"/>
		<path d="M289.3,106.9h-0.8l0.8-3.6h0.8L289.3,106.9z"/>
		<path d="M294.3,104.6c0,0.6-0.2,1.2-0.6,1.7c-0.4,0.5-0.9,0.7-1.6,0.7c-0.9,0-1.4-0.5-1.4-1.4c0-0.6,0.2-1.2,0.6-1.7
			c0.4-0.5,0.9-0.7,1.5-0.7C293.7,103.2,294.3,103.7,294.3,104.6z M291.8,104.3c-0.2,0.3-0.4,0.7-0.4,1.1c0,0.5,0.3,0.9,0.8,0.9
			c0.4,0,0.7-0.2,1-0.5c0.2-0.3,0.4-0.7,0.4-1.1c0-0.6-0.3-0.9-0.8-0.9C292.3,103.8,292,104,291.8,104.3z"/>
		<path d="M297.3,104.4l0.1-0.5c0.6,0,1-0.2,1.2-0.6h0.5l-0.8,3.5h-0.7l0.5-2.4H297.3z"/>
		<path d="M301.2,104.8L301.2,104.8c0.5,0,0.8-0.3,0.8-0.7c0-0.2-0.2-0.4-0.4-0.4c-0.2,0-0.4,0.1-0.5,0.3c0,0.1-0.1,0.2-0.1,0.4
			h-0.6c0.1-0.4,0.2-0.6,0.4-0.8c0.2-0.3,0.6-0.4,1-0.4c0.6,0,1,0.3,1,0.8c0,0.4-0.2,0.7-0.6,1c0.3,0.2,0.4,0.3,0.4,0.6
			c0,0.3-0.1,0.7-0.3,0.9c-0.3,0.3-0.7,0.5-1.1,0.5c-0.7,0-1-0.3-1-0.9c0-0.1,0-0.2,0-0.3h0.7l0,0.1v0.1c0,0.2,0.2,0.4,0.5,0.4
			c0.2,0,0.4-0.1,0.5-0.3c0.1-0.1,0.1-0.2,0.1-0.4c0-0.2-0.1-0.3-0.3-0.4c-0.1,0-0.1,0-0.4,0L301.2,104.8z"/>
	</g>
	<g>
		<path d="M283.6,114h-0.5l0-0.5c-0.4,0.4-0.7,0.6-1.2,0.6c-0.9,0-1.4-0.6-1.4-1.4c0-0.6,0.2-1.2,0.6-1.7c0.4-0.5,1-0.7,1.6-0.7
			c0.8,0,1.4,0.4,1.4,1.1c0,0,0,0.1,0,0.2h-0.7c0-0.4-0.3-0.6-0.8-0.6c-0.4,0-0.8,0.2-1,0.6c-0.2,0.3-0.3,0.7-0.3,1.1
			c0,0.5,0.4,0.9,0.9,0.9c0.3,0,0.6-0.1,0.8-0.4c0.1-0.1,0.2-0.3,0.3-0.5h-0.8l0.1-0.6h1.5L283.6,114z"/>
		<path d="M285.6,114h-0.8l0.8-3.6h1.5c0.3,0,0.5,0.1,0.7,0.2c0.2,0.2,0.3,0.4,0.3,0.7c0,0.4-0.2,0.8-0.4,1.1
			c-0.3,0.3-0.6,0.4-1,0.4h-0.9L285.6,114z M286.7,112.1c0.3,0,0.4-0.1,0.6-0.3c0.1-0.1,0.1-0.3,0.1-0.4c0-0.2-0.2-0.4-0.5-0.4h-0.8
			l-0.2,1.1H286.7z"/>
		<path d="M289.3,114h-0.8l0.8-3.6h0.8L289.3,114z"/>
		<path d="M294.3,111.7c0,0.6-0.2,1.2-0.6,1.7c-0.4,0.5-0.9,0.7-1.6,0.7c-0.9,0-1.4-0.5-1.4-1.4c0-0.6,0.2-1.2,0.6-1.7
			c0.4-0.5,0.9-0.7,1.5-0.7C293.7,110.3,294.3,110.8,294.3,111.7z M291.8,111.4c-0.2,0.3-0.4,0.7-0.4,1.1c0,0.5,0.3,0.9,0.8,0.9
			c0.4,0,0.7-0.2,1-0.5c0.2-0.3,0.4-0.7,0.4-1.1c0-0.6-0.3-0.9-0.8-0.9C292.3,110.9,292,111.1,291.8,111.4z"/>
		<path d="M297.3,111.5l0.1-0.5c0.6,0,1-0.2,1.2-0.6h0.5l-0.8,3.5h-0.7l0.5-2.4H297.3z"/>
		<path d="M300.7,113.2C300.7,113.2,300.7,113.2,300.7,113.2c0,0.2,0.2,0.3,0.4,0.3c0.3,0,0.5-0.1,0.6-0.4c0.1-0.1,0.1-0.3,0.2-0.5
			c-0.3,0.2-0.5,0.3-0.7,0.3c-0.5,0-0.8-0.3-0.8-0.9c0-0.9,0.6-1.6,1.5-1.6c0.6,0,1,0.4,1,1c0,0.6-0.2,1.4-0.5,1.9
			c-0.3,0.5-0.7,0.8-1.3,0.8c-0.5,0-0.9-0.3-0.9-0.8c0,0,0-0.1,0-0.2H300.7z M301,111.8c0,0.3,0.2,0.4,0.4,0.4
			c0.4,0,0.7-0.4,0.7-0.9c0-0.3-0.2-0.5-0.5-0.5C301.3,110.9,301,111.3,301,111.8z"/>
	</g>
	<g>
		<path d="M283.6,121.1h-0.5l0-0.5c-0.4,0.4-0.7,0.6-1.2,0.6c-0.9,0-1.4-0.6-1.4-1.4c0-0.6,0.2-1.2,0.6-1.7c0.4-0.5,1-0.7,1.6-0.7
			c0.8,0,1.4,0.4,1.4,1.1c0,0,0,0.1,0,0.2h-0.7c0-0.4-0.3-0.6-0.8-0.6c-0.4,0-0.8,0.2-1,0.6c-0.2,0.3-0.3,0.7-0.3,1.1
			c0,0.5,0.4,0.9,0.9,0.9c0.3,0,0.6-0.1,0.8-0.4c0.1-0.1,0.2-0.3,0.3-0.5h-0.8l0.1-0.6h1.5L283.6,121.1z"/>
		<path d="M285.6,121.1h-0.8l0.8-3.6h1.5c0.3,0,0.5,0.1,0.7,0.2c0.2,0.2,0.3,0.4,0.3,0.7c0,0.4-0.2,0.8-0.4,1.1
			c-0.3,0.3-0.6,0.4-1,0.4h-0.9L285.6,121.1z M286.7,119.2c0.3,0,0.4-0.1,0.6-0.3c0.1-0.1,0.1-0.3,0.1-0.4c0-0.2-0.2-0.4-0.5-0.4
			h-0.8l-0.2,1.1H286.7z"/>
		<path d="M289.3,121.1h-0.8l0.8-3.6h0.8L289.3,121.1z"/>
		<path d="M294.3,118.8c0,0.6-0.2,1.2-0.6,1.7c-0.4,0.5-0.9,0.7-1.6,0.7c-0.9,0-1.4-0.5-1.4-1.4c0-0.6,0.2-1.2,0.6-1.7
			c0.4-0.5,0.9-0.7,1.5-0.7C293.7,117.4,294.3,117.9,294.3,118.8z M291.8,118.5c-0.2,0.3-0.4,0.7-0.4,1.1c0,0.5,0.3,0.9,0.8,0.9
			c0.4,0,0.7-0.2,1-0.5c0.2-0.3,0.4-0.7,0.4-1.1c0-0.6-0.3-0.9-0.8-0.9C292.3,118,292,118.2,291.8,118.5z"/>
		<path d="M299,121.1h-2.4c0.2-0.7,0.4-1,1.1-1.4c0.6-0.4,0.7-0.5,0.9-0.6c0.2-0.2,0.3-0.4,0.3-0.6c0-0.2-0.2-0.4-0.4-0.4
			c-0.4,0-0.6,0.3-0.6,0.8h-0.7c0.1-0.8,0.6-1.3,1.4-1.3c0.7,0,1,0.3,1,0.9c0,0.3-0.1,0.6-0.3,0.9c-0.2,0.2-0.3,0.3-0.8,0.6
			c-0.6,0.4-0.7,0.5-0.9,0.7h1.5L299,121.1z"/>
		<path d="M302.1,118.4c0-0.2-0.2-0.3-0.4-0.3c-0.3,0-0.5,0.2-0.6,0.5c-0.1,0.2-0.1,0.2-0.2,0.5c0.3-0.2,0.5-0.3,0.7-0.3
			c0.5,0,0.8,0.3,0.8,0.8c0,0.4-0.1,0.8-0.4,1.1c-0.3,0.4-0.7,0.6-1.1,0.6c-0.6,0-1-0.4-1-1c0-0.6,0.2-1.5,0.5-2
			c0.3-0.5,0.8-0.8,1.3-0.8c0.6,0,0.9,0.3,0.9,0.8c0,0,0,0.1,0,0.1H302.1z M300.8,120.2c0,0.3,0.2,0.4,0.4,0.4
			c0.4,0,0.7-0.4,0.7-0.9c0-0.3-0.2-0.4-0.4-0.4C301.1,119.3,300.8,119.7,300.8,120.2z"/>
	</g>
	<g>
		<path d="M283.6,128.2h-0.5l0-0.5c-0.4,0.4-0.7,0.6-1.2,0.6c-0.9,0-1.4-0.6-1.4-1.4c0-0.6,0.2-1.2,0.6-1.7c0.4-0.5,1-0.7,1.6-0.7
			c0.8,0,1.4,0.4,1.4,1.1c0,0,0,0.1,0,0.2h-0.7c0-0.4-0.3-0.6-0.8-0.6c-0.4,0-0.8,0.2-1,0.6c-0.2,0.3-0.3,0.7-0.3,1.1
			c0,0.5,0.4,0.9,0.9,0.9c0.3,0,0.6-0.1,0.8-0.4c0.1-0.1,0.2-0.3,0.3-0.5h-0.8l0.1-0.6h1.5L283.6,128.2z"/>
		<path d="M285.6,128.2h-0.8l0.8-3.6h1.5c0.3,0,0.5,0.1,0.7,0.2c0.2,0.2,0.3,0.4,0.3,0.7c0,0.4-0.2,0.8-0.4,1.1
			c-0.3,0.3-0.6,0.4-1,0.4h-0.9L285.6,128.2z M286.7,126.3c0.3,0,0.4-0.1,0.6-0.3c0.1-0.1,0.1-0.3,0.1-0.4c0-0.2-0.2-0.4-0.5-0.4
			h-0.8l-0.2,1.1H286.7z"/>
		<path d="M289.3,128.2h-0.8l0.8-3.6h0.8L289.3,128.2z"/>
		<path d="M294.3,125.9c0,0.6-0.2,1.2-0.6,1.7c-0.4,0.5-0.9,0.7-1.6,0.7c-0.9,0-1.4-0.5-1.4-1.4c0-0.6,0.2-1.2,0.6-1.7
			c0.4-0.5,0.9-0.7,1.5-0.7C293.7,124.5,294.3,125,294.3,125.9z M291.8,125.7c-0.2,0.3-0.4,0.7-0.4,1.1c0,0.5,0.3,0.9,0.8,0.9
			c0.4,0,0.7-0.2,1-0.5c0.2-0.3,0.4-0.7,0.4-1.1c0-0.6-0.3-0.9-0.8-0.9C292.3,125.1,292,125.3,291.8,125.7z"/>
		<path d="M299,128.2h-2.4c0.2-0.7,0.4-1,1.1-1.4c0.6-0.4,0.7-0.5,0.9-0.6c0.2-0.2,0.3-0.4,0.3-0.6c0-0.2-0.2-0.4-0.4-0.4
			c-0.4,0-0.6,0.3-0.6,0.8h-0.7c0.1-0.8,0.6-1.3,1.4-1.3c0.7,0,1,0.3,1,0.9c0,0.3-0.1,0.6-0.3,0.9c-0.2,0.2-0.3,0.3-0.8,0.6
			c-0.6,0.4-0.7,0.5-0.9,0.7h1.5L299,128.2z"/>
		<path d="M300.5,125.8l0.1-0.5c0.6,0,1-0.2,1.2-0.6h0.5l-0.8,3.5h-0.7l0.5-2.4H300.5z"/>
	</g>
	<g>
		<path d="M283.6,135.3h-0.5l0-0.5c-0.4,0.4-0.7,0.6-1.2,0.6c-0.9,0-1.4-0.6-1.4-1.4c0-0.6,0.2-1.2,0.6-1.7c0.4-0.5,1-0.7,1.6-0.7
			c0.8,0,1.4,0.4,1.4,1.1c0,0,0,0.1,0,0.2h-0.7c0-0.4-0.3-0.6-0.8-0.6c-0.4,0-0.8,0.2-1,0.6c-0.2,0.3-0.3,0.7-0.3,1.1
			c0,0.5,0.4,0.9,0.9,0.9c0.3,0,0.6-0.1,0.8-0.4c0.1-0.1,0.2-0.3,0.3-0.5h-0.8l0.1-0.6h1.5L283.6,135.3z"/>
		<path d="M285.6,135.3h-0.8l0.8-3.6h1.5c0.3,0,0.5,0.1,0.7,0.2c0.2,0.2,0.3,0.4,0.3,0.7c0,0.4-0.2,0.8-0.4,1.1
			c-0.3,0.3-0.6,0.4-1,0.4h-0.9L285.6,135.3z M286.7,133.4c0.3,0,0.4-0.1,0.6-0.3c0.1-0.1,0.1-0.3,0.1-0.4c0-0.2-0.2-0.4-0.5-0.4
			h-0.8l-0.2,1.1H286.7z"/>
		<path d="M289.3,135.3h-0.8l0.8-3.6h0.8L289.3,135.3z"/>
		<path d="M294.3,133c0,0.6-0.2,1.2-0.6,1.7c-0.4,0.5-0.9,0.7-1.6,0.7c-0.9,0-1.4-0.5-1.4-1.4c0-0.6,0.2-1.2,0.6-1.7
			c0.4-0.5,0.9-0.7,1.5-0.7C293.7,131.6,294.3,132.1,294.3,133z M291.8,132.8c-0.2,0.3-0.4,0.7-0.4,1.1c0,0.5,0.3,0.9,0.8,0.9
			c0.4,0,0.7-0.2,1-0.5c0.2-0.3,0.4-0.7,0.4-1.1c0-0.6-0.3-0.9-0.8-0.9C292.3,132.2,292,132.4,291.8,132.8z"/>
		<path d="M299,135.3h-2.4c0.2-0.7,0.4-1,1.1-1.4c0.6-0.4,0.7-0.5,0.9-0.6c0.2-0.2,0.3-0.4,0.3-0.6c0-0.2-0.2-0.4-0.4-0.4
			c-0.4,0-0.6,0.3-0.6,0.8h-0.7c0.1-0.8,0.6-1.3,1.4-1.3c0.7,0,1,0.3,1,0.9c0,0.3-0.1,0.6-0.3,0.9c-0.2,0.2-0.3,0.3-0.8,0.6
			c-0.6,0.4-0.7,0.5-0.9,0.7h1.5L299,135.3z"/>
		<path d="M302.8,132.7c0,0.5-0.2,1.4-0.4,1.8c-0.3,0.6-0.7,0.9-1.3,0.9c-0.6,0-1-0.4-1-1c0-0.5,0.2-1.4,0.4-1.8
			c0.3-0.6,0.7-0.9,1.3-0.9C302.4,131.7,302.8,132.1,302.8,132.7z M301.2,132.5c-0.2,0.3-0.4,1.4-0.4,1.9c0,0.3,0.2,0.4,0.4,0.4
			c0.3,0,0.5-0.2,0.6-0.7c0.1-0.5,0.3-1.1,0.3-1.5c0-0.3-0.2-0.4-0.4-0.4C301.5,132.3,301.3,132.3,301.2,132.5z"/>
	</g>
	<g>
		<path d="M281.6,140.4L281.6,140.4c0.5,0,0.8-0.3,0.8-0.7c0-0.2-0.2-0.4-0.4-0.4c-0.2,0-0.4,0.1-0.5,0.3c-0.1,0.1-0.1,0.2-0.1,0.4
			h-0.6c0.1-0.4,0.2-0.6,0.4-0.8c0.2-0.3,0.6-0.4,1-0.4c0.6,0,1,0.3,1,0.8c0,0.4-0.2,0.7-0.6,1c0.3,0.2,0.4,0.3,0.4,0.6
			c0,0.3-0.1,0.7-0.3,0.9c-0.3,0.3-0.7,0.5-1.1,0.5c-0.7,0-1-0.3-1-0.9c0-0.1,0-0.2,0-0.3h0.7l0,0.1v0.1c0,0.2,0.2,0.4,0.5,0.4
			c0.2,0,0.4-0.1,0.5-0.3c0.1-0.1,0.1-0.2,0.1-0.4c0-0.2-0.1-0.3-0.3-0.4c-0.1,0-0.1,0-0.4,0L281.6,140.4z"/>
		<path d="M284.7,142.4l-0.5-3.6h0.8l0.2,2.7l1.4-2.7h0.8l-2,3.6H284.7z"/>
		<path d="M288.7,140.4L288.7,140.4c0.5,0,0.8-0.3,0.8-0.7c0-0.2-0.2-0.4-0.4-0.4c-0.2,0-0.4,0.1-0.5,0.3c0,0.1-0.1,0.2-0.1,0.4
			h-0.6c0.1-0.4,0.2-0.6,0.4-0.8c0.2-0.3,0.6-0.4,1-0.4c0.6,0,1,0.3,1,0.8c0,0.4-0.2,0.7-0.6,1c0.3,0.2,0.4,0.3,0.4,0.6
			c0,0.3-0.1,0.7-0.3,0.9c-0.3,0.3-0.7,0.5-1.1,0.5c-0.7,0-1-0.3-1-0.9c0-0.1,0-0.2,0-0.3h0.7l0,0.1v0.1c0,0.2,0.2,0.4,0.5,0.4
			c0.2,0,0.4-0.1,0.5-0.3c0.1-0.1,0.1-0.2,0.1-0.4c0-0.2-0.1-0.3-0.3-0.4c-0.1,0-0.1,0-0.4,0L288.7,140.4z"/>
	</g>
	<g>
		<path d="M283.1,146.6h-1.5l-0.3,0.7c0.2-0.2,0.4-0.2,0.7-0.2c0.5,0,0.9,0.3,0.9,0.9c0,0.4-0.1,0.7-0.3,1c-0.3,0.4-0.7,0.6-1.2,0.6
			c-0.6,0-1-0.3-1-0.8c0-0.1,0-0.1,0-0.2h0.7c0,0,0,0.1,0,0.1c0,0.2,0.2,0.3,0.4,0.3c0.4,0,0.7-0.4,0.7-0.9c0-0.3-0.2-0.5-0.5-0.5
			c-0.2,0-0.4,0.1-0.5,0.3h-0.6l0.7-2h1.9L283.1,146.6z"/>
		<path d="M284.7,149.5l-0.5-3.6h0.8l0.2,2.7l1.4-2.7h0.8l-2,3.6H284.7z"/>
	</g>
	<g>
		<path d="M283.6,156.7h-0.5l0-0.5c-0.4,0.4-0.7,0.6-1.2,0.6c-0.9,0-1.4-0.6-1.4-1.4c0-0.6,0.2-1.2,0.6-1.7c0.4-0.5,1-0.7,1.6-0.7
			c0.8,0,1.4,0.4,1.4,1.1c0,0,0,0.1,0,0.2h-0.7c0-0.4-0.3-0.6-0.8-0.6c-0.4,0-0.8,0.2-1,0.6c-0.2,0.3-0.3,0.7-0.3,1.1
			c0,0.5,0.4,0.9,0.9,0.9c0.3,0,0.6-0.1,0.8-0.4c0.1-0.1,0.2-0.3,0.3-0.5h-0.8l0.1-0.6h1.5L283.6,156.7z"/>
		<path d="M287.8,156.7H287l-1-2.6l-0.6,2.6h-0.7l0.8-3.6h0.8l1,2.6l0.5-2.6h0.7L287.8,156.7z"/>
		<path d="M289.7,153h1.4c0.9,0,1.3,0.4,1.3,1.3c0,0.6-0.2,1.2-0.6,1.7c-0.4,0.5-0.8,0.7-1.5,0.7h-1.4L289.7,153z M290.5,156
			c0.4,0,0.7-0.1,0.9-0.5c0.2-0.3,0.3-0.8,0.3-1.2c0-0.5-0.2-0.7-0.7-0.7h-0.7l-0.5,2.4H290.5z"/>
	</g>
	<g>
		<path d="M283.6,163.8h-0.5l0-0.5c-0.4,0.4-0.7,0.6-1.2,0.6c-0.9,0-1.4-0.6-1.4-1.4c0-0.6,0.2-1.2,0.6-1.7c0.4-0.5,1-0.7,1.6-0.7
			c0.8,0,1.4,0.4,1.4,1.1c0,0,0,0.1,0,0.2h-0.7c0-0.4-0.3-0.6-0.8-0.6c-0.4,0-0.8,0.2-1,0.6c-0.2,0.3-0.3,0.7-0.3,1.1
			c0,0.5,0.4,0.9,0.9,0.9c0.3,0,0.6-0.1,0.8-0.4c0.1-0.1,0.2-0.3,0.3-0.5h-0.8l0.1-0.6h1.5L283.6,163.8z"/>
		<path d="M287.8,163.8H287l-1-2.6l-0.6,2.6h-0.7l0.8-3.6h0.8l1,2.6l0.5-2.6h0.7L287.8,163.8z"/>
		<path d="M289.7,160.1h1.4c0.9,0,1.3,0.4,1.3,1.3c0,0.6-0.2,1.2-0.6,1.7c-0.4,0.5-0.8,0.7-1.5,0.7h-1.4L289.7,160.1z M290.5,163.1
			c0.4,0,0.7-0.1,0.9-0.5c0.2-0.3,0.3-0.8,0.3-1.2c0-0.5-0.2-0.7-0.7-0.7h-0.7l-0.5,2.4H290.5z"/>
	</g>
	<g>
		<polygon points="126.5,49.9 126,49.9 126,37 136.1,26.8 136.5,27.2 126.5,37.2 		"/>
	</g>
	<g>
		<path d="M127.4,49.8c0-0.6-0.5-1.1-1.1-1.1s-1.1,0.5-1.1,1.1s0.5,1.1,1.1,1.1S127.4,50.4,127.4,49.8S127.4,50.4,127.4,49.8z
			 M125.5,49.8c0-0.4,0.4-0.8,0.8-0.8s0.8,0.4,0.8,0.8s-0.4,0.8-0.8,0.8S125.5,50.3,125.5,49.8S125.5,50.3,125.5,49.8z"/>
	</g>
	<g>
		<polygon points="133.8,49.9 133.3,49.9 133.3,37 143.3,26.8 143.7,27.2 133.8,37.2 		"/>
	</g>
	<g>
		<path d="M134.6,49.8c0-0.6-0.5-1.1-1.1-1.1s-1.1,0.5-1.1,1.1s0.5,1.1,1.1,1.1S134.6,50.4,134.6,49.8S134.6,50.4,134.6,49.8z
			 M132.7,49.8c0-0.4,0.4-0.8,0.8-0.8s0.8,0.4,0.8,0.8s-0.4,0.8-0.8,0.8S132.7,50.3,132.7,49.8S132.7,50.3,132.7,49.8z"/>
	</g>
	<g>
		<polygon points="141,49.9 140.5,49.9 140.5,37 150.6,26.8 150.9,27.2 141,37.2 		"/>
	</g>
	<g>
		<path d="M141.8,49.8c0-0.6-0.5-1.1-1.1-1.1c-0.6,0-1.1,0.5-1.1,1.1s0.5,1.1,1.1,1.1C141.3,50.9,141.8,50.4,141.8,49.8
			S141.8,50.4,141.8,49.8z M139.9,49.8c0-0.4,0.4-0.8,0.8-0.8s0.8,0.4,0.8,0.8s-0.4,0.8-0.8,0.8S139.9,50.3,139.9,49.8
			S139.9,50.3,139.9,49.8z"/>
	</g>
	<g>
		<polygon points="148.2,49.9 147.7,49.9 147.7,37 157.8,26.8 158.1,27.2 148.2,37.2 		"/>
	</g>
	<g>
		<path d="M149,49.8c0-0.6-0.5-1.1-1.1-1.1s-1.1,0.5-1.1,1.1s0.5,1.1,1.1,1.1S149,50.4,149,49.8S149,50.4,149,49.8z M147.1,49.8
			c0-0.4,0.4-0.8,0.8-0.8s0.8,0.4,0.8,0.8s-0.4,0.8-0.8,0.8S147.1,50.3,147.1,49.8S147.1,50.3,147.1,49.8z"/>
	</g>
	<g>
		<polygon points="155.4,49.9 154.9,49.9 154.9,37 165,26.8 165.4,27.2 155.4,37.2 		"/>
	</g>
	<g>
		<path d="M156.2,49.8c0-0.6-0.5-1.1-1.1-1.1s-1.1,0.5-1.1,1.1s0.5,1.1,1.1,1.1S156.2,50.4,156.2,49.8S156.2,50.4,156.2,49.8z
			 M154.4,49.8c0-0.4,0.4-0.8,0.8-0.8s0.8,0.4,0.8,0.8s-0.4,0.8-0.8,0.8S154.4,50.3,154.4,49.8S154.4,50.3,154.4,49.8z"/>
	</g>
	<g>
		<polygon points="162.6,49.9 162.1,49.9 162.1,37 172.2,26.8 172.6,27.2 162.6,37.2 		"/>
	</g>
	<g>
		<path d="M163.5,49.8c0-0.6-0.5-1.1-1.1-1.1c-0.6,0-1.1,0.5-1.1,1.1s0.5,1.1,1.1,1.1C163,50.9,163.5,50.4,163.5,49.8
			S163.5,50.4,163.5,49.8z M161.6,49.8c0-0.4,0.4-0.8,0.8-0.8s0.8,0.4,0.8,0.8s-0.4,0.8-0.8,0.8S161.6,50.3,161.6,49.8
			S161.6,50.3,161.6,49.8z"/>
	</g>
	<g>
		<polygon points="169.9,49.9 169.4,49.9 169.4,37 179.4,26.8 179.8,27.2 169.9,37.2 		"/>
	</g>
	<g>
		<path d="M170.7,49.8c0-0.6-0.5-1.1-1.1-1.1s-1.1,0.5-1.1,1.1s0.5,1.1,1.1,1.1S170.7,50.4,170.7,49.8S170.7,50.4,170.7,49.8z
			 M168.8,49.8c0-0.4,0.4-0.8,0.8-0.8s0.8,0.4,0.8,0.8s-0.4,0.8-0.8,0.8S168.8,50.3,168.8,49.8S168.8,50.3,168.8,49.8z"/>
	</g>
	<g>
		<polygon points="177.1,49.9 176.6,49.9 176.6,37 186.7,26.8 187,27.2 177.1,37.2 		"/>
	</g>
	<g>
		<path d="M177.9,49.8c0-0.6-0.5-1.1-1.1-1.1s-1.1,0.5-1.1,1.1s0.5,1.1,1.1,1.1S177.9,50.4,177.9,49.8S177.9,50.4,177.9,49.8z
			 M176,49.8c0-0.4,0.4-0.8,0.8-0.8s0.8,0.4,0.8,0.8s-0.4,0.8-0.8,0.8S176,50.3,176,49.8S176,50.3,176,49.8z"/>
	</g>
	<g>
		<polygon points="184.3,49.9 183.8,49.9 183.8,37 193.9,26.8 194.2,27.2 184.3,37.2 		"/>
	</g>
	<g>
		<path d="M185.1,49.8c0-0.6-0.5-1.1-1.1-1.1s-1.1,0.5-1.1,1.1s0.5,1.1,1.1,1.1S185.1,50.4,185.1,49.8S185.1,50.4,185.1,49.8z
			 M183.3,49.8c0-0.4,0.4-0.8,0.8-0.8s0.8,0.4,0.8,0.8s-0.4,0.8-0.8,0.8S183.3,50.3,183.3,49.8S183.3,50.3,183.3,49.8z"/>
	</g>
	<g>
		<polygon points="191.5,49.9 191,49.9 191,37 201.1,26.8 201.5,27.2 191.5,37.2 		"/>
	</g>
	<g>
		<path d="M192.4,49.8c0-0.6-0.5-1.1-1.1-1.1s-1.1,0.5-1.1,1.1s0.5,1.1,1.1,1.1S192.4,50.4,192.4,49.8S192.4,50.4,192.4,49.8z
			 M190.5,49.8c0-0.4,0.4-0.8,0.8-0.8s0.8,0.4,0.8,0.8s-0.4,0.8-0.8,0.8S190.5,50.3,190.5,49.8S190.5,50.3,190.5,49.8z"/>
	</g>
	<g>
		<path d="M171,24.6l-0.3,0.3l-0.3-0.3c0,0.5-0.1,0.9-0.4,1.2c-0.6,0.6-1.4,0.6-2,0c-0.4-0.4-0.7-1-0.7-1.6c0-0.6,0.2-1.2,0.6-1.6
			c0.6-0.6,1.3-0.7,1.7-0.2c0,0,0.1,0.1,0.1,0.1l-0.5,0.5c-0.3-0.2-0.6-0.2-1,0.2c-0.3,0.3-0.4,0.7-0.3,1.1c0.1,0.3,0.3,0.7,0.5,1
			c0.4,0.4,0.9,0.4,1.2,0c0.2-0.2,0.3-0.5,0.3-0.8c0-0.2,0-0.3-0.1-0.5l-0.6,0.6l-0.3-0.5l1-1L171,24.6z"/>
		<path d="M172.4,23.2l-0.5,0.5l-2-3.1l1.1-1.1c0.2-0.2,0.4-0.3,0.6-0.4c0.3,0,0.5,0,0.7,0.2c0.3,0.3,0.5,0.7,0.5,1.1
			c0,0.4-0.1,0.7-0.4,1l-0.7,0.7L172.4,23.2z M171.8,21c0.2-0.2,0.3-0.4,0.2-0.6c0-0.1-0.1-0.3-0.2-0.4c-0.2-0.2-0.4-0.2-0.6,0
			l-0.5,0.5l0.6,0.9L171.8,21z"/>
		<path d="M175,20.5l-0.5,0.5l-2-3.1l0.5-0.5L175,20.5z"/>
		<path d="M176.9,15.4c0.4,0.4,0.7,1,0.7,1.6c0.1,0.7-0.1,1.2-0.6,1.6c-0.6,0.6-1.4,0.6-2,0c-0.4-0.4-0.7-1-0.7-1.6
			c-0.1-0.6,0.1-1.2,0.6-1.6C175.5,14.8,176.2,14.8,176.9,15.4z M174.9,17c0.1,0.4,0.3,0.8,0.5,1.1c0.4,0.4,0.8,0.4,1.2,0
			c0.3-0.3,0.4-0.6,0.3-1c-0.1-0.4-0.3-0.8-0.6-1.1c-0.4-0.4-0.8-0.4-1.2-0.1C175,16.2,174.9,16.6,174.9,17z"/>
		<path d="M181.8,13.7l-1.7,1.7c-0.3-0.6-0.4-1-0.2-1.8c0.2-0.7,0.2-0.9,0.2-1.1c0-0.2-0.1-0.5-0.3-0.6c-0.2-0.2-0.4-0.2-0.6,0
			c-0.2,0.2-0.2,0.6,0.1,1l-0.5,0.5c-0.5-0.7-0.5-1.4,0.1-1.9c0.5-0.5,1-0.5,1.3-0.1c0.2,0.2,0.4,0.5,0.4,0.8c0,0.2,0,0.5-0.1,1
			c-0.2,0.7-0.2,0.9-0.1,1.1l1.1-1.1L181.8,13.7z"/>
		<path d="M184.1,11.4l-1.7,1.7c-0.3-0.6-0.4-1-0.2-1.8c0.2-0.7,0.2-0.9,0.2-1.1c0-0.2-0.1-0.5-0.3-0.6c-0.2-0.2-0.4-0.2-0.6,0
			c-0.2,0.2-0.2,0.6,0.1,1l-0.5,0.5c-0.5-0.7-0.5-1.4,0.1-1.9c0.5-0.5,1-0.5,1.3-0.1c0.2,0.2,0.4,0.5,0.4,0.8c0,0.2,0,0.5-0.1,1
			c-0.2,0.7-0.2,0.9-0.1,1.1l1.1-1.1L184.1,11.4z"/>
	</g>
	<g>
		<path d="M199.9,24.6l-0.3,0.3l-0.3-0.3c0,0.5-0.1,0.9-0.4,1.2c-0.6,0.6-1.4,0.6-2,0c-0.4-0.4-0.7-1-0.7-1.6c0-0.6,0.2-1.2,0.6-1.6
			c0.6-0.6,1.3-0.7,1.7-0.2c0,0,0.1,0.1,0.1,0.1l-0.5,0.5c-0.3-0.2-0.6-0.2-1,0.2c-0.3,0.3-0.4,0.7-0.3,1.1c0.1,0.3,0.3,0.7,0.5,1
			c0.4,0.4,0.9,0.4,1.2,0c0.2-0.2,0.3-0.5,0.3-0.8c0-0.2,0-0.3-0.1-0.5l-0.6,0.6l-0.3-0.5l1-1L199.9,24.6z"/>
		<path d="M201.2,23.2l-0.5,0.5l-2-3.1l1.1-1.1c0.2-0.2,0.4-0.3,0.6-0.4c0.3,0,0.5,0,0.7,0.2c0.3,0.3,0.5,0.7,0.5,1.1
			c0,0.4-0.1,0.7-0.4,1l-0.7,0.7L201.2,23.2z M200.7,21c0.2-0.2,0.3-0.4,0.2-0.6c0-0.1-0.1-0.3-0.2-0.4c-0.2-0.2-0.4-0.2-0.6,0
			l-0.5,0.5l0.6,0.9L200.7,21z"/>
		<path d="M203.9,20.5l-0.5,0.5l-2-3.1l0.5-0.5L203.9,20.5z"/>
		<path d="M205.8,15.4c0.4,0.4,0.7,1,0.7,1.6c0.1,0.7-0.1,1.2-0.6,1.6c-0.6,0.6-1.4,0.6-2,0c-0.4-0.4-0.7-1-0.7-1.6
			c-0.1-0.6,0.1-1.2,0.6-1.6C204.4,14.8,205.1,14.8,205.8,15.4z M203.8,17c0.1,0.4,0.3,0.8,0.5,1.1c0.4,0.4,0.8,0.4,1.2,0
			c0.3-0.3,0.4-0.6,0.3-1c-0.1-0.4-0.3-0.8-0.6-1.1c-0.4-0.4-0.8-0.4-1.2-0.1C203.8,16.2,203.7,16.6,203.8,17z"/>
		<path d="M209.2,11.5c0.4,0.4,0.8,1.1,1,1.6c0.2,0.6,0.1,1.2-0.3,1.6c-0.4,0.4-0.9,0.4-1.4,0c-0.4-0.4-0.8-1.1-1-1.6
			c-0.2-0.6-0.1-1.2,0.3-1.6C208.3,11,208.8,11,209.2,11.5z M208,12.5c0.1,0.3,0.7,1.3,1,1.6c0.2,0.2,0.4,0.2,0.6,0
			c0.2-0.2,0.2-0.5-0.1-0.9c-0.2-0.4-0.6-1-0.9-1.2c-0.2-0.2-0.4-0.2-0.6,0C208,12.1,208,12.2,208,12.5z"/>
		<path d="M211.3,8.9l-1,1l0.3,0.7c0.1-0.3,0.1-0.4,0.3-0.6c0.4-0.4,0.9-0.4,1.3,0c0.2,0.2,0.4,0.6,0.5,0.9c0.1,0.5-0.1,1-0.4,1.3
			c-0.4,0.4-0.9,0.5-1.3,0.1c0,0-0.1-0.1-0.1-0.2l0.5-0.5c0,0,0.1,0.1,0.1,0.1c0.1,0.1,0.3,0.1,0.5-0.1c0.3-0.3,0.2-0.8-0.1-1.1
			c-0.2-0.2-0.4-0.2-0.6,0c-0.2,0.2-0.2,0.3-0.2,0.5l-0.4,0.4l-0.9-1.9l1.4-1.4L211.3,8.9z"/>
	</g>
	<g>
		<path d="M163.8,24.6l-0.3,0.3l-0.3-0.3c0,0.5-0.1,0.9-0.4,1.2c-0.6,0.6-1.4,0.6-2,0c-0.4-0.4-0.7-1-0.7-1.6c0-0.6,0.2-1.2,0.6-1.6
			c0.6-0.6,1.3-0.7,1.7-0.2c0,0,0.1,0.1,0.1,0.1l-0.5,0.5c-0.3-0.2-0.6-0.2-1,0.2c-0.3,0.3-0.4,0.7-0.3,1.1c0.1,0.3,0.3,0.7,0.5,1
			c0.4,0.4,0.9,0.4,1.2,0c0.2-0.2,0.3-0.5,0.3-0.8c0-0.2,0-0.3-0.1-0.5l-0.6,0.6l-0.3-0.5l1-1L163.8,24.6z"/>
		<path d="M165.1,23.2l-0.5,0.5l-2-3.1l1.1-1.1c0.2-0.2,0.4-0.3,0.6-0.4c0.3,0,0.5,0,0.7,0.2c0.3,0.3,0.5,0.7,0.5,1.1
			c0,0.4-0.1,0.7-0.4,1l-0.7,0.7L165.1,23.2z M164.6,21c0.2-0.2,0.3-0.4,0.2-0.6c0-0.1-0.1-0.3-0.2-0.4c-0.2-0.2-0.4-0.2-0.6,0
			l-0.5,0.5l0.6,0.9L164.6,21z"/>
		<path d="M167.8,20.5l-0.5,0.5l-2-3.1l0.5-0.5L167.8,20.5z"/>
		<path d="M169.7,15.4c0.4,0.4,0.7,1,0.7,1.6c0.1,0.7-0.1,1.2-0.6,1.6c-0.6,0.6-1.4,0.6-2,0c-0.4-0.4-0.7-1-0.7-1.6
			c-0.1-0.6,0.1-1.2,0.6-1.6C168.3,14.8,169,14.8,169.7,15.4z M167.7,17c0.1,0.4,0.3,0.8,0.5,1.1c0.4,0.4,0.8,0.4,1.2,0
			c0.3-0.3,0.4-0.6,0.3-1c-0.1-0.4-0.3-0.8-0.6-1.1c-0.4-0.4-0.8-0.4-1.2-0.1C167.7,16.2,167.6,16.6,167.7,17z"/>
		<path d="M174.6,13.7l-1.7,1.7c-0.3-0.6-0.4-1-0.2-1.8c0.2-0.7,0.2-0.9,0.2-1.1c0-0.2-0.1-0.5-0.3-0.6c-0.2-0.2-0.4-0.2-0.6,0
			c-0.2,0.2-0.2,0.6,0.1,1l-0.5,0.5c-0.5-0.7-0.5-1.4,0.1-1.9c0.5-0.5,1-0.5,1.3-0.1c0.2,0.2,0.4,0.5,0.4,0.8c0,0.2,0,0.5-0.1,1
			c-0.2,0.7-0.2,0.9-0.1,1.1l1.1-1.1L174.6,13.7z"/>
		<path d="M175.3,8.7c0,0.1,0,0.3,0,0.8c0.1,1.1,0.3,1.9,0.8,2.7l-0.5,0.5c-0.6-1.1-0.8-2-0.7-3.4l-1.2,1.2l-0.3-0.5l1.8-1.8
			L175.3,8.7z"/>
	</g>
	<g>
		<path d="M192.6,24.6l-0.3,0.3l-0.3-0.3c0,0.5-0.1,0.9-0.4,1.2c-0.6,0.6-1.4,0.6-2,0c-0.4-0.4-0.7-1-0.7-1.6c0-0.6,0.2-1.2,0.6-1.6
			c0.6-0.6,1.3-0.7,1.7-0.2c0,0,0.1,0.1,0.1,0.1l-0.5,0.5c-0.3-0.2-0.6-0.2-1,0.2c-0.3,0.3-0.4,0.7-0.3,1.1c0.1,0.3,0.3,0.7,0.5,1
			c0.4,0.4,0.9,0.4,1.2,0c0.2-0.2,0.3-0.5,0.3-0.8c0-0.2,0-0.3-0.1-0.5l-0.6,0.6l-0.3-0.5l1-1L192.6,24.6z"/>
		<path d="M194,23.2l-0.5,0.5l-2-3.1l1.1-1.1c0.2-0.2,0.4-0.3,0.6-0.4c0.3,0,0.5,0,0.7,0.2c0.3,0.3,0.5,0.7,0.5,1.1
			c0,0.4-0.1,0.7-0.4,1l-0.7,0.7L194,23.2z M193.5,21c0.2-0.2,0.3-0.4,0.2-0.6c0-0.1-0.1-0.3-0.2-0.4c-0.2-0.2-0.4-0.2-0.6,0
			l-0.5,0.5l0.6,0.9L193.5,21z"/>
		<path d="M196.7,20.5l-0.5,0.5l-2-3.1l0.5-0.5L196.7,20.5z"/>
		<path d="M198.6,15.4c0.4,0.4,0.7,1,0.7,1.6c0.1,0.7-0.1,1.2-0.6,1.6c-0.6,0.6-1.4,0.6-2,0c-0.4-0.4-0.7-1-0.7-1.6
			c-0.1-0.6,0.1-1.2,0.6-1.6C197.2,14.8,197.9,14.8,198.6,15.4z M196.6,17c0.1,0.4,0.3,0.8,0.5,1.1c0.4,0.4,0.8,0.4,1.2,0
			c0.3-0.3,0.4-0.6,0.3-1c-0.1-0.4-0.3-0.8-0.6-1.1c-0.4-0.4-0.8-0.4-1.2-0.1C196.6,16.2,196.5,16.6,196.6,17z"/>
		<path d="M202,11.5c0.4,0.4,0.8,1.1,1,1.6c0.2,0.6,0.1,1.2-0.3,1.6c-0.4,0.4-0.9,0.4-1.4,0c-0.4-0.4-0.8-1.1-1-1.6
			c-0.2-0.6-0.1-1.2,0.3-1.6C201,11,201.5,11,202,11.5z M200.8,12.5c0.1,0.3,0.7,1.3,1,1.6c0.2,0.2,0.4,0.2,0.6,0
			c0.2-0.2,0.2-0.5-0.1-0.9c-0.2-0.4-0.6-1-0.9-1.2c-0.2-0.2-0.4-0.2-0.6,0C200.8,12.1,200.7,12.2,200.8,12.5z"/>
		<path d="M202.9,10.9l-0.3-0.4c0.4-0.4,0.6-0.9,0.4-1.3l0.3-0.3l2,3l-0.5,0.5l-1.4-2.1L202.9,10.9z"/>
	</g>
	<g>
		<path d="M153.6,24.5L153.6,24.5c0.4-0.4,0.4-0.8,0.1-1c-0.1-0.1-0.4-0.1-0.5,0c-0.1,0.1-0.2,0.3-0.1,0.5c0,0.1,0.1,0.2,0.2,0.4
			l-0.5,0.5c-0.2-0.3-0.3-0.5-0.3-0.8c0-0.3,0.1-0.7,0.4-1c0.4-0.4,0.9-0.5,1.2-0.2c0.3,0.3,0.4,0.7,0.3,1.1c0.3-0.1,0.5,0,0.7,0.2
			c0.2,0.2,0.4,0.6,0.4,0.9c0,0.4-0.1,0.8-0.5,1.1c-0.5,0.5-1,0.5-1.3,0.1c-0.1-0.1-0.1-0.1-0.2-0.2l0.5-0.5l0,0l0.1,0.1
			c0.2,0.2,0.4,0.2,0.6,0c0.1-0.1,0.2-0.3,0.2-0.6c0-0.1-0.1-0.3-0.2-0.3c-0.1-0.1-0.3-0.2-0.5-0.1c-0.1,0.1-0.1,0.1-0.3,0.3
			L153.6,24.5z"/>
		<path d="M157.3,23.8l-2.9-2.2l0.5-0.5l2.1,1.8l-1-2.9l0.5-0.5l1.2,4L157.3,23.8z"/>
		<path d="M158.7,19.5L158.7,19.5c0.4-0.4,0.4-0.8,0.1-1c-0.1-0.1-0.4-0.1-0.5,0c-0.1,0.1-0.2,0.3-0.1,0.5c0,0.1,0.1,0.2,0.2,0.4
			l-0.5,0.5c-0.2-0.3-0.3-0.5-0.3-0.8c0-0.3,0.1-0.7,0.4-1c0.4-0.4,0.9-0.5,1.2-0.2c0.3,0.3,0.4,0.7,0.3,1.1c0.3-0.1,0.5,0,0.7,0.2
			c0.2,0.2,0.4,0.6,0.4,0.9c0,0.4-0.1,0.8-0.5,1.1c-0.5,0.5-1,0.5-1.3,0.1c-0.1-0.1-0.1-0.1-0.2-0.2l0.5-0.5l0,0l0.1,0.1
			c0.2,0.2,0.4,0.2,0.6,0c0.1-0.1,0.2-0.3,0.2-0.6c0-0.1-0.1-0.3-0.2-0.3c-0.1-0.1-0.3-0.2-0.5-0.1c-0.1,0.1-0.1,0.1-0.3,0.3
			L158.7,19.5z"/>
	</g>
	<g>
		<path d="M185.4,24.6l-0.3,0.3l-0.3-0.3c0,0.5-0.1,0.9-0.4,1.2c-0.6,0.6-1.4,0.6-2,0c-0.4-0.4-0.7-1-0.7-1.6c0-0.6,0.2-1.2,0.6-1.6
			c0.6-0.6,1.3-0.7,1.7-0.2c0,0,0.1,0.1,0.1,0.1l-0.5,0.5c-0.3-0.2-0.6-0.2-1,0.2c-0.3,0.3-0.4,0.7-0.3,1.1c0.1,0.3,0.3,0.7,0.5,1
			c0.4,0.4,0.9,0.4,1.2,0c0.2-0.2,0.3-0.5,0.3-0.8c0-0.2,0-0.3-0.1-0.5l-0.6,0.6l-0.3-0.5l1-1L185.4,24.6z"/>
		<path d="M186.8,23.2l-0.5,0.5l-2-3.1l1.1-1.1c0.2-0.2,0.4-0.3,0.6-0.4c0.3,0,0.5,0,0.7,0.2c0.3,0.3,0.5,0.7,0.5,1.1
			c0,0.4-0.1,0.7-0.4,1l-0.7,0.7L186.8,23.2z M186.3,21c0.2-0.2,0.3-0.4,0.2-0.6c0-0.1-0.1-0.3-0.2-0.4c-0.2-0.2-0.4-0.2-0.6,0
			l-0.5,0.5l0.6,0.9L186.3,21z"/>
		<path d="M189.4,20.5l-0.5,0.5l-2-3.1l0.5-0.5L189.4,20.5z"/>
		<path d="M191.3,15.4c0.4,0.4,0.7,1,0.7,1.6c0.1,0.7-0.1,1.2-0.6,1.6c-0.6,0.6-1.4,0.6-2,0c-0.4-0.4-0.7-1-0.7-1.6
			c-0.1-0.6,0.1-1.2,0.6-1.6C189.9,14.8,190.7,14.8,191.3,15.4z M189.4,17c0.1,0.4,0.3,0.8,0.5,1.1c0.4,0.4,0.8,0.4,1.2,0
			c0.3-0.3,0.4-0.6,0.3-1c-0.1-0.4-0.3-0.8-0.6-1.1c-0.4-0.4-0.8-0.4-1.2-0.1C189.4,16.2,189.3,16.6,189.4,17z"/>
		<path d="M196.1,10.1c0.4,0.4,0.8,1.1,1,1.6c0.2,0.6,0.1,1.2-0.3,1.6c-0.4,0.4-0.9,0.4-1.4,0c-0.4-0.4-0.8-1.1-1-1.6
			c-0.2-0.6-0.1-1.2,0.3-1.6C195.1,9.7,195.7,9.7,196.1,10.1z M194.9,11.1c0.1,0.3,0.7,1.3,1,1.6c0.2,0.2,0.4,0.2,0.6,0
			c0.2-0.2,0.2-0.5-0.1-0.9c-0.2-0.4-0.6-1-0.9-1.2c-0.2-0.2-0.4-0.2-0.6,0C194.9,10.7,194.9,10.9,194.9,11.1z"/>
	</g>
	<g>
		<path d="M149.3,24.6l-0.3,0.3l-0.3-0.3c0,0.5-0.1,0.9-0.4,1.2c-0.6,0.6-1.4,0.6-2,0c-0.4-0.4-0.7-1-0.7-1.6c0-0.6,0.2-1.2,0.6-1.6
			c0.6-0.6,1.3-0.7,1.7-0.2c0,0,0.1,0.1,0.1,0.1l-0.5,0.5c-0.3-0.2-0.6-0.2-1,0.2c-0.3,0.3-0.4,0.7-0.3,1.1c0.1,0.3,0.3,0.7,0.5,1
			c0.4,0.4,0.9,0.4,1.2,0c0.2-0.2,0.3-0.5,0.3-0.8c0-0.2,0-0.3-0.1-0.5l-0.6,0.6l-0.3-0.5l1-1L149.3,24.6z"/>
		<path d="M152.2,21.6l-0.5,0.5l-2.5-1.2l1.5,2.2l-0.5,0.5l-2-3.1l0.5-0.5l2.5,1.1l-1.4-2.2l0.5-0.5L152.2,21.6z"/>
		<path d="M151,17.7l1-1c0.6-0.6,1.2-0.7,1.8,0c0.4,0.4,0.7,1,0.8,1.6c0.1,0.6-0.1,1.1-0.6,1.6l-1,1L151,17.7z M153.7,19.2
			c0.3-0.3,0.4-0.6,0.3-1c-0.1-0.3-0.4-0.8-0.6-1.1c-0.3-0.3-0.6-0.3-1,0l-0.5,0.5l1.3,2.1L153.7,19.2z"/>
	</g>
	<g>
		<path d="M178.2,24.6l-0.3,0.3l-0.3-0.3c0,0.5-0.1,0.9-0.4,1.2c-0.6,0.6-1.4,0.6-2,0c-0.4-0.4-0.7-1-0.7-1.6c0-0.6,0.2-1.2,0.6-1.6
			c0.6-0.6,1.3-0.7,1.7-0.2c0,0,0.1,0.1,0.1,0.1l-0.5,0.5c-0.3-0.2-0.6-0.2-1,0.2c-0.3,0.3-0.4,0.7-0.3,1.1c0.1,0.3,0.3,0.7,0.5,1
			c0.4,0.4,0.9,0.4,1.2,0c0.2-0.2,0.3-0.5,0.3-0.8c0-0.2,0-0.3-0.1-0.5l-0.6,0.6l-0.3-0.5l1-1L178.2,24.6z"/>
		<path d="M179.6,23.2l-0.5,0.5l-2-3.1l1.1-1.1c0.2-0.2,0.4-0.3,0.6-0.4c0.3,0,0.5,0,0.7,0.2c0.3,0.3,0.5,0.7,0.5,1.1
			c0,0.4-0.1,0.7-0.4,1l-0.7,0.7L179.6,23.2z M179,21c0.2-0.2,0.3-0.4,0.2-0.6c0-0.1-0.1-0.3-0.2-0.4c-0.2-0.2-0.4-0.2-0.6,0
			l-0.5,0.5l0.6,0.9L179,21z"/>
		<path d="M182.2,20.5l-0.5,0.5l-2-3.1l0.5-0.5L182.2,20.5z"/>
		<path d="M184.1,15.4c0.4,0.4,0.7,1,0.7,1.6c0.1,0.7-0.1,1.2-0.6,1.6c-0.6,0.6-1.4,0.6-2,0c-0.4-0.4-0.7-1-0.7-1.6
			c-0.1-0.6,0.1-1.2,0.6-1.6C182.7,14.8,183.5,14.8,184.1,15.4z M182.1,17c0.1,0.4,0.3,0.8,0.5,1.1c0.4,0.4,0.8,0.4,1.2,0
			c0.3-0.3,0.4-0.6,0.3-1c-0.1-0.4-0.3-0.8-0.6-1.1c-0.4-0.4-0.8-0.4-1.2-0.1C182.2,16.2,182.1,16.6,182.1,17z"/>
		<path d="M187.5,11.5c0.4,0.4,0.8,1.1,1,1.6c0.2,0.6,0.1,1.2-0.3,1.6c-0.4,0.4-0.9,0.4-1.4,0c-0.4-0.4-0.8-1.1-1-1.6
			c-0.2-0.6-0.1-1.2,0.3-1.6C186.6,11,187.1,11,187.5,11.5z M186.3,12.5c0.1,0.3,0.7,1.3,1,1.6c0.2,0.2,0.4,0.2,0.6,0
			c0.2-0.2,0.2-0.5-0.1-0.9c-0.2-0.4-0.6-1-0.9-1.2c-0.2-0.2-0.4-0.2-0.6,0C186.3,12.1,186.3,12.2,186.3,12.5z"/>
		<path d="M189.7,11.9C189.7,11.9,189.7,11.9,189.7,11.9c0.2,0.2,0.3,0.1,0.5,0c0.2-0.2,0.2-0.4,0.1-0.7c-0.1-0.1-0.1-0.3-0.3-0.5
			c0,0.4-0.1,0.5-0.3,0.7c-0.4,0.4-0.8,0.4-1.2,0c-0.6-0.6-0.7-1.6-0.1-2.2c0.4-0.4,1-0.4,1.4,0c0.4,0.4,0.8,1.1,1,1.7
			c0.2,0.6,0,1.1-0.4,1.5c-0.4,0.4-0.9,0.4-1.2,0.1c0,0-0.1-0.1-0.1-0.1L189.7,11.9z M188.9,10.8c0.2,0.2,0.4,0.2,0.6,0
			c0.3-0.3,0.2-0.8-0.1-1.1c-0.2-0.2-0.5-0.2-0.7,0C188.5,9.9,188.6,10.4,188.9,10.8z"/>
	</g>
	<g>
		<path d="M142.1,24.6l-0.3,0.3l-0.3-0.3c0,0.5-0.1,0.9-0.4,1.2c-0.6,0.6-1.4,0.6-2,0c-0.4-0.4-0.7-1-0.7-1.6c0-0.6,0.2-1.2,0.6-1.6
			c0.6-0.6,1.3-0.7,1.7-0.2c0,0,0.1,0.1,0.1,0.1l-0.5,0.5c-0.3-0.2-0.6-0.2-1,0.2c-0.3,0.3-0.4,0.7-0.3,1.1c0.1,0.3,0.3,0.7,0.5,1
			c0.4,0.4,0.9,0.4,1.2,0c0.2-0.2,0.3-0.5,0.3-0.8c0-0.2,0-0.3-0.1-0.5l-0.6,0.6l-0.3-0.5l1-1L142.1,24.6z"/>
		<path d="M145,21.6l-0.5,0.5l-2.5-1.2l1.5,2.2l-0.5,0.5l-2-3.1l0.5-0.5l2.5,1.1l-1.4-2.2l0.5-0.5L145,21.6z"/>
		<path d="M143.8,17.7l1-1c0.6-0.6,1.2-0.7,1.8,0c0.4,0.4,0.7,1,0.8,1.6c0.1,0.6-0.1,1.1-0.6,1.6l-1,1L143.8,17.7z M146.5,19.2
			c0.3-0.3,0.4-0.6,0.3-1c-0.1-0.3-0.4-0.8-0.6-1.1c-0.3-0.3-0.6-0.3-1,0l-0.5,0.5l1.3,2.1L146.5,19.2z"/>
	</g>
	<g>
		<path d="M207.1,24.6l-0.3,0.3l-0.3-0.3c0,0.5-0.1,0.9-0.4,1.2c-0.6,0.6-1.4,0.6-2,0c-0.4-0.4-0.7-1-0.7-1.6c0-0.6,0.2-1.2,0.6-1.6
			c0.6-0.6,1.3-0.7,1.7-0.2c0,0,0.1,0.1,0.1,0.1l-0.5,0.5c-0.3-0.2-0.6-0.2-1,0.2c-0.3,0.3-0.4,0.7-0.3,1.1c0.1,0.3,0.3,0.7,0.5,1
			c0.4,0.4,0.9,0.4,1.2,0c0.2-0.2,0.3-0.5,0.3-0.8c0-0.2,0-0.3-0.1-0.5l-0.6,0.6l-0.3-0.5l1-1L207.1,24.6z"/>
		<path d="M208.5,23.2l-0.5,0.5l-2-3.1l1.1-1.1c0.2-0.2,0.4-0.3,0.6-0.4c0.3,0,0.5,0,0.7,0.2c0.3,0.3,0.5,0.7,0.5,1.1
			c0,0.4-0.1,0.7-0.4,1l-0.7,0.7L208.5,23.2z M207.9,21c0.2-0.2,0.3-0.4,0.2-0.6c0-0.1-0.1-0.3-0.2-0.4c-0.2-0.2-0.4-0.2-0.6,0
			l-0.5,0.5l0.6,0.9L207.9,21z"/>
		<path d="M211.1,20.5l-0.5,0.5l-2-3.1l0.5-0.5L211.1,20.5z"/>
		<path d="M213,15.4c0.4,0.4,0.7,1,0.7,1.6c0.1,0.7-0.1,1.2-0.6,1.6c-0.6,0.6-1.4,0.6-2,0c-0.4-0.4-0.7-1-0.7-1.6
			c-0.1-0.6,0.1-1.2,0.6-1.6C211.6,14.8,212.4,14.8,213,15.4z M211,17c0.1,0.4,0.3,0.8,0.5,1.1c0.4,0.4,0.8,0.4,1.2,0
			c0.3-0.3,0.4-0.6,0.3-1c-0.1-0.4-0.3-0.8-0.6-1.1c-0.4-0.4-0.8-0.4-1.2-0.1C211.1,16.2,211,16.6,211,17z"/>
		<path d="M215,13.2l-0.3-0.4c0.4-0.4,0.6-0.9,0.4-1.3l0.3-0.3l2,3l-0.5,0.5l-1.4-2.1L215,13.2z"/>
		<path d="M220.2,11.4l-1.7,1.7c-0.3-0.6-0.4-1-0.2-1.8c0.2-0.7,0.2-0.9,0.2-1.1c0-0.2-0.1-0.5-0.3-0.6c-0.2-0.2-0.4-0.2-0.6,0
			c-0.2,0.2-0.2,0.6,0.1,1l-0.5,0.5c-0.5-0.7-0.5-1.4,0.1-1.9c0.5-0.5,1-0.5,1.3-0.1c0.2,0.2,0.4,0.5,0.4,0.8c0,0.2,0,0.5-0.1,1
			c-0.2,0.7-0.2,0.9-0.1,1.1l1.1-1.1L220.2,11.4z"/>
	</g>
	<g>
		<path d="M58.5,217.3v-16.1c0-0.1,0-0.3,0.1-0.4c0.1-0.2,0.2-0.3,0.4-0.3h193.7c0.3,0,0.5,0.2,0.5,0.5s-0.2,0.5-0.5,0.5H59.5v15.8
			H58.5z"/>
	</g>
	<path d="M51.7,63l0.1-1.4l0.2-1.5l0.2-1.4l0.3-1.4l0.5-1.4l0.6-1.4l0.6-1.3L55,52l0.9-1.2l0.9-1.2l1-1l1-1l1.2-0.9l1.2-0.9l1.3-0.8
		l1.3-0.6l1.4-0.6l1.4-0.5l1.4-0.3l1.5-0.2l1.4-0.2l1.5-0.1l167.2,0l1.4,0.1l1.5,0.2l1.4,0.2l1.5,0.4l1.3,0.4l2.7,1.2l1.2,0.8
		l1.2,0.9l1.2,0.9l2.1,2l0.9,1.1l0.8,1.2l0.8,1.3l0.6,1.3l0.6,1.4l0.5,1.4l0.4,1.4l0.3,1.4l0.1,1.5l0.1,1.5l0,154.3h1.5l0-154.4
		l-0.1-1.5l-0.1-1.6l-0.3-1.5l-0.4-1.5l-0.5-1.5l-0.6-1.5l-0.7-1.4l-0.8-1.4l-0.9-1.3l-1-1.3l-2.2-2.2l-1.2-1l-1.3-0.9l-1.3-0.8
		l-1.4-0.7l-1.4-0.6l-1.4-0.5c0,0,0,0-0.1,0l-1.6-0.4l-1.5-0.2l-1.6-0.2l-1.5-0.1L72.3,41l-1.6,0.1l-1.5,0.2l-1.6,0.3l-1.5,0.4
		l-1.5,0.5L63.1,43l-1.4,0.7l-1.4,0.8L59,45.4l-1.2,1l-1.1,1l-1.1,1.1l-1,1.2l-0.9,1.3l-0.8,1.4l-0.7,1.4l-0.6,1.5l-0.5,1.5
		l-0.4,1.5l-0.2,1.5l-0.2,1.6L50.2,63l0,154.3h1.5L51.7,63z"/>
	<path d="M252.8,200.1H59c-0.4,0-0.8,0.3-0.8,0.8v16.4h1.5v-15.7h192.3v15.7h1.5v-16.4C253.6,200.5,253.2,200.1,252.8,200.1z"/>
	<path d="M160.4,202.9h-9.2c-2.8,0-5.1,2.3-5.1,5.1v9.3h1V208c0-2.3,1.8-4.1,4.1-4.1h9.2c2.3,0,4.1,1.8,4.1,4.1v9.3h1V208
		C165.5,205.2,163.2,202.9,160.4,202.9z"/>
	<path d="M160.1,205.4h-8.6c-1.6,0-3,1.3-3,3v8.9h1v-8.9c0-1.1,0.9-2,2-2h8.6c1.1,0,2,0.9,2,2v8.9h1v-8.9
		C163.1,206.7,161.7,205.4,160.1,205.4z"/>
	<path d="M81.1,213.7H75c-1.3,0-2.3-1-2.3-2.3h-1.5c0,2.1,1.7,3.8,3.8,3.8h6.1c2.1,0,3.8-1.7,3.8-3.8h-1.5
		C83.4,212.7,82.4,213.7,81.1,213.7z"/>
	<path d="M236.5,210.7h-6.1c-2.1,0-3.8,1.7-3.8,3.8h1.5c0-1.3,1-2.3,2.3-2.3h6.1c1.3,0,2.3,1,2.3,2.3h1.5
		C240.3,212.4,238.6,210.7,236.5,210.7z"/>
	<rect x="230.4" y="213.7" width="6.1" height="1.5"/>
	<path d="M196.2,209.5h-1.3v-1l-3,1.7l3,1.7v-1h1.3c1.2,0,2.2,1,2.2,2.2c0,1.2-1,2.2-2.2,2.2h-6.3v1.5h6.3c2.1,0,3.7-1.7,3.7-3.7
		C199.9,211.2,198.2,209.5,196.2,209.5z"/>
	<path d="M114.6,209.3h-1.4l-0.7,1.9h2.1c0.5,0,0.8-0.4,0.8-1S115,209.3,114.6,209.3z"/>
	<path d="M114,212h-1.4l-0.7,1.9h2.1c0.5,0,0.8-0.4,0.8-1S114.5,212,114,212z"/>
	<path d="M119.4,210.2c0-0.5-0.4-1-0.8-1h-1.4l-0.7,1.9h2.1C119,211.2,119.4,210.7,119.4,210.2z"/>
	<path d="M121.5,211.2h-1.4l-0.7,1.9h2.1c0.5,0,0.8-0.4,0.8-1C122.4,211.7,122,211.2,121.5,211.2z"/>
	<path d="M121,214h-1.4l-0.7,1.9h2.1c0.5,0,0.8-0.4,0.8-1S121.4,214,121,214z"/>
	<path d="M118,212h-1.4l-0.7,1.9h2.1c0.5,0,0.8-0.4,0.8-1S118.5,212,118,212z"/>
	<path d="M117.4,214.7h-1.4l-0.7,1.9h2.1c0.5,0,0.8-0.4,0.8-1C118.3,215.2,117.9,214.7,117.4,214.7z"/>
	<g>
		<g>
			<path d="M51.5,217.3H51c-0.3,0-0.5-0.2-0.5-0.5s0.2-0.5,0.5-0.5h0.5c0.3,0,0.5,0.2,0.5,0.5S51.8,217.3,51.5,217.3z"/>
		</g>
		<g>
			<path d="M257.3,217.3h-1c-0.3,0-0.5-0.2-0.5-0.5s0.2-0.5,0.5-0.5h1c0.3,0,0.5,0.2,0.5,0.5S257.6,217.3,257.3,217.3z M253.3,217.3
				h-1c-0.3,0-0.5-0.2-0.5-0.5s0.2-0.5,0.5-0.5h1c0.3,0,0.5,0.2,0.5,0.5S253.5,217.3,253.3,217.3z M249.2,217.3h-1
				c-0.3,0-0.5-0.2-0.5-0.5s0.2-0.5,0.5-0.5h1c0.3,0,0.5,0.2,0.5,0.5S249.5,217.3,249.2,217.3z M245.2,217.3h-1
				c-0.3,0-0.5-0.2-0.5-0.5s0.2-0.5,0.5-0.5h1c0.3,0,0.5,0.2,0.5,0.5S245.5,217.3,245.2,217.3z M241.1,217.3h-1
				c-0.3,0-0.5-0.2-0.5-0.5s0.2-0.5,0.5-0.5h1c0.3,0,0.5,0.2,0.5,0.5S241.4,217.3,241.1,217.3z M237.1,217.3h-1
				c-0.3,0-0.5-0.2-0.5-0.5s0.2-0.5,0.5-0.5h1c0.3,0,0.5,0.2,0.5,0.5S237.4,217.3,237.1,217.3z M233.1,217.3h-1
				c-0.3,0-0.5-0.2-0.5-0.5s0.2-0.5,0.5-0.5h1c0.3,0,0.5,0.2,0.5,0.5S233.4,217.3,233.1,217.3z M229,217.3h-1
				c-0.3,0-0.5-0.2-0.5-0.5s0.2-0.5,0.5-0.5h1c0.3,0,0.5,0.2,0.5,0.5S229.3,217.3,229,217.3z M225,217.3h-1c-0.3,0-0.5-0.2-0.5-0.5
				s0.2-0.5,0.5-0.5h1c0.3,0,0.5,0.2,0.5,0.5S225.3,217.3,225,217.3z M221,217.3h-1c-0.3,0-0.5-0.2-0.5-0.5s0.2-0.5,0.5-0.5h1
				c0.3,0,0.5,0.2,0.5,0.5S221.2,217.3,221,217.3z M216.9,217.3h-1c-0.3,0-0.5-0.2-0.5-0.5s0.2-0.5,0.5-0.5h1c0.3,0,0.5,0.2,0.5,0.5
				S217.2,217.3,216.9,217.3z M212.9,217.3h-1c-0.3,0-0.5-0.2-0.5-0.5s0.2-0.5,0.5-0.5h1c0.3,0,0.5,0.2,0.5,0.5
				S213.2,217.3,212.9,217.3z M208.9,217.3h-1c-0.3,0-0.5-0.2-0.5-0.5s0.2-0.5,0.5-0.5h1c0.3,0,0.5,0.2,0.5,0.5
				S209.1,217.3,208.9,217.3z M204.8,217.3h-1c-0.3,0-0.5-0.2-0.5-0.5s0.2-0.5,0.5-0.5h1c0.3,0,0.5,0.2,0.5,0.5
				S205.1,217.3,204.8,217.3z M200.8,217.3h-1c-0.3,0-0.5-0.2-0.5-0.5s0.2-0.5,0.5-0.5h1c0.3,0,0.5,0.2,0.5,0.5
				S201.1,217.3,200.8,217.3z M196.8,217.3h-1c-0.3,0-0.5-0.2-0.5-0.5s0.2-0.5,0.5-0.5h1c0.3,0,0.5,0.2,0.5,0.5
				S197,217.3,196.8,217.3z M192.7,217.3h-1c-0.3,0-0.5-0.2-0.5-0.5s0.2-0.5,0.5-0.5h1c0.3,0,0.5,0.2,0.5,0.5S193,217.3,192.7,217.3
				z M188.7,217.3h-1c-0.3,0-0.5-0.2-0.5-0.5s0.2-0.5,0.5-0.5h1c0.3,0,0.5,0.2,0.5,0.5S189,217.3,188.7,217.3z M184.7,217.3h-1
				c-0.3,0-0.5-0.2-0.5-0.5s0.2-0.5,0.5-0.5h1c0.3,0,0.5,0.2,0.5,0.5S184.9,217.3,184.7,217.3z M180.6,217.3h-1
				c-0.3,0-0.5-0.2-0.5-0.5s0.2-0.5,0.5-0.5h1c0.3,0,0.5,0.2,0.5,0.5S180.9,217.3,180.6,217.3z M176.6,217.3h-1
				c-0.3,0-0.5-0.2-0.5-0.5s0.2-0.5,0.5-0.5h1c0.3,0,0.5,0.2,0.5,0.5S176.9,217.3,176.6,217.3z M172.6,217.3h-1
				c-0.3,0-0.5-0.2-0.5-0.5s0.2-0.5,0.5-0.5h1c0.3,0,0.5,0.2,0.5,0.5S172.8,217.3,172.6,217.3z M168.5,217.3h-1
				c-0.3,0-0.5-0.2-0.5-0.5s0.2-0.5,0.5-0.5h1c0.3,0,0.5,0.2,0.5,0.5S168.8,217.3,168.5,217.3z M164.5,217.3h-1
				c-0.3,0-0.5-0.2-0.5-0.5s0.2-0.5,0.5-0.5h1c0.3,0,0.5,0.2,0.5,0.5S164.8,217.3,164.5,217.3z M160.4,217.3h-1
				c-0.3,0-0.5-0.2-0.5-0.5s0.2-0.5,0.5-0.5h1c0.3,0,0.5,0.2,0.5,0.5S160.7,217.3,160.4,217.3z M156.4,217.3h-1
				c-0.3,0-0.5-0.2-0.5-0.5s0.2-0.5,0.5-0.5h1c0.3,0,0.5,0.2,0.5,0.5S156.7,217.3,156.4,217.3z M152.4,217.3h-1
				c-0.3,0-0.5-0.2-0.5-0.5s0.2-0.5,0.5-0.5h1c0.3,0,0.5,0.2,0.5,0.5S152.7,217.3,152.4,217.3z M148.3,217.3h-1
				c-0.3,0-0.5-0.2-0.5-0.5s0.2-0.5,0.5-0.5h1c0.3,0,0.5,0.2,0.5,0.5S148.6,217.3,148.3,217.3z M144.3,217.3h-1
				c-0.3,0-0.5-0.2-0.5-0.5s0.2-0.5,0.5-0.5h1c0.3,0,0.5,0.2,0.5,0.5S144.6,217.3,144.3,217.3z M140.3,217.3h-1
				c-0.3,0-0.5-0.2-0.5-0.5s0.2-0.5,0.5-0.5h1c0.3,0,0.5,0.2,0.5,0.5S140.5,217.3,140.3,217.3z M136.2,217.3h-1
				c-0.3,0-0.5-0.2-0.5-0.5s0.2-0.5,0.5-0.5h1c0.3,0,0.5,0.2,0.5,0.5S136.5,217.3,136.2,217.3z M132.2,217.3h-1
				c-0.3,0-0.5-0.2-0.5-0.5s0.2-0.5,0.5-0.5h1c0.3,0,0.5,0.2,0.5,0.5S132.5,217.3,132.2,217.3z M128.2,217.3h-1
				c-0.3,0-0.5-0.2-0.5-0.5s0.2-0.5,0.5-0.5h1c0.3,0,0.5,0.2,0.5,0.5S128.4,217.3,128.2,217.3z M124.1,217.3h-1
				c-0.3,0-0.5-0.2-0.5-0.5s0.2-0.5,0.5-0.5h1c0.3,0,0.5,0.2,0.5,0.5S124.4,217.3,124.1,217.3z M120.1,217.3h-1
				c-0.3,0-0.5-0.2-0.5-0.5s0.2-0.5,0.5-0.5h1c0.3,0,0.5,0.2,0.5,0.5S120.4,217.3,120.1,217.3z M116.1,217.3h-1
				c-0.3,0-0.5-0.2-0.5-0.5s0.2-0.5,0.5-0.5h1c0.3,0,0.5,0.2,0.5,0.5S116.3,217.3,116.1,217.3z M112,217.3h-1
				c-0.3,0-0.5-0.2-0.5-0.5s0.2-0.5,0.5-0.5h1c0.3,0,0.5,0.2,0.5,0.5S112.3,217.3,112,217.3z M108,217.3h-1c-0.3,0-0.5-0.2-0.5-0.5
				s0.2-0.5,0.5-0.5h1c0.3,0,0.5,0.2,0.5,0.5S108.3,217.3,108,217.3z M104,217.3h-1c-0.3,0-0.5-0.2-0.5-0.5s0.2-0.5,0.5-0.5h1
				c0.3,0,0.5,0.2,0.5,0.5S104.2,217.3,104,217.3z M99.9,217.3h-1c-0.3,0-0.5-0.2-0.5-0.5s0.2-0.5,0.5-0.5h1c0.3,0,0.5,0.2,0.5,0.5
				S100.2,217.3,99.9,217.3z M95.9,217.3h-1c-0.3,0-0.5-0.2-0.5-0.5s0.2-0.5,0.5-0.5h1c0.3,0,0.5,0.2,0.5,0.5S96.2,217.3,95.9,217.3
				z M91.8,217.3h-1c-0.3,0-0.5-0.2-0.5-0.5s0.2-0.5,0.5-0.5h1c0.3,0,0.5,0.2,0.5,0.5S92.1,217.3,91.8,217.3z M87.8,217.3h-1
				c-0.3,0-0.5-0.2-0.5-0.5s0.2-0.5,0.5-0.5h1c0.3,0,0.5,0.2,0.5,0.5S88.1,217.3,87.8,217.3z M83.8,217.3h-1c-0.3,0-0.5-0.2-0.5-0.5
				s0.2-0.5,0.5-0.5h1c0.3,0,0.5,0.2,0.5,0.5S84.1,217.3,83.8,217.3z M79.7,217.3h-1c-0.3,0-0.5-0.2-0.5-0.5s0.2-0.5,0.5-0.5h1
				c0.3,0,0.5,0.2,0.5,0.5S80,217.3,79.7,217.3z M75.7,217.3h-1c-0.3,0-0.5-0.2-0.5-0.5s0.2-0.5,0.5-0.5h1c0.3,0,0.5,0.2,0.5,0.5
				S76,217.3,75.7,217.3z M71.7,217.3h-1c-0.3,0-0.5-0.2-0.5-0.5s0.2-0.5,0.5-0.5h1c0.3,0,0.5,0.2,0.5,0.5S71.9,217.3,71.7,217.3z
				 M67.6,217.3h-1c-0.3,0-0.5-0.2-0.5-0.5s0.2-0.5,0.5-0.5h1c0.3,0,0.5,0.2,0.5,0.5S67.9,217.3,67.6,217.3z M63.6,217.3h-1
				c-0.3,0-0.5-0.2-0.5-0.5s0.2-0.5,0.5-0.5h1c0.3,0,0.5,0.2,0.5,0.5S63.9,217.3,63.6,217.3z M59.6,217.3h-1c-0.3,0-0.5-0.2-0.5-0.5
				s0.2-0.5,0.5-0.5h1c0.3,0,0.5,0.2,0.5,0.5S59.8,217.3,59.6,217.3z M55.5,217.3h-1c-0.3,0-0.5-0.2-0.5-0.5s0.2-0.5,0.5-0.5h1
				c0.3,0,0.5,0.2,0.5,0.5S55.8,217.3,55.5,217.3z"/>
		</g>
		<g>
			<path d="M260.8,217.3h-0.5c-0.3,0-0.5-0.2-0.5-0.5s0.2-0.5,0.5-0.5h0.5c0.3,0,0.5,0.2,0.5,0.5S261.1,217.3,260.8,217.3z"/>
		</g>
	</g>
	<g>
		<rect x="33.2" y="97.5" width="18.9" height="0.5"/>
	</g>
	<g>
		<path d="M52,96.7c-0.6,0-1.1,0.5-1.1,1.1s0.5,1.1,1.1,1.1c0.6,0,1.1-0.5,1.1-1.1S52.6,96.7,52,96.7C51.4,96.7,52.6,96.7,52,96.7z
			 M52,98.6c-0.4,0-0.8-0.4-0.8-0.8s0.4-0.8,0.8-0.8c0.4,0,0.8,0.4,0.8,0.8S52.4,98.6,52,98.6C51.5,98.6,52.4,98.6,52,98.6z"/>
	</g>
	<g>
		<rect x="33.2" y="104.6" width="18.9" height="0.5"/>
	</g>
	<g>
		<path d="M52,103.8c-0.6,0-1.1,0.5-1.1,1.1s0.5,1.1,1.1,1.1c0.6,0,1.1-0.5,1.1-1.1S52.6,103.8,52,103.8
			C51.4,103.8,52.6,103.8,52,103.8z M52,105.7c-0.4,0-0.8-0.4-0.8-0.8s0.4-0.8,0.8-0.8c0.4,0,0.8,0.4,0.8,0.8S52.4,105.7,52,105.7
			C51.5,105.7,52.4,105.7,52,105.7z"/>
	</g>
	<g>
		<rect x="33.2" y="111.7" width="18.9" height="0.5"/>
	</g>
	<g>
		<path d="M52,110.9c-0.6,0-1.1,0.5-1.1,1.1s0.5,1.1,1.1,1.1c0.6,0,1.1-0.5,1.1-1.1S52.6,110.9,52,110.9
			C51.4,110.9,52.6,110.9,52,110.9z M52,112.8c-0.4,0-0.8-0.4-0.8-0.8s0.4-0.8,0.8-0.8c0.4,0,0.8,0.4,0.8,0.8S52.4,112.8,52,112.8
			C51.5,112.8,52.4,112.8,52,112.8z"/>
	</g>
	<g>
		<rect x="33.2" y="118.8" width="18.9" height="0.5"/>
	</g>
	<g>
		<path d="M52,118c-0.6,0-1.1,0.5-1.1,1.1s0.5,1.1,1.1,1.1c0.6,0,1.1-0.5,1.1-1.1S52.6,118,52,118C51.4,118,52.6,118,52,118z
			 M52,119.9c-0.4,0-0.8-0.4-0.8-0.8s0.4-0.8,0.8-0.8c0.4,0,0.8,0.4,0.8,0.8S52.4,119.9,52,119.9C51.5,119.9,52.4,119.9,52,119.9z"
			/>
	</g>
	<g>
		<rect x="33.2" y="125.9" width="18.9" height="0.5"/>
	</g>
	<g>
		<path d="M52,125.1c-0.6,0-1.1,0.5-1.1,1.1s0.5,1.1,1.1,1.1c0.6,0,1.1-0.5,1.1-1.1S52.6,125.1,52,125.1
			C51.4,125.1,52.6,125.1,52,125.1z M52,127c-0.4,0-0.8-0.4-0.8-0.8s0.4-0.8,0.8-0.8c0.4,0,0.8,0.4,0.8,0.8S52.4,127,52,127
			C51.5,127,52.4,127,52,127z"/>
	</g>
	<g>
		<rect x="33.2" y="133" width="18.9" height="0.5"/>
	</g>
	<g>
		<path d="M52,132.2c-0.6,0-1.1,0.5-1.1,1.1s0.5,1.1,1.1,1.1c0.6,0,1.1-0.5,1.1-1.1S52.6,132.2,52,132.2
			C51.4,132.2,52.6,132.2,52,132.2z M52,134.1c-0.4,0-0.8-0.4-0.8-0.8s0.4-0.8,0.8-0.8c0.4,0,0.8,0.4,0.8,0.8S52.4,134.1,52,134.1
			C51.5,134.1,52.4,134.1,52,134.1z"/>
	</g>
	<g>
		<rect x="33.2" y="140.2" width="18.9" height="0.5"/>
	</g>
	<g>
		<path d="M52,139.3c-0.6,0-1.1,0.5-1.1,1.1s0.5,1.1,1.1,1.1c0.6,0,1.1-0.5,1.1-1.1S52.6,139.3,52,139.3
			C51.4,139.3,52.6,139.3,52,139.3z M52,141.2c-0.4,0-0.8-0.4-0.8-0.8s0.4-0.8,0.8-0.8c0.4,0,0.8,0.4,0.8,0.8S52.4,141.2,52,141.2
			C51.5,141.2,52.4,141.2,52,141.2z"/>
	</g>
	<g>
		<rect x="33.2" y="147.3" width="18.9" height="0.5"/>
	</g>
	<g>
		<path d="M52,146.5c-0.6,0-1.1,0.5-1.1,1.1s0.5,1.1,1.1,1.1c0.6,0,1.1-0.5,1.1-1.1S52.6,146.5,52,146.5
			C51.4,146.5,52.6,146.5,52,146.5z M52,148.3c-0.4,0-0.8-0.4-0.8-0.8s0.4-0.8,0.8-0.8c0.4,0,0.8,0.4,0.8,0.8S52.4,148.3,52,148.3
			C51.5,148.3,52.4,148.3,52,148.3z"/>
	</g>
	<g>
		<rect x="33.2" y="154.4" width="18.9" height="0.5"/>
	</g>
	<g>
		<path d="M52,153.6c-0.6,0-1.1,0.5-1.1,1.1s0.5,1.1,1.1,1.1c0.6,0,1.1-0.5,1.1-1.1S52.6,153.6,52,153.6
			C51.4,153.6,52.6,153.6,52,153.6z M52,155.4c-0.4,0-0.8-0.4-0.8-0.8s0.4-0.8,0.8-0.8c0.4,0,0.8,0.4,0.8,0.8S52.4,155.4,52,155.4
			C51.5,155.4,52.4,155.4,52,155.4z"/>
	</g>
	<g>
		<rect x="33.2" y="161.5" width="18.9" height="0.5"/>
	</g>
	<g>
		<path d="M52,160.7c-0.6,0-1.1,0.5-1.1,1.1s0.5,1.1,1.1,1.1c0.6,0,1.1-0.5,1.1-1.1S52.6,160.7,52,160.7
			C51.4,160.7,52.6,160.7,52,160.7z M52,162.6c-0.4,0-0.8-0.4-0.8-0.8s0.4-0.8,0.8-0.8c0.4,0,0.8,0.4,0.8,0.8S52.4,162.6,52,162.6
			C51.5,162.6,52.4,162.6,52,162.6z"/>
	</g>
	<g>
		<rect x="260" y="97.5" width="18.9" height="0.5"/>
	</g>
	<g>
		<path d="M260,98.8c0.6,0,1.1-0.5,1.1-1.1s-0.5-1.1-1.1-1.1c-0.6,0-1.1,0.5-1.1,1.1S259.4,98.8,260,98.8
			C260.6,98.8,259.4,98.8,260,98.8z M260,96.9c0.4,0,0.8,0.4,0.8,0.8s-0.4,0.8-0.8,0.8c-0.4,0-0.8-0.4-0.8-0.8S259.6,96.9,260,96.9
			C260.5,96.9,259.6,96.9,260,96.9z"/>
	</g>
	<g>
		<rect x="260" y="104.6" width="18.9" height="0.5"/>
	</g>
	<g>
		<path d="M260,105.9c0.6,0,1.1-0.5,1.1-1.1s-0.5-1.1-1.1-1.1c-0.6,0-1.1,0.5-1.1,1.1S259.4,105.9,260,105.9
			C260.6,105.9,259.4,105.9,260,105.9z M260,104c0.4,0,0.8,0.4,0.8,0.8s-0.4,0.8-0.8,0.8c-0.4,0-0.8-0.4-0.8-0.8S259.6,104,260,104
			C260.5,104,259.6,104,260,104z"/>
	</g>
	<g>
		<rect x="260" y="111.7" width="18.9" height="0.5"/>
	</g>
	<g>
		<path d="M260,113c0.6,0,1.1-0.5,1.1-1.1s-0.5-1.1-1.1-1.1c-0.6,0-1.1,0.5-1.1,1.1S259.4,113,260,113C260.6,113,259.4,113,260,113z
			 M260,111.1c0.4,0,0.8,0.4,0.8,0.8s-0.4,0.8-0.8,0.8c-0.4,0-0.8-0.4-0.8-0.8S259.6,111.1,260,111.1
			C260.5,111.1,259.6,111.1,260,111.1z"/>
	</g>
	<g>
		<rect x="260" y="118.8" width="18.9" height="0.5"/>
	</g>
	<g>
		<path d="M260,120.1c0.6,0,1.1-0.5,1.1-1.1s-0.5-1.1-1.1-1.1c-0.6,0-1.1,0.5-1.1,1.1S259.4,120.1,260,120.1
			C260.6,120.1,259.4,120.1,260,120.1z M260,118.3c0.4,0,0.8,0.4,0.8,0.8s-0.4,0.8-0.8,0.8c-0.4,0-0.8-0.4-0.8-0.8
			S259.6,118.3,260,118.3C260.5,118.3,259.6,118.3,260,118.3z"/>
	</g>
	<g>
		<rect x="260" y="125.9" width="18.9" height="0.5"/>
	</g>
	<g>
		<path d="M260,127.2c0.6,0,1.1-0.5,1.1-1.1s-0.5-1.1-1.1-1.1c-0.6,0-1.1,0.5-1.1,1.1S259.4,127.2,260,127.2
			C260.6,127.2,259.4,127.2,260,127.2z M260,125.4c0.4,0,0.8,0.4,0.8,0.8s-0.4,0.8-0.8,0.8c-0.4,0-0.8-0.4-0.8-0.8
			S259.6,125.4,260,125.4C260.5,125.4,259.6,125.4,260,125.4z"/>
	</g>
	<g>
		<rect x="260" y="133" width="18.9" height="0.5"/>
	</g>
	<g>
		<path d="M260,134.4c0.6,0,1.1-0.5,1.1-1.1s-0.5-1.1-1.1-1.1c-0.6,0-1.1,0.5-1.1,1.1S259.4,134.4,260,134.4
			C260.6,134.4,259.4,134.4,260,134.4z M260,132.5c0.4,0,0.8,0.4,0.8,0.8s-0.4,0.8-0.8,0.8c-0.4,0-0.8-0.4-0.8-0.8
			S259.6,132.5,260,132.5C260.5,132.5,259.6,132.5,260,132.5z"/>
	</g>
	<g>
		<rect x="260" y="140.2" width="18.9" height="0.5"/>
	</g>
	<g>
		<path d="M260,141.5c0.6,0,1.1-0.5,1.1-1.1s-0.5-1.1-1.1-1.1c-0.6,0-1.1,0.5-1.1,1.1S259.4,141.5,260,141.5
			C260.6,141.5,259.4,141.5,260,141.5z M260,139.6c0.4,0,0.8,0.4,0.8,0.8s-0.4,0.8-0.8,0.8c-0.4,0-0.8-0.4-0.8-0.8
			S259.6,139.6,260,139.6C260.5,139.6,259.6,139.6,260,139.6z"/>
	</g>
	<g>
		<rect x="260" y="147.3" width="18.9" height="0.5"/>
	</g>
	<g>
		<path d="M260,148.6c0.6,0,1.1-0.5,1.1-1.1s-0.5-1.1-1.1-1.1c-0.6,0-1.1,0.5-1.1,1.1S259.4,148.6,260,148.6
			C260.6,148.6,259.4,148.6,260,148.6z M260,146.7c0.4,0,0.8,0.4,0.8,0.8s-0.4,0.8-0.8,0.8c-0.4,0-0.8-0.4-0.8-0.8
			S259.6,146.7,260,146.7C260.5,146.7,259.6,146.7,260,146.7z"/>
	</g>
	<g>
		<rect x="260" y="154.4" width="18.9" height="0.5"/>
	</g>
	<g>
		<path d="M260,155.7c0.6,0,1.1-0.5,1.1-1.1s-0.5-1.1-1.1-1.1c-0.6,0-1.1,0.5-1.1,1.1S259.4,155.7,260,155.7
			C260.6,155.7,259.4,155.7,260,155.7z M260,153.8c0.4,0,0.8,0.4,0.8,0.8s-0.4,0.8-0.8,0.8c-0.4,0-0.8-0.4-0.8-0.8
			S259.6,153.8,260,153.8C260.5,153.8,259.6,153.8,260,153.8z"/>
	</g>
	<g>
		<rect x="260" y="161.5" width="18.9" height="0.5"/>
	</g>
	<g>
		<path d="M260,162.8c0.6,0,1.1-0.5,1.1-1.1s-0.5-1.1-1.1-1.1c-0.6,0-1.1,0.5-1.1,1.1S259.4,162.8,260,162.8
			C260.6,162.8,259.4,162.8,260,162.8z M260,160.9c0.4,0,0.8,0.4,0.8,0.8s-0.4,0.8-0.8,0.8c-0.4,0-0.8-0.4-0.8-0.8
			S259.6,160.9,260,160.9C260.5,160.9,259.6,160.9,260,160.9z"/>
	</g>
</g>
</svg>
