<?xml version="1.0" encoding="UTF-8" standalone="no"?>
<!-- Generator: Adobe Illustrator 24.2.3, SVG Export Plug-In . SVG Version: 6.00 Build 0)  -->

<svg
   version="1.1"
   x="0px"
   y="0px"
   viewBox="0 0 314 220"
   style="enable-background:new 0 0 314 220;"
   xml:space="preserve"
   id="svg1124"
   sodipodi:docname="beepy-header-breakout.svg"
   inkscape:version="1.1 (c68e22c387, 2021-05-23)"
   xmlns:inkscape="http://www.inkscape.org/namespaces/inkscape"
   xmlns:sodipodi="http://sodipodi.sourceforge.net/DTD/sodipodi-0.dtd"
   xmlns="http://www.w3.org/2000/svg"
   xmlns:svg="http://www.w3.org/2000/svg"><defs
   id="defs1128">
	
	
	
	
	
	
	
	
	
	
	
	
	
	
	
	
	
	
	
	
	
	
	
	
	
	
	
	
	
	
	
	
	
	
	
	
	
	
	
	
	
	
	
	
	
	
	
	
	
	
	
	
	
	
	
	
	
	
	
	
	
	
	
	
	
	
	
	
	
	
	
	
	
	
	
	
	
	
	
	
	
	
	
	
	
	
	
	
	
	
	
	
	
	
	
	
	
	
	
	
	
	
	
	
	
	
	
	
	
	
	
	
	
	
	
	
	
	
	
	
	
	
	
	
	
	
	
	
	
	
	
	
	
	
	
	
	
	
	
	
	
	
	
	
	
	
	
	
	
	
	
	
	
	
	
	
	
	
	
	
	
	
	
	
	
	
	
	
	
	
	
</defs><sodipodi:namedview
   id="namedview1126"
   pagecolor="#505050"
   bordercolor="#ffffff"
   borderopacity="1"
   inkscape:pageshadow="0"
   inkscape:pageopacity="0"
   inkscape:pagecheckerboard="1"
   showgrid="false"
   inkscape:zoom="5.2197452"
   inkscape:cx="157"
   inkscape:cy="109.96705"
   inkscape:window-width="3840"
   inkscape:window-height="2050"
   inkscape:window-x="-12"
   inkscape:window-y="-12"
   inkscape:window-maximized="1"
   inkscape:current-layer="svg1124" />
<g
   id="Layer_2">
</g>
<g
   id="g7">
		<polygon
   points="179.8,191.4 179.6,191.1 179.6,191.1 95.3,191.1 95.3,201 179.9,201 179.9,191.8 "
   id="polygon3" />
		<path
   d="M 179.9,201.2 H 95.3 c -0.1,0 -0.2,-0.1 -0.2,-0.2 v -9.9 c 0,-0.1 0.1,-0.2 0.2,-0.2 h 84.4 c 0.1,0 0.2,0.1 0.2,0.2 l 0.1,0.2 c 0,0 0,0.1 0,0.1 l 0.1,0.4 v 9.2 c 0,0.1 -0.1,0.2 -0.2,0.2 z m -84.4,-0.5 h 84.1 v -8.9 -0.3 l -0.1,-0.2 h -84 z"
   id="path5" />
	</g><g
   id="g11">
		<path
   d="M 180.3,201.5 H 94.8 v -10.9 h 85.5 z m -84.5,-1 h 83.5 v -8.9 H 95.8 Z"
   id="path9" />
	</g><g
   id="g15">
		<path
   d="M 245.2,187 H 67.1 c -0.3,0 -0.5,-0.2 -0.5,-0.5 V 69.7 c 0,-0.3 0.2,-0.5 0.5,-0.5 h 178.1 c 0.3,0 0.5,0.2 0.5,0.5 v 116.8 c 0,0.3 -0.2,0.5 -0.5,0.5 z M 67.6,186 H 244.7 V 70.2 H 67.6 Z"
   id="path13" />
	</g><g
   id="g19">
		<path
   d="M 143.5,191.6 H 67.1 c -0.3,0 -0.5,-0.2 -0.5,-0.5 v -4.6 c 0,-0.3 0.2,-0.5 0.5,-0.5 0.3,0 0.5,0.2 0.5,0.5 v 4.1 h 75.8 c 0.3,0 0.5,0.2 0.5,0.5 0,0.3 -0.2,0.5 -0.4,0.5 z"
   id="path17" />
	</g><g
   id="g23">
		<path
   d="M 245.2,191.6 H 169 c -0.3,0 -0.5,-0.2 -0.5,-0.5 0,-0.3 0.2,-0.5 0.5,-0.5 h 75.8 v -4.1 c 0,-0.3 0.2,-0.5 0.5,-0.5 0.3,0 0.5,0.2 0.5,0.5 v 4.6 c -0.1,0.3 -0.3,0.5 -0.6,0.5 z"
   id="path21" />
	</g><g
   id="g27">
		<path
   d="M 69,71.2 V 184.4 H 243.4 V 71.2 Z M 239.6,175.4 H 72.8 v -100 h 166.7 v 100 z"
   id="path25" />
	</g><g
   id="g31">
		<path
   d="m 94.9,58.3 h -5.4 c -0.1,0 -0.2,-0.1 -0.2,-0.2 v -5.9 c 0,-0.1 0.1,-0.2 0.2,-0.2 h 5.4 c 0.1,0 0.2,0.1 0.2,0.2 v 5.9 c 0.1,0.1 0,0.2 -0.2,0.2 z m -5.1,-0.5 h 4.9 v -5.4 h -4.9 z"
   id="path29" />
	</g><g
   id="g35">
		<path
   d="m 92.2,57.6 c -1.4,0 -2.5,-1.1 -2.5,-2.5 0,-1.4 1.1,-2.5 2.5,-2.5 1.4,0 2.5,1.1 2.5,2.5 0,1.4 -1.1,2.5 -2.5,2.5 z m 0,-4.5 c -1.1,0 -2,0.9 -2,2 0,1.1 0.9,2 2,2 1.1,0 2,-0.9 2,-2 0,-1.1 -0.9,-2 -2,-2 z"
   id="path33" />
	</g><g
   id="g39">
		<path
   d="m 94.9,58.3 c 0,0 -0.1,0 -0.1,0 l -0.2,-0.1 c -0.1,-0.1 -0.1,-0.2 -0.1,-0.3 0.1,-0.1 0.2,-0.1 0.3,-0.1 l 0.2,0.1 c 0.1,0.1 0.1,0.2 0.1,0.3 0,0.1 -0.1,0.1 -0.2,0.1 z"
   id="path37" />
	</g><g
   id="g43">
		<path
   d="m 94.9,57.5 c -0.1,0 -0.2,-0.1 -0.2,-0.2 v -1.4 c 0,-0.1 0.1,-0.2 0.2,-0.2 0.1,0 0.2,0.1 0.2,0.2 v 1.4 c 0.1,0.1 0,0.2 -0.2,0.2 z"
   id="path41" />
	</g><g
   id="g47">
		<path
   d="M 95.2,57.5 H 95 c -0.1,0 -0.2,-0.1 -0.2,-0.2 0,-0.1 0.1,-0.2 0.2,-0.2 V 56 c -0.1,0 -0.2,-0.1 -0.2,-0.2 0,-0.1 0.1,-0.2 0.2,-0.2 h 0.2 c 0.1,0 0.2,0.1 0.2,0.2 v 1.4 c 0,0.2 -0.1,0.3 -0.2,0.3 z"
   id="path45" />
	</g><g
   id="g51">
		<path
   d="m 89.5,57.5 c -0.1,0 -0.2,-0.1 -0.2,-0.2 v -1.4 c 0,-0.1 0.1,-0.2 0.2,-0.2 0.1,0 0.2,0.1 0.2,0.2 v 1.4 c 0.1,0.1 0,0.2 -0.2,0.2 z"
   id="path49" />
	</g><g
   id="g55">
		<path
   d="M 89.5,57.5 H 89.2 C 89.1,57.5 89,57.4 89,57.3 v -1.4 c 0,-0.1 0.1,-0.2 0.2,-0.2 h 0.3 c 0.1,0 0.2,0.1 0.2,0.2 0,0.1 0,0.1 -0.2,0.1 h -0.1 v 1 h 0.1 c 0.1,0 0.2,0.1 0.2,0.2 0,0.1 0,0.3 -0.2,0.3 z"
   id="path53" />
	</g><g
   id="g59">
		<path
   d="m 94.9,54.7 c -0.1,0 -0.2,-0.1 -0.2,-0.2 V 53 c 0,-0.1 0.1,-0.2 0.2,-0.2 0.1,0 0.2,0.1 0.2,0.2 v 1.4 c 0.1,0.1 0,0.3 -0.2,0.3 z"
   id="path57" />
	</g><g
   id="g63">
		<path
   d="M 95.2,54.7 H 95 c -0.1,0 -0.2,-0.1 -0.2,-0.2 0,-0.1 0.1,-0.2 0.2,-0.2 v -0.9 c -0.1,0 -0.2,-0.1 -0.2,-0.2 0,-0.1 0.1,-0.2 0.2,-0.2 h 0.2 c 0.1,0 0.2,0.1 0.2,0.2 v 1.4 c 0,-0.1 -0.1,0.1 -0.2,0.1 z"
   id="path61" />
	</g><g
   id="g67">
		<path
   d="m 89.5,54.7 c -0.1,0 -0.2,-0.1 -0.2,-0.2 V 53 c 0,-0.1 0.1,-0.2 0.2,-0.2 0.1,0 0.2,0.1 0.2,0.2 v 1.4 c 0.1,0.1 0,0.3 -0.2,0.3 z"
   id="path65" />
	</g><g
   id="g71">
		<path
   d="M 89.5,54.7 H 89.2 C 89.1,54.7 89,54.6 89,54.5 V 53 c 0,-0.1 0.1,-0.2 0.2,-0.2 h 0.3 c 0.1,0 0.2,0.1 0.2,0.2 0,0.1 -0.1,0.2 -0.2,0.2 h -0.1 v 0.9 h 0.1 c 0.1,0 0.2,0.1 0.2,0.2 0,0.1 0,0.4 -0.2,0.4 z"
   id="path69" />
	</g><g
   id="g75">
		<path
   d="m 251.1,78.4 c -0.5,0 -0.8,-0.4 -0.8,-0.8 0,-0.4 0.4,-0.8 0.8,-0.8 0.4,0 0.8,0.4 0.8,0.8 0,0.4 -0.4,0.8 -0.8,0.8 z m 0,-1.2 c -0.2,0 -0.3,0.1 -0.3,0.3 0,0.2 0.1,0.3 0.3,0.3 0.2,0 0.3,-0.1 0.3,-0.3 0,-0.2 -0.2,-0.3 -0.3,-0.3 z"
   id="path73" />
	</g><g
   id="g79">
		<path
   d="m 251.1,78.7 c -0.7,0 -1.2,-0.5 -1.2,-1.2 0,-0.7 0.5,-1.2 1.2,-1.2 0.7,0 1.2,0.5 1.2,1.2 0,0.7 -0.6,1.2 -1.2,1.2 z m 0,-1.8 c -0.4,0 -0.7,0.3 -0.7,0.7 0,0.4 0.3,0.7 0.7,0.7 0.4,0 0.7,-0.3 0.7,-0.7 0,-0.4 -0.4,-0.7 -0.7,-0.7 z"
   id="path77" />
	</g><g
   id="g83">
		<path
   d="m 258.9,78.4 c -0.5,0 -0.8,-0.4 -0.8,-0.8 0,-0.4 0.4,-0.8 0.8,-0.8 0.4,0 0.8,0.4 0.8,0.8 0,0.4 -0.4,0.8 -0.8,0.8 z m 0,-1.2 c -0.2,0 -0.3,0.1 -0.3,0.3 0,0.2 0.1,0.3 0.3,0.3 0.2,0 0.3,-0.1 0.3,-0.3 0,-0.2 -0.2,-0.3 -0.3,-0.3 z"
   id="path81" />
	</g><g
   id="g87">
		<path
   d="m 258.9,78.7 c -0.7,0 -1.2,-0.5 -1.2,-1.2 0,-0.7 0.5,-1.2 1.2,-1.2 0.7,0 1.2,0.5 1.2,1.2 0,0.7 -0.6,1.2 -1.2,1.2 z m 0,-1.8 c -0.4,0 -0.7,0.3 -0.7,0.7 0,0.4 0.3,0.7 0.7,0.7 0.4,0 0.7,-0.3 0.7,-0.7 0,-0.4 -0.4,-0.7 -0.7,-0.7 z"
   id="path85" />
	</g><g
   id="g91">
		<path
   d="m 261.1,81.2 h -0.2 c -0.1,0 -0.2,-0.1 -0.2,-0.2 0,-0.1 0.1,-0.2 0.2,-0.2 h 0.2 c 0.1,0 0.2,0.1 0.2,0.2 0,0.1 -0.1,0.2 -0.2,0.2 z"
   id="path89" />
	</g><g
   id="g95">
		<path
   d="m 261.1,74.4 h -0.2 c -0.1,0 -0.2,-0.1 -0.2,-0.2 0,-0.1 0.1,-0.2 0.2,-0.2 h 0.2 c 0.1,0 0.2,0.1 0.2,0.2 0,0.1 -0.1,0.2 -0.2,0.2 z"
   id="path93" />
	</g><g
   id="g99">
		<path
   d="M 262.7,74.3 H 261 c -0.3,0 -0.5,-0.2 -0.5,-0.5 0,-0.3 0.2,-0.5 0.5,-0.5 h 1.7 c 0.3,0 0.5,0.2 0.5,0.5 0,0.3 -0.2,0.5 -0.5,0.5 z"
   id="path97" />
	</g><g
   id="g103">
		<path
   d="M 262.7,81.7 H 261 c -0.3,0 -0.5,-0.2 -0.5,-0.5 0,-0.3 0.2,-0.5 0.5,-0.5 h 1.2 v -6.9 c 0,-0.3 0.2,-0.5 0.5,-0.5 0.3,0 0.5,0.2 0.5,0.5 v 7.4 c 0,0.3 -0.2,0.5 -0.5,0.5 z"
   id="path101" />
	</g><g
   id="g107">
		<path
   d="m 261.1,78.7 h -0.2 c -0.1,0 -0.2,-0.1 -0.2,-0.2 0,-0.1 0.1,-0.2 0.2,-0.2 h 0.2 c 0.1,0 0.2,0.1 0.2,0.2 0,0.1 -0.1,0.2 -0.2,0.2 z"
   id="path105" />
	</g><g
   id="g111">
		<path
   d="m 261.1,79.5 h -0.2 c -0.1,0 -0.2,-0.1 -0.2,-0.2 0,-0.1 0.1,-0.2 0.2,-0.2 h 0.2 c 0.1,0 0.2,0.1 0.2,0.2 0,0.1 -0.1,0.2 -0.2,0.2 z"
   id="path109" />
	</g><g
   id="g115">
		<path
   d="m 261.1,77 h -0.2 c -0.1,0 -0.2,-0.1 -0.2,-0.2 0,-0.1 0.1,-0.2 0.2,-0.2 h 0.2 c 0.1,0 0.2,0.1 0.2,0.2 0,0.1 -0.1,0.2 -0.2,0.2 z"
   id="path113" />
	</g><g
   id="g119">
		<path
   d="m 261.1,76.1 h -0.2 c -0.1,0 -0.2,-0.1 -0.2,-0.2 0,-0.1 0.1,-0.2 0.2,-0.2 h 0.2 c 0.1,0 0.2,0.1 0.2,0.2 0,0.1 -0.1,0.2 -0.2,0.2 z"
   id="path117" />
	</g><g
   id="g123">
		<path
   d="m 261.1,81.5 c -0.1,0 -0.2,-0.1 -0.2,-0.2 v -7.4 c 0,-0.1 0.1,-0.2 0.2,-0.2 0.1,0 0.2,0.1 0.2,0.2 v 7.4 c 0,0.1 -0.1,0.2 -0.2,0.2 z"
   id="path121" />
	</g><g
   id="g127">
		<path
   d="m 71.6,58.2 c 0,1.2 1,2.1 2.1,2.1 1.2,0 2.1,-1 2.1,-2.1 0,-1.2 -1,-2.1 -2.1,-2.1 -1.1,-0.1 -2.1,0.9 -2.1,2.1"
   id="path125" />
	</g><g
   id="g131">
		<path
   d="m 73.8,63.4 c -2.9,0 -5.2,-2.3 -5.2,-5.2 0,-2.9 2.3,-5.2 5.2,-5.2 2.9,0 5.2,2.3 5.2,5.2 0,2.9 -2.4,5.2 -5.2,5.2 z m 0,-9.9 c -2.6,0 -4.7,2.1 -4.7,4.7 0,2.6 2.1,4.7 4.7,4.7 2.6,0 4.7,-2.1 4.7,-4.7 0,-2.6 -2.1,-4.7 -4.7,-4.7 z"
   id="path129" />
	</g><g
   id="g135">
		<path
   d="m 236.1,58.2 c 0,1.2 1,2.1 2.1,2.1 1.2,0 2.1,-1 2.1,-2.1 0,-1.2 -1,-2.1 -2.1,-2.1 -1.1,-0.1 -2.1,0.9 -2.1,2.1"
   id="path133" />
	</g><g
   id="g139">
		<path
   d="m 238.2,63.4 c -2.9,0 -5.2,-2.3 -5.2,-5.2 0,-2.9 2.3,-5.2 5.2,-5.2 2.9,0 5.2,2.3 5.2,5.2 0,2.9 -2.3,5.2 -5.2,5.2 z m 0,-9.9 c -2.6,0 -4.7,2.1 -4.7,4.7 0,2.6 2.1,4.7 4.7,4.7 2.6,0 4.7,-2.1 4.7,-4.7 0,-2.6 -2.1,-4.7 -4.7,-4.7 z"
   id="path137" />
	</g><g
   id="g143">
		<path
   d="m 70.4,201.2 c -0.1,0 -0.2,-0.1 -0.2,-0.2 v -9.9 c 0,-0.1 0.1,-0.2 0.2,-0.2 0.1,0 0.2,0.1 0.2,0.2 v 9.9 c 0,0.1 -0.1,0.2 -0.2,0.2 z"
   id="path141" />
	</g><g
   id="g147">
		<path
   d="m 258.9,78.8 c -0.7,0 -1.3,-0.6 -1.3,-1.3 0,-0.7 0.6,-1.3 1.3,-1.3 0.7,0 1.3,0.6 1.3,1.3 0,0.7 -0.6,1.3 -1.3,1.3 z m 0,-2.1 c -0.4,0 -0.8,0.4 -0.8,0.8 0,0.4 0.4,0.8 0.8,0.8 0.4,0 0.8,-0.4 0.8,-0.8 0,-0.4 -0.4,-0.8 -0.8,-0.8 z"
   id="path145" />
	</g><g
   id="g151">
		<path
   d="m 251.1,78.8 c -0.7,0 -1.3,-0.6 -1.3,-1.3 0,-0.7 0.6,-1.3 1.3,-1.3 0.7,0 1.3,0.6 1.3,1.3 0,0.7 -0.6,1.3 -1.3,1.3 z m 0,-2.1 c -0.4,0 -0.8,0.4 -0.8,0.8 0,0.4 0.4,0.8 0.8,0.8 0.4,0 0.8,-0.4 0.8,-0.8 0,-0.4 -0.4,-0.8 -0.8,-0.8 z"
   id="path149" />
	</g><g
   id="g155">
		<path
   d="m 238.2,64.4 c -3.4,0 -6.2,-2.8 -6.2,-6.2 0,-3.4 2.8,-6.2 6.2,-6.2 3.4,0 6.2,2.8 6.2,6.2 0,3.4 -2.7,6.2 -6.2,6.2 z m 0,-12 c -3.2,0 -5.7,2.6 -5.7,5.7 0,3.2 2.6,5.7 5.7,5.7 3.2,0 5.7,-2.6 5.7,-5.7 0,-3.1 -2.5,-5.7 -5.7,-5.7 z"
   id="path153" />
	</g><g
   id="g159">
		<path
   d="m 238.2,67.2 c -5,0 -9,-4 -9,-9 0,-5 4,-9 9,-9 5,0 9,4 9,9 0,5 -4,9 -9,9 z m 0,-17.1 c -4.4,0 -8,3.6 -8,8 0,4.4 3.6,8 8,8 4.4,0 8,-3.6 8,-8 0,-4.4 -3.6,-8 -8,-8 z"
   id="path157" />
	</g><g
   id="g163">
		<path
   d="m 192.5,55.5 c 0,-0.8 -0.6,-1.4 -1.4,-1.4 -0.8,0 -1.4,0.6 -1.4,1.4 0,0.8 0.6,1.4 1.4,1.4 0.7,0 1.4,-0.7 1.4,-1.4"
   id="path161" />
	</g><g
   id="g167">
		<path
   d="m 185.3,55.5 c 0,-0.8 -0.6,-1.4 -1.4,-1.4 -0.8,0 -1.4,0.6 -1.4,1.4 0,0.8 0.6,1.4 1.4,1.4 0.8,0 1.4,-0.7 1.4,-1.4"
   id="path165" />
	</g><g
   id="g171">
		<path
   d="m 178.1,55.5 c 0,-0.8 -0.6,-1.4 -1.4,-1.4 -0.8,0 -1.4,0.6 -1.4,1.4 0,0.8 0.6,1.4 1.4,1.4 0.7,0 1.4,-0.7 1.4,-1.4"
   id="path169" />
	</g><g
   id="g175">
		<path
   d="m 170.9,55.5 c 0,-0.8 -0.6,-1.4 -1.4,-1.4 -0.8,0 -1.4,0.6 -1.4,1.4 0,0.8 0.6,1.4 1.4,1.4 0.8,0 1.4,-0.7 1.4,-1.4"
   id="path173" />
	</g><g
   id="g179">
		<path
   d="m 163.7,55.5 c 0,-0.8 -0.6,-1.4 -1.4,-1.4 -0.8,0 -1.4,0.6 -1.4,1.4 0,0.8 0.6,1.4 1.4,1.4 0.8,0 1.4,-0.7 1.4,-1.4"
   id="path177" />
	</g><g
   id="g183">
		<path
   d="m 156.5,55.5 c 0,-0.8 -0.6,-1.4 -1.4,-1.4 -0.8,0 -1.4,0.6 -1.4,1.4 0,0.8 0.6,1.4 1.4,1.4 0.7,0 1.4,-0.7 1.4,-1.4"
   id="path181" />
	</g><g
   id="g187">
		<path
   d="m 149.3,55.5 c 0,-0.8 -0.6,-1.4 -1.4,-1.4 -0.8,0 -1.4,0.6 -1.4,1.4 0,0.8 0.6,1.4 1.4,1.4 0.8,0 1.4,-0.7 1.4,-1.4"
   id="path185" />
	</g><g
   id="g191">
		<path
   d="m 142,55.5 c 0,-0.8 -0.6,-1.4 -1.4,-1.4 -0.8,0 -1.4,0.6 -1.4,1.4 0,0.8 0.6,1.4 1.4,1.4 0.8,0 1.4,-0.7 1.4,-1.4"
   id="path189" />
	</g><g
   id="g195">
		<path
   d="m 134.8,55.5 c 0,-0.8 -0.6,-1.4 -1.4,-1.4 -0.8,0 -1.4,0.6 -1.4,1.4 0,0.8 0.6,1.4 1.4,1.4 0.8,0 1.4,-0.7 1.4,-1.4"
   id="path193" />
	</g><g
   id="g199">
		<path
   d="m 127.6,55.5 c 0,-0.8 -0.6,-1.4 -1.4,-1.4 -0.8,0 -1.4,0.6 -1.4,1.4 0,0.8 0.6,1.4 1.4,1.4 0.8,0 1.4,-0.7 1.4,-1.4"
   id="path197" />
	</g><g
   id="g203">
		<path
   d="m 73.8,64.4 c -3.4,0 -6.2,-2.8 -6.2,-6.2 0,-3.4 2.8,-6.2 6.2,-6.2 3.4,0 6.2,2.8 6.2,6.2 0,3.4 -2.8,6.2 -6.2,6.2 z m 0,-12 c -3.2,0 -5.7,2.6 -5.7,5.7 0,3.2 2.6,5.7 5.7,5.7 3.2,0 5.7,-2.6 5.7,-5.7 0,-3.1 -2.6,-5.7 -5.7,-5.7 z"
   id="path201" />
	</g><g
   id="g207">
		<path
   d="m 73.8,67.2 c -5,0 -9,-4 -9,-9 0,-5 4,-9 9,-9 5,0 9,4 9,9 0,5 -4.1,9 -9,9 z m 0,-17.1 c -4.4,0 -8,3.6 -8,8 0,4.4 3.6,8 8,8 4.4,0 8,-3.6 8,-8 0,-4.4 -3.6,-8 -8,-8 z"
   id="path205" />
	</g><path
   d="m 167.3,194.4 h -22.1 c -1.1,0 -1.9,-0.9 -1.9,-1.9 v -5.4 c 0,-0.1 0.1,-0.2 0.2,-0.2 H 169 c 0.1,0 0.2,0.1 0.2,0.2 v 5.4 c 0,1 -0.9,1.9 -1.9,1.9 z m -23.6,-7.1 v 5.1 c 0,0.8 0.6,1.4 1.4,1.4 h 22.1 c 0.8,0 1.4,-0.6 1.4,-1.4 v -5.1 z"
   id="path209" /><g
   id="g283">
		<g
   id="g213">
			<path
   d="m 154.2,194.4 c -0.1,0 -0.2,-0.1 -0.2,-0.2 v -7 c 0,-0.1 0.1,-0.2 0.2,-0.2 0.1,0 0.2,0.1 0.2,0.2 v 7 c 0,0.1 -0.1,0.2 -0.2,0.2 z"
   id="path211" />
		</g>
		<g
   id="g217">
			<path
   d="m 152.9,194.4 c -0.1,0 -0.2,-0.1 -0.2,-0.2 v -7 c 0,-0.1 0.1,-0.2 0.2,-0.2 0.1,0 0.2,0.1 0.2,0.2 v 7 c 0,0.1 -0.1,0.2 -0.2,0.2 z"
   id="path215" />
		</g>
		<g
   id="g221">
			<path
   d="m 151.5,194.4 c -0.1,0 -0.2,-0.1 -0.2,-0.2 v -7 c 0,-0.1 0.1,-0.2 0.2,-0.2 0.1,0 0.2,0.1 0.2,0.2 v 7 c 0.1,0.1 -0.1,0.2 -0.2,0.2 z"
   id="path219" />
		</g>
		<g
   id="g225">
			<path
   d="m 150.2,194.4 c -0.1,0 -0.2,-0.1 -0.2,-0.2 v -7 c 0,-0.1 0.1,-0.2 0.2,-0.2 0.1,0 0.2,0.1 0.2,0.2 v 7 c 0,0.1 -0.1,0.2 -0.2,0.2 z"
   id="path223" />
		</g>
		<g
   id="g229">
			<path
   d="m 148.8,194.4 c -0.1,0 -0.2,-0.1 -0.2,-0.2 v -7 c 0,-0.1 0.1,-0.2 0.2,-0.2 0.1,0 0.2,0.1 0.2,0.2 v 7 c 0.1,0.1 0,0.2 -0.2,0.2 z"
   id="path227" />
		</g>
		<g
   id="g233">
			<path
   d="m 147.5,194.4 c -0.1,0 -0.2,-0.1 -0.2,-0.2 v -7 c 0,-0.1 0.1,-0.2 0.2,-0.2 0.1,0 0.2,0.1 0.2,0.2 v 7 c 0,0.1 -0.1,0.2 -0.2,0.2 z"
   id="path231" />
		</g>
		<g
   id="g237">
			<path
   d="m 146.1,194.4 c -0.1,0 -0.2,-0.1 -0.2,-0.2 v -7 c 0,-0.1 0.1,-0.2 0.2,-0.2 0.1,0 0.2,0.1 0.2,0.2 v 7 c 0.1,0.1 0,0.2 -0.2,0.2 z"
   id="path235" />
		</g>
		<g
   id="g241">
			<path
   d="m 144.8,194.4 c -0.1,0 -0.2,-0.1 -0.2,-0.2 v -7 c 0,-0.1 0.1,-0.2 0.2,-0.2 0.1,0 0.2,0.1 0.2,0.2 v 7 c 0,0.1 -0.1,0.2 -0.2,0.2 z"
   id="path239" />
		</g>
		<g
   id="g245">
			<path
   d="m 156.9,194.4 c -0.1,0 -0.2,-0.1 -0.2,-0.2 v -7 c 0,-0.1 0.1,-0.2 0.2,-0.2 0.1,0 0.2,0.1 0.2,0.2 v 7 c 0,0.1 -0.1,0.2 -0.2,0.2 z"
   id="path243" />
		</g>
		<g
   id="g249">
			<path
   d="m 167.6,194.4 c -0.1,0 -0.2,-0.1 -0.2,-0.2 v -7 c 0,-0.1 0.1,-0.2 0.2,-0.2 0.1,0 0.2,0.1 0.2,0.2 v 7 c 0.1,0.1 0,0.2 -0.2,0.2 z"
   id="path247" />
		</g>
		<g
   id="g253">
			<path
   d="m 166.3,194.4 c -0.1,0 -0.2,-0.1 -0.2,-0.2 v -7 c 0,-0.1 0.1,-0.2 0.2,-0.2 0.1,0 0.2,0.1 0.2,0.2 v 7 c 0,0.1 -0.1,0.2 -0.2,0.2 z"
   id="path251" />
		</g>
		<g
   id="g257">
			<path
   d="m 164.9,194.4 c -0.1,0 -0.2,-0.1 -0.2,-0.2 v -7 c 0,-0.1 0.1,-0.2 0.2,-0.2 0.1,0 0.2,0.1 0.2,0.2 v 7 c 0.1,0.1 0,0.2 -0.2,0.2 z"
   id="path255" />
		</g>
		<g
   id="g261">
			<path
   d="m 163.6,194.4 c -0.1,0 -0.2,-0.1 -0.2,-0.2 v -7 c 0,-0.1 0.1,-0.2 0.2,-0.2 0.1,0 0.2,0.1 0.2,0.2 v 7 c 0,0.1 -0.1,0.2 -0.2,0.2 z"
   id="path259" />
		</g>
		<g
   id="g265">
			<path
   d="m 162.2,194.4 c -0.1,0 -0.2,-0.1 -0.2,-0.2 v -7 c 0,-0.1 0.1,-0.2 0.2,-0.2 0.1,0 0.2,0.1 0.2,0.2 v 7 c 0.1,0.1 0,0.2 -0.2,0.2 z"
   id="path263" />
		</g>
		<g
   id="g269">
			<path
   d="m 160.9,194.4 c -0.1,0 -0.2,-0.1 -0.2,-0.2 v -7 c 0,-0.1 0.1,-0.2 0.2,-0.2 0.1,0 0.2,0.1 0.2,0.2 v 7 c 0.1,0.1 -0.1,0.2 -0.2,0.2 z"
   id="path267" />
		</g>
		<g
   id="g273">
			<path
   d="m 159.6,194.4 c -0.1,0 -0.2,-0.1 -0.2,-0.2 v -7 c 0,-0.1 0.1,-0.2 0.2,-0.2 0.1,0 0.2,0.1 0.2,0.2 v 7 c 0,0.1 -0.1,0.2 -0.2,0.2 z"
   id="path271" />
		</g>
		<g
   id="g277">
			<path
   d="m 158.2,194.4 c -0.1,0 -0.2,-0.1 -0.2,-0.2 v -7 c 0,-0.1 0.1,-0.2 0.2,-0.2 0.1,0 0.2,0.1 0.2,0.2 v 7 c 0.1,0.1 0,0.2 -0.2,0.2 z"
   id="path275" />
		</g>
		<g
   id="g281">
			<path
   d="m 155.5,194.4 c -0.1,0 -0.2,-0.1 -0.2,-0.2 v -7 c 0,-0.1 0.1,-0.2 0.2,-0.2 0.1,0 0.2,0.1 0.2,0.2 v 7 c 0.1,0.1 0,0.2 -0.2,0.2 z"
   id="path279" />
		</g>
	</g><g
   id="g445">
		<g
   id="g287">
			<path
   d="m 256.4,162.3 c 0,-0.8 -0.6,-1.4 -1.4,-1.4 -0.8,0 -1.4,0.6 -1.4,1.4 0,0.8 0.6,1.4 1.4,1.4 0.8,0 1.4,-0.6 1.4,-1.4"
   id="path285" />
		</g>
		<g
   id="g291">
			<path
   d="m 256.4,155.1 c 0,-0.8 -0.6,-1.4 -1.4,-1.4 -0.8,0 -1.4,0.6 -1.4,1.4 0,0.8 0.6,1.4 1.4,1.4 0.8,0 1.4,-0.6 1.4,-1.4"
   id="path289" />
		</g>
		<g
   id="g295">
			<path
   d="m 256.4,147.9 c 0,-0.8 -0.6,-1.4 -1.4,-1.4 -0.8,0 -1.4,0.6 -1.4,1.4 0,0.8 0.6,1.4 1.4,1.4 0.8,0 1.4,-0.6 1.4,-1.4"
   id="path293" />
		</g>
		<g
   id="g299">
			<path
   d="m 256.4,140.7 c 0,-0.8 -0.6,-1.4 -1.4,-1.4 -0.8,0 -1.4,0.6 -1.4,1.4 0,0.8 0.6,1.4 1.4,1.4 0.8,0 1.4,-0.6 1.4,-1.4"
   id="path297" />
		</g>
		<g
   id="g303">
			<path
   d="m 256.4,133.5 c 0,-0.8 -0.6,-1.4 -1.4,-1.4 -0.8,0 -1.4,0.6 -1.4,1.4 0,0.8 0.6,1.4 1.4,1.4 0.8,0 1.4,-0.6 1.4,-1.4"
   id="path301" />
		</g>
		<g
   id="g307">
			<path
   d="m 256.4,126.3 c 0,-0.8 -0.6,-1.4 -1.4,-1.4 -0.8,0 -1.4,0.6 -1.4,1.4 0,0.8 0.6,1.4 1.4,1.4 0.8,0 1.4,-0.6 1.4,-1.4"
   id="path305" />
		</g>
		<g
   id="g311">
			<path
   d="m 256.4,119.1 c 0,-0.8 -0.6,-1.4 -1.4,-1.4 -0.8,0 -1.4,0.6 -1.4,1.4 0,0.8 0.6,1.4 1.4,1.4 0.8,0 1.4,-0.6 1.4,-1.4"
   id="path309" />
		</g>
		<g
   id="g315">
			<path
   d="m 256.4,111.9 c 0,-0.8 -0.6,-1.4 -1.4,-1.4 -0.8,0 -1.4,0.6 -1.4,1.4 0,0.8 0.6,1.4 1.4,1.4 0.8,0 1.4,-0.6 1.4,-1.4"
   id="path313" />
		</g>
		<g
   id="g319">
			<path
   d="m 256.4,104.7 c 0,-0.8 -0.6,-1.4 -1.4,-1.4 -0.8,0 -1.4,0.6 -1.4,1.4 0,0.8 0.6,1.4 1.4,1.4 0.8,0 1.4,-0.6 1.4,-1.4"
   id="path317" />
		</g>
		<g
   id="g323">
			<path
   d="m 256.4,97.5 c 0,-0.8 -0.6,-1.4 -1.4,-1.4 -0.8,0 -1.4,0.6 -1.4,1.4 0,0.8 0.6,1.4 1.4,1.4 0.8,0 1.4,-0.6 1.4,-1.4"
   id="path321" />
		</g>
		<g
   id="g327">
			<path
   d="m 58.3,162.3 c 0,-0.8 -0.6,-1.4 -1.4,-1.4 -0.8,0 -1.4,0.6 -1.4,1.4 0,0.8 0.6,1.4 1.4,1.4 0.7,0 1.4,-0.6 1.4,-1.4"
   id="path325" />
		</g>
		<g
   id="g331">
			<path
   d="m 56.8,165.4 c -1.7,0 -3.1,-1.4 -3.1,-3.1 0,-1.7 1.4,-3.1 3.1,-3.1 1.7,0 3.1,1.4 3.1,3.1 0,1.7 -1.4,3.1 -3.1,3.1 z m 0,-5.7 c -1.4,0 -2.6,1.2 -2.6,2.6 0,1.4 1.2,2.6 2.6,2.6 1.4,0 2.6,-1.2 2.6,-2.6 0,-1.4 -1.1,-2.6 -2.6,-2.6 z"
   id="path329" />
		</g>
		<g
   id="g335">
			<path
   d="m 58.3,155.1 c 0,-0.8 -0.6,-1.4 -1.4,-1.4 -0.8,0 -1.4,0.6 -1.4,1.4 0,0.8 0.6,1.4 1.4,1.4 0.7,0 1.4,-0.6 1.4,-1.4"
   id="path333" />
		</g>
		<g
   id="g339">
			<path
   d="m 56.8,158.2 c -1.7,0 -3.1,-1.4 -3.1,-3.1 0,-1.7 1.4,-3.1 3.1,-3.1 1.7,0 3.1,1.4 3.1,3.1 0,1.7 -1.4,3.1 -3.1,3.1 z m 0,-5.7 c -1.4,0 -2.6,1.2 -2.6,2.6 0,1.4 1.2,2.6 2.6,2.6 1.4,0 2.6,-1.2 2.6,-2.6 0,-1.4 -1.1,-2.6 -2.6,-2.6 z"
   id="path337" />
		</g>
		<g
   id="g343">
			<path
   d="m 58.3,147.9 c 0,-0.8 -0.6,-1.4 -1.4,-1.4 -0.8,0 -1.4,0.6 -1.4,1.4 0,0.8 0.6,1.4 1.4,1.4 0.7,0 1.4,-0.6 1.4,-1.4"
   id="path341" />
		</g>
		<g
   id="g347">
			<path
   d="m 56.8,151 c -1.7,0 -3.1,-1.4 -3.1,-3.1 0,-1.7 1.4,-3.1 3.1,-3.1 1.7,0 3.1,1.4 3.1,3.1 0,1.7 -1.4,3.1 -3.1,3.1 z m 0,-5.7 c -1.4,0 -2.6,1.2 -2.6,2.6 0,1.4 1.2,2.6 2.6,2.6 1.4,0 2.6,-1.2 2.6,-2.6 0,-1.4 -1.1,-2.6 -2.6,-2.6 z"
   id="path345" />
		</g>
		<g
   id="g351">
			<path
   d="m 56.8,143.8 c -1.7,0 -3.1,-1.4 -3.1,-3.1 0,-1.7 1.4,-3.1 3.1,-3.1 1.7,0 3.1,1.4 3.1,3.1 0,1.7 -1.4,3.1 -3.1,3.1 z m 0,-5.7 c -1.4,0 -2.6,1.2 -2.6,2.6 0,1.4 1.2,2.6 2.6,2.6 1.4,0 2.6,-1.2 2.6,-2.6 0,-1.4 -1.1,-2.6 -2.6,-2.6 z"
   id="path349" />
		</g>
		<g
   id="g355">
			<path
   d="m 58.3,133.5 c 0,-0.8 -0.6,-1.4 -1.4,-1.4 -0.8,0 -1.4,0.6 -1.4,1.4 0,0.8 0.6,1.4 1.4,1.4 0.7,0 1.4,-0.6 1.4,-1.4"
   id="path353" />
		</g>
		<g
   id="g359">
			<path
   d="m 56.8,136.6 c -1.7,0 -3.1,-1.4 -3.1,-3.1 0,-1.7 1.4,-3.1 3.1,-3.1 1.7,0 3.1,1.4 3.1,3.1 0,1.7 -1.4,3.1 -3.1,3.1 z m 0,-5.7 c -1.4,0 -2.6,1.2 -2.6,2.6 0,1.4 1.2,2.6 2.6,2.6 1.4,0 2.6,-1.2 2.6,-2.6 0,-1.4 -1.1,-2.6 -2.6,-2.6 z"
   id="path357" />
		</g>
		<g
   id="g363">
			<path
   d="m 58.3,126.3 c 0,-0.8 -0.6,-1.4 -1.4,-1.4 -0.8,0 -1.4,0.6 -1.4,1.4 0,0.8 0.6,1.4 1.4,1.4 0.7,0 1.4,-0.6 1.4,-1.4"
   id="path361" />
		</g>
		<g
   id="g367">
			<path
   d="m 58.3,119.1 c 0,-0.8 -0.6,-1.4 -1.4,-1.4 -0.8,0 -1.4,0.6 -1.4,1.4 0,0.8 0.6,1.4 1.4,1.4 0.7,0 1.4,-0.6 1.4,-1.4"
   id="path365" />
		</g>
		<g
   id="g371">
			<path
   d="m 56.8,122.2 c -1.7,0 -3.1,-1.4 -3.1,-3.1 0,-1.7 1.4,-3.1 3.1,-3.1 1.7,0 3.1,1.4 3.1,3.1 0,1.7 -1.4,3.1 -3.1,3.1 z m 0,-5.7 c -1.4,0 -2.6,1.2 -2.6,2.6 0,1.4 1.2,2.6 2.6,2.6 1.4,0 2.6,-1.2 2.6,-2.6 0,-1.4 -1.1,-2.6 -2.6,-2.6 z"
   id="path369" />
		</g>
		<g
   id="g375">
			<path
   d="m 58.3,111.9 c 0,-0.8 -0.6,-1.4 -1.4,-1.4 -0.8,0 -1.4,0.6 -1.4,1.4 0,0.8 0.6,1.4 1.4,1.4 0.7,0 1.4,-0.6 1.4,-1.4"
   id="path373" />
		</g>
		<g
   id="g379">
			<path
   d="m 56.8,115 c -1.7,0 -3.1,-1.4 -3.1,-3.1 0,-1.7 1.4,-3.1 3.1,-3.1 1.7,0 3.1,1.4 3.1,3.1 0,1.7 -1.4,3.1 -3.1,3.1 z m 0,-5.7 c -1.4,0 -2.6,1.2 -2.6,2.6 0,1.4 1.2,2.6 2.6,2.6 1.4,0 2.6,-1.2 2.6,-2.6 0,-1.4 -1.1,-2.6 -2.6,-2.6 z"
   id="path377" />
		</g>
		<g
   id="g383">
			<path
   d="m 58.3,104.7 c 0,-0.8 -0.6,-1.4 -1.4,-1.4 -0.8,0 -1.4,0.6 -1.4,1.4 0,0.8 0.6,1.4 1.4,1.4 0.7,0 1.4,-0.6 1.4,-1.4"
   id="path381" />
		</g>
		<g
   id="g387">
			<path
   d="m 56.8,107.8 c -1.7,0 -3.1,-1.4 -3.1,-3.1 0,-1.7 1.4,-3.1 3.1,-3.1 1.7,0 3.1,1.4 3.1,3.1 0,1.7 -1.4,3.1 -3.1,3.1 z m 0,-5.7 c -1.4,0 -2.6,1.2 -2.6,2.6 0,1.4 1.2,2.6 2.6,2.6 1.4,0 2.6,-1.2 2.6,-2.6 0,-1.4 -1.1,-2.6 -2.6,-2.6 z"
   id="path385" />
		</g>
		<g
   id="g391">
			<path
   d="m 58.3,97.5 c 0,-0.8 -0.6,-1.4 -1.4,-1.4 -0.8,0 -1.4,0.6 -1.4,1.4 0,0.8 0.6,1.4 1.4,1.4 0.7,0 1.4,-0.6 1.4,-1.4"
   id="path389" />
		</g>
		<g
   id="g395">
			<path
   d="m 58.3,140.7 c 0,-0.8 -0.6,-1.4 -1.4,-1.4 -0.8,0 -1.4,0.6 -1.4,1.4 0,0.8 0.6,1.4 1.4,1.4 0.7,0 1.4,-0.6 1.4,-1.4"
   id="path393" />
		</g>
		<g
   id="g399">
			<path
   d="m 56.8,129.4 c -1.7,0 -3.1,-1.4 -3.1,-3.1 0,-1.7 1.4,-3.1 3.1,-3.1 1.7,0 3.1,1.4 3.1,3.1 0,1.7 -1.4,3.1 -3.1,3.1 z m 0,-5.7 c -1.4,0 -2.6,1.2 -2.6,2.6 0,1.4 1.2,2.6 2.6,2.6 1.4,0 2.6,-1.2 2.6,-2.6 0,-1.4 -1.1,-2.6 -2.6,-2.6 z"
   id="path397" />
		</g>
		<g
   id="g403">
			<path
   d="M 59.7,100.6 H 54 c -0.1,0 -0.2,-0.1 -0.2,-0.2 v -5.7 c 0,-0.1 0.1,-0.2 0.2,-0.2 h 5.7 c 0.1,0 0.2,0.1 0.2,0.2 v 5.7 c 0,0.1 -0.1,0.2 -0.2,0.2 z m -5.4,-0.5 h 5.2 v -5.2 h -5.2 z"
   id="path401" />
		</g>
		<g
   id="g407">
			<path
   d="m 255,165.4 c -1.7,0 -3.1,-1.4 -3.1,-3.1 0,-1.7 1.4,-3.1 3.1,-3.1 1.7,0 3.1,1.4 3.1,3.1 0,1.7 -1.4,3.1 -3.1,3.1 z m 0,-5.7 c -1.4,0 -2.6,1.2 -2.6,2.6 0,1.4 1.2,2.6 2.6,2.6 1.4,0 2.6,-1.2 2.6,-2.6 0,-1.4 -1.1,-2.6 -2.6,-2.6 z"
   id="path405" />
		</g>
		<g
   id="g411">
			<path
   d="m 255,158.2 c -1.7,0 -3.1,-1.4 -3.1,-3.1 0,-1.7 1.4,-3.1 3.1,-3.1 1.7,0 3.1,1.4 3.1,3.1 0,1.7 -1.4,3.1 -3.1,3.1 z m 0,-5.7 c -1.4,0 -2.6,1.2 -2.6,2.6 0,1.4 1.2,2.6 2.6,2.6 1.4,0 2.6,-1.2 2.6,-2.6 0,-1.4 -1.1,-2.6 -2.6,-2.6 z"
   id="path409" />
		</g>
		<g
   id="g415">
			<path
   d="m 255,151 c -1.7,0 -3.1,-1.4 -3.1,-3.1 0,-1.7 1.4,-3.1 3.1,-3.1 1.7,0 3.1,1.4 3.1,3.1 0,1.7 -1.4,3.1 -3.1,3.1 z m 0,-5.7 c -1.4,0 -2.6,1.2 -2.6,2.6 0,1.4 1.2,2.6 2.6,2.6 1.4,0 2.6,-1.2 2.6,-2.6 0,-1.4 -1.1,-2.6 -2.6,-2.6 z"
   id="path413" />
		</g>
		<g
   id="g419">
			<path
   d="m 255,143.8 c -1.7,0 -3.1,-1.4 -3.1,-3.1 0,-1.7 1.4,-3.1 3.1,-3.1 1.7,0 3.1,1.4 3.1,3.1 0,1.7 -1.4,3.1 -3.1,3.1 z m 0,-5.7 c -1.4,0 -2.6,1.2 -2.6,2.6 0,1.4 1.2,2.6 2.6,2.6 1.4,0 2.6,-1.2 2.6,-2.6 0,-1.4 -1.1,-2.6 -2.6,-2.6 z"
   id="path417" />
		</g>
		<g
   id="g423">
			<path
   d="m 255,136.6 c -1.7,0 -3.1,-1.4 -3.1,-3.1 0,-1.7 1.4,-3.1 3.1,-3.1 1.7,0 3.1,1.4 3.1,3.1 0,1.7 -1.4,3.1 -3.1,3.1 z m 0,-5.7 c -1.4,0 -2.6,1.2 -2.6,2.6 0,1.4 1.2,2.6 2.6,2.6 1.4,0 2.6,-1.2 2.6,-2.6 0,-1.4 -1.1,-2.6 -2.6,-2.6 z"
   id="path421" />
		</g>
		<g
   id="g427">
			<path
   d="m 255,122.2 c -1.7,0 -3.1,-1.4 -3.1,-3.1 0,-1.7 1.4,-3.1 3.1,-3.1 1.7,0 3.1,1.4 3.1,3.1 0,1.7 -1.4,3.1 -3.1,3.1 z m 0,-5.7 c -1.4,0 -2.6,1.2 -2.6,2.6 0,1.4 1.2,2.6 2.6,2.6 1.4,0 2.6,-1.2 2.6,-2.6 0,-1.4 -1.1,-2.6 -2.6,-2.6 z"
   id="path425" />
		</g>
		<g
   id="g431">
			<path
   d="m 255,115 c -1.7,0 -3.1,-1.4 -3.1,-3.1 0,-1.7 1.4,-3.1 3.1,-3.1 1.7,0 3.1,1.4 3.1,3.1 0,1.7 -1.4,3.1 -3.1,3.1 z m 0,-5.7 c -1.4,0 -2.6,1.2 -2.6,2.6 0,1.4 1.2,2.6 2.6,2.6 1.4,0 2.6,-1.2 2.6,-2.6 0,-1.4 -1.1,-2.6 -2.6,-2.6 z"
   id="path429" />
		</g>
		<g
   id="g435">
			<path
   d="m 255,107.8 c -1.7,0 -3.1,-1.4 -3.1,-3.1 0,-1.7 1.4,-3.1 3.1,-3.1 1.7,0 3.1,1.4 3.1,3.1 0,1.7 -1.4,3.1 -3.1,3.1 z m 0,-5.7 c -1.4,0 -2.6,1.2 -2.6,2.6 0,1.4 1.2,2.6 2.6,2.6 1.4,0 2.6,-1.2 2.6,-2.6 0,-1.4 -1.1,-2.6 -2.6,-2.6 z"
   id="path433" />
		</g>
		<g
   id="g439">
			<path
   d="m 255,129.4 c -1.7,0 -3.1,-1.4 -3.1,-3.1 0,-1.7 1.4,-3.1 3.1,-3.1 1.7,0 3.1,1.4 3.1,3.1 0,1.7 -1.4,3.1 -3.1,3.1 z m 0,-5.7 c -1.4,0 -2.6,1.2 -2.6,2.6 0,1.4 1.2,2.6 2.6,2.6 1.4,0 2.6,-1.2 2.6,-2.6 0,-1.4 -1.1,-2.6 -2.6,-2.6 z"
   id="path437" />
		</g>
		<g
   id="g443">
			<path
   d="m 257.9,100.6 h -5.7 c -0.1,0 -0.2,-0.1 -0.2,-0.2 v -5.7 c 0,-0.1 0.1,-0.2 0.2,-0.2 h 5.7 c 0.1,0 0.2,0.1 0.2,0.2 v 5.7 c 0,0.1 -0.1,0.2 -0.2,0.2 z m -5.5,-0.5 h 5.2 v -5.2 h -5.2 z"
   id="path441" />
		</g>
	</g><g
   id="g449">
		<path
   d="m 193.9,58.5 h -5.7 c -0.1,0 -0.2,-0.1 -0.2,-0.2 v -5.7 c 0,-0.1 0.1,-0.2 0.2,-0.2 h 5.7 c 0.1,0 0.2,0.1 0.2,0.2 v 5.7 c 0.1,0.1 -0.1,0.2 -0.2,0.2 z M 188.5,58 h 5.2 v -5.2 h -5.2 z"
   id="path447" />
	</g><g
   id="g453">
		<path
   d="m 183.9,58.5 c -1.7,0 -3.1,-1.4 -3.1,-3.1 0,-1.7 1.4,-3.1 3.1,-3.1 1.7,0 3.1,1.4 3.1,3.1 -0.1,1.8 -1.4,3.1 -3.1,3.1 z m 0,-5.6 c -1.4,0 -2.6,1.2 -2.6,2.6 0,1.4 1.2,2.6 2.6,2.6 1.4,0 2.6,-1.2 2.6,-2.6 0,-1.4 -1.2,-2.6 -2.6,-2.6 z"
   id="path451" />
	</g><g
   id="g457">
		<path
   d="m 176.7,58.5 c -1.7,0 -3.1,-1.4 -3.1,-3.1 0,-1.7 1.4,-3.1 3.1,-3.1 1.7,0 3.1,1.4 3.1,3.1 0,1.8 -1.4,3.1 -3.1,3.1 z m 0,-5.6 c -1.4,0 -2.6,1.2 -2.6,2.6 0,1.4 1.2,2.6 2.6,2.6 1.4,0 2.6,-1.2 2.6,-2.6 0,-1.4 -1.2,-2.6 -2.6,-2.6 z"
   id="path455" />
	</g><g
   id="g461">
		<path
   d="m 169.5,58.5 c -1.7,0 -3.1,-1.4 -3.1,-3.1 0,-1.7 1.4,-3.1 3.1,-3.1 1.7,0 3.1,1.4 3.1,3.1 -0.1,1.8 -1.4,3.1 -3.1,3.1 z m 0,-5.6 c -1.4,0 -2.6,1.2 -2.6,2.6 0,1.4 1.2,2.6 2.6,2.6 1.4,0 2.6,-1.2 2.6,-2.6 0,-1.4 -1.2,-2.6 -2.6,-2.6 z"
   id="path459" />
	</g><g
   id="g465">
		<path
   d="m 162.3,58.5 c -1.7,0 -3.1,-1.4 -3.1,-3.1 0,-1.7 1.4,-3.1 3.1,-3.1 1.7,0 3.1,1.4 3.1,3.1 -0.1,1.8 -1.4,3.1 -3.1,3.1 z m 0,-5.6 c -1.4,0 -2.6,1.2 -2.6,2.6 0,1.4 1.2,2.6 2.6,2.6 1.4,0 2.6,-1.2 2.6,-2.6 0,-1.4 -1.2,-2.6 -2.6,-2.6 z"
   id="path463" />
	</g><g
   id="g469">
		<path
   d="m 155.1,58.5 c -1.7,0 -3.1,-1.4 -3.1,-3.1 0,-1.7 1.4,-3.1 3.1,-3.1 1.7,0 3.1,1.4 3.1,3.1 0,1.8 -1.4,3.1 -3.1,3.1 z m 0,-5.6 c -1.4,0 -2.6,1.2 -2.6,2.6 0,1.4 1.2,2.6 2.6,2.6 1.4,0 2.6,-1.2 2.6,-2.6 0,-1.4 -1.2,-2.6 -2.6,-2.6 z"
   id="path467" />
	</g><g
   id="g473">
		<path
   d="m 147.9,58.5 c -1.7,0 -3.1,-1.4 -3.1,-3.1 0,-1.7 1.4,-3.1 3.1,-3.1 1.7,0 3.1,1.4 3.1,3.1 -0.1,1.8 -1.4,3.1 -3.1,3.1 z m 0,-5.6 c -1.4,0 -2.6,1.2 -2.6,2.6 0,1.4 1.2,2.6 2.6,2.6 1.4,0 2.6,-1.2 2.6,-2.6 0,-1.4 -1.2,-2.6 -2.6,-2.6 z"
   id="path471" />
	</g><g
   id="g477">
		<path
   d="m 140.6,58.5 c -1.7,0 -3.1,-1.4 -3.1,-3.1 0,-1.7 1.4,-3.1 3.1,-3.1 1.7,0 3.1,1.4 3.1,3.1 0,1.8 -1.4,3.1 -3.1,3.1 z m 0,-5.6 c -1.4,0 -2.6,1.2 -2.6,2.6 0,1.4 1.2,2.6 2.6,2.6 1.4,0 2.6,-1.2 2.6,-2.6 0,-1.4 -1.2,-2.6 -2.6,-2.6 z"
   id="path475" />
	</g><g
   id="g481">
		<path
   d="m 133.4,58.5 c -1.7,0 -3.1,-1.4 -3.1,-3.1 0,-1.7 1.4,-3.1 3.1,-3.1 1.7,0 3.1,1.4 3.1,3.1 0,1.8 -1.4,3.1 -3.1,3.1 z m 0,-5.6 c -1.4,0 -2.6,1.2 -2.6,2.6 0,1.4 1.2,2.6 2.6,2.6 1.4,0 2.6,-1.2 2.6,-2.6 0,-1.4 -1.2,-2.6 -2.6,-2.6 z"
   id="path479" />
	</g><g
   id="g485">
		<path
   d="m 126.2,58.5 c -1.7,0 -3.1,-1.4 -3.1,-3.1 0,-1.7 1.4,-3.1 3.1,-3.1 1.7,0 3.1,1.4 3.1,3.1 0,1.8 -1.4,3.1 -3.1,3.1 z m 0,-5.6 c -1.4,0 -2.6,1.2 -2.6,2.6 0,1.4 1.2,2.6 2.6,2.6 1.4,0 2.6,-1.2 2.6,-2.6 0,-1.4 -1.2,-2.6 -2.6,-2.6 z"
   id="path483" />
	</g><g
   id="g499">
		<path
   d="m 12.7,99.8 h -0.5 v -0.5 c -0.4,0.4 -0.7,0.6 -1.2,0.6 -0.9,0 -1.4,-0.6 -1.4,-1.4 0,-0.6 0.2,-1.2 0.6,-1.7 0.4,-0.5 1,-0.7 1.6,-0.7 0.8,0 1.4,0.4 1.4,1.1 0,0 0,0.1 0,0.2 h -0.7 c 0,-0.4 -0.3,-0.6 -0.8,-0.6 -0.4,0 -0.8,0.2 -1,0.6 -0.2,0.3 -0.3,0.7 -0.3,1.1 0,0.5 0.4,0.9 0.9,0.9 0.3,0 0.6,-0.1 0.8,-0.4 0.1,-0.1 0.2,-0.3 0.3,-0.5 h -0.8 l 0.1,-0.6 h 1.5 z"
   id="path487" />
		<path
   d="m 14.6,99.8 h -0.8 l 0.8,-3.6 h 1.5 c 0.3,0 0.5,0.1 0.7,0.2 0.2,0.2 0.3,0.4 0.3,0.7 0,0.4 -0.2,0.8 -0.4,1.1 -0.3,0.3 -0.6,0.4 -1,0.4 h -0.9 z m 1.2,-2 c 0.3,0 0.4,-0.1 0.6,-0.3 0.1,-0.1 0.1,-0.3 0.1,-0.4 0,-0.2 -0.2,-0.4 -0.5,-0.4 H 15.2 L 15,97.8 Z"
   id="path489" />
		<path
   d="m 18.4,99.8 h -0.8 l 0.8,-3.6 h 0.8 z"
   id="path491" />
		<path
   d="m 23.3,97.5 c 0,0.6 -0.2,1.2 -0.6,1.7 -0.4,0.5 -0.9,0.7 -1.6,0.7 -0.9,0 -1.4,-0.5 -1.4,-1.4 0,-0.6 0.2,-1.2 0.6,-1.7 0.4,-0.5 0.9,-0.7 1.5,-0.7 1,0 1.5,0.5 1.5,1.4 z m -2.5,-0.3 c -0.2,0.3 -0.4,0.7 -0.4,1.1 0,0.5 0.3,0.9 0.8,0.9 0.4,0 0.7,-0.2 1,-0.5 0.2,-0.3 0.4,-0.7 0.4,-1.1 0,-0.6 -0.3,-0.9 -0.8,-0.9 -0.4,0 -0.7,0.2 -1,0.5 z"
   id="path493" />
		<path
   d="m 26.3,97.3 0.1,-0.5 c 0.6,0 1,-0.2 1.2,-0.6 h 0.5 l -0.8,3.5 h -0.7 l 0.5,-2.4 z"
   id="path495" />
		<path
   d="m 31.2,97 c 0,-0.2 -0.2,-0.3 -0.4,-0.3 -0.3,0 -0.5,0.2 -0.6,0.5 -0.1,0.2 -0.1,0.2 -0.2,0.5 0.2,-0.2 0.5,-0.3 0.7,-0.3 0.5,0 0.8,0.3 0.8,0.8 0,0.4 -0.1,0.8 -0.4,1.1 -0.3,0.4 -0.7,0.6 -1.1,0.6 -0.6,0 -1,-0.4 -1,-1 0,-0.6 0.2,-1.5 0.5,-2 0.3,-0.5 0.8,-0.8 1.3,-0.8 0.6,0 0.9,0.3 0.9,0.8 0,0 0,0.1 0,0.1 z m -1.4,1.8 c 0,0.3 0.2,0.4 0.4,0.4 0.4,0 0.7,-0.4 0.7,-0.9 0,-0.3 -0.2,-0.4 -0.4,-0.4 -0.4,0.1 -0.7,0.5 -0.7,0.9 z"
   id="path497" />
	</g><g
   id="g513">
		<path
   d="m 12.7,106.9 h -0.5 v -0.5 c -0.4,0.4 -0.7,0.6 -1.2,0.6 -0.9,0 -1.4,-0.6 -1.4,-1.4 0,-0.6 0.2,-1.2 0.6,-1.7 0.4,-0.5 1,-0.7 1.6,-0.7 0.8,0 1.4,0.4 1.4,1.1 0,0 0,0.1 0,0.2 h -0.7 c 0,-0.4 -0.3,-0.6 -0.8,-0.6 -0.4,0 -0.8,0.2 -1,0.6 -0.2,0.3 -0.3,0.7 -0.3,1.1 0,0.5 0.4,0.9 0.9,0.9 0.3,0 0.6,-0.1 0.8,-0.4 0.1,-0.1 0.2,-0.3 0.3,-0.5 h -0.8 l 0.1,-0.6 h 1.5 z"
   id="path501" />
		<path
   d="m 14.6,106.9 h -0.8 l 0.8,-3.6 h 1.5 c 0.3,0 0.5,0.1 0.7,0.2 0.2,0.2 0.3,0.4 0.3,0.7 0,0.4 -0.2,0.8 -0.4,1.1 -0.3,0.3 -0.6,0.4 -1,0.4 h -0.9 z m 1.2,-2 c 0.3,0 0.4,-0.1 0.6,-0.3 0.1,-0.1 0.1,-0.3 0.1,-0.4 0,-0.2 -0.2,-0.4 -0.5,-0.4 h -0.8 l -0.2,1.1 z"
   id="path503" />
		<path
   d="m 18.4,106.9 h -0.8 l 0.8,-3.6 h 0.8 z"
   id="path505" />
		<path
   d="m 23.3,104.6 c 0,0.6 -0.2,1.2 -0.6,1.7 -0.4,0.5 -0.9,0.7 -1.6,0.7 -0.9,0 -1.4,-0.5 -1.4,-1.4 0,-0.6 0.2,-1.2 0.6,-1.7 0.4,-0.5 0.9,-0.7 1.5,-0.7 1,0 1.5,0.5 1.5,1.4 z m -2.5,-0.3 c -0.2,0.3 -0.4,0.7 -0.4,1.1 0,0.5 0.3,0.9 0.8,0.9 0.4,0 0.7,-0.2 1,-0.5 0.2,-0.3 0.4,-0.7 0.4,-1.1 0,-0.6 -0.3,-0.9 -0.8,-0.9 -0.4,0 -0.7,0.2 -1,0.5 z"
   id="path507" />
		<path
   d="m 28.5,104.2 c 0,0.5 -0.2,1.4 -0.4,1.8 -0.3,0.6 -0.7,0.9 -1.3,0.9 -0.6,0 -1,-0.4 -1,-1 0,-0.5 0.2,-1.4 0.4,-1.8 0.3,-0.6 0.7,-0.9 1.3,-0.9 0.7,0 1,0.4 1,1 z M 27,104.1 c -0.2,0.3 -0.4,1.4 -0.4,1.9 0,0.3 0.2,0.4 0.4,0.4 0.3,0 0.5,-0.2 0.6,-0.7 0.1,-0.5 0.3,-1.1 0.3,-1.5 0,-0.3 -0.2,-0.4 -0.4,-0.4 -0.2,0 -0.4,0.1 -0.5,0.3 z"
   id="path509" />
		<path
   d="m 30.3,104.8 v 0 c 0.5,0 0.8,-0.3 0.8,-0.7 0,-0.2 -0.2,-0.4 -0.4,-0.4 -0.2,0 -0.4,0.1 -0.5,0.3 -0.1,0.1 -0.1,0.2 -0.1,0.4 h -0.6 c 0.1,-0.4 0.2,-0.6 0.4,-0.8 0.2,-0.3 0.6,-0.4 1,-0.4 0.6,0 1,0.3 1,0.8 0,0.4 -0.2,0.7 -0.6,1 0.3,0.2 0.4,0.3 0.4,0.6 0,0.3 -0.1,0.7 -0.3,0.9 -0.3,0.3 -0.7,0.5 -1.1,0.5 -0.7,0 -1,-0.3 -1,-0.9 0,-0.1 0,-0.2 0,-0.3 H 30 v 0.1 0.1 c 0,0.2 0.2,0.4 0.5,0.4 0.2,0 0.4,-0.1 0.5,-0.3 0.1,-0.1 0.1,-0.2 0.1,-0.4 0,-0.2 -0.1,-0.3 -0.3,-0.4 -0.1,0 -0.1,0 -0.4,0 z"
   id="path511" />
	</g><g
   id="g527">
		<path
   d="m 12.7,114 h -0.5 v -0.5 c -0.4,0.4 -0.7,0.6 -1.2,0.6 -0.9,0 -1.4,-0.6 -1.4,-1.4 0,-0.6 0.2,-1.2 0.6,-1.7 0.4,-0.5 1,-0.7 1.6,-0.7 0.8,0 1.4,0.4 1.4,1.1 0,0 0,0.1 0,0.2 h -0.7 c 0,-0.4 -0.3,-0.6 -0.8,-0.6 -0.4,0 -0.8,0.2 -1,0.6 -0.2,0.3 -0.3,0.7 -0.3,1.1 0,0.5 0.4,0.9 0.9,0.9 0.3,0 0.6,-0.1 0.8,-0.4 0.1,-0.1 0.2,-0.3 0.3,-0.5 h -0.8 l 0.1,-0.6 h 1.5 z"
   id="path515" />
		<path
   d="m 14.6,114 h -0.8 l 0.8,-3.6 h 1.5 c 0.3,0 0.5,0.1 0.7,0.2 0.2,0.2 0.3,0.4 0.3,0.7 0,0.4 -0.2,0.8 -0.4,1.1 -0.3,0.3 -0.6,0.4 -1,0.4 h -0.9 z m 1.2,-1.9 c 0.3,0 0.4,-0.1 0.6,-0.3 0.1,-0.1 0.1,-0.3 0.1,-0.4 0,-0.2 -0.2,-0.4 -0.5,-0.4 h -0.8 l -0.2,1.1 z"
   id="path517" />
		<path
   d="m 18.4,114 h -0.8 l 0.8,-3.6 h 0.8 z"
   id="path519" />
		<path
   d="m 23.3,111.7 c 0,0.6 -0.2,1.2 -0.6,1.7 -0.4,0.5 -0.9,0.7 -1.6,0.7 -0.9,0 -1.4,-0.5 -1.4,-1.4 0,-0.6 0.2,-1.2 0.6,-1.7 0.4,-0.5 0.9,-0.7 1.5,-0.7 1,0 1.5,0.5 1.5,1.4 z m -2.5,-0.3 c -0.2,0.3 -0.4,0.7 -0.4,1.1 0,0.5 0.3,0.9 0.8,0.9 0.4,0 0.7,-0.2 1,-0.5 0.2,-0.3 0.4,-0.7 0.4,-1.1 0,-0.6 -0.3,-0.9 -0.8,-0.9 -0.4,0 -0.7,0.2 -1,0.5 z"
   id="path521" />
		<path
   d="m 28.5,111.4 c 0,0.5 -0.2,1.4 -0.4,1.8 -0.3,0.6 -0.7,0.9 -1.3,0.9 -0.6,0 -1,-0.4 -1,-1 0,-0.5 0.2,-1.4 0.4,-1.8 0.3,-0.6 0.7,-0.9 1.3,-0.9 0.7,0 1,0.3 1,1 z M 27,111.2 c -0.2,0.3 -0.4,1.4 -0.4,1.9 0,0.3 0.2,0.4 0.4,0.4 0.3,0 0.5,-0.2 0.6,-0.7 0.1,-0.5 0.3,-1.1 0.3,-1.5 0,-0.3 -0.2,-0.4 -0.4,-0.4 -0.2,0 -0.4,0.1 -0.5,0.3 z"
   id="path523" />
		<path
   d="m 31.3,114 h -2.4 c 0.2,-0.7 0.4,-1 1.1,-1.4 0.6,-0.4 0.7,-0.5 0.9,-0.6 0.2,-0.2 0.3,-0.4 0.3,-0.6 0,-0.2 -0.2,-0.4 -0.4,-0.4 -0.4,0 -0.6,0.3 -0.6,0.8 h -0.7 c 0.1,-0.8 0.6,-1.3 1.4,-1.3 0.7,0 1,0.3 1,0.9 0,0.3 -0.1,0.6 -0.3,0.9 -0.2,0.2 -0.3,0.3 -0.8,0.6 -0.6,0.4 -0.7,0.5 -0.9,0.7 h 1.5 z"
   id="path525" />
	</g><g
   id="g541">
		<path
   d="m 12.7,121.1 h -0.5 v -0.5 c -0.4,0.4 -0.7,0.6 -1.2,0.6 -0.9,0 -1.4,-0.6 -1.4,-1.4 0,-0.6 0.2,-1.2 0.6,-1.7 0.4,-0.5 1,-0.7 1.6,-0.7 0.8,0 1.4,0.4 1.4,1.1 0,0 0,0.1 0,0.2 h -0.7 c 0,-0.4 -0.3,-0.6 -0.8,-0.6 -0.4,0 -0.8,0.2 -1,0.6 -0.2,0.3 -0.3,0.7 -0.3,1.1 0,0.5 0.4,0.9 0.9,0.9 0.3,0 0.6,-0.1 0.8,-0.4 0.1,-0.1 0.2,-0.3 0.3,-0.5 h -0.8 l 0.1,-0.6 h 1.5 z"
   id="path529" />
		<path
   d="m 14.6,121.1 h -0.8 l 0.8,-3.6 h 1.5 c 0.3,0 0.5,0.1 0.7,0.2 0.2,0.2 0.3,0.4 0.3,0.7 0,0.4 -0.2,0.8 -0.4,1.1 -0.3,0.3 -0.6,0.4 -1,0.4 h -0.9 z m 1.2,-1.9 c 0.3,0 0.4,-0.1 0.6,-0.3 0.1,-0.1 0.1,-0.3 0.1,-0.4 0,-0.2 -0.2,-0.4 -0.5,-0.4 h -0.8 l -0.2,1.1 z"
   id="path531" />
		<path
   d="m 18.4,121.1 h -0.8 l 0.8,-3.6 h 0.8 z"
   id="path533" />
		<path
   d="m 23.3,118.8 c 0,0.6 -0.2,1.2 -0.6,1.7 -0.4,0.5 -0.9,0.7 -1.6,0.7 -0.9,0 -1.4,-0.5 -1.4,-1.4 0,-0.6 0.2,-1.2 0.6,-1.7 0.4,-0.5 0.9,-0.7 1.5,-0.7 1,0 1.5,0.5 1.5,1.4 z m -2.5,-0.3 c -0.2,0.3 -0.4,0.7 -0.4,1.1 0,0.5 0.3,0.9 0.8,0.9 0.4,0 0.7,-0.2 1,-0.5 0.2,-0.3 0.4,-0.7 0.4,-1.1 0,-0.6 -0.3,-0.9 -0.8,-0.9 -0.4,0 -0.7,0.2 -1,0.5 z"
   id="path535" />
		<path
   d="m 26.3,118.6 0.1,-0.5 c 0.6,0 1,-0.2 1.2,-0.6 h 0.5 l -0.8,3.5 h -0.7 l 0.5,-2.4 z"
   id="path537" />
		<path
   d="m 31.5,120.3 h -0.4 l -0.2,0.8 h -0.7 l 0.2,-0.8 H 29 l 0.1,-0.6 1.8,-2.2 h 0.8 l -0.5,2.2 h 0.4 z m -0.6,-2.1 -1.2,1.5 h 0.9 z"
   id="path539" />
	</g><g
   id="g555">
		<path
   d="m 12.7,128.2 h -0.5 v -0.5 c -0.4,0.4 -0.7,0.6 -1.2,0.6 -0.9,0 -1.4,-0.6 -1.4,-1.4 0,-0.6 0.2,-1.2 0.6,-1.7 0.4,-0.5 1,-0.7 1.6,-0.7 0.8,0 1.4,0.4 1.4,1.1 0,0 0,0.1 0,0.2 h -0.7 c 0,-0.4 -0.3,-0.6 -0.8,-0.6 -0.4,0 -0.8,0.2 -1,0.6 -0.2,0.3 -0.3,0.7 -0.3,1.1 0,0.5 0.4,0.9 0.9,0.9 0.3,0 0.6,-0.1 0.8,-0.4 0.1,-0.1 0.2,-0.3 0.3,-0.5 h -0.8 l 0.1,-0.6 h 1.5 z"
   id="path543" />
		<path
   d="m 14.6,128.2 h -0.8 l 0.8,-3.6 h 1.5 c 0.3,0 0.5,0.1 0.7,0.2 0.2,0.2 0.3,0.4 0.3,0.7 0,0.4 -0.2,0.8 -0.4,1.1 -0.3,0.3 -0.6,0.4 -1,0.4 h -0.9 z m 1.2,-1.9 c 0.3,0 0.4,-0.1 0.6,-0.3 0.1,-0.1 0.1,-0.3 0.1,-0.4 0,-0.2 -0.2,-0.4 -0.5,-0.4 h -0.8 l -0.2,1.1 z"
   id="path545" />
		<path
   d="m 18.4,128.2 h -0.8 l 0.8,-3.6 h 0.8 z"
   id="path547" />
		<path
   d="m 23.3,125.9 c 0,0.6 -0.2,1.2 -0.6,1.7 -0.4,0.5 -0.9,0.7 -1.6,0.7 -0.9,0 -1.4,-0.5 -1.4,-1.4 0,-0.6 0.2,-1.2 0.6,-1.7 0.4,-0.5 0.9,-0.7 1.5,-0.7 1,0 1.5,0.5 1.5,1.4 z m -2.5,-0.2 c -0.2,0.3 -0.4,0.7 -0.4,1.1 0,0.5 0.3,0.9 0.8,0.9 0.4,0 0.7,-0.2 1,-0.5 0.2,-0.3 0.4,-0.7 0.4,-1.1 0,-0.6 -0.3,-0.9 -0.8,-0.9 -0.4,-0.1 -0.7,0.1 -1,0.5 z"
   id="path549" />
		<path
   d="m 26.3,125.8 0.1,-0.5 c 0.6,0 1,-0.2 1.2,-0.6 h 0.5 l -0.8,3.5 h -0.7 l 0.5,-2.4 z"
   id="path551" />
		<path
   d="M 31.8,125.3 H 30.3 L 30,126 c 0.2,-0.2 0.4,-0.2 0.7,-0.2 0.5,0 0.9,0.3 0.9,0.9 0,0.4 -0.1,0.7 -0.3,1 -0.3,0.4 -0.7,0.6 -1.2,0.6 -0.6,0 -1,-0.3 -1,-0.8 0,-0.1 0,-0.1 0,-0.2 h 0.7 c 0,0 0,0.1 0,0.1 0,0.2 0.2,0.3 0.4,0.3 0.4,0 0.7,-0.4 0.7,-0.9 0,-0.3 -0.2,-0.5 -0.5,-0.5 -0.2,0 -0.4,0.1 -0.5,0.3 h -0.6 l 0.7,-2 h 2 z"
   id="path553" />
	</g><g
   id="g569">
		<path
   d="m 12.7,135.3 h -0.5 v -0.5 c -0.4,0.4 -0.7,0.6 -1.2,0.6 -0.9,0 -1.4,-0.6 -1.4,-1.4 0,-0.6 0.2,-1.2 0.6,-1.7 0.4,-0.5 1,-0.7 1.6,-0.7 0.8,0 1.4,0.4 1.4,1.1 0,0 0,0.1 0,0.2 h -0.7 c 0,-0.4 -0.3,-0.6 -0.8,-0.6 -0.4,0 -0.8,0.2 -1,0.6 -0.2,0.3 -0.3,0.7 -0.3,1.1 0,0.5 0.4,0.9 0.9,0.9 0.3,0 0.6,-0.1 0.8,-0.4 0.1,-0.1 0.2,-0.3 0.3,-0.5 h -0.8 l 0.1,-0.6 h 1.5 z"
   id="path557" />
		<path
   d="m 14.6,135.3 h -0.8 l 0.8,-3.6 h 1.5 c 0.3,0 0.5,0.1 0.7,0.2 0.2,0.2 0.3,0.4 0.3,0.7 0,0.4 -0.2,0.8 -0.4,1.1 -0.3,0.3 -0.6,0.4 -1,0.4 h -0.9 z m 1.2,-1.9 c 0.3,0 0.4,-0.1 0.6,-0.3 0.1,-0.1 0.1,-0.3 0.1,-0.4 0,-0.2 -0.2,-0.4 -0.5,-0.4 h -0.8 l -0.2,1.1 z"
   id="path559" />
		<path
   d="m 18.4,135.3 h -0.8 l 0.8,-3.6 h 0.8 z"
   id="path561" />
		<path
   d="m 23.3,133 c 0,0.6 -0.2,1.2 -0.6,1.7 -0.4,0.5 -0.9,0.7 -1.6,0.7 -0.9,0 -1.4,-0.5 -1.4,-1.4 0,-0.6 0.2,-1.2 0.6,-1.7 0.4,-0.5 0.9,-0.7 1.5,-0.7 1,0 1.5,0.5 1.5,1.4 z m -2.5,-0.2 c -0.2,0.3 -0.4,0.7 -0.4,1.1 0,0.5 0.3,0.9 0.8,0.9 0.4,0 0.7,-0.2 1,-0.5 0.2,-0.3 0.4,-0.7 0.4,-1.1 0,-0.6 -0.3,-0.9 -0.8,-0.9 -0.4,-0.1 -0.7,0.1 -1,0.5 z"
   id="path563" />
		<path
   d="m 26.3,132.9 0.1,-0.5 c 0.6,0 1,-0.2 1.2,-0.6 h 0.5 l -0.8,3.5 h -0.7 l 0.5,-2.4 z"
   id="path565" />
		<path
   d="m 31.6,134.1 c 0,0.3 -0.2,0.7 -0.4,1 -0.3,0.3 -0.7,0.4 -1.1,0.4 -0.7,0 -1.1,-0.3 -1.1,-0.9 0,-0.3 0.1,-0.6 0.3,-0.8 0.1,-0.1 0.3,-0.2 0.5,-0.4 -0.2,-0.2 -0.3,-0.3 -0.3,-0.5 0,-0.6 0.6,-1.1 1.3,-1.1 0.6,0 1,0.3 1,0.8 0,0.2 -0.1,0.5 -0.3,0.7 -0.1,0.1 -0.2,0.2 -0.3,0.2 0.3,0.1 0.4,0.3 0.4,0.6 z m -1.8,0.3 c 0,0.2 0.2,0.4 0.5,0.4 0.4,0 0.7,-0.3 0.7,-0.7 0,-0.3 -0.2,-0.4 -0.5,-0.4 -0.4,0 -0.7,0.3 -0.7,0.7 z m 0.3,-1.6 c 0,0.2 0.2,0.4 0.4,0.4 0.4,0 0.6,-0.3 0.6,-0.6 0,-0.2 -0.2,-0.4 -0.5,-0.4 -0.2,0.1 -0.5,0.3 -0.5,0.6 z"
   id="path567" />
	</g><g
   id="g575">
		<path
   d="m 28,139.5 h -1.5 l -0.3,0.7 c 0.2,-0.2 0.4,-0.2 0.7,-0.2 0.5,0 0.9,0.3 0.9,0.9 0,0.4 -0.1,0.7 -0.3,1 -0.3,0.4 -0.7,0.6 -1.2,0.6 -0.6,0 -1,-0.3 -1,-0.8 0,-0.1 0,-0.1 0,-0.2 H 26 c 0,0 0,0.1 0,0.1 0,0.2 0.2,0.3 0.4,0.3 0.4,0 0.7,-0.4 0.7,-0.9 0,-0.3 -0.2,-0.5 -0.5,-0.5 -0.2,0 -0.4,0.1 -0.5,0.3 h -0.6 l 0.7,-2 h 1.9 z"
   id="path571" />
		<path
   d="m 29.6,142.4 -0.5,-3.6 h 0.8 l 0.2,2.7 1.4,-2.7 h 0.8 l -2,3.6 z"
   id="path573" />
	</g><g
   id="g583">
		<path
   d="m 23.2,147.5 v 0 c 0.5,0 0.8,-0.3 0.8,-0.7 0,-0.2 -0.2,-0.4 -0.4,-0.4 -0.2,0 -0.4,0.1 -0.5,0.3 0,0.1 -0.1,0.2 -0.1,0.4 h -0.6 c 0.1,-0.4 0.2,-0.6 0.4,-0.8 0.2,-0.3 0.6,-0.4 1,-0.4 0.6,0 1,0.3 1,0.8 0,0.4 -0.2,0.7 -0.6,1 0.3,0.2 0.4,0.3 0.4,0.6 0,0.3 -0.1,0.7 -0.3,0.9 -0.3,0.3 -0.7,0.5 -1.1,0.5 -0.7,0 -1,-0.3 -1,-0.9 0,-0.1 0,-0.2 0,-0.3 h 0.7 v 0.1 0.1 c 0,0.2 0.2,0.4 0.5,0.4 0.2,0 0.4,-0.1 0.5,-0.3 0.1,-0.1 0.1,-0.2 0.1,-0.4 0,-0.2 -0.1,-0.3 -0.3,-0.4 -0.1,0 -0.1,0 -0.4,0 z"
   id="path577" />
		<path
   d="m 26.3,149.5 -0.5,-3.6 h 0.8 l 0.2,2.7 1.4,-2.7 H 29 l -2,3.6 z"
   id="path579" />
		<path
   d="m 30.3,147.5 v 0 c 0.5,0 0.8,-0.3 0.8,-0.7 0,-0.2 -0.2,-0.4 -0.4,-0.4 -0.2,0 -0.4,0.1 -0.5,0.3 -0.1,0.1 -0.1,0.2 -0.1,0.4 h -0.6 c 0.1,-0.4 0.2,-0.6 0.4,-0.8 0.2,-0.3 0.6,-0.4 1,-0.4 0.6,0 1,0.3 1,0.8 0,0.4 -0.2,0.7 -0.6,1 0.3,0.2 0.4,0.3 0.4,0.6 0,0.3 -0.1,0.7 -0.3,0.9 -0.3,0.3 -0.7,0.5 -1.1,0.5 -0.7,0 -1,-0.3 -1,-0.9 0,-0.1 0,-0.2 0,-0.3 H 30 v 0.1 0.1 c 0,0.2 0.2,0.4 0.5,0.4 0.2,0 0.4,-0.1 0.5,-0.3 0.1,-0.1 0.1,-0.2 0.1,-0.4 0,-0.2 -0.1,-0.3 -0.3,-0.4 -0.1,0 -0.1,0 -0.4,0 z"
   id="path581" />
	</g><g
   id="g591">
		<path
   d="m 23,156.7 h -0.5 v -0.5 c -0.4,0.4 -0.7,0.6 -1.2,0.6 -0.9,0 -1.4,-0.6 -1.4,-1.4 0,-0.6 0.2,-1.2 0.6,-1.7 0.4,-0.5 1,-0.7 1.6,-0.7 0.8,0 1.4,0.4 1.4,1.1 0,0 0,0.1 0,0.2 h -0.7 c 0,-0.4 -0.3,-0.6 -0.8,-0.6 -0.4,0 -0.8,0.2 -1,0.6 -0.2,0.3 -0.3,0.7 -0.3,1.1 0,0.5 0.4,0.9 0.9,0.9 0.3,0 0.6,-0.1 0.8,-0.4 0.1,-0.1 0.2,-0.3 0.3,-0.5 h -0.8 l 0.1,-0.6 h 1.5 z"
   id="path585" />
		<path
   d="m 27.1,156.7 h -0.7 l -1,-2.6 -0.6,2.6 h -0.7 l 0.8,-3.6 h 0.8 l 1,2.6 0.5,-2.6 h 0.7 z"
   id="path587" />
		<path
   d="m 29.1,153 h 1.4 c 0.9,0 1.3,0.4 1.3,1.3 0,0.6 -0.2,1.2 -0.6,1.7 -0.4,0.5 -0.8,0.7 -1.5,0.7 h -1.4 z m 0.8,3 c 0.4,0 0.7,-0.1 0.9,-0.5 0.2,-0.3 0.3,-0.8 0.3,-1.2 0,-0.5 -0.2,-0.7 -0.7,-0.7 h -0.7 l -0.5,2.4 z"
   id="path589" />
	</g><g
   id="g599">
		<path
   d="m 23,163.8 h -0.5 v -0.5 c -0.4,0.4 -0.7,0.6 -1.2,0.6 -0.9,0 -1.4,-0.6 -1.4,-1.4 0,-0.6 0.2,-1.2 0.6,-1.7 0.4,-0.5 1,-0.7 1.6,-0.7 0.8,0 1.4,0.4 1.4,1.1 0,0 0,0.1 0,0.2 h -0.7 c 0,-0.4 -0.3,-0.6 -0.8,-0.6 -0.4,0 -0.8,0.2 -1,0.6 -0.2,0.3 -0.3,0.7 -0.3,1.1 0,0.5 0.4,0.9 0.9,0.9 0.3,0 0.6,-0.1 0.8,-0.4 0.1,-0.1 0.2,-0.3 0.3,-0.5 h -0.8 l 0.1,-0.6 h 1.5 z"
   id="path593" />
		<path
   d="m 27.1,163.8 h -0.7 l -1,-2.6 -0.6,2.6 h -0.7 l 0.8,-3.6 h 0.8 l 1,2.6 0.5,-2.6 h 0.7 z"
   id="path595" />
		<path
   d="m 29.1,160.1 h 1.4 c 0.9,0 1.3,0.4 1.3,1.3 0,0.6 -0.2,1.2 -0.6,1.7 -0.4,0.5 -0.8,0.7 -1.5,0.7 h -1.4 z m 0.8,3 c 0.4,0 0.7,-0.1 0.9,-0.5 0.2,-0.3 0.3,-0.8 0.3,-1.2 0,-0.5 -0.2,-0.7 -0.7,-0.7 h -0.7 l -0.5,2.4 z"
   id="path597" />
	</g><g
   id="g613">
		<path
   d="m 283.6,99.8 h -0.5 v -0.5 c -0.4,0.4 -0.7,0.6 -1.2,0.6 -0.9,0 -1.4,-0.6 -1.4,-1.4 0,-0.6 0.2,-1.2 0.6,-1.7 0.4,-0.5 1,-0.7 1.6,-0.7 0.8,0 1.4,0.4 1.4,1.1 0,0 0,0.1 0,0.2 h -0.7 c 0,-0.4 -0.3,-0.6 -0.8,-0.6 -0.4,0 -0.8,0.2 -1,0.6 -0.2,0.3 -0.3,0.7 -0.3,1.1 0,0.5 0.4,0.9 0.9,0.9 0.3,0 0.6,-0.1 0.8,-0.4 0.1,-0.1 0.2,-0.3 0.3,-0.5 h -0.8 l 0.1,-0.6 h 1.5 z"
   id="path601" />
		<path
   d="m 285.6,99.8 h -0.8 l 0.8,-3.6 h 1.5 c 0.3,0 0.5,0.1 0.7,0.2 0.2,0.2 0.3,0.4 0.3,0.7 0,0.4 -0.2,0.8 -0.4,1.1 -0.3,0.3 -0.6,0.4 -1,0.4 h -0.9 z m 1.1,-2 c 0.3,0 0.4,-0.1 0.6,-0.3 0.1,-0.1 0.1,-0.3 0.1,-0.4 0,-0.2 -0.2,-0.4 -0.5,-0.4 h -0.8 l -0.2,1.1 z"
   id="path603" />
		<path
   d="m 289.3,99.8 h -0.8 l 0.8,-3.6 h 0.8 z"
   id="path605" />
		<path
   d="m 294.3,97.5 c 0,0.6 -0.2,1.2 -0.6,1.7 -0.4,0.5 -0.9,0.7 -1.6,0.7 -0.9,0 -1.4,-0.5 -1.4,-1.4 0,-0.6 0.2,-1.2 0.6,-1.7 0.4,-0.5 0.9,-0.7 1.5,-0.7 0.9,0 1.5,0.5 1.5,1.4 z m -2.5,-0.3 c -0.2,0.3 -0.4,0.7 -0.4,1.1 0,0.5 0.3,0.9 0.8,0.9 0.4,0 0.7,-0.2 1,-0.5 0.2,-0.3 0.4,-0.7 0.4,-1.1 0,-0.6 -0.3,-0.9 -0.8,-0.9 -0.5,0 -0.8,0.2 -1,0.5 z"
   id="path607" />
		<path
   d="m 299.5,97.1 c 0,0.5 -0.2,1.4 -0.4,1.8 -0.3,0.6 -0.7,0.9 -1.3,0.9 -0.6,0 -1,-0.4 -1,-1 0,-0.5 0.2,-1.4 0.4,-1.8 0.3,-0.6 0.7,-0.9 1.3,-0.9 0.6,0 1,0.4 1,1 z M 297.9,97 c -0.2,0.3 -0.4,1.4 -0.4,1.9 0,0.3 0.1,0.4 0.4,0.4 0.3,0 0.5,-0.2 0.6,-0.7 0.1,-0.5 0.3,-1.1 0.3,-1.5 0,-0.3 -0.2,-0.4 -0.4,-0.4 -0.2,0 -0.4,0.1 -0.5,0.3 z"
   id="path609" />
		<path
   d="m 302.1,97 c 0,-0.2 -0.2,-0.3 -0.4,-0.3 -0.3,0 -0.5,0.2 -0.6,0.5 -0.1,0.2 -0.1,0.2 -0.2,0.5 0.3,-0.2 0.5,-0.3 0.7,-0.3 0.5,0 0.8,0.3 0.8,0.8 0,0.4 -0.1,0.8 -0.4,1.1 -0.3,0.4 -0.7,0.6 -1.1,0.6 -0.6,0 -1,-0.4 -1,-1 0,-0.6 0.2,-1.5 0.5,-2 0.3,-0.5 0.8,-0.8 1.3,-0.8 0.6,0 0.9,0.3 0.9,0.8 0,0 0,0.1 0,0.1 z m -1.3,1.8 c 0,0.3 0.2,0.4 0.4,0.4 0.4,0 0.7,-0.4 0.7,-0.9 0,-0.3 -0.2,-0.4 -0.4,-0.4 -0.4,0.1 -0.7,0.5 -0.7,0.9 z"
   id="path611" />
	</g><g
   id="g627">
		<path
   d="m 283.6,106.9 h -0.5 v -0.5 c -0.4,0.4 -0.7,0.6 -1.2,0.6 -0.9,0 -1.4,-0.6 -1.4,-1.4 0,-0.6 0.2,-1.2 0.6,-1.7 0.4,-0.5 1,-0.7 1.6,-0.7 0.8,0 1.4,0.4 1.4,1.1 0,0 0,0.1 0,0.2 h -0.7 c 0,-0.4 -0.3,-0.6 -0.8,-0.6 -0.4,0 -0.8,0.2 -1,0.6 -0.2,0.3 -0.3,0.7 -0.3,1.1 0,0.5 0.4,0.9 0.9,0.9 0.3,0 0.6,-0.1 0.8,-0.4 0.1,-0.1 0.2,-0.3 0.3,-0.5 h -0.8 l 0.1,-0.6 h 1.5 z"
   id="path615" />
		<path
   d="m 285.6,106.9 h -0.8 l 0.8,-3.6 h 1.5 c 0.3,0 0.5,0.1 0.7,0.2 0.2,0.2 0.3,0.4 0.3,0.7 0,0.4 -0.2,0.8 -0.4,1.1 -0.3,0.3 -0.6,0.4 -1,0.4 h -0.9 z m 1.1,-2 c 0.3,0 0.4,-0.1 0.6,-0.3 0.1,-0.1 0.1,-0.3 0.1,-0.4 0,-0.2 -0.2,-0.4 -0.5,-0.4 h -0.8 l -0.2,1.1 z"
   id="path617" />
		<path
   d="m 289.3,106.9 h -0.8 l 0.8,-3.6 h 0.8 z"
   id="path619" />
		<path
   d="m 294.3,104.6 c 0,0.6 -0.2,1.2 -0.6,1.7 -0.4,0.5 -0.9,0.7 -1.6,0.7 -0.9,0 -1.4,-0.5 -1.4,-1.4 0,-0.6 0.2,-1.2 0.6,-1.7 0.4,-0.5 0.9,-0.7 1.5,-0.7 0.9,0 1.5,0.5 1.5,1.4 z m -2.5,-0.3 c -0.2,0.3 -0.4,0.7 -0.4,1.1 0,0.5 0.3,0.9 0.8,0.9 0.4,0 0.7,-0.2 1,-0.5 0.2,-0.3 0.4,-0.7 0.4,-1.1 0,-0.6 -0.3,-0.9 -0.8,-0.9 -0.5,0 -0.8,0.2 -1,0.5 z"
   id="path621" />
		<path
   d="m 297.3,104.4 0.1,-0.5 c 0.6,0 1,-0.2 1.2,-0.6 h 0.5 l -0.8,3.5 h -0.7 l 0.5,-2.4 z"
   id="path623" />
		<path
   d="m 301.2,104.8 v 0 c 0.5,0 0.8,-0.3 0.8,-0.7 0,-0.2 -0.2,-0.4 -0.4,-0.4 -0.2,0 -0.4,0.1 -0.5,0.3 0,0.1 -0.1,0.2 -0.1,0.4 h -0.6 c 0.1,-0.4 0.2,-0.6 0.4,-0.8 0.2,-0.3 0.6,-0.4 1,-0.4 0.6,0 1,0.3 1,0.8 0,0.4 -0.2,0.7 -0.6,1 0.3,0.2 0.4,0.3 0.4,0.6 0,0.3 -0.1,0.7 -0.3,0.9 -0.3,0.3 -0.7,0.5 -1.1,0.5 -0.7,0 -1,-0.3 -1,-0.9 0,-0.1 0,-0.2 0,-0.3 h 0.7 v 0.1 0.1 c 0,0.2 0.2,0.4 0.5,0.4 0.2,0 0.4,-0.1 0.5,-0.3 0.1,-0.1 0.1,-0.2 0.1,-0.4 0,-0.2 -0.1,-0.3 -0.3,-0.4 -0.1,0 -0.1,0 -0.4,0 z"
   id="path625" />
	</g><g
   id="g641">
		<path
   d="m 283.6,114 h -0.5 v -0.5 c -0.4,0.4 -0.7,0.6 -1.2,0.6 -0.9,0 -1.4,-0.6 -1.4,-1.4 0,-0.6 0.2,-1.2 0.6,-1.7 0.4,-0.5 1,-0.7 1.6,-0.7 0.8,0 1.4,0.4 1.4,1.1 0,0 0,0.1 0,0.2 h -0.7 c 0,-0.4 -0.3,-0.6 -0.8,-0.6 -0.4,0 -0.8,0.2 -1,0.6 -0.2,0.3 -0.3,0.7 -0.3,1.1 0,0.5 0.4,0.9 0.9,0.9 0.3,0 0.6,-0.1 0.8,-0.4 0.1,-0.1 0.2,-0.3 0.3,-0.5 h -0.8 l 0.1,-0.6 h 1.5 z"
   id="path629" />
		<path
   d="m 285.6,114 h -0.8 l 0.8,-3.6 h 1.5 c 0.3,0 0.5,0.1 0.7,0.2 0.2,0.2 0.3,0.4 0.3,0.7 0,0.4 -0.2,0.8 -0.4,1.1 -0.3,0.3 -0.6,0.4 -1,0.4 h -0.9 z m 1.1,-1.9 c 0.3,0 0.4,-0.1 0.6,-0.3 0.1,-0.1 0.1,-0.3 0.1,-0.4 0,-0.2 -0.2,-0.4 -0.5,-0.4 h -0.8 l -0.2,1.1 z"
   id="path631" />
		<path
   d="m 289.3,114 h -0.8 l 0.8,-3.6 h 0.8 z"
   id="path633" />
		<path
   d="m 294.3,111.7 c 0,0.6 -0.2,1.2 -0.6,1.7 -0.4,0.5 -0.9,0.7 -1.6,0.7 -0.9,0 -1.4,-0.5 -1.4,-1.4 0,-0.6 0.2,-1.2 0.6,-1.7 0.4,-0.5 0.9,-0.7 1.5,-0.7 0.9,0 1.5,0.5 1.5,1.4 z m -2.5,-0.3 c -0.2,0.3 -0.4,0.7 -0.4,1.1 0,0.5 0.3,0.9 0.8,0.9 0.4,0 0.7,-0.2 1,-0.5 0.2,-0.3 0.4,-0.7 0.4,-1.1 0,-0.6 -0.3,-0.9 -0.8,-0.9 -0.5,0 -0.8,0.2 -1,0.5 z"
   id="path635" />
		<path
   d="m 297.3,111.5 0.1,-0.5 c 0.6,0 1,-0.2 1.2,-0.6 h 0.5 l -0.8,3.5 h -0.7 l 0.5,-2.4 z"
   id="path637" />
		<path
   d="m 300.7,113.2 c 0,0 0,0 0,0 0,0.2 0.2,0.3 0.4,0.3 0.3,0 0.5,-0.1 0.6,-0.4 0.1,-0.1 0.1,-0.3 0.2,-0.5 -0.3,0.2 -0.5,0.3 -0.7,0.3 -0.5,0 -0.8,-0.3 -0.8,-0.9 0,-0.9 0.6,-1.6 1.5,-1.6 0.6,0 1,0.4 1,1 0,0.6 -0.2,1.4 -0.5,1.9 -0.3,0.5 -0.7,0.8 -1.3,0.8 -0.5,0 -0.9,-0.3 -0.9,-0.8 0,0 0,-0.1 0,-0.2 h 0.5 z m 0.3,-1.4 c 0,0.3 0.2,0.4 0.4,0.4 0.4,0 0.7,-0.4 0.7,-0.9 0,-0.3 -0.2,-0.5 -0.5,-0.5 -0.3,0.1 -0.6,0.5 -0.6,1 z"
   id="path639" />
	</g><g
   id="g655">
		<path
   d="m 283.6,121.1 h -0.5 v -0.5 c -0.4,0.4 -0.7,0.6 -1.2,0.6 -0.9,0 -1.4,-0.6 -1.4,-1.4 0,-0.6 0.2,-1.2 0.6,-1.7 0.4,-0.5 1,-0.7 1.6,-0.7 0.8,0 1.4,0.4 1.4,1.1 0,0 0,0.1 0,0.2 h -0.7 c 0,-0.4 -0.3,-0.6 -0.8,-0.6 -0.4,0 -0.8,0.2 -1,0.6 -0.2,0.3 -0.3,0.7 -0.3,1.1 0,0.5 0.4,0.9 0.9,0.9 0.3,0 0.6,-0.1 0.8,-0.4 0.1,-0.1 0.2,-0.3 0.3,-0.5 h -0.8 l 0.1,-0.6 h 1.5 z"
   id="path643" />
		<path
   d="m 285.6,121.1 h -0.8 l 0.8,-3.6 h 1.5 c 0.3,0 0.5,0.1 0.7,0.2 0.2,0.2 0.3,0.4 0.3,0.7 0,0.4 -0.2,0.8 -0.4,1.1 -0.3,0.3 -0.6,0.4 -1,0.4 h -0.9 z m 1.1,-1.9 c 0.3,0 0.4,-0.1 0.6,-0.3 0.1,-0.1 0.1,-0.3 0.1,-0.4 0,-0.2 -0.2,-0.4 -0.5,-0.4 h -0.8 l -0.2,1.1 z"
   id="path645" />
		<path
   d="m 289.3,121.1 h -0.8 l 0.8,-3.6 h 0.8 z"
   id="path647" />
		<path
   d="m 294.3,118.8 c 0,0.6 -0.2,1.2 -0.6,1.7 -0.4,0.5 -0.9,0.7 -1.6,0.7 -0.9,0 -1.4,-0.5 -1.4,-1.4 0,-0.6 0.2,-1.2 0.6,-1.7 0.4,-0.5 0.9,-0.7 1.5,-0.7 0.9,0 1.5,0.5 1.5,1.4 z m -2.5,-0.3 c -0.2,0.3 -0.4,0.7 -0.4,1.1 0,0.5 0.3,0.9 0.8,0.9 0.4,0 0.7,-0.2 1,-0.5 0.2,-0.3 0.4,-0.7 0.4,-1.1 0,-0.6 -0.3,-0.9 -0.8,-0.9 -0.5,0 -0.8,0.2 -1,0.5 z"
   id="path649" />
		<path
   d="m 299,121.1 h -2.4 c 0.2,-0.7 0.4,-1 1.1,-1.4 0.6,-0.4 0.7,-0.5 0.9,-0.6 0.2,-0.2 0.3,-0.4 0.3,-0.6 0,-0.2 -0.2,-0.4 -0.4,-0.4 -0.4,0 -0.6,0.3 -0.6,0.8 h -0.7 c 0.1,-0.8 0.6,-1.3 1.4,-1.3 0.7,0 1,0.3 1,0.9 0,0.3 -0.1,0.6 -0.3,0.9 -0.2,0.2 -0.3,0.3 -0.8,0.6 -0.6,0.4 -0.7,0.5 -0.9,0.7 h 1.5 z"
   id="path651" />
		<path
   d="m 302.1,118.4 c 0,-0.2 -0.2,-0.3 -0.4,-0.3 -0.3,0 -0.5,0.2 -0.6,0.5 -0.1,0.2 -0.1,0.2 -0.2,0.5 0.3,-0.2 0.5,-0.3 0.7,-0.3 0.5,0 0.8,0.3 0.8,0.8 0,0.4 -0.1,0.8 -0.4,1.1 -0.3,0.4 -0.7,0.6 -1.1,0.6 -0.6,0 -1,-0.4 -1,-1 0,-0.6 0.2,-1.5 0.5,-2 0.3,-0.5 0.8,-0.8 1.3,-0.8 0.6,0 0.9,0.3 0.9,0.8 0,0 0,0.1 0,0.1 z m -1.3,1.8 c 0,0.3 0.2,0.4 0.4,0.4 0.4,0 0.7,-0.4 0.7,-0.9 0,-0.3 -0.2,-0.4 -0.4,-0.4 -0.4,0 -0.7,0.4 -0.7,0.9 z"
   id="path653" />
	</g><g
   id="g669">
		<path
   d="m 283.6,128.2 h -0.5 v -0.5 c -0.4,0.4 -0.7,0.6 -1.2,0.6 -0.9,0 -1.4,-0.6 -1.4,-1.4 0,-0.6 0.2,-1.2 0.6,-1.7 0.4,-0.5 1,-0.7 1.6,-0.7 0.8,0 1.4,0.4 1.4,1.1 0,0 0,0.1 0,0.2 h -0.7 c 0,-0.4 -0.3,-0.6 -0.8,-0.6 -0.4,0 -0.8,0.2 -1,0.6 -0.2,0.3 -0.3,0.7 -0.3,1.1 0,0.5 0.4,0.9 0.9,0.9 0.3,0 0.6,-0.1 0.8,-0.4 0.1,-0.1 0.2,-0.3 0.3,-0.5 h -0.8 l 0.1,-0.6 h 1.5 z"
   id="path657" />
		<path
   d="m 285.6,128.2 h -0.8 l 0.8,-3.6 h 1.5 c 0.3,0 0.5,0.1 0.7,0.2 0.2,0.2 0.3,0.4 0.3,0.7 0,0.4 -0.2,0.8 -0.4,1.1 -0.3,0.3 -0.6,0.4 -1,0.4 h -0.9 z m 1.1,-1.9 c 0.3,0 0.4,-0.1 0.6,-0.3 0.1,-0.1 0.1,-0.3 0.1,-0.4 0,-0.2 -0.2,-0.4 -0.5,-0.4 h -0.8 l -0.2,1.1 z"
   id="path659" />
		<path
   d="m 289.3,128.2 h -0.8 l 0.8,-3.6 h 0.8 z"
   id="path661" />
		<path
   d="m 294.3,125.9 c 0,0.6 -0.2,1.2 -0.6,1.7 -0.4,0.5 -0.9,0.7 -1.6,0.7 -0.9,0 -1.4,-0.5 -1.4,-1.4 0,-0.6 0.2,-1.2 0.6,-1.7 0.4,-0.5 0.9,-0.7 1.5,-0.7 0.9,0 1.5,0.5 1.5,1.4 z m -2.5,-0.2 c -0.2,0.3 -0.4,0.7 -0.4,1.1 0,0.5 0.3,0.9 0.8,0.9 0.4,0 0.7,-0.2 1,-0.5 0.2,-0.3 0.4,-0.7 0.4,-1.1 0,-0.6 -0.3,-0.9 -0.8,-0.9 -0.5,-0.1 -0.8,0.1 -1,0.5 z"
   id="path663" />
		<path
   d="m 299,128.2 h -2.4 c 0.2,-0.7 0.4,-1 1.1,-1.4 0.6,-0.4 0.7,-0.5 0.9,-0.6 0.2,-0.2 0.3,-0.4 0.3,-0.6 0,-0.2 -0.2,-0.4 -0.4,-0.4 -0.4,0 -0.6,0.3 -0.6,0.8 h -0.7 c 0.1,-0.8 0.6,-1.3 1.4,-1.3 0.7,0 1,0.3 1,0.9 0,0.3 -0.1,0.6 -0.3,0.9 -0.2,0.2 -0.3,0.3 -0.8,0.6 -0.6,0.4 -0.7,0.5 -0.9,0.7 h 1.5 z"
   id="path665" />
		<path
   d="m 300.5,125.8 0.1,-0.5 c 0.6,0 1,-0.2 1.2,-0.6 h 0.5 l -0.8,3.5 h -0.7 l 0.5,-2.4 z"
   id="path667" />
	</g><g
   id="g683">
		<path
   d="m 283.6,135.3 h -0.5 v -0.5 c -0.4,0.4 -0.7,0.6 -1.2,0.6 -0.9,0 -1.4,-0.6 -1.4,-1.4 0,-0.6 0.2,-1.2 0.6,-1.7 0.4,-0.5 1,-0.7 1.6,-0.7 0.8,0 1.4,0.4 1.4,1.1 0,0 0,0.1 0,0.2 h -0.7 c 0,-0.4 -0.3,-0.6 -0.8,-0.6 -0.4,0 -0.8,0.2 -1,0.6 -0.2,0.3 -0.3,0.7 -0.3,1.1 0,0.5 0.4,0.9 0.9,0.9 0.3,0 0.6,-0.1 0.8,-0.4 0.1,-0.1 0.2,-0.3 0.3,-0.5 h -0.8 l 0.1,-0.6 h 1.5 z"
   id="path671" />
		<path
   d="m 285.6,135.3 h -0.8 l 0.8,-3.6 h 1.5 c 0.3,0 0.5,0.1 0.7,0.2 0.2,0.2 0.3,0.4 0.3,0.7 0,0.4 -0.2,0.8 -0.4,1.1 -0.3,0.3 -0.6,0.4 -1,0.4 h -0.9 z m 1.1,-1.9 c 0.3,0 0.4,-0.1 0.6,-0.3 0.1,-0.1 0.1,-0.3 0.1,-0.4 0,-0.2 -0.2,-0.4 -0.5,-0.4 h -0.8 l -0.2,1.1 z"
   id="path673" />
		<path
   d="m 289.3,135.3 h -0.8 l 0.8,-3.6 h 0.8 z"
   id="path675" />
		<path
   d="m 294.3,133 c 0,0.6 -0.2,1.2 -0.6,1.7 -0.4,0.5 -0.9,0.7 -1.6,0.7 -0.9,0 -1.4,-0.5 -1.4,-1.4 0,-0.6 0.2,-1.2 0.6,-1.7 0.4,-0.5 0.9,-0.7 1.5,-0.7 0.9,0 1.5,0.5 1.5,1.4 z m -2.5,-0.2 c -0.2,0.3 -0.4,0.7 -0.4,1.1 0,0.5 0.3,0.9 0.8,0.9 0.4,0 0.7,-0.2 1,-0.5 0.2,-0.3 0.4,-0.7 0.4,-1.1 0,-0.6 -0.3,-0.9 -0.8,-0.9 -0.5,-0.1 -0.8,0.1 -1,0.5 z"
   id="path677" />
		<path
   d="m 299,135.3 h -2.4 c 0.2,-0.7 0.4,-1 1.1,-1.4 0.6,-0.4 0.7,-0.5 0.9,-0.6 0.2,-0.2 0.3,-0.4 0.3,-0.6 0,-0.2 -0.2,-0.4 -0.4,-0.4 -0.4,0 -0.6,0.3 -0.6,0.8 h -0.7 c 0.1,-0.8 0.6,-1.3 1.4,-1.3 0.7,0 1,0.3 1,0.9 0,0.3 -0.1,0.6 -0.3,0.9 -0.2,0.2 -0.3,0.3 -0.8,0.6 -0.6,0.4 -0.7,0.5 -0.9,0.7 h 1.5 z"
   id="path679" />
		<path
   d="m 302.8,132.7 c 0,0.5 -0.2,1.4 -0.4,1.8 -0.3,0.6 -0.7,0.9 -1.3,0.9 -0.6,0 -1,-0.4 -1,-1 0,-0.5 0.2,-1.4 0.4,-1.8 0.3,-0.6 0.7,-0.9 1.3,-0.9 0.6,0 1,0.4 1,1 z m -1.6,-0.2 c -0.2,0.3 -0.4,1.4 -0.4,1.9 0,0.3 0.2,0.4 0.4,0.4 0.3,0 0.5,-0.2 0.6,-0.7 0.1,-0.5 0.3,-1.1 0.3,-1.5 0,-0.3 -0.2,-0.4 -0.4,-0.4 -0.2,0.1 -0.4,0.1 -0.5,0.3 z"
   id="path681" />
	</g><g
   id="g691">
		<path
   d="m 281.6,140.4 v 0 c 0.5,0 0.8,-0.3 0.8,-0.7 0,-0.2 -0.2,-0.4 -0.4,-0.4 -0.2,0 -0.4,0.1 -0.5,0.3 -0.1,0.1 -0.1,0.2 -0.1,0.4 h -0.6 c 0.1,-0.4 0.2,-0.6 0.4,-0.8 0.2,-0.3 0.6,-0.4 1,-0.4 0.6,0 1,0.3 1,0.8 0,0.4 -0.2,0.7 -0.6,1 0.3,0.2 0.4,0.3 0.4,0.6 0,0.3 -0.1,0.7 -0.3,0.9 -0.3,0.3 -0.7,0.5 -1.1,0.5 -0.7,0 -1,-0.3 -1,-0.9 0,-0.1 0,-0.2 0,-0.3 h 0.7 v 0.1 0.1 c 0,0.2 0.2,0.4 0.5,0.4 0.2,0 0.4,-0.1 0.5,-0.3 0.1,-0.1 0.1,-0.2 0.1,-0.4 0,-0.2 -0.1,-0.3 -0.3,-0.4 -0.1,0 -0.1,0 -0.4,0 z"
   id="path685" />
		<path
   d="m 284.7,142.4 -0.5,-3.6 h 0.8 l 0.2,2.7 1.4,-2.7 h 0.8 l -2,3.6 z"
   id="path687" />
		<path
   d="m 288.7,140.4 v 0 c 0.5,0 0.8,-0.3 0.8,-0.7 0,-0.2 -0.2,-0.4 -0.4,-0.4 -0.2,0 -0.4,0.1 -0.5,0.3 0,0.1 -0.1,0.2 -0.1,0.4 h -0.6 c 0.1,-0.4 0.2,-0.6 0.4,-0.8 0.2,-0.3 0.6,-0.4 1,-0.4 0.6,0 1,0.3 1,0.8 0,0.4 -0.2,0.7 -0.6,1 0.3,0.2 0.4,0.3 0.4,0.6 0,0.3 -0.1,0.7 -0.3,0.9 -0.3,0.3 -0.7,0.5 -1.1,0.5 -0.7,0 -1,-0.3 -1,-0.9 0,-0.1 0,-0.2 0,-0.3 h 0.7 v 0.1 0.1 c 0,0.2 0.2,0.4 0.5,0.4 0.2,0 0.4,-0.1 0.5,-0.3 0.1,-0.1 0.1,-0.2 0.1,-0.4 0,-0.2 -0.1,-0.3 -0.3,-0.4 -0.1,0 -0.1,0 -0.4,0 z"
   id="path689" />
	</g><g
   id="g697">
		<path
   d="m 283.1,146.6 h -1.5 l -0.3,0.7 c 0.2,-0.2 0.4,-0.2 0.7,-0.2 0.5,0 0.9,0.3 0.9,0.9 0,0.4 -0.1,0.7 -0.3,1 -0.3,0.4 -0.7,0.6 -1.2,0.6 -0.6,0 -1,-0.3 -1,-0.8 0,-0.1 0,-0.1 0,-0.2 h 0.7 c 0,0 0,0.1 0,0.1 0,0.2 0.2,0.3 0.4,0.3 0.4,0 0.7,-0.4 0.7,-0.9 0,-0.3 -0.2,-0.5 -0.5,-0.5 -0.2,0 -0.4,0.1 -0.5,0.3 h -0.6 l 0.7,-2 h 1.9 z"
   id="path693" />
		<path
   d="m 284.7,149.5 -0.5,-3.6 h 0.8 l 0.2,2.7 1.4,-2.7 h 0.8 l -2,3.6 z"
   id="path695" />
	</g><g
   id="g705">
		<path
   d="m 283.6,156.7 h -0.5 v -0.5 c -0.4,0.4 -0.7,0.6 -1.2,0.6 -0.9,0 -1.4,-0.6 -1.4,-1.4 0,-0.6 0.2,-1.2 0.6,-1.7 0.4,-0.5 1,-0.7 1.6,-0.7 0.8,0 1.4,0.4 1.4,1.1 0,0 0,0.1 0,0.2 h -0.7 c 0,-0.4 -0.3,-0.6 -0.8,-0.6 -0.4,0 -0.8,0.2 -1,0.6 -0.2,0.3 -0.3,0.7 -0.3,1.1 0,0.5 0.4,0.9 0.9,0.9 0.3,0 0.6,-0.1 0.8,-0.4 0.1,-0.1 0.2,-0.3 0.3,-0.5 h -0.8 l 0.1,-0.6 h 1.5 z"
   id="path699" />
		<path
   d="M 287.8,156.7 H 287 l -1,-2.6 -0.6,2.6 h -0.7 l 0.8,-3.6 h 0.8 l 1,2.6 0.5,-2.6 h 0.7 z"
   id="path701" />
		<path
   d="m 289.7,153 h 1.4 c 0.9,0 1.3,0.4 1.3,1.3 0,0.6 -0.2,1.2 -0.6,1.7 -0.4,0.5 -0.8,0.7 -1.5,0.7 h -1.4 z m 0.8,3 c 0.4,0 0.7,-0.1 0.9,-0.5 0.2,-0.3 0.3,-0.8 0.3,-1.2 0,-0.5 -0.2,-0.7 -0.7,-0.7 h -0.7 l -0.5,2.4 z"
   id="path703" />
	</g><g
   id="g713">
		<path
   d="m 283.6,163.8 h -0.5 v -0.5 c -0.4,0.4 -0.7,0.6 -1.2,0.6 -0.9,0 -1.4,-0.6 -1.4,-1.4 0,-0.6 0.2,-1.2 0.6,-1.7 0.4,-0.5 1,-0.7 1.6,-0.7 0.8,0 1.4,0.4 1.4,1.1 0,0 0,0.1 0,0.2 h -0.7 c 0,-0.4 -0.3,-0.6 -0.8,-0.6 -0.4,0 -0.8,0.2 -1,0.6 -0.2,0.3 -0.3,0.7 -0.3,1.1 0,0.5 0.4,0.9 0.9,0.9 0.3,0 0.6,-0.1 0.8,-0.4 0.1,-0.1 0.2,-0.3 0.3,-0.5 h -0.8 l 0.1,-0.6 h 1.5 z"
   id="path707" />
		<path
   d="M 287.8,163.8 H 287 l -1,-2.6 -0.6,2.6 h -0.7 l 0.8,-3.6 h 0.8 l 1,2.6 0.5,-2.6 h 0.7 z"
   id="path709" />
		<path
   d="m 289.7,160.1 h 1.4 c 0.9,0 1.3,0.4 1.3,1.3 0,0.6 -0.2,1.2 -0.6,1.7 -0.4,0.5 -0.8,0.7 -1.5,0.7 h -1.4 z m 0.8,3 c 0.4,0 0.7,-0.1 0.9,-0.5 0.2,-0.3 0.3,-0.8 0.3,-1.2 0,-0.5 -0.2,-0.7 -0.7,-0.7 h -0.7 l -0.5,2.4 z"
   id="path711" />
	</g><g
   id="g717">
		<polygon
   points="126,37 136.1,26.8 136.5,27.2 126.5,37.2 126.5,49.9 126,49.9 "
   id="polygon715" />
	</g><g
   id="g721">
		<path
   d="m 127.4,49.8 c 0,-0.6 -0.5,-1.1 -1.1,-1.1 -0.6,0 -1.1,0.5 -1.1,1.1 0,0.6 0.5,1.1 1.1,1.1 0.6,0 1.1,-0.5 1.1,-1.1 0,-0.6 0,0.6 0,0 z m -1.9,0 c 0,-0.4 0.4,-0.8 0.8,-0.8 0.4,0 0.8,0.4 0.8,0.8 0,0.4 -0.4,0.8 -0.8,0.8 -0.4,0 -0.8,-0.3 -0.8,-0.8 0,-0.5 0,0.5 0,0 z"
   id="path719" />
	</g><g
   id="g725">
		<polygon
   points="133.3,37 143.3,26.8 143.7,27.2 133.8,37.2 133.8,49.9 133.3,49.9 "
   id="polygon723" />
	</g><g
   id="g729">
		<path
   d="m 134.6,49.8 c 0,-0.6 -0.5,-1.1 -1.1,-1.1 -0.6,0 -1.1,0.5 -1.1,1.1 0,0.6 0.5,1.1 1.1,1.1 0.6,0 1.1,-0.5 1.1,-1.1 0,-0.6 0,0.6 0,0 z m -1.9,0 c 0,-0.4 0.4,-0.8 0.8,-0.8 0.4,0 0.8,0.4 0.8,0.8 0,0.4 -0.4,0.8 -0.8,0.8 -0.4,0 -0.8,-0.3 -0.8,-0.8 0,-0.5 0,0.5 0,0 z"
   id="path727" />
	</g><g
   id="g733">
		<polygon
   points="140.5,37 150.6,26.8 150.9,27.2 141,37.2 141,49.9 140.5,49.9 "
   id="polygon731" />
	</g><g
   id="g737">
		<path
   d="m 141.8,49.8 c 0,-0.6 -0.5,-1.1 -1.1,-1.1 -0.6,0 -1.1,0.5 -1.1,1.1 0,0.6 0.5,1.1 1.1,1.1 0.6,0 1.1,-0.5 1.1,-1.1 0,-0.6 0,0.6 0,0 z m -1.9,0 c 0,-0.4 0.4,-0.8 0.8,-0.8 0.4,0 0.8,0.4 0.8,0.8 0,0.4 -0.4,0.8 -0.8,0.8 -0.4,0 -0.8,-0.3 -0.8,-0.8 0,-0.5 0,0.5 0,0 z"
   id="path735" />
	</g><g
   id="g741">
		<polygon
   points="147.7,37 157.8,26.8 158.1,27.2 148.2,37.2 148.2,49.9 147.7,49.9 "
   id="polygon739" />
	</g><g
   id="g745">
		<path
   d="m 149,49.8 c 0,-0.6 -0.5,-1.1 -1.1,-1.1 -0.6,0 -1.1,0.5 -1.1,1.1 0,0.6 0.5,1.1 1.1,1.1 0.6,0 1.1,-0.5 1.1,-1.1 0,-0.6 0,0.6 0,0 z m -1.9,0 c 0,-0.4 0.4,-0.8 0.8,-0.8 0.4,0 0.8,0.4 0.8,0.8 0,0.4 -0.4,0.8 -0.8,0.8 -0.4,0 -0.8,-0.3 -0.8,-0.8 0,-0.5 0,0.5 0,0 z"
   id="path743" />
	</g><g
   id="g749">
		<polygon
   points="154.9,37 165,26.8 165.4,27.2 155.4,37.2 155.4,49.9 154.9,49.9 "
   id="polygon747" />
	</g><g
   id="g753">
		<path
   d="m 156.2,49.8 c 0,-0.6 -0.5,-1.1 -1.1,-1.1 -0.6,0 -1.1,0.5 -1.1,1.1 0,0.6 0.5,1.1 1.1,1.1 0.6,0 1.1,-0.5 1.1,-1.1 0,-0.6 0,0.6 0,0 z m -1.8,0 c 0,-0.4 0.4,-0.8 0.8,-0.8 0.4,0 0.8,0.4 0.8,0.8 0,0.4 -0.4,0.8 -0.8,0.8 -0.4,0 -0.8,-0.3 -0.8,-0.8 0,-0.5 0,0.5 0,0 z"
   id="path751" />
	</g><g
   id="g757">
		<polygon
   points="162.1,37 172.2,26.8 172.6,27.2 162.6,37.2 162.6,49.9 162.1,49.9 "
   id="polygon755" />
	</g><g
   id="g761">
		<path
   d="m 163.5,49.8 c 0,-0.6 -0.5,-1.1 -1.1,-1.1 -0.6,0 -1.1,0.5 -1.1,1.1 0,0.6 0.5,1.1 1.1,1.1 0.6,0 1.1,-0.5 1.1,-1.1 0,-0.6 0,0.6 0,0 z m -1.9,0 c 0,-0.4 0.4,-0.8 0.8,-0.8 0.4,0 0.8,0.4 0.8,0.8 0,0.4 -0.4,0.8 -0.8,0.8 -0.4,0 -0.8,-0.3 -0.8,-0.8 0,-0.5 0,0.5 0,0 z"
   id="path759" />
	</g><g
   id="g765">
		<polygon
   points="169.4,37 179.4,26.8 179.8,27.2 169.9,37.2 169.9,49.9 169.4,49.9 "
   id="polygon763" />
	</g><g
   id="g769">
		<path
   d="m 170.7,49.8 c 0,-0.6 -0.5,-1.1 -1.1,-1.1 -0.6,0 -1.1,0.5 -1.1,1.1 0,0.6 0.5,1.1 1.1,1.1 0.6,0 1.1,-0.5 1.1,-1.1 0,-0.6 0,0.6 0,0 z m -1.9,0 c 0,-0.4 0.4,-0.8 0.8,-0.8 0.4,0 0.8,0.4 0.8,0.8 0,0.4 -0.4,0.8 -0.8,0.8 -0.4,0 -0.8,-0.3 -0.8,-0.8 0,-0.5 0,0.5 0,0 z"
   id="path767" />
	</g><g
   id="g773">
		<polygon
   points="176.6,37 186.7,26.8 187,27.2 177.1,37.2 177.1,49.9 176.6,49.9 "
   id="polygon771" />
	</g><g
   id="g777">
		<path
   d="m 177.9,49.8 c 0,-0.6 -0.5,-1.1 -1.1,-1.1 -0.6,0 -1.1,0.5 -1.1,1.1 0,0.6 0.5,1.1 1.1,1.1 0.6,0 1.1,-0.5 1.1,-1.1 0,-0.6 0,0.6 0,0 z m -1.9,0 c 0,-0.4 0.4,-0.8 0.8,-0.8 0.4,0 0.8,0.4 0.8,0.8 0,0.4 -0.4,0.8 -0.8,0.8 -0.4,0 -0.8,-0.3 -0.8,-0.8 0,-0.5 0,0.5 0,0 z"
   id="path775" />
	</g><g
   id="g781">
		<polygon
   points="183.8,37 193.9,26.8 194.2,27.2 184.3,37.2 184.3,49.9 183.8,49.9 "
   id="polygon779" />
	</g><g
   id="g785">
		<path
   d="m 185.1,49.8 c 0,-0.6 -0.5,-1.1 -1.1,-1.1 -0.6,0 -1.1,0.5 -1.1,1.1 0,0.6 0.5,1.1 1.1,1.1 0.6,0 1.1,-0.5 1.1,-1.1 0,-0.6 0,0.6 0,0 z m -1.8,0 c 0,-0.4 0.4,-0.8 0.8,-0.8 0.4,0 0.8,0.4 0.8,0.8 0,0.4 -0.4,0.8 -0.8,0.8 -0.4,0 -0.8,-0.3 -0.8,-0.8 0,-0.5 0,0.5 0,0 z"
   id="path783" />
	</g><g
   id="g789">
		<polygon
   points="191,37 201.1,26.8 201.5,27.2 191.5,37.2 191.5,49.9 191,49.9 "
   id="polygon787" />
	</g><g
   id="g793">
		<path
   d="m 192.4,49.8 c 0,-0.6 -0.5,-1.1 -1.1,-1.1 -0.6,0 -1.1,0.5 -1.1,1.1 0,0.6 0.5,1.1 1.1,1.1 0.6,0 1.1,-0.5 1.1,-1.1 0,-0.6 0,0.6 0,0 z m -1.9,0 c 0,-0.4 0.4,-0.8 0.8,-0.8 0.4,0 0.8,0.4 0.8,0.8 0,0.4 -0.4,0.8 -0.8,0.8 -0.4,0 -0.8,-0.3 -0.8,-0.8 0,-0.5 0,0.5 0,0 z"
   id="path791" />
	</g><g
   id="g807">
		<path
   d="m 171,24.6 -0.3,0.3 -0.3,-0.3 c 0,0.5 -0.1,0.9 -0.4,1.2 -0.6,0.6 -1.4,0.6 -2,0 -0.4,-0.4 -0.7,-1 -0.7,-1.6 0,-0.6 0.2,-1.2 0.6,-1.6 0.6,-0.6 1.3,-0.7 1.7,-0.2 0,0 0.1,0.1 0.1,0.1 l -0.5,0.5 c -0.3,-0.2 -0.6,-0.2 -1,0.2 -0.3,0.3 -0.4,0.7 -0.3,1.1 0.1,0.3 0.3,0.7 0.5,1 0.4,0.4 0.9,0.4 1.2,0 0.2,-0.2 0.3,-0.5 0.3,-0.8 0,-0.2 0,-0.3 -0.1,-0.5 l -0.6,0.6 -0.3,-0.5 1,-1 z"
   id="path795" />
		<path
   d="m 172.4,23.2 -0.5,0.5 -2,-3.1 1.1,-1.1 c 0.2,-0.2 0.4,-0.3 0.6,-0.4 0.3,0 0.5,0 0.7,0.2 0.3,0.3 0.5,0.7 0.5,1.1 0,0.4 -0.1,0.7 -0.4,1 l -0.7,0.7 z M 171.8,21 c 0.2,-0.2 0.3,-0.4 0.2,-0.6 0,-0.1 -0.1,-0.3 -0.2,-0.4 -0.2,-0.2 -0.4,-0.2 -0.6,0 l -0.5,0.5 0.6,0.9 z"
   id="path797" />
		<path
   d="m 175,20.5 -0.5,0.5 -2,-3.1 0.5,-0.5 z"
   id="path799" />
		<path
   d="m 176.9,15.4 c 0.4,0.4 0.7,1 0.7,1.6 0.1,0.7 -0.1,1.2 -0.6,1.6 -0.6,0.6 -1.4,0.6 -2,0 -0.4,-0.4 -0.7,-1 -0.7,-1.6 -0.1,-0.6 0.1,-1.2 0.6,-1.6 0.6,-0.6 1.3,-0.6 2,0 z m -2,1.6 c 0.1,0.4 0.3,0.8 0.5,1.1 0.4,0.4 0.8,0.4 1.2,0 0.3,-0.3 0.4,-0.6 0.3,-1 -0.1,-0.4 -0.3,-0.8 -0.6,-1.1 -0.4,-0.4 -0.8,-0.4 -1.2,-0.1 -0.1,0.3 -0.2,0.7 -0.2,1.1 z"
   id="path801" />
		<path
   d="m 181.8,13.7 -1.7,1.7 c -0.3,-0.6 -0.4,-1 -0.2,-1.8 0.2,-0.7 0.2,-0.9 0.2,-1.1 0,-0.2 -0.1,-0.5 -0.3,-0.6 -0.2,-0.2 -0.4,-0.2 -0.6,0 -0.2,0.2 -0.2,0.6 0.1,1 l -0.5,0.5 c -0.5,-0.7 -0.5,-1.4 0.1,-1.9 0.5,-0.5 1,-0.5 1.3,-0.1 0.2,0.2 0.4,0.5 0.4,0.8 0,0.2 0,0.5 -0.1,1 -0.2,0.7 -0.2,0.9 -0.1,1.1 l 1.1,-1.1 z"
   id="path803" />
		<path
   d="m 184.1,11.4 -1.7,1.7 c -0.3,-0.6 -0.4,-1 -0.2,-1.8 0.2,-0.7 0.2,-0.9 0.2,-1.1 0,-0.2 -0.1,-0.5 -0.3,-0.6 -0.2,-0.2 -0.4,-0.2 -0.6,0 -0.2,0.2 -0.2,0.6 0.1,1 l -0.5,0.5 c -0.5,-0.7 -0.5,-1.4 0.1,-1.9 0.5,-0.5 1,-0.5 1.3,-0.1 0.2,0.2 0.4,0.5 0.4,0.8 0,0.2 0,0.5 -0.1,1 -0.2,0.7 -0.2,0.9 -0.1,1.1 l 1.1,-1.1 z"
   id="path805" />
	</g><g
   id="g821">
		<path
   d="m 199.9,24.6 -0.3,0.3 -0.3,-0.3 c 0,0.5 -0.1,0.9 -0.4,1.2 -0.6,0.6 -1.4,0.6 -2,0 -0.4,-0.4 -0.7,-1 -0.7,-1.6 0,-0.6 0.2,-1.2 0.6,-1.6 0.6,-0.6 1.3,-0.7 1.7,-0.2 0,0 0.1,0.1 0.1,0.1 l -0.5,0.5 c -0.3,-0.2 -0.6,-0.2 -1,0.2 -0.3,0.3 -0.4,0.7 -0.3,1.1 0.1,0.3 0.3,0.7 0.5,1 0.4,0.4 0.9,0.4 1.2,0 0.2,-0.2 0.3,-0.5 0.3,-0.8 0,-0.2 0,-0.3 -0.1,-0.5 l -0.6,0.6 -0.3,-0.5 1,-1 z"
   id="path809" />
		<path
   d="m 201.2,23.2 -0.5,0.5 -2,-3.1 1.1,-1.1 c 0.2,-0.2 0.4,-0.3 0.6,-0.4 0.3,0 0.5,0 0.7,0.2 0.3,0.3 0.5,0.7 0.5,1.1 0,0.4 -0.1,0.7 -0.4,1 l -0.7,0.7 z M 200.7,21 c 0.2,-0.2 0.3,-0.4 0.2,-0.6 0,-0.1 -0.1,-0.3 -0.2,-0.4 -0.2,-0.2 -0.4,-0.2 -0.6,0 l -0.5,0.5 0.6,0.9 z"
   id="path811" />
		<path
   d="m 203.9,20.5 -0.5,0.5 -2,-3.1 0.5,-0.5 z"
   id="path813" />
		<path
   d="m 205.8,15.4 c 0.4,0.4 0.7,1 0.7,1.6 0.1,0.7 -0.1,1.2 -0.6,1.6 -0.6,0.6 -1.4,0.6 -2,0 -0.4,-0.4 -0.7,-1 -0.7,-1.6 -0.1,-0.6 0.1,-1.2 0.6,-1.6 0.6,-0.6 1.3,-0.6 2,0 z m -2,1.6 c 0.1,0.4 0.3,0.8 0.5,1.1 0.4,0.4 0.8,0.4 1.2,0 0.3,-0.3 0.4,-0.6 0.3,-1 -0.1,-0.4 -0.3,-0.8 -0.6,-1.1 -0.4,-0.4 -0.8,-0.4 -1.2,-0.1 -0.2,0.3 -0.3,0.7 -0.2,1.1 z"
   id="path815" />
		<path
   d="m 209.2,11.5 c 0.4,0.4 0.8,1.1 1,1.6 0.2,0.6 0.1,1.2 -0.3,1.6 -0.4,0.4 -0.9,0.4 -1.4,0 -0.4,-0.4 -0.8,-1.1 -1,-1.6 -0.2,-0.6 -0.1,-1.2 0.3,-1.6 0.5,-0.5 1,-0.5 1.4,0 z m -1.2,1 c 0.1,0.3 0.7,1.3 1,1.6 0.2,0.2 0.4,0.2 0.6,0 0.2,-0.2 0.2,-0.5 -0.1,-0.9 -0.2,-0.4 -0.6,-1 -0.9,-1.2 -0.2,-0.2 -0.4,-0.2 -0.6,0 0,0.1 0,0.2 0,0.5 z"
   id="path817" />
		<path
   d="m 211.3,8.9 -1,1 0.3,0.7 c 0.1,-0.3 0.1,-0.4 0.3,-0.6 0.4,-0.4 0.9,-0.4 1.3,0 0.2,0.2 0.4,0.6 0.5,0.9 0.1,0.5 -0.1,1 -0.4,1.3 -0.4,0.4 -0.9,0.5 -1.3,0.1 0,0 -0.1,-0.1 -0.1,-0.2 l 0.5,-0.5 c 0,0 0.1,0.1 0.1,0.1 0.1,0.1 0.3,0.1 0.5,-0.1 0.3,-0.3 0.2,-0.8 -0.1,-1.1 -0.2,-0.2 -0.4,-0.2 -0.6,0 -0.2,0.2 -0.2,0.3 -0.2,0.5 l -0.4,0.4 -0.9,-1.9 1.4,-1.4 z"
   id="path819" />
	</g><g
   id="g835">
		<path
   d="m 163.8,24.6 -0.3,0.3 -0.3,-0.3 c 0,0.5 -0.1,0.9 -0.4,1.2 -0.6,0.6 -1.4,0.6 -2,0 -0.4,-0.4 -0.7,-1 -0.7,-1.6 0,-0.6 0.2,-1.2 0.6,-1.6 0.6,-0.6 1.3,-0.7 1.7,-0.2 0,0 0.1,0.1 0.1,0.1 L 162,23 c -0.3,-0.2 -0.6,-0.2 -1,0.2 -0.3,0.3 -0.4,0.7 -0.3,1.1 0.1,0.3 0.3,0.7 0.5,1 0.4,0.4 0.9,0.4 1.2,0 0.2,-0.2 0.3,-0.5 0.3,-0.8 0,-0.2 0,-0.3 -0.1,-0.5 l -0.6,0.6 -0.3,-0.5 1,-1 z"
   id="path823" />
		<path
   d="m 165.1,23.2 -0.5,0.5 -2,-3.1 1.1,-1.1 c 0.2,-0.2 0.4,-0.3 0.6,-0.4 0.3,0 0.5,0 0.7,0.2 0.3,0.3 0.5,0.7 0.5,1.1 0,0.4 -0.1,0.7 -0.4,1 l -0.7,0.7 z M 164.6,21 c 0.2,-0.2 0.3,-0.4 0.2,-0.6 0,-0.1 -0.1,-0.3 -0.2,-0.4 -0.2,-0.2 -0.4,-0.2 -0.6,0 l -0.5,0.5 0.6,0.9 z"
   id="path825" />
		<path
   d="m 167.8,20.5 -0.5,0.5 -2,-3.1 0.5,-0.5 z"
   id="path827" />
		<path
   d="m 169.7,15.4 c 0.4,0.4 0.7,1 0.7,1.6 0.1,0.7 -0.1,1.2 -0.6,1.6 -0.6,0.6 -1.4,0.6 -2,0 -0.4,-0.4 -0.7,-1 -0.7,-1.6 -0.1,-0.6 0.1,-1.2 0.6,-1.6 0.6,-0.6 1.3,-0.6 2,0 z m -2,1.6 c 0.1,0.4 0.3,0.8 0.5,1.1 0.4,0.4 0.8,0.4 1.2,0 0.3,-0.3 0.4,-0.6 0.3,-1 -0.1,-0.4 -0.3,-0.8 -0.6,-1.1 -0.4,-0.4 -0.8,-0.4 -1.2,-0.1 -0.2,0.3 -0.3,0.7 -0.2,1.1 z"
   id="path829" />
		<path
   d="m 174.6,13.7 -1.7,1.7 c -0.3,-0.6 -0.4,-1 -0.2,-1.8 0.2,-0.7 0.2,-0.9 0.2,-1.1 0,-0.2 -0.1,-0.5 -0.3,-0.6 -0.2,-0.2 -0.4,-0.2 -0.6,0 -0.2,0.2 -0.2,0.6 0.1,1 l -0.5,0.5 c -0.5,-0.7 -0.5,-1.4 0.1,-1.9 0.5,-0.5 1,-0.5 1.3,-0.1 0.2,0.2 0.4,0.5 0.4,0.8 0,0.2 0,0.5 -0.1,1 -0.2,0.7 -0.2,0.9 -0.1,1.1 l 1.1,-1.1 z"
   id="path831" />
		<path
   d="m 175.3,8.7 c 0,0.1 0,0.3 0,0.8 0.1,1.1 0.3,1.9 0.8,2.7 l -0.5,0.5 c -0.6,-1.1 -0.8,-2 -0.7,-3.4 l -1.2,1.2 -0.3,-0.5 1.8,-1.8 z"
   id="path833" />
	</g><g
   id="g849">
		<path
   d="m 192.6,24.6 -0.3,0.3 -0.3,-0.3 c 0,0.5 -0.1,0.9 -0.4,1.2 -0.6,0.6 -1.4,0.6 -2,0 -0.4,-0.4 -0.7,-1 -0.7,-1.6 0,-0.6 0.2,-1.2 0.6,-1.6 0.6,-0.6 1.3,-0.7 1.7,-0.2 0,0 0.1,0.1 0.1,0.1 l -0.5,0.5 c -0.3,-0.2 -0.6,-0.2 -1,0.2 -0.3,0.3 -0.4,0.7 -0.3,1.1 0.1,0.3 0.3,0.7 0.5,1 0.4,0.4 0.9,0.4 1.2,0 0.2,-0.2 0.3,-0.5 0.3,-0.8 0,-0.2 0,-0.3 -0.1,-0.5 l -0.6,0.6 -0.3,-0.5 1,-1 z"
   id="path837" />
		<path
   d="m 194,23.2 -0.5,0.5 -2,-3.1 1.1,-1.1 c 0.2,-0.2 0.4,-0.3 0.6,-0.4 0.3,0 0.5,0 0.7,0.2 0.3,0.3 0.5,0.7 0.5,1.1 0,0.4 -0.1,0.7 -0.4,1 l -0.7,0.7 z M 193.5,21 c 0.2,-0.2 0.3,-0.4 0.2,-0.6 0,-0.1 -0.1,-0.3 -0.2,-0.4 -0.2,-0.2 -0.4,-0.2 -0.6,0 l -0.5,0.5 0.6,0.9 z"
   id="path839" />
		<path
   d="m 196.7,20.5 -0.5,0.5 -2,-3.1 0.5,-0.5 z"
   id="path841" />
		<path
   d="m 198.6,15.4 c 0.4,0.4 0.7,1 0.7,1.6 0.1,0.7 -0.1,1.2 -0.6,1.6 -0.6,0.6 -1.4,0.6 -2,0 -0.4,-0.4 -0.7,-1 -0.7,-1.6 -0.1,-0.6 0.1,-1.2 0.6,-1.6 0.6,-0.6 1.3,-0.6 2,0 z m -2,1.6 c 0.1,0.4 0.3,0.8 0.5,1.1 0.4,0.4 0.8,0.4 1.2,0 0.3,-0.3 0.4,-0.6 0.3,-1 -0.1,-0.4 -0.3,-0.8 -0.6,-1.1 -0.4,-0.4 -0.8,-0.4 -1.2,-0.1 -0.2,0.3 -0.3,0.7 -0.2,1.1 z"
   id="path843" />
		<path
   d="m 202,11.5 c 0.4,0.4 0.8,1.1 1,1.6 0.2,0.6 0.1,1.2 -0.3,1.6 -0.4,0.4 -0.9,0.4 -1.4,0 -0.4,-0.4 -0.8,-1.1 -1,-1.6 -0.2,-0.6 -0.1,-1.2 0.3,-1.6 0.4,-0.5 0.9,-0.5 1.4,0 z m -1.2,1 c 0.1,0.3 0.7,1.3 1,1.6 0.2,0.2 0.4,0.2 0.6,0 0.2,-0.2 0.2,-0.5 -0.1,-0.9 -0.2,-0.4 -0.6,-1 -0.9,-1.2 -0.2,-0.2 -0.4,-0.2 -0.6,0 0,0.1 -0.1,0.2 0,0.5 z"
   id="path845" />
		<path
   d="m 202.9,10.9 -0.3,-0.4 c 0.4,-0.4 0.6,-0.9 0.4,-1.3 l 0.3,-0.3 2,3 -0.5,0.5 -1.4,-2.1 z"
   id="path847" />
	</g><g
   id="g857">
		<path
   d="m 153.6,24.5 v 0 c 0.4,-0.4 0.4,-0.8 0.1,-1 -0.1,-0.1 -0.4,-0.1 -0.5,0 -0.1,0.1 -0.2,0.3 -0.1,0.5 0,0.1 0.1,0.2 0.2,0.4 l -0.5,0.5 c -0.2,-0.3 -0.3,-0.5 -0.3,-0.8 0,-0.3 0.1,-0.7 0.4,-1 0.4,-0.4 0.9,-0.5 1.2,-0.2 0.3,0.3 0.4,0.7 0.3,1.1 0.3,-0.1 0.5,0 0.7,0.2 0.2,0.2 0.4,0.6 0.4,0.9 0,0.4 -0.1,0.8 -0.5,1.1 -0.5,0.5 -1,0.5 -1.3,0.1 -0.1,-0.1 -0.1,-0.1 -0.2,-0.2 l 0.5,-0.5 v 0 l 0.1,0.1 c 0.2,0.2 0.4,0.2 0.6,0 0.1,-0.1 0.2,-0.3 0.2,-0.6 0,-0.1 -0.1,-0.3 -0.2,-0.3 -0.1,-0.1 -0.3,-0.2 -0.5,-0.1 -0.1,0.1 -0.1,0.1 -0.3,0.3 z"
   id="path851" />
		<path
   d="m 157.3,23.8 -2.9,-2.2 0.5,-0.5 2.1,1.8 -1,-2.9 0.5,-0.5 1.2,4 z"
   id="path853" />
		<path
   d="m 158.7,19.5 v 0 c 0.4,-0.4 0.4,-0.8 0.1,-1 -0.1,-0.1 -0.4,-0.1 -0.5,0 -0.1,0.1 -0.2,0.3 -0.1,0.5 0,0.1 0.1,0.2 0.2,0.4 l -0.5,0.5 c -0.2,-0.3 -0.3,-0.5 -0.3,-0.8 0,-0.3 0.1,-0.7 0.4,-1 0.4,-0.4 0.9,-0.5 1.2,-0.2 0.3,0.3 0.4,0.7 0.3,1.1 0.3,-0.1 0.5,0 0.7,0.2 0.2,0.2 0.4,0.6 0.4,0.9 0,0.4 -0.1,0.8 -0.5,1.1 -0.5,0.5 -1,0.5 -1.3,0.1 -0.1,-0.1 -0.1,-0.1 -0.2,-0.2 l 0.5,-0.5 v 0 l 0.1,0.1 c 0.2,0.2 0.4,0.2 0.6,0 0.1,-0.1 0.2,-0.3 0.2,-0.6 0,-0.1 -0.1,-0.3 -0.2,-0.3 -0.1,-0.1 -0.3,-0.2 -0.5,-0.1 -0.1,0.1 -0.1,0.1 -0.3,0.3 z"
   id="path855" />
	</g><g
   id="g869">
		<path
   d="m 185.4,24.6 -0.3,0.3 -0.3,-0.3 c 0,0.5 -0.1,0.9 -0.4,1.2 -0.6,0.6 -1.4,0.6 -2,0 -0.4,-0.4 -0.7,-1 -0.7,-1.6 0,-0.6 0.2,-1.2 0.6,-1.6 0.6,-0.6 1.3,-0.7 1.7,-0.2 0,0 0.1,0.1 0.1,0.1 l -0.5,0.5 c -0.3,-0.2 -0.6,-0.2 -1,0.2 -0.3,0.3 -0.4,0.7 -0.3,1.1 0.1,0.3 0.3,0.7 0.5,1 0.4,0.4 0.9,0.4 1.2,0 0.2,-0.2 0.3,-0.5 0.3,-0.8 0,-0.2 0,-0.3 -0.1,-0.5 l -0.6,0.6 -0.3,-0.5 1,-1 z"
   id="path859" />
		<path
   d="m 186.8,23.2 -0.5,0.5 -2,-3.1 1.1,-1.1 c 0.2,-0.2 0.4,-0.3 0.6,-0.4 0.3,0 0.5,0 0.7,0.2 0.3,0.3 0.5,0.7 0.5,1.1 0,0.4 -0.1,0.7 -0.4,1 l -0.7,0.7 z M 186.3,21 c 0.2,-0.2 0.3,-0.4 0.2,-0.6 0,-0.1 -0.1,-0.3 -0.2,-0.4 -0.2,-0.2 -0.4,-0.2 -0.6,0 l -0.5,0.5 0.6,0.9 z"
   id="path861" />
		<path
   d="m 189.4,20.5 -0.5,0.5 -2,-3.1 0.5,-0.5 z"
   id="path863" />
		<path
   d="m 191.3,15.4 c 0.4,0.4 0.7,1 0.7,1.6 0.1,0.7 -0.1,1.2 -0.6,1.6 -0.6,0.6 -1.4,0.6 -2,0 -0.4,-0.4 -0.7,-1 -0.7,-1.6 -0.1,-0.6 0.1,-1.2 0.6,-1.6 0.6,-0.6 1.4,-0.6 2,0 z m -1.9,1.6 c 0.1,0.4 0.3,0.8 0.5,1.1 0.4,0.4 0.8,0.4 1.2,0 0.3,-0.3 0.4,-0.6 0.3,-1 -0.1,-0.4 -0.3,-0.8 -0.6,-1.1 -0.4,-0.4 -0.8,-0.4 -1.2,-0.1 -0.2,0.3 -0.3,0.7 -0.2,1.1 z"
   id="path865" />
		<path
   d="m 196.1,10.1 c 0.4,0.4 0.8,1.1 1,1.6 0.2,0.6 0.1,1.2 -0.3,1.6 -0.4,0.4 -0.9,0.4 -1.4,0 -0.4,-0.4 -0.8,-1.1 -1,-1.6 -0.2,-0.6 -0.1,-1.2 0.3,-1.6 0.4,-0.4 1,-0.4 1.4,0 z m -1.2,1 c 0.1,0.3 0.7,1.3 1,1.6 0.2,0.2 0.4,0.2 0.6,0 0.2,-0.2 0.2,-0.5 -0.1,-0.9 -0.2,-0.4 -0.6,-1 -0.9,-1.2 -0.2,-0.2 -0.4,-0.2 -0.6,0 0,0.1 0,0.3 0,0.5 z"
   id="path867" />
	</g><g
   id="g877">
		<path
   d="m 149.3,24.6 -0.3,0.3 -0.3,-0.3 c 0,0.5 -0.1,0.9 -0.4,1.2 -0.6,0.6 -1.4,0.6 -2,0 -0.4,-0.4 -0.7,-1 -0.7,-1.6 0,-0.6 0.2,-1.2 0.6,-1.6 0.6,-0.6 1.3,-0.7 1.7,-0.2 0,0 0.1,0.1 0.1,0.1 l -0.5,0.5 c -0.3,-0.2 -0.6,-0.2 -1,0.2 -0.3,0.3 -0.4,0.7 -0.3,1.1 0.1,0.3 0.3,0.7 0.5,1 0.4,0.4 0.9,0.4 1.2,0 0.2,-0.2 0.3,-0.5 0.3,-0.8 0,-0.2 0,-0.3 -0.1,-0.5 l -0.6,0.6 -0.3,-0.5 1,-1 z"
   id="path871" />
		<path
   d="m 152.2,21.6 -0.5,0.5 -2.5,-1.2 1.5,2.2 -0.5,0.5 -2,-3.1 0.5,-0.5 2.5,1.1 -1.4,-2.2 0.5,-0.5 z"
   id="path873" />
		<path
   d="m 151,17.7 1,-1 c 0.6,-0.6 1.2,-0.7 1.8,0 0.4,0.4 0.7,1 0.8,1.6 0.1,0.6 -0.1,1.1 -0.6,1.6 l -1,1 z m 2.7,1.5 c 0.3,-0.3 0.4,-0.6 0.3,-1 -0.1,-0.3 -0.4,-0.8 -0.6,-1.1 -0.3,-0.3 -0.6,-0.3 -1,0 l -0.5,0.5 1.3,2.1 z"
   id="path875" />
	</g><g
   id="g891">
		<path
   d="m 178.2,24.6 -0.3,0.3 -0.3,-0.3 c 0,0.5 -0.1,0.9 -0.4,1.2 -0.6,0.6 -1.4,0.6 -2,0 -0.4,-0.4 -0.7,-1 -0.7,-1.6 0,-0.6 0.2,-1.2 0.6,-1.6 0.6,-0.6 1.3,-0.7 1.7,-0.2 0,0 0.1,0.1 0.1,0.1 l -0.5,0.5 c -0.3,-0.2 -0.6,-0.2 -1,0.2 -0.3,0.3 -0.4,0.7 -0.3,1.1 0.1,0.3 0.3,0.7 0.5,1 0.4,0.4 0.9,0.4 1.2,0 0.2,-0.2 0.3,-0.5 0.3,-0.8 0,-0.2 0,-0.3 -0.1,-0.5 l -0.6,0.6 -0.3,-0.5 1,-1 z"
   id="path879" />
		<path
   d="m 179.6,23.2 -0.5,0.5 -2,-3.1 1.1,-1.1 c 0.2,-0.2 0.4,-0.3 0.6,-0.4 0.3,0 0.5,0 0.7,0.2 0.3,0.3 0.5,0.7 0.5,1.1 0,0.4 -0.1,0.7 -0.4,1 l -0.7,0.7 z M 179,21 c 0.2,-0.2 0.3,-0.4 0.2,-0.6 0,-0.1 -0.1,-0.3 -0.2,-0.4 -0.2,-0.2 -0.4,-0.2 -0.6,0 l -0.5,0.5 0.6,0.9 z"
   id="path881" />
		<path
   d="m 182.2,20.5 -0.5,0.5 -2,-3.1 0.5,-0.5 z"
   id="path883" />
		<path
   d="m 184.1,15.4 c 0.4,0.4 0.7,1 0.7,1.6 0.1,0.7 -0.1,1.2 -0.6,1.6 -0.6,0.6 -1.4,0.6 -2,0 -0.4,-0.4 -0.7,-1 -0.7,-1.6 -0.1,-0.6 0.1,-1.2 0.6,-1.6 0.6,-0.6 1.4,-0.6 2,0 z m -2,1.6 c 0.1,0.4 0.3,0.8 0.5,1.1 0.4,0.4 0.8,0.4 1.2,0 0.3,-0.3 0.4,-0.6 0.3,-1 -0.1,-0.4 -0.3,-0.8 -0.6,-1.1 -0.4,-0.4 -0.8,-0.4 -1.2,-0.1 -0.1,0.3 -0.2,0.7 -0.2,1.1 z"
   id="path885" />
		<path
   d="m 187.5,11.5 c 0.4,0.4 0.8,1.1 1,1.6 0.2,0.6 0.1,1.2 -0.3,1.6 -0.4,0.4 -0.9,0.4 -1.4,0 -0.4,-0.4 -0.8,-1.1 -1,-1.6 -0.2,-0.6 -0.1,-1.2 0.3,-1.6 0.5,-0.5 1,-0.5 1.4,0 z m -1.2,1 c 0.1,0.3 0.7,1.3 1,1.6 0.2,0.2 0.4,0.2 0.6,0 0.2,-0.2 0.2,-0.5 -0.1,-0.9 -0.2,-0.4 -0.6,-1 -0.9,-1.2 -0.2,-0.2 -0.4,-0.2 -0.6,0 0,0.1 0,0.2 0,0.5 z"
   id="path887" />
		<path
   d="m 189.7,11.9 c 0,0 0,0 0,0 0.2,0.2 0.3,0.1 0.5,0 0.2,-0.2 0.2,-0.4 0.1,-0.7 -0.1,-0.1 -0.1,-0.3 -0.3,-0.5 0,0.4 -0.1,0.5 -0.3,0.7 -0.4,0.4 -0.8,0.4 -1.2,0 -0.6,-0.6 -0.7,-1.6 -0.1,-2.2 0.4,-0.4 1,-0.4 1.4,0 0.4,0.4 0.8,1.1 1,1.7 0.2,0.6 0,1.1 -0.4,1.5 -0.4,0.4 -0.9,0.4 -1.2,0.1 0,0 -0.1,-0.1 -0.1,-0.1 z m -0.8,-1.1 c 0.2,0.2 0.4,0.2 0.6,0 0.3,-0.3 0.2,-0.8 -0.1,-1.1 -0.2,-0.2 -0.5,-0.2 -0.7,0 -0.2,0.2 -0.1,0.7 0.2,1.1 z"
   id="path889" />
	</g><g
   id="g899">
		<path
   d="m 142.1,24.6 -0.3,0.3 -0.3,-0.3 c 0,0.5 -0.1,0.9 -0.4,1.2 -0.6,0.6 -1.4,0.6 -2,0 -0.4,-0.4 -0.7,-1 -0.7,-1.6 0,-0.6 0.2,-1.2 0.6,-1.6 0.6,-0.6 1.3,-0.7 1.7,-0.2 0,0 0.1,0.1 0.1,0.1 l -0.5,0.5 c -0.3,-0.2 -0.6,-0.2 -1,0.2 -0.3,0.3 -0.4,0.7 -0.3,1.1 0.1,0.3 0.3,0.7 0.5,1 0.4,0.4 0.9,0.4 1.2,0 0.2,-0.2 0.3,-0.5 0.3,-0.8 0,-0.2 0,-0.3 -0.1,-0.5 l -0.6,0.6 -0.3,-0.5 1,-1 z"
   id="path893" />
		<path
   d="m 145,21.6 -0.5,0.5 -2.5,-1.2 1.5,2.2 -0.5,0.5 -2,-3.1 0.5,-0.5 2.5,1.1 -1.4,-2.2 0.5,-0.5 z"
   id="path895" />
		<path
   d="m 143.8,17.7 1,-1 c 0.6,-0.6 1.2,-0.7 1.8,0 0.4,0.4 0.7,1 0.8,1.6 0.1,0.6 -0.1,1.1 -0.6,1.6 l -1,1 z m 2.7,1.5 c 0.3,-0.3 0.4,-0.6 0.3,-1 -0.1,-0.3 -0.4,-0.8 -0.6,-1.1 -0.3,-0.3 -0.6,-0.3 -1,0 l -0.5,0.5 1.3,2.1 z"
   id="path897" />
	</g><g
   id="g913">
		<path
   d="m 207.1,24.6 -0.3,0.3 -0.3,-0.3 c 0,0.5 -0.1,0.9 -0.4,1.2 -0.6,0.6 -1.4,0.6 -2,0 -0.4,-0.4 -0.7,-1 -0.7,-1.6 0,-0.6 0.2,-1.2 0.6,-1.6 0.6,-0.6 1.3,-0.7 1.7,-0.2 0,0 0.1,0.1 0.1,0.1 l -0.5,0.5 c -0.3,-0.2 -0.6,-0.2 -1,0.2 -0.3,0.3 -0.4,0.7 -0.3,1.1 0.1,0.3 0.3,0.7 0.5,1 0.4,0.4 0.9,0.4 1.2,0 0.2,-0.2 0.3,-0.5 0.3,-0.8 0,-0.2 0,-0.3 -0.1,-0.5 l -0.6,0.6 -0.3,-0.5 1,-1 z"
   id="path901" />
		<path
   d="m 208.5,23.2 -0.5,0.5 -2,-3.1 1.1,-1.1 c 0.2,-0.2 0.4,-0.3 0.6,-0.4 0.3,0 0.5,0 0.7,0.2 0.3,0.3 0.5,0.7 0.5,1.1 0,0.4 -0.1,0.7 -0.4,1 l -0.7,0.7 z M 207.9,21 c 0.2,-0.2 0.3,-0.4 0.2,-0.6 0,-0.1 -0.1,-0.3 -0.2,-0.4 -0.2,-0.2 -0.4,-0.2 -0.6,0 l -0.5,0.5 0.6,0.9 z"
   id="path903" />
		<path
   d="m 211.1,20.5 -0.5,0.5 -2,-3.1 0.5,-0.5 z"
   id="path905" />
		<path
   d="m 213,15.4 c 0.4,0.4 0.7,1 0.7,1.6 0.1,0.7 -0.1,1.2 -0.6,1.6 -0.6,0.6 -1.4,0.6 -2,0 -0.4,-0.4 -0.7,-1 -0.7,-1.6 -0.1,-0.6 0.1,-1.2 0.6,-1.6 0.6,-0.6 1.4,-0.6 2,0 z m -2,1.6 c 0.1,0.4 0.3,0.8 0.5,1.1 0.4,0.4 0.8,0.4 1.2,0 0.3,-0.3 0.4,-0.6 0.3,-1 -0.1,-0.4 -0.3,-0.8 -0.6,-1.1 -0.4,-0.4 -0.8,-0.4 -1.2,-0.1 -0.1,0.3 -0.2,0.7 -0.2,1.1 z"
   id="path907" />
		<path
   d="m 215,13.2 -0.3,-0.4 c 0.4,-0.4 0.6,-0.9 0.4,-1.3 l 0.3,-0.3 2,3 -0.5,0.5 -1.4,-2.1 z"
   id="path909" />
		<path
   d="m 220.2,11.4 -1.7,1.7 c -0.3,-0.6 -0.4,-1 -0.2,-1.8 0.2,-0.7 0.2,-0.9 0.2,-1.1 0,-0.2 -0.1,-0.5 -0.3,-0.6 -0.2,-0.2 -0.4,-0.2 -0.6,0 -0.2,0.2 -0.2,0.6 0.1,1 l -0.5,0.5 c -0.5,-0.7 -0.5,-1.4 0.1,-1.9 0.5,-0.5 1,-0.5 1.3,-0.1 0.2,0.2 0.4,0.5 0.4,0.8 0,0.2 0,0.5 -0.1,1 -0.2,0.7 -0.2,0.9 -0.1,1.1 l 1.1,-1.1 z"
   id="path911" />
	</g><g
   id="g917">
		<path
   d="m 58.5,217.3 v -16.1 c 0,-0.1 0,-0.3 0.1,-0.4 0.1,-0.2 0.2,-0.3 0.4,-0.3 h 193.7 c 0.3,0 0.5,0.2 0.5,0.5 0,0.3 -0.2,0.5 -0.5,0.5 H 59.5 v 15.8 z"
   id="path915" />
	</g><path
   d="m 51.7,63 0.1,-1.4 0.2,-1.5 0.2,-1.4 0.3,-1.4 0.5,-1.4 0.6,-1.4 0.6,-1.3 0.8,-1.2 0.9,-1.2 0.9,-1.2 1,-1 1,-1 1.2,-0.9 1.2,-0.9 1.3,-0.8 1.3,-0.6 1.4,-0.6 1.4,-0.5 1.4,-0.3 1.5,-0.2 1.4,-0.2 1.5,-0.1 h 167.2 l 1.4,0.1 1.5,0.2 1.4,0.2 1.5,0.4 1.3,0.4 2.7,1.2 1.2,0.8 1.2,0.9 1.2,0.9 2.1,2 0.9,1.1 0.8,1.2 0.8,1.3 0.6,1.3 0.6,1.4 0.5,1.4 0.4,1.4 0.3,1.4 0.1,1.5 0.1,1.5 v 154.3 h 1.5 V 63 l -0.1,-1.5 -0.1,-1.6 -0.3,-1.5 -0.4,-1.5 -0.5,-1.5 -0.6,-1.5 -0.7,-1.4 -0.8,-1.4 -0.9,-1.3 -1,-1.3 -2.2,-2.2 -1.2,-1 -1.3,-0.9 -1.3,-0.8 -1.4,-0.7 -1.4,-0.6 -1.4,-0.5 c 0,0 0,0 -0.1,0 l -1.6,-0.4 -1.5,-0.2 -1.6,-0.2 -1.5,-0.1 -167.5,0.1 -1.6,0.1 -1.5,0.2 -1.6,0.3 -1.5,0.4 -1.5,0.5 -1.5,0.5 -1.4,0.7 -1.4,0.8 -1.3,0.9 -1.2,1 -1.1,1 -1.1,1.1 -1,1.2 -0.9,1.3 -0.8,1.4 -0.7,1.4 -0.6,1.5 -0.5,1.5 -0.4,1.5 -0.2,1.5 -0.2,1.6 -0.1,1.6 v 154.3 h 1.5 z"
   id="path919" /><path
   d="M 252.8,200.1 H 59 c -0.4,0 -0.8,0.3 -0.8,0.8 v 16.4 h 1.5 V 201.6 H 252 v 15.7 h 1.5 v -16.4 c 0.1,-0.4 -0.3,-0.8 -0.7,-0.8 z"
   id="path921" /><g
   id="g961">
		<g
   id="g951">
			<path
   d="M 51.5,217.3 H 51 c -0.3,0 -0.5,-0.2 -0.5,-0.5 0,-0.3 0.2,-0.5 0.5,-0.5 h 0.5 c 0.3,0 0.5,0.2 0.5,0.5 0,0.3 -0.2,0.5 -0.5,0.5 z"
   id="path949" />
		</g>
		<g
   id="g955">
			<path
   d="m 257.3,217.3 h -1 c -0.3,0 -0.5,-0.2 -0.5,-0.5 0,-0.3 0.2,-0.5 0.5,-0.5 h 1 c 0.3,0 0.5,0.2 0.5,0.5 0,0.3 -0.2,0.5 -0.5,0.5 z m -4,0 h -1 c -0.3,0 -0.5,-0.2 -0.5,-0.5 0,-0.3 0.2,-0.5 0.5,-0.5 h 1 c 0.3,0 0.5,0.2 0.5,0.5 0,0.3 -0.3,0.5 -0.5,0.5 z m -4.1,0 h -1 c -0.3,0 -0.5,-0.2 -0.5,-0.5 0,-0.3 0.2,-0.5 0.5,-0.5 h 1 c 0.3,0 0.5,0.2 0.5,0.5 0,0.3 -0.2,0.5 -0.5,0.5 z m -4,0 h -1 c -0.3,0 -0.5,-0.2 -0.5,-0.5 0,-0.3 0.2,-0.5 0.5,-0.5 h 1 c 0.3,0 0.5,0.2 0.5,0.5 0,0.3 -0.2,0.5 -0.5,0.5 z m -4.1,0 h -1 c -0.3,0 -0.5,-0.2 -0.5,-0.5 0,-0.3 0.2,-0.5 0.5,-0.5 h 1 c 0.3,0 0.5,0.2 0.5,0.5 0,0.3 -0.2,0.5 -0.5,0.5 z m -4,0 h -1 c -0.3,0 -0.5,-0.2 -0.5,-0.5 0,-0.3 0.2,-0.5 0.5,-0.5 h 1 c 0.3,0 0.5,0.2 0.5,0.5 0,0.3 -0.2,0.5 -0.5,0.5 z m -4,0 h -1 c -0.3,0 -0.5,-0.2 -0.5,-0.5 0,-0.3 0.2,-0.5 0.5,-0.5 h 1 c 0.3,0 0.5,0.2 0.5,0.5 0,0.3 -0.2,0.5 -0.5,0.5 z m -4.1,0 h -1 c -0.3,0 -0.5,-0.2 -0.5,-0.5 0,-0.3 0.2,-0.5 0.5,-0.5 h 1 c 0.3,0 0.5,0.2 0.5,0.5 0,0.3 -0.2,0.5 -0.5,0.5 z m -4,0 h -1 c -0.3,0 -0.5,-0.2 -0.5,-0.5 0,-0.3 0.2,-0.5 0.5,-0.5 h 1 c 0.3,0 0.5,0.2 0.5,0.5 0,0.3 -0.2,0.5 -0.5,0.5 z m -4,0 h -1 c -0.3,0 -0.5,-0.2 -0.5,-0.5 0,-0.3 0.2,-0.5 0.5,-0.5 h 1 c 0.3,0 0.5,0.2 0.5,0.5 0,0.3 -0.3,0.5 -0.5,0.5 z m -4.1,0 h -1 c -0.3,0 -0.5,-0.2 -0.5,-0.5 0,-0.3 0.2,-0.5 0.5,-0.5 h 1 c 0.3,0 0.5,0.2 0.5,0.5 0,0.3 -0.2,0.5 -0.5,0.5 z m -4,0 h -1 c -0.3,0 -0.5,-0.2 -0.5,-0.5 0,-0.3 0.2,-0.5 0.5,-0.5 h 1 c 0.3,0 0.5,0.2 0.5,0.5 0,0.3 -0.2,0.5 -0.5,0.5 z m -4,0 h -1 c -0.3,0 -0.5,-0.2 -0.5,-0.5 0,-0.3 0.2,-0.5 0.5,-0.5 h 1 c 0.3,0 0.5,0.2 0.5,0.5 0,0.3 -0.3,0.5 -0.5,0.5 z m -4.1,0 h -1 c -0.3,0 -0.5,-0.2 -0.5,-0.5 0,-0.3 0.2,-0.5 0.5,-0.5 h 1 c 0.3,0 0.5,0.2 0.5,0.5 0,0.3 -0.2,0.5 -0.5,0.5 z m -4,0 h -1 c -0.3,0 -0.5,-0.2 -0.5,-0.5 0,-0.3 0.2,-0.5 0.5,-0.5 h 1 c 0.3,0 0.5,0.2 0.5,0.5 0,0.3 -0.2,0.5 -0.5,0.5 z m -4,0 h -1 c -0.3,0 -0.5,-0.2 -0.5,-0.5 0,-0.3 0.2,-0.5 0.5,-0.5 h 1 c 0.3,0 0.5,0.2 0.5,0.5 0,0.3 -0.3,0.5 -0.5,0.5 z m -4.1,0 h -1 c -0.3,0 -0.5,-0.2 -0.5,-0.5 0,-0.3 0.2,-0.5 0.5,-0.5 h 1 c 0.3,0 0.5,0.2 0.5,0.5 0,0.3 -0.2,0.5 -0.5,0.5 z m -4,0 h -1 c -0.3,0 -0.5,-0.2 -0.5,-0.5 0,-0.3 0.2,-0.5 0.5,-0.5 h 1 c 0.3,0 0.5,0.2 0.5,0.5 0,0.3 -0.2,0.5 -0.5,0.5 z m -4,0 h -1 c -0.3,0 -0.5,-0.2 -0.5,-0.5 0,-0.3 0.2,-0.5 0.5,-0.5 h 1 c 0.3,0 0.5,0.2 0.5,0.5 0,0.3 -0.3,0.5 -0.5,0.5 z m -4.1,0 h -1 c -0.3,0 -0.5,-0.2 -0.5,-0.5 0,-0.3 0.2,-0.5 0.5,-0.5 h 1 c 0.3,0 0.5,0.2 0.5,0.5 0,0.3 -0.2,0.5 -0.5,0.5 z m -4,0 h -1 c -0.3,0 -0.5,-0.2 -0.5,-0.5 0,-0.3 0.2,-0.5 0.5,-0.5 h 1 c 0.3,0 0.5,0.2 0.5,0.5 0,0.3 -0.2,0.5 -0.5,0.5 z m -4,0 h -1 c -0.3,0 -0.5,-0.2 -0.5,-0.5 0,-0.3 0.2,-0.5 0.5,-0.5 h 1 c 0.3,0 0.5,0.2 0.5,0.5 0,0.3 -0.3,0.5 -0.5,0.5 z m -4.1,0 h -1 c -0.3,0 -0.5,-0.2 -0.5,-0.5 0,-0.3 0.2,-0.5 0.5,-0.5 h 1 c 0.3,0 0.5,0.2 0.5,0.5 0,0.3 -0.2,0.5 -0.5,0.5 z m -4,0 h -1 c -0.3,0 -0.5,-0.2 -0.5,-0.5 0,-0.3 0.2,-0.5 0.5,-0.5 h 1 c 0.3,0 0.5,0.2 0.5,0.5 0,0.3 -0.2,0.5 -0.5,0.5 z m -4.1,0 h -1 c -0.3,0 -0.5,-0.2 -0.5,-0.5 0,-0.3 0.2,-0.5 0.5,-0.5 h 1 c 0.3,0 0.5,0.2 0.5,0.5 0,0.3 -0.2,0.5 -0.5,0.5 z m -4,0 h -1 c -0.3,0 -0.5,-0.2 -0.5,-0.5 0,-0.3 0.2,-0.5 0.5,-0.5 h 1 c 0.3,0 0.5,0.2 0.5,0.5 0,0.3 -0.2,0.5 -0.5,0.5 z m -4,0 h -1 c -0.3,0 -0.5,-0.2 -0.5,-0.5 0,-0.3 0.2,-0.5 0.5,-0.5 h 1 c 0.3,0 0.5,0.2 0.5,0.5 0,0.3 -0.2,0.5 -0.5,0.5 z m -4.1,0 h -1 c -0.3,0 -0.5,-0.2 -0.5,-0.5 0,-0.3 0.2,-0.5 0.5,-0.5 h 1 c 0.3,0 0.5,0.2 0.5,0.5 0,0.3 -0.2,0.5 -0.5,0.5 z m -4,0 h -1 c -0.3,0 -0.5,-0.2 -0.5,-0.5 0,-0.3 0.2,-0.5 0.5,-0.5 h 1 c 0.3,0 0.5,0.2 0.5,0.5 0,0.3 -0.2,0.5 -0.5,0.5 z m -4,0 h -1 c -0.3,0 -0.5,-0.2 -0.5,-0.5 0,-0.3 0.2,-0.5 0.5,-0.5 h 1 c 0.3,0 0.5,0.2 0.5,0.5 0,0.3 -0.3,0.5 -0.5,0.5 z m -4.1,0 h -1 c -0.3,0 -0.5,-0.2 -0.5,-0.5 0,-0.3 0.2,-0.5 0.5,-0.5 h 1 c 0.3,0 0.5,0.2 0.5,0.5 0,0.3 -0.2,0.5 -0.5,0.5 z m -4,0 h -1 c -0.3,0 -0.5,-0.2 -0.5,-0.5 0,-0.3 0.2,-0.5 0.5,-0.5 h 1 c 0.3,0 0.5,0.2 0.5,0.5 0,0.3 -0.2,0.5 -0.5,0.5 z m -4,0 h -1 c -0.3,0 -0.5,-0.2 -0.5,-0.5 0,-0.3 0.2,-0.5 0.5,-0.5 h 1 c 0.3,0 0.5,0.2 0.5,0.5 0,0.3 -0.3,0.5 -0.5,0.5 z m -4.1,0 h -1 c -0.3,0 -0.5,-0.2 -0.5,-0.5 0,-0.3 0.2,-0.5 0.5,-0.5 h 1 c 0.3,0 0.5,0.2 0.5,0.5 0,0.3 -0.2,0.5 -0.5,0.5 z m -4,0 h -1 c -0.3,0 -0.5,-0.2 -0.5,-0.5 0,-0.3 0.2,-0.5 0.5,-0.5 h 1 c 0.3,0 0.5,0.2 0.5,0.5 0,0.3 -0.2,0.5 -0.5,0.5 z m -4,0 h -1 c -0.3,0 -0.5,-0.2 -0.5,-0.5 0,-0.3 0.2,-0.5 0.5,-0.5 h 1 c 0.3,0 0.5,0.2 0.5,0.5 0,0.3 -0.3,0.5 -0.5,0.5 z m -4.1,0 h -1 c -0.3,0 -0.5,-0.2 -0.5,-0.5 0,-0.3 0.2,-0.5 0.5,-0.5 h 1 c 0.3,0 0.5,0.2 0.5,0.5 0,0.3 -0.2,0.5 -0.5,0.5 z m -4,0 h -1 c -0.3,0 -0.5,-0.2 -0.5,-0.5 0,-0.3 0.2,-0.5 0.5,-0.5 h 1 c 0.3,0 0.5,0.2 0.5,0.5 0,0.3 -0.2,0.5 -0.5,0.5 z m -4,0 h -1 c -0.3,0 -0.5,-0.2 -0.5,-0.5 0,-0.3 0.2,-0.5 0.5,-0.5 h 1 c 0.3,0 0.5,0.2 0.5,0.5 0,0.3 -0.3,0.5 -0.5,0.5 z m -4.1,0 h -1 c -0.3,0 -0.5,-0.2 -0.5,-0.5 0,-0.3 0.2,-0.5 0.5,-0.5 h 1 c 0.3,0 0.5,0.2 0.5,0.5 0,0.3 -0.2,0.5 -0.5,0.5 z m -4,0 h -1 c -0.3,0 -0.5,-0.2 -0.5,-0.5 0,-0.3 0.2,-0.5 0.5,-0.5 h 1 c 0.3,0 0.5,0.2 0.5,0.5 0,0.3 -0.2,0.5 -0.5,0.5 z m -4.1,0 h -1 c -0.3,0 -0.5,-0.2 -0.5,-0.5 0,-0.3 0.2,-0.5 0.5,-0.5 h 1 c 0.3,0 0.5,0.2 0.5,0.5 0,0.3 -0.2,0.5 -0.5,0.5 z m -4,0 h -1 c -0.3,0 -0.5,-0.2 -0.5,-0.5 0,-0.3 0.2,-0.5 0.5,-0.5 h 1 c 0.3,0 0.5,0.2 0.5,0.5 0,0.3 -0.2,0.5 -0.5,0.5 z m -4,0 h -1 c -0.3,0 -0.5,-0.2 -0.5,-0.5 0,-0.3 0.2,-0.5 0.5,-0.5 h 1 c 0.3,0 0.5,0.2 0.5,0.5 0,0.3 -0.2,0.5 -0.5,0.5 z m -4.1,0 h -1 c -0.3,0 -0.5,-0.2 -0.5,-0.5 0,-0.3 0.2,-0.5 0.5,-0.5 h 1 c 0.3,0 0.5,0.2 0.5,0.5 0,0.3 -0.2,0.5 -0.5,0.5 z m -4,0 h -1 c -0.3,0 -0.5,-0.2 -0.5,-0.5 0,-0.3 0.2,-0.5 0.5,-0.5 h 1 c 0.3,0 0.5,0.2 0.5,0.5 0,0.3 -0.2,0.5 -0.5,0.5 z m -4,0 h -1 c -0.3,0 -0.5,-0.2 -0.5,-0.5 0,-0.3 0.2,-0.5 0.5,-0.5 h 1 c 0.3,0 0.5,0.2 0.5,0.5 0,0.3 -0.3,0.5 -0.5,0.5 z m -4.1,0 h -1 c -0.3,0 -0.5,-0.2 -0.5,-0.5 0,-0.3 0.2,-0.5 0.5,-0.5 h 1 c 0.3,0 0.5,0.2 0.5,0.5 0,0.3 -0.2,0.5 -0.5,0.5 z m -4,0 h -1 c -0.3,0 -0.5,-0.2 -0.5,-0.5 0,-0.3 0.2,-0.5 0.5,-0.5 h 1 c 0.3,0 0.5,0.2 0.5,0.5 0,0.3 -0.2,0.5 -0.5,0.5 z m -4,0 h -1 c -0.3,0 -0.5,-0.2 -0.5,-0.5 0,-0.3 0.2,-0.5 0.5,-0.5 h 1 c 0.3,0 0.5,0.2 0.5,0.5 0,0.3 -0.3,0.5 -0.5,0.5 z m -4.1,0 h -1 c -0.3,0 -0.5,-0.2 -0.5,-0.5 0,-0.3 0.2,-0.5 0.5,-0.5 h 1 c 0.3,0 0.5,0.2 0.5,0.5 0,0.3 -0.2,0.5 -0.5,0.5 z"
   id="path953" />
		</g>
		<g
   id="g959">
			<path
   d="m 260.8,217.3 h -0.5 c -0.3,0 -0.5,-0.2 -0.5,-0.5 0,-0.3 0.2,-0.5 0.5,-0.5 h 0.5 c 0.3,0 0.5,0.2 0.5,0.5 0,0.3 -0.2,0.5 -0.5,0.5 z"
   id="path957" />
		</g>
	</g><g
   id="g965">
		<rect
   x="33.200001"
   y="97.5"
   width="18.9"
   height="0.5"
   id="rect963" />
	</g><g
   id="g969">
		<path
   d="m 52,96.7 c -0.6,0 -1.1,0.5 -1.1,1.1 0,0.6 0.5,1.1 1.1,1.1 0.6,0 1.1,-0.5 1.1,-1.1 0,-0.6 -0.5,-1.1 -1.1,-1.1 -0.6,0 0.6,0 0,0 z m 0,1.9 c -0.4,0 -0.8,-0.4 -0.8,-0.8 0,-0.4 0.4,-0.8 0.8,-0.8 0.4,0 0.8,0.4 0.8,0.8 0,0.4 -0.4,0.8 -0.8,0.8 -0.5,0 0.4,0 0,0 z"
   id="path967" />
	</g><g
   id="g973">
		<rect
   x="33.200001"
   y="104.6"
   width="18.9"
   height="0.5"
   id="rect971" />
	</g><g
   id="g977">
		<path
   d="m 52,103.8 c -0.6,0 -1.1,0.5 -1.1,1.1 0,0.6 0.5,1.1 1.1,1.1 0.6,0 1.1,-0.5 1.1,-1.1 0,-0.6 -0.5,-1.1 -1.1,-1.1 -0.6,0 0.6,0 0,0 z m 0,1.9 c -0.4,0 -0.8,-0.4 -0.8,-0.8 0,-0.4 0.4,-0.8 0.8,-0.8 0.4,0 0.8,0.4 0.8,0.8 0,0.4 -0.4,0.8 -0.8,0.8 -0.5,0 0.4,0 0,0 z"
   id="path975" />
	</g><g
   id="g981">
		<rect
   x="33.200001"
   y="111.7"
   width="18.9"
   height="0.5"
   id="rect979" />
	</g><g
   id="g985">
		<path
   d="m 52,110.9 c -0.6,0 -1.1,0.5 -1.1,1.1 0,0.6 0.5,1.1 1.1,1.1 0.6,0 1.1,-0.5 1.1,-1.1 0,-0.6 -0.5,-1.1 -1.1,-1.1 -0.6,0 0.6,0 0,0 z m 0,1.9 c -0.4,0 -0.8,-0.4 -0.8,-0.8 0,-0.4 0.4,-0.8 0.8,-0.8 0.4,0 0.8,0.4 0.8,0.8 0,0.4 -0.4,0.8 -0.8,0.8 -0.5,0 0.4,0 0,0 z"
   id="path983" />
	</g><g
   id="g989">
		<rect
   x="33.200001"
   y="118.8"
   width="18.9"
   height="0.5"
   id="rect987" />
	</g><g
   id="g993">
		<path
   d="m 52,118 c -0.6,0 -1.1,0.5 -1.1,1.1 0,0.6 0.5,1.1 1.1,1.1 0.6,0 1.1,-0.5 1.1,-1.1 0,-0.6 -0.5,-1.1 -1.1,-1.1 -0.6,0 0.6,0 0,0 z m 0,1.9 c -0.4,0 -0.8,-0.4 -0.8,-0.8 0,-0.4 0.4,-0.8 0.8,-0.8 0.4,0 0.8,0.4 0.8,0.8 0,0.4 -0.4,0.8 -0.8,0.8 -0.5,0 0.4,0 0,0 z"
   id="path991" />
	</g><g
   id="g997">
		<rect
   x="33.200001"
   y="125.9"
   width="18.9"
   height="0.5"
   id="rect995" />
	</g><g
   id="g1001">
		<path
   d="m 52,125.1 c -0.6,0 -1.1,0.5 -1.1,1.1 0,0.6 0.5,1.1 1.1,1.1 0.6,0 1.1,-0.5 1.1,-1.1 0,-0.6 -0.5,-1.1 -1.1,-1.1 -0.6,0 0.6,0 0,0 z m 0,1.9 c -0.4,0 -0.8,-0.4 -0.8,-0.8 0,-0.4 0.4,-0.8 0.8,-0.8 0.4,0 0.8,0.4 0.8,0.8 0,0.4 -0.4,0.8 -0.8,0.8 -0.5,0 0.4,0 0,0 z"
   id="path999" />
	</g><g
   id="g1005">
		<rect
   x="33.200001"
   y="133"
   width="18.9"
   height="0.5"
   id="rect1003" />
	</g><g
   id="g1009">
		<path
   d="m 52,132.2 c -0.6,0 -1.1,0.5 -1.1,1.1 0,0.6 0.5,1.1 1.1,1.1 0.6,0 1.1,-0.5 1.1,-1.1 0,-0.6 -0.5,-1.1 -1.1,-1.1 -0.6,0 0.6,0 0,0 z m 0,1.9 c -0.4,0 -0.8,-0.4 -0.8,-0.8 0,-0.4 0.4,-0.8 0.8,-0.8 0.4,0 0.8,0.4 0.8,0.8 0,0.4 -0.4,0.8 -0.8,0.8 -0.5,0 0.4,0 0,0 z"
   id="path1007" />
	</g><g
   id="g1013">
		<rect
   x="33.200001"
   y="140.2"
   width="18.9"
   height="0.5"
   id="rect1011" />
	</g><g
   id="g1017">
		<path
   d="m 52,139.3 c -0.6,0 -1.1,0.5 -1.1,1.1 0,0.6 0.5,1.1 1.1,1.1 0.6,0 1.1,-0.5 1.1,-1.1 0,-0.6 -0.5,-1.1 -1.1,-1.1 -0.6,0 0.6,0 0,0 z m 0,1.9 c -0.4,0 -0.8,-0.4 -0.8,-0.8 0,-0.4 0.4,-0.8 0.8,-0.8 0.4,0 0.8,0.4 0.8,0.8 0,0.4 -0.4,0.8 -0.8,0.8 -0.5,0 0.4,0 0,0 z"
   id="path1015" />
	</g><g
   id="g1021">
		<rect
   x="33.200001"
   y="147.3"
   width="18.9"
   height="0.5"
   id="rect1019" />
	</g><g
   id="g1025">
		<path
   d="m 52,146.5 c -0.6,0 -1.1,0.5 -1.1,1.1 0,0.6 0.5,1.1 1.1,1.1 0.6,0 1.1,-0.5 1.1,-1.1 0,-0.6 -0.5,-1.1 -1.1,-1.1 -0.6,0 0.6,0 0,0 z m 0,1.8 c -0.4,0 -0.8,-0.4 -0.8,-0.8 0,-0.4 0.4,-0.8 0.8,-0.8 0.4,0 0.8,0.4 0.8,0.8 0,0.4 -0.4,0.8 -0.8,0.8 -0.5,0 0.4,0 0,0 z"
   id="path1023" />
	</g><g
   id="g1029">
		<rect
   x="33.200001"
   y="154.39999"
   width="18.9"
   height="0.5"
   id="rect1027" />
	</g><g
   id="g1033">
		<path
   d="m 52,153.6 c -0.6,0 -1.1,0.5 -1.1,1.1 0,0.6 0.5,1.1 1.1,1.1 0.6,0 1.1,-0.5 1.1,-1.1 0,-0.6 -0.5,-1.1 -1.1,-1.1 -0.6,0 0.6,0 0,0 z m 0,1.8 c -0.4,0 -0.8,-0.4 -0.8,-0.8 0,-0.4 0.4,-0.8 0.8,-0.8 0.4,0 0.8,0.4 0.8,0.8 0,0.4 -0.4,0.8 -0.8,0.8 -0.5,0 0.4,0 0,0 z"
   id="path1031" />
	</g><g
   id="g1037">
		<rect
   x="33.200001"
   y="161.5"
   width="18.9"
   height="0.5"
   id="rect1035" />
	</g><g
   id="g1041">
		<path
   d="m 52,160.7 c -0.6,0 -1.1,0.5 -1.1,1.1 0,0.6 0.5,1.1 1.1,1.1 0.6,0 1.1,-0.5 1.1,-1.1 0,-0.6 -0.5,-1.1 -1.1,-1.1 -0.6,0 0.6,0 0,0 z m 0,1.9 c -0.4,0 -0.8,-0.4 -0.8,-0.8 0,-0.4 0.4,-0.8 0.8,-0.8 0.4,0 0.8,0.4 0.8,0.8 0,0.4 -0.4,0.8 -0.8,0.8 -0.5,0 0.4,0 0,0 z"
   id="path1039" />
	</g><g
   id="g1045">
		<rect
   x="260"
   y="97.5"
   width="18.9"
   height="0.5"
   id="rect1043" />
	</g><g
   id="g1049">
		<path
   d="m 260,98.8 c 0.6,0 1.1,-0.5 1.1,-1.1 0,-0.6 -0.5,-1.1 -1.1,-1.1 -0.6,0 -1.1,0.5 -1.1,1.1 0,0.6 0.5,1.1 1.1,1.1 0.6,0 -0.6,0 0,0 z m 0,-1.9 c 0.4,0 0.8,0.4 0.8,0.8 0,0.4 -0.4,0.8 -0.8,0.8 -0.4,0 -0.8,-0.4 -0.8,-0.8 0,-0.4 0.4,-0.8 0.8,-0.8 0.5,0 -0.4,0 0,0 z"
   id="path1047" />
	</g><g
   id="g1053">
		<rect
   x="260"
   y="104.6"
   width="18.9"
   height="0.5"
   id="rect1051" />
	</g><g
   id="g1057">
		<path
   d="m 260,105.9 c 0.6,0 1.1,-0.5 1.1,-1.1 0,-0.6 -0.5,-1.1 -1.1,-1.1 -0.6,0 -1.1,0.5 -1.1,1.1 0,0.6 0.5,1.1 1.1,1.1 0.6,0 -0.6,0 0,0 z m 0,-1.9 c 0.4,0 0.8,0.4 0.8,0.8 0,0.4 -0.4,0.8 -0.8,0.8 -0.4,0 -0.8,-0.4 -0.8,-0.8 0,-0.4 0.4,-0.8 0.8,-0.8 0.5,0 -0.4,0 0,0 z"
   id="path1055" />
	</g><g
   id="g1061">
		<rect
   x="260"
   y="111.7"
   width="18.9"
   height="0.5"
   id="rect1059" />
	</g><g
   id="g1065">
		<path
   d="m 260,113 c 0.6,0 1.1,-0.5 1.1,-1.1 0,-0.6 -0.5,-1.1 -1.1,-1.1 -0.6,0 -1.1,0.5 -1.1,1.1 0,0.6 0.5,1.1 1.1,1.1 0.6,0 -0.6,0 0,0 z m 0,-1.9 c 0.4,0 0.8,0.4 0.8,0.8 0,0.4 -0.4,0.8 -0.8,0.8 -0.4,0 -0.8,-0.4 -0.8,-0.8 0,-0.4 0.4,-0.8 0.8,-0.8 0.5,0 -0.4,0 0,0 z"
   id="path1063" />
	</g><g
   id="g1069">
		<rect
   x="260"
   y="118.8"
   width="18.9"
   height="0.5"
   id="rect1067" />
	</g><g
   id="g1073">
		<path
   d="m 260,120.1 c 0.6,0 1.1,-0.5 1.1,-1.1 0,-0.6 -0.5,-1.1 -1.1,-1.1 -0.6,0 -1.1,0.5 -1.1,1.1 0,0.6 0.5,1.1 1.1,1.1 0.6,0 -0.6,0 0,0 z m 0,-1.8 c 0.4,0 0.8,0.4 0.8,0.8 0,0.4 -0.4,0.8 -0.8,0.8 -0.4,0 -0.8,-0.4 -0.8,-0.8 0,-0.4 0.4,-0.8 0.8,-0.8 0.5,0 -0.4,0 0,0 z"
   id="path1071" />
	</g><g
   id="g1077">
		<rect
   x="260"
   y="125.9"
   width="18.9"
   height="0.5"
   id="rect1075" />
	</g><g
   id="g1081">
		<path
   d="m 260,127.2 c 0.6,0 1.1,-0.5 1.1,-1.1 0,-0.6 -0.5,-1.1 -1.1,-1.1 -0.6,0 -1.1,0.5 -1.1,1.1 0,0.6 0.5,1.1 1.1,1.1 0.6,0 -0.6,0 0,0 z m 0,-1.8 c 0.4,0 0.8,0.4 0.8,0.8 0,0.4 -0.4,0.8 -0.8,0.8 -0.4,0 -0.8,-0.4 -0.8,-0.8 0,-0.4 0.4,-0.8 0.8,-0.8 0.5,0 -0.4,0 0,0 z"
   id="path1079" />
	</g><g
   id="g1085">
		<rect
   x="260"
   y="133"
   width="18.9"
   height="0.5"
   id="rect1083" />
	</g><g
   id="g1089">
		<path
   d="m 260,134.4 c 0.6,0 1.1,-0.5 1.1,-1.1 0,-0.6 -0.5,-1.1 -1.1,-1.1 -0.6,0 -1.1,0.5 -1.1,1.1 0,0.6 0.5,1.1 1.1,1.1 0.6,0 -0.6,0 0,0 z m 0,-1.9 c 0.4,0 0.8,0.4 0.8,0.8 0,0.4 -0.4,0.8 -0.8,0.8 -0.4,0 -0.8,-0.4 -0.8,-0.8 0,-0.4 0.4,-0.8 0.8,-0.8 0.5,0 -0.4,0 0,0 z"
   id="path1087" />
	</g><g
   id="g1093">
		<rect
   x="260"
   y="140.2"
   width="18.9"
   height="0.5"
   id="rect1091" />
	</g><g
   id="g1097">
		<path
   d="m 260,141.5 c 0.6,0 1.1,-0.5 1.1,-1.1 0,-0.6 -0.5,-1.1 -1.1,-1.1 -0.6,0 -1.1,0.5 -1.1,1.1 0,0.6 0.5,1.1 1.1,1.1 0.6,0 -0.6,0 0,0 z m 0,-1.9 c 0.4,0 0.8,0.4 0.8,0.8 0,0.4 -0.4,0.8 -0.8,0.8 -0.4,0 -0.8,-0.4 -0.8,-0.8 0,-0.4 0.4,-0.8 0.8,-0.8 0.5,0 -0.4,0 0,0 z"
   id="path1095" />
	</g><g
   id="g1101">
		<rect
   x="260"
   y="147.3"
   width="18.9"
   height="0.5"
   id="rect1099" />
	</g><g
   id="g1105">
		<path
   d="m 260,148.6 c 0.6,0 1.1,-0.5 1.1,-1.1 0,-0.6 -0.5,-1.1 -1.1,-1.1 -0.6,0 -1.1,0.5 -1.1,1.1 0,0.6 0.5,1.1 1.1,1.1 0.6,0 -0.6,0 0,0 z m 0,-1.9 c 0.4,0 0.8,0.4 0.8,0.8 0,0.4 -0.4,0.8 -0.8,0.8 -0.4,0 -0.8,-0.4 -0.8,-0.8 0,-0.4 0.4,-0.8 0.8,-0.8 0.5,0 -0.4,0 0,0 z"
   id="path1103" />
	</g><g
   id="g1109">
		<rect
   x="260"
   y="154.39999"
   width="18.9"
   height="0.5"
   id="rect1107" />
	</g><g
   id="g1113">
		<path
   d="m 260,155.7 c 0.6,0 1.1,-0.5 1.1,-1.1 0,-0.6 -0.5,-1.1 -1.1,-1.1 -0.6,0 -1.1,0.5 -1.1,1.1 0,0.6 0.5,1.1 1.1,1.1 0.6,0 -0.6,0 0,0 z m 0,-1.9 c 0.4,0 0.8,0.4 0.8,0.8 0,0.4 -0.4,0.8 -0.8,0.8 -0.4,0 -0.8,-0.4 -0.8,-0.8 0,-0.4 0.4,-0.8 0.8,-0.8 0.5,0 -0.4,0 0,0 z"
   id="path1111" />
	</g><g
   id="g1117">
		<rect
   x="260"
   y="161.5"
   width="18.9"
   height="0.5"
   id="rect1115" />
	</g><g
   id="g1121">
		<path
   d="m 260,162.8 c 0.6,0 1.1,-0.5 1.1,-1.1 0,-0.6 -0.5,-1.1 -1.1,-1.1 -0.6,0 -1.1,0.5 -1.1,1.1 0,0.6 0.5,1.1 1.1,1.1 0.6,0 -0.6,0 0,0 z m 0,-1.9 c 0.4,0 0.8,0.4 0.8,0.8 0,0.4 -0.4,0.8 -0.8,0.8 -0.4,0 -0.8,-0.4 -0.8,-0.8 0,-0.4 0.4,-0.8 0.8,-0.8 0.5,0 -0.4,0 0,0 z"
   id="path1119" />
	</g>
</svg>
