<?xml version="1.0" encoding="utf-8"?>
<!-- Generator: Adobe Illustrator 24.0.2, SVG Export Plug-In . SVG Version: 6.00 Build 0)  -->
<svg version="1.1" id="Layer_1" xmlns="http://www.w3.org/2000/svg" xmlns:xlink="http://www.w3.org/1999/xlink" x="0px" y="0px"
	 viewBox="0 0 192.8 158.7" style="enable-background:new 0 0 192.8 158.7;" xml:space="preserve">
<style type="text/css">
	.displaysvg0{fill:none;}
	.displaysvg1{fill:#FFFFFF;}
</style>
<title>Display</title>
<rect x="13" y="11.8" class="displaysvg0" width="166.8" height="100"/>
<g>
	<path class="displaysvg0" d="M184.9,6.7H7.8v115.8h177.1V6.7z M183.6,120.8H9.2V7.7h174.4V120.8z"/>
	<polygon class="displaysvg0" points="63.5,59.6 60.9,59.6 60.8,59.7 60.8,65 62.1,65 62.1,66.4 64.7,66.4 64.9,66.2 64.9,60.9 63.5,60.9 	
		"/>
	<polygon class="displaysvg0" points="51.2,62.3 49.8,62.3 49.8,63.7 52.6,63.7 52.6,60.9 51.2,60.9 	"/>
	<polygon class="displaysvg0" points="74.4,59.6 71.9,59.6 71.7,59.7 71.7,65 73.1,65 73.1,66.4 75.6,66.4 75.8,66.2 75.8,60.9 74.4,60.9 	
		"/>
	<polygon class="displaysvg0" points="127.9,62.3 126.5,62.3 126.5,63.7 129.3,63.7 129.3,60.9 127.9,60.9 	"/>
	<path class="displaysvg0" d="M179.8,11.8H13v100h166.8V11.8z M56.7,65h-1.4v2.7h-2.7V65h-5.5v-2.8h1.4l0-1.3h1.4v-1.4h1.4v-1.4h4.1v5.5h1.4
		V65z M67.6,65h-1.4v1.4H65l-0.2,0.2v1.2h-4.1l0-1.4h-1.4V65L58,65v-4.1h1.4v-1.4h1.2l0.2-0.2v-1.2h4.1v1.4h1.4v1.4h1.4V65z
		 M78.5,65h-1.4v1.4H76l-0.2,0.2v1.2h-4.1l0-1.4h-1.4V65L69,65v-4.1h1.4v-1.4h1.2l0.2-0.2v-1.2h4.1v1.4h1.4v1.4h1.4V65z M100.5,60.9
		h-1.4v1.4h-1.4v1.4h1.4V65h1.4v2.7h-2.7v-1.4h-1.4V65H95v1.4h-1.4v1.4h-2.7V65h1.4v-1.4h1.4v-1.4h-1.4v-1.4h-1.4v-2.7h2.7v1.4H95
		v1.4h1.4v-1.4h1.4v-1.4h2.7V60.9z M122.4,62.3h-1.4v1.4h-2.7V65H117v1.4h5.5v1.4h-9.6V65h1.4v-1.4h1.4v-1.4h4.1l0-2.7h-4.1v1.4
		h-2.7v-1.4h1.4v-1.4h6.8v1.4h1.4V62.3z M133.4,65H132v2.7h-2.7V65h-5.5v-2.8h1.4l0-1.3h1.4v-1.4h1.4v-1.4h4.1v5.5h1.4V65z
		 M144.3,65h-1.4v1.4h-1.2l-0.2,0.2v1.2h-4.1l0-1.4h-1.4V65l-1.4,0v-4.1h1.4v-1.4h1.2l0.2-0.2v-1.2h4.1v1.4h1.4v1.4h1.4V65z"/>
	<polygon class="displaysvg0" points="140.2,59.6 137.6,59.6 137.5,59.7 137.5,65 138.8,65 138.8,66.4 141.4,66.4 141.6,66.2 141.6,60.9 
		140.2,60.9 	"/>
	<polygon class="displaysvg0" points="83.4,123.5 7.8,123.5 7.8,127.1 83.4,127.1 83.4,123.6 	"/>
	<polygon class="displaysvg0" points="109.4,123.6 109.4,127.1 184.9,127.1 184.9,123.5 109.4,123.5 	"/>
	<path class="displaysvg1" d="M185.4,5.7H7.3c-0.3,0-0.5,0.2-0.5,0.5V123v4.6c0,0.3,0.2,0.5,0.5,0.5h76v13l7.1,4.9v7.1h0c0,0,0,0,0,0
		c0,0.1,0.1,0.2,0.2,0.2H102c0.1,0,0.2-0.1,0.2-0.2c0,0,0,0,0,0h0V146l7.1-4.9v-13h76c0.3,0,0.5-0.2,0.5-0.5V123V6.2
		C185.9,5.9,185.7,5.7,185.4,5.7z M7.8,6.7h177.1v115.8H7.8V6.7z M101.8,145.7v7.1h-0.5v-29h0.8v21.6L101.8,145.7z M83.9,123.9h0.8
		v17.5l-0.8-0.6V123.9z M85.2,123.9h0.8v18.5l-0.8-0.6V123.9z M86.6,123.9h0.8v19.4l-0.8-0.6V123.9z M87.9,123.9h0.8v20.3l-0.8-0.6
		V123.9z M89.2,123.9h0.8v21.3l-0.8-0.6V123.9z M90.6,145.5v-21.6h0.8v29H91v-7.1L90.6,145.5z M91.9,123.9h0.8v29h-0.8V123.9z
		 M93.3,123.9h0.8v29h-0.8V123.9z M94.6,123.9h0.8v29h-0.8V123.9z M96,123.9h0.8v29H96V123.9z M97.3,123.9h0.8v29h-0.8V123.9z
		 M98.6,123.9h0.8v29h-0.8V123.9z M100,123.9h0.9v29H100V123.9z M102.7,123.9h0.8v20.7l-0.8,0.6V123.9z M104,123.9h0.8v19.7
		l-0.8,0.6V123.9z M105.3,123.9h0.8v18.8l-0.8,0.6V123.9z M106.7,123.9h0.9v17.9l-0.9,0.6V123.9z M108,123.9h0.8v16.9l-0.8,0.6
		V123.9z M7.8,127.1v-3.6h75.5v0.1v3.4H7.8z M184.9,127.1h-75.5v-3.4v-0.1h75.5V127.1z"/>
	<path class="displaysvg1" d="M9.2,120.8h174.4V7.7H9.2V120.8z M13,11.8h166.8v100H13V11.8z"/>
	<path class="displaysvg1" d="M55.3,58.2h-4.1v1.4h-1.4v1.4h-1.4l0,1.3h-1.4V65h5.5v2.7h2.7V65h1.4v-1.4h-1.4V58.2z M52.6,63.7h-2.7v-1.4
		h1.4v-1.4h1.4V63.7z"/>
	<path class="displaysvg1" d="M66.2,59.6h-1.4v-1.4h-4.1v1.2l-0.2,0.2h-1.2v1.4H58V65l1.4,0v1.4h1.4l0,1.4h4.1v-1.2l0.2-0.2h1.2V65h1.4v-4.1
		h-1.4V59.6z M64.9,66.2l-0.2,0.2h-2.6V65h-1.4v-5.3l0.2-0.2h2.6v1.4h1.4V66.2z"/>
	<path class="displaysvg1" d="M77.2,59.6h-1.4v-1.4h-4.1v1.2l-0.2,0.2h-1.2v1.4H69V65l1.4,0v1.4h1.4l0,1.4h4.1v-1.2l0.2-0.2h1.2V65h1.4v-4.1
		h-1.4V59.6z M75.8,66.2l-0.2,0.2h-2.6V65h-1.4v-5.3l0.2-0.2h2.6v1.4h1.4V66.2z"/>
	<polygon class="displaysvg1" points="97.7,59.6 96.4,59.6 96.4,60.9 95,60.9 95,59.6 93.6,59.6 93.6,58.2 90.9,58.2 90.9,60.9 92.3,60.9 
		92.3,62.3 93.6,62.3 93.6,63.7 92.3,63.7 92.3,65 90.9,65 90.9,67.8 93.6,67.8 93.6,66.4 95,66.4 95,65 96.4,65 96.4,66.4 
		97.7,66.4 97.7,67.8 100.5,67.8 100.5,65 99.1,65 99.1,63.7 97.7,63.7 97.7,62.3 99.1,62.3 99.1,60.9 100.5,60.9 100.5,58.2 
		97.7,58.2 	"/>
	<polygon class="displaysvg1" points="121.1,58.2 114.2,58.2 114.2,59.6 112.9,59.6 112.9,60.9 115.6,60.9 115.6,59.6 119.7,59.6 
		119.7,62.3 115.6,62.3 115.6,63.7 114.2,63.7 114.2,65 112.9,65 112.9,67.8 122.4,67.8 122.4,66.4 117,66.4 117,65 118.3,65 
		118.3,63.7 121.1,63.7 121.1,62.3 122.4,62.3 122.4,59.6 121.1,59.6 	"/>
	<path class="displaysvg1" d="M132,58.2h-4.1v1.4h-1.4v1.4h-1.4l0,1.3h-1.4V65h5.5v2.7h2.7V65h1.4v-1.4H132V58.2z M129.3,63.7h-2.7v-1.4h1.4
		v-1.4h1.4V63.7z"/>
	<path class="displaysvg1" d="M142.9,59.6h-1.4v-1.4h-4.1v1.2l-0.2,0.2h-1.2v1.4h-1.4V65l1.4,0v1.4h1.4l0,1.4h4.1v-1.2l0.2-0.2h1.2V65h1.4
		v-4.1h-1.4V59.6z M141.6,66.2l-0.2,0.2h-2.6V65h-1.4v-5.3l0.2-0.2h2.6v1.4h1.4V66.2z"/>
</g>
</svg>
