<?xml version="1.0" encoding="UTF-8" standalone="no"?>
<!-- Generator: Adobe Illustrator 24.0.2, SVG Export Plug-In . SVG Version: 6.00 Build 0)  -->

<svg
   version="1.1"
   id="Layer_1"
   x="0px"
   y="0px"
   viewBox="0 0 212.6 138.9"
   style="enable-background:new 0 0 212.6 138.9;"
   xml:space="preserve"
   sodipodi:docname="feature-keyboard.svg"
   inkscape:version="1.1 (c68e22c387, 2021-05-23)"
   xmlns:inkscape="http://www.inkscape.org/namespaces/inkscape"
   xmlns:sodipodi="http://sodipodi.sourceforge.net/DTD/sodipodi-0.dtd"
   xmlns="http://www.w3.org/2000/svg"
   xmlns:svg="http://www.w3.org/2000/svg"><defs
   id="defs755">
	
	
	
	
	

		
		
		
		
		
		
		
		
		
		
		
		
		
		
		
		
		
		
		
		
		
		
		
		
		
		
		
		
		
		
		
		
		
		
		
		
		
		
		
		
		
		
		
		
		
		
		
		
		
		
		
		
		
		
		
		
		
		
		
		
		
		
		
		
		
		
		
		
		
		
		
		
		
		
		
		
		
		
		
		
		
		
		
		
		
		
		
		
	
			
			
			
			
			
			
			
			
			
			
			
			
			
		
			
			
			
			
			
			
			
			
			
			
			
			
			
		</defs><sodipodi:namedview
   id="namedview753"
   pagecolor="#505050"
   bordercolor="#ffffff"
   borderopacity="1"
   inkscape:pageshadow="0"
   inkscape:pageopacity="0"
   inkscape:pagecheckerboard="1"
   showgrid="false"
   inkscape:zoom="7.709313"
   inkscape:cx="106.3"
   inkscape:cy="69.396586"
   inkscape:window-width="3840"
   inkscape:window-height="2050"
   inkscape:window-x="-12"
   inkscape:window-y="-12"
   inkscape:window-maximized="1"
   inkscape:current-layer="Layer_1" />
<style
   type="text/css"
   id="style2">
	.keyboardsvg0{fill:#FFFFFF;}
</style>
<g
   id="g18">
		<path
   class="keyboardsvg0"
   d="m 62.26,132.71 h -2.7 c -0.05,0 -0.1,0 -0.15,-0.01 l -0.64,-0.12 c -0.05,-0.01 -0.1,-0.02 -0.15,-0.04 l -0.3,-0.12 c -0.1,-0.04 -0.18,-0.09 -0.25,-0.17 l -0.2,-0.2 -0.48,-0.36 H 55.3 c -0.04,0 -0.07,0 -0.11,-0.01 l -0.42,-0.06 -0.55,-0.13 c -0.08,-0.02 -0.16,-0.06 -0.24,-0.1 l -0.36,-0.24 -0.77,-0.7 c -0.05,-0.05 -0.09,-0.1 -0.12,-0.16 l -0.24,-0.42 c -0.03,-0.05 -0.05,-0.11 -0.07,-0.17 l -0.12,-0.42 c -0.01,-0.04 -0.02,-0.07 -0.02,-0.11 l -0.06,-0.48 -0.01,-2.01 c 0,-0.08 0.01,-0.15 0.03,-0.22 l -0.13,-0.71 -0.14,-0.37 -0.49,-0.79 -0.71,-0.66 -0.37,-0.23 -0.31,-0.12 c -0.05,-0.01 -0.09,-0.01 -0.13,-0.03 l -9.99,-3.27 c -0.05,-0.01 -0.1,-0.01 -0.14,-0.03 l -0.96,-0.3 -2.01,-0.4 -1.03,-0.11 H 34.89 21.76 l -0.73,-0.06 -0.68,-0.13 c -0.04,-0.01 -0.09,-0.02 -0.13,-0.04 l -0.6,-0.24 -0.63,-0.34 -0.59,-0.39 c -0.05,-0.04 -0.1,-0.08 -0.15,-0.13 l -0.84,-0.96 c -0.03,-0.04 -0.06,-0.08 -0.09,-0.13 l -0.3,-0.54 c -0.03,-0.05 -0.05,-0.1 -0.06,-0.15 l -0.37,-1.28 c -0.02,-0.06 -0.03,-0.13 -0.03,-0.2 V 103 H 9.58 c -0.2,0 -0.51,-0.08 -0.65,-0.22 -0.14,-0.14 -0.28,-0.39 -0.28,-0.59 V 6.93 C 8.65,6.52 8.99,6.18 9.4,6.18 h 193.8 c 0.41,0 0.75,0.34 0.75,0.75 v 95.33 c 0,0.41 -0.34,0.75 -0.75,0.75 h -7.17 v 11.25 l -0.06,0.67 -0.13,0.72 c -0.01,0.05 -0.02,0.1 -0.04,0.15 l -0.24,0.6 -0.34,0.62 c -0.03,0.05 -0.06,0.09 -0.09,0.13 l -0.84,0.96 c -0.04,0.05 -0.09,0.09 -0.15,0.13 l -0.54,0.36 -0.59,0.33 -0.68,0.28 c -0.04,0.02 -0.09,0.03 -0.13,0.04 l -0.6,0.12 -0.74,0.07 h -14.23 l -1.06,0.12 -2.2,0.47 -1,0.34 -12.43,4.44 -1,0.25 -1,0.19 -1.07,0.13 h -1.05 l -20.21,0.03 c -0.01,0.05 -0.03,0.1 -0.06,0.15 l -0.12,0.24 c -0.04,0.07 -0.08,0.14 -0.14,0.2 l -0.12,0.12 c -0.06,0.06 -0.12,0.1 -0.2,0.14 l -0.24,0.12 c -0.05,0.02 -0.1,0.04 -0.15,0.06 l -0.24,0.06 c -0.06,0.01 -0.12,0.02 -0.18,0.02 h -4.86 c -0.06,0 -0.12,-0.01 -0.18,-0.02 l -0.24,-0.06 c -0.05,-0.01 -0.11,-0.03 -0.15,-0.06 l -0.5,-0.29 c -0.15,-0.1 -0.26,-0.26 -0.31,-0.44 l -0.07,-0.27 H 84.38 l -0.09,0.18 c -0.02,0.04 -0.04,0.08 -0.07,0.11 l -0.18,0.24 c -0.02,0.03 -0.05,0.06 -0.07,0.08 l -0.18,0.18 c -0.1,0.1 -0.24,0.17 -0.38,0.2 l -0.51,0.11 c -0.06,0.01 -0.12,0.02 -0.18,0.02 h -4.08 c -0.05,0 -0.1,0 -0.15,-0.01 l -0.58,-0.13 c -0.13,-0.03 -0.25,-0.1 -0.35,-0.2 l -0.18,-0.18 c -0.03,-0.03 -0.05,-0.05 -0.07,-0.08 l -0.18,-0.24 c -0.03,-0.04 -0.05,-0.07 -0.07,-0.12 l -0.09,-0.18 -6.04,0.04 -0.63,0.22 -0.25,0.17 -0.25,0.25 -0.16,0.24 -0.23,0.63 -0.05,0.32 v 1.75 c 0,0.1 -0.02,0.2 -0.06,0.29 l -0.36,0.84 c -0.03,0.07 -0.07,0.13 -0.11,0.18 l -0.3,0.36 c -0.03,0.04 -0.06,0.07 -0.1,0.1 l -0.36,0.3 c -0.06,0.05 -0.12,0.08 -0.18,0.11 l -0.84,0.36 c -0.09,0.04 -0.19,0.06 -0.29,0.06 h -2.21 l -0.94,0.69 c -0.05,0.04 -0.11,0.07 -0.17,0.1 l -0.3,0.12 c -0.04,0.02 -0.08,0.03 -0.13,0.04 l -0.6,0.12 c -0.05,0.06 -0.1,0.06 -0.15,0.06 z m -2.63,-1.5 3.01,-0.09 0.14,-0.06 1.07,-0.79 c 0.13,-0.09 0.28,-0.15 0.44,-0.15 h 2.31 l 0.6,-0.26 0.22,-0.19 0.19,-0.22 0.26,-0.6 v -1.59 c 0,-0.04 0,-0.13 0.01,-0.17 l 0.06,-0.42 c 0,-0.03 0.01,-0.07 0.02,-0.1 l 0.12,-0.42 0.21,-0.51 c 0.02,-0.04 0.04,-0.08 0.07,-0.12 l 0.24,-0.36 c 0.03,-0.04 0.06,-0.08 0.09,-0.11 l 0.36,-0.36 c 0.04,-0.04 0.07,-0.07 0.11,-0.09 l 0.36,-0.24 c 0.04,-0.03 0.08,-0.05 0.12,-0.07 l 0.42,-0.18 0.51,-0.15 c 0.03,-0.01 0.07,-0.02 0.1,-0.02 l 0.42,-0.06 c 0.04,0 0.07,-0.01 0.11,-0.01 h 6.36 c 0.41,0 0.75,0.34 0.75,0.75 l 0.07,0.2 0.14,0.15 0.19,0.04 4.17,-0.06 0.11,-0.15 v -0.12 c 0,-0.41 0.34,-0.81 0.75,-0.81 h 44.76 c 0.41,0 0.75,0.34 0.75,0.75 l 0.04,0.37 0.09,0.02 4.78,-0.05 0.02,-0.07 v -0.27 c 0,-0.41 0.34,-0.75 0.75,-0.75 h 21.84 l 0.93,-0.12 0.91,-0.17 0.92,-0.23 0.92,-0.29 12.53,-4.5 2.36,-0.5 1.22,-0.13 h 14.24 l 0.59,-0.06 0.45,-0.09 0.54,-0.22 0.86,-0.53 0.72,-0.83 0.26,-0.47 0.17,-0.44 0.16,-1.13 v -11.92 c 0,-0.41 0.34,-0.75 0.75,-0.75 h 7.17 V 7.68 H 10.15 v 93.83 h 7.17 c 0.41,0 0.75,0.34 0.75,0.75 v 12.5 l 0.3,1.07 0.22,0.4 0.72,0.83 0.95,0.57 0.45,0.17 0.54,0.11 0.58,0.05 h 14.09 l 1.16,0.12 1.07,0.19 1.11,0.25 0.94,0.29 c 0.06,0.01 0.11,0.02 0.15,0.03 l 10,3.27 c 0.06,0.01 0.13,0.02 0.17,0.04 l 0.48,0.18 c 0.05,0.02 0.09,0.04 0.13,0.07 l 0.48,0.3 c 0.03,0.02 0.06,0.04 0.09,0.07 l 0.88,0.82 c 0.03,0.03 0.06,0.06 0.08,0.09 l 0.3,0.42 0.35,0.61 c 0.02,0.03 0.03,0.07 0.05,0.1 l 0.18,0.48 c 0.01,0.04 0.03,0.08 0.03,0.12 l 0.19,1.13 c 0.02,0.13 0,0.27 -0.05,0.39 l 0.05,2.01 0.08,0.28 0.15,0.25 0.72,0.6 0.65,0.13 h 2.29 c 0.16,0 0.32,0.05 0.45,0.15 l 0.72,0.54 c 0.03,0.02 0.06,0.04 0.08,0.07 l 0.21,0.16 z"
   id="path16" />
	</g><g
   id="g48">
			<path
   class="keyboardsvg0"
   d="m 203.2,100.85 c -0.28,0 -0.5,-0.22 -0.5,-0.5 V 7.55 H 9.9 v 92.8 c 0,0.28 -0.22,0.5 -0.5,0.5 -0.28,0 -0.5,-0.22 -0.5,-0.5 V 7.05 c 0,-0.28 0.22,-0.5 0.5,-0.5 h 193.8 c 0.28,0 0.5,0.22 0.5,0.5 v 93.3 c 0,0.28 -0.23,0.5 -0.5,0.5 z"
   id="path46" />
		</g><g
   id="g52">
			<path
   class="keyboardsvg0"
   d="M 203.2,31.45 H 9.4 c -0.28,0 -0.5,-0.22 -0.5,-0.5 0,-0.28 0.22,-0.5 0.5,-0.5 h 193.8 c 0.28,0 0.5,0.22 0.5,0.5 0,0.28 -0.23,0.5 -0.5,0.5 z"
   id="path50" />
		</g><g
   id="g56">
			<path
   class="keyboardsvg0"
   d="M 203.2,34.44 H 9.4 c -0.28,0 -0.5,-0.22 -0.5,-0.5 0,-0.28 0.22,-0.5 0.5,-0.5 h 193.8 c 0.28,0 0.5,0.22 0.5,0.5 0,0.28 -0.23,0.5 -0.5,0.5 z"
   id="path54" />
		</g><g
   id="g60">
			<path
   class="keyboardsvg0"
   d="M 203.2,54.37 H 9.4 c -0.28,0 -0.5,-0.22 -0.5,-0.5 0,-0.28 0.22,-0.5 0.5,-0.5 h 193.8 c 0.28,0 0.5,0.22 0.5,0.5 0,0.28 -0.23,0.5 -0.5,0.5 z"
   id="path58" />
		</g><g
   id="g64">
			<path
   class="keyboardsvg0"
   d="M 203.2,57.36 H 9.4 c -0.28,0 -0.5,-0.22 -0.5,-0.5 0,-0.28 0.22,-0.5 0.5,-0.5 h 193.8 c 0.28,0 0.5,0.22 0.5,0.5 0,0.28 -0.23,0.5 -0.5,0.5 z"
   id="path62" />
		</g><g
   id="g68">
			<path
   class="keyboardsvg0"
   d="M 203.2,76.28 H 9.4 c -0.28,0 -0.5,-0.22 -0.5,-0.5 0,-0.28 0.22,-0.5 0.5,-0.5 h 193.8 c 0.28,0 0.5,0.22 0.5,0.5 0,0.28 -0.23,0.5 -0.5,0.5 z"
   id="path66" />
		</g><g
   id="g72">
			<path
   class="keyboardsvg0"
   d="M 203.2,79.27 H 9.4 c -0.28,0 -0.5,-0.22 -0.5,-0.5 0,-0.28 0.22,-0.5 0.5,-0.5 h 193.8 c 0.28,0 0.5,0.22 0.5,0.5 0,0.28 -0.23,0.5 -0.5,0.5 z"
   id="path70" />
		</g><g
   id="g76">
			<path
   class="keyboardsvg0"
   d="M 203.2,98.2 H 9.4 c -0.28,0 -0.5,-0.22 -0.5,-0.5 0,-0.28 0.22,-0.5 0.5,-0.5 h 193.8 c 0.28,0 0.5,0.22 0.5,0.5 0,0.28 -0.23,0.5 -0.5,0.5 z"
   id="path74" />
		</g><g
   id="g80">
			<path
   class="keyboardsvg0"
   d="M 203.2,101.19 H 9.4 c -0.28,0 -0.5,-0.22 -0.5,-0.5 0,-0.28 0.22,-0.5 0.5,-0.5 h 193.8 c 0.28,0 0.5,0.22 0.5,0.5 0,0.28 -0.23,0.5 -0.5,0.5 z"
   id="path78" />
		</g><g
   id="g84">
			<path
   class="keyboardsvg0"
   d="m 29.07,54.28 c -0.28,0 -0.5,-0.22 -0.5,-0.5 V 34.03 c 0,-0.28 0.22,-0.5 0.5,-0.5 0.28,0 0.5,0.22 0.5,0.5 v 19.75 c 0,0.28 -0.22,0.5 -0.5,0.5 z"
   id="path82" />
		</g><g
   id="g88">
			<path
   class="keyboardsvg0"
   d="m 48.44,54.28 c -0.28,0 -0.5,-0.22 -0.5,-0.5 V 34.03 c 0,-0.28 0.22,-0.5 0.5,-0.5 0.28,0 0.5,0.22 0.5,0.5 v 19.75 c 0,0.28 -0.23,0.5 -0.5,0.5 z"
   id="path86" />
		</g><g
   id="g92">
			<path
   class="keyboardsvg0"
   d="m 67.8,54.28 c -0.28,0 -0.5,-0.22 -0.5,-0.5 V 34.03 c 0,-0.28 0.22,-0.5 0.5,-0.5 0.28,0 0.5,0.22 0.5,0.5 v 19.75 c 0,0.28 -0.23,0.5 -0.5,0.5 z"
   id="path90" />
		</g><g
   id="g96">
			<path
   class="keyboardsvg0"
   d="m 87.16,54.28 c -0.28,0 -0.5,-0.22 -0.5,-0.5 V 34.03 c 0,-0.28 0.22,-0.5 0.5,-0.5 0.28,0 0.5,0.22 0.5,0.5 v 19.75 c 0,0.28 -0.22,0.5 -0.5,0.5 z"
   id="path94" />
		</g><g
   id="g100">
			<path
   class="keyboardsvg0"
   d="m 106.52,54.28 c -0.28,0 -0.5,-0.22 -0.5,-0.5 V 34.03 c 0,-0.28 0.22,-0.5 0.5,-0.5 0.28,0 0.5,0.22 0.5,0.5 v 19.75 c 0,0.28 -0.22,0.5 -0.5,0.5 z"
   id="path98" />
		</g><g
   id="g104">
			<path
   class="keyboardsvg0"
   d="m 125.88,54.28 c -0.28,0 -0.5,-0.22 -0.5,-0.5 V 34.03 c 0,-0.28 0.22,-0.5 0.5,-0.5 0.28,0 0.5,0.22 0.5,0.5 v 19.75 c 0,0.28 -0.22,0.5 -0.5,0.5 z"
   id="path102" />
		</g><g
   id="g108">
			<path
   class="keyboardsvg0"
   d="m 145.25,54.28 c -0.28,0 -0.5,-0.22 -0.5,-0.5 V 34.03 c 0,-0.28 0.22,-0.5 0.5,-0.5 0.28,0 0.5,0.22 0.5,0.5 v 19.75 c 0,0.28 -0.23,0.5 -0.5,0.5 z"
   id="path106" />
		</g><g
   id="g112">
			<path
   class="keyboardsvg0"
   d="m 164.61,54.28 c -0.28,0 -0.5,-0.22 -0.5,-0.5 V 34.03 c 0,-0.28 0.22,-0.5 0.5,-0.5 0.28,0 0.5,0.22 0.5,0.5 v 19.75 c 0,0.28 -0.23,0.5 -0.5,0.5 z"
   id="path110" />
		</g><g
   id="g116">
			<path
   class="keyboardsvg0"
   d="m 183.97,54.28 c -0.28,0 -0.5,-0.22 -0.5,-0.5 V 34.03 c 0,-0.28 0.22,-0.5 0.5,-0.5 0.28,0 0.5,0.22 0.5,0.5 v 19.75 c 0,0.28 -0.22,0.5 -0.5,0.5 z"
   id="path114" />
		</g><g
   id="g120">
			<path
   class="keyboardsvg0"
   d="m 29.07,76.28 c -0.28,0 -0.5,-0.22 -0.5,-0.5 V 56.94 c 0,-0.28 0.22,-0.5 0.5,-0.5 0.28,0 0.5,0.22 0.5,0.5 v 18.84 c 0,0.28 -0.22,0.5 -0.5,0.5 z"
   id="path118" />
		</g><g
   id="g124">
			<path
   class="keyboardsvg0"
   d="m 48.44,76.28 c -0.28,0 -0.5,-0.22 -0.5,-0.5 V 56.94 c 0,-0.28 0.22,-0.5 0.5,-0.5 0.28,0 0.5,0.22 0.5,0.5 v 18.84 c 0,0.28 -0.23,0.5 -0.5,0.5 z"
   id="path122" />
		</g><g
   id="g128">
			<path
   class="keyboardsvg0"
   d="m 67.8,76.28 c -0.28,0 -0.5,-0.22 -0.5,-0.5 V 56.94 c 0,-0.28 0.22,-0.5 0.5,-0.5 0.28,0 0.5,0.22 0.5,0.5 v 18.84 c 0,0.28 -0.23,0.5 -0.5,0.5 z"
   id="path126" />
		</g><g
   id="g132">
			<path
   class="keyboardsvg0"
   d="m 87.16,76.28 c -0.28,0 -0.5,-0.22 -0.5,-0.5 V 56.94 c 0,-0.28 0.22,-0.5 0.5,-0.5 0.28,0 0.5,0.22 0.5,0.5 v 18.84 c 0,0.28 -0.22,0.5 -0.5,0.5 z"
   id="path130" />
		</g><g
   id="g136">
			<path
   class="keyboardsvg0"
   d="m 106.52,76.28 c -0.28,0 -0.5,-0.22 -0.5,-0.5 V 56.94 c 0,-0.28 0.22,-0.5 0.5,-0.5 0.28,0 0.5,0.22 0.5,0.5 v 18.84 c 0,0.28 -0.22,0.5 -0.5,0.5 z"
   id="path134" />
		</g><g
   id="g140">
			<path
   class="keyboardsvg0"
   d="m 125.88,76.28 c -0.28,0 -0.5,-0.22 -0.5,-0.5 V 56.94 c 0,-0.28 0.22,-0.5 0.5,-0.5 0.28,0 0.5,0.22 0.5,0.5 v 18.84 c 0,0.28 -0.22,0.5 -0.5,0.5 z"
   id="path138" />
		</g><g
   id="g144">
			<path
   class="keyboardsvg0"
   d="m 145.25,76.28 c -0.28,0 -0.5,-0.22 -0.5,-0.5 V 56.94 c 0,-0.28 0.22,-0.5 0.5,-0.5 0.28,0 0.5,0.22 0.5,0.5 v 18.84 c 0,0.28 -0.23,0.5 -0.5,0.5 z"
   id="path142" />
		</g><g
   id="g148">
			<path
   class="keyboardsvg0"
   d="m 164.61,76.28 c -0.28,0 -0.5,-0.22 -0.5,-0.5 V 56.94 c 0,-0.28 0.22,-0.5 0.5,-0.5 0.28,0 0.5,0.22 0.5,0.5 v 18.84 c 0,0.28 -0.23,0.5 -0.5,0.5 z"
   id="path146" />
		</g><g
   id="g152">
			<path
   class="keyboardsvg0"
   d="m 183.97,76.28 c -0.28,0 -0.5,-0.22 -0.5,-0.5 V 56.94 c 0,-0.28 0.22,-0.5 0.5,-0.5 0.28,0 0.5,0.22 0.5,0.5 v 18.84 c 0,0.28 -0.22,0.5 -0.5,0.5 z"
   id="path150" />
		</g><g
   id="g156">
			<path
   class="keyboardsvg0"
   d="m 29.07,76.28 c -0.28,0 -0.5,-0.22 -0.5,-0.5 V 56.94 c 0,-0.28 0.22,-0.5 0.5,-0.5 0.28,0 0.5,0.22 0.5,0.5 v 18.84 c 0,0.28 -0.22,0.5 -0.5,0.5 z"
   id="path154" />
		</g><g
   id="g160">
			<path
   class="keyboardsvg0"
   d="m 48.44,76.28 c -0.28,0 -0.5,-0.22 -0.5,-0.5 V 56.94 c 0,-0.28 0.22,-0.5 0.5,-0.5 0.28,0 0.5,0.22 0.5,0.5 v 18.84 c 0,0.28 -0.23,0.5 -0.5,0.5 z"
   id="path158" />
		</g><g
   id="g292">
			<path
   class="keyboardsvg0"
   d="m 67.8,76.28 c -0.28,0 -0.5,-0.22 -0.5,-0.5 V 56.94 c 0,-0.28 0.22,-0.5 0.5,-0.5 0.28,0 0.5,0.22 0.5,0.5 v 18.84 c 0,0.28 -0.23,0.5 -0.5,0.5 z"
   id="path290" />
		</g><g
   id="g296">
			<path
   class="keyboardsvg0"
   d="m 87.16,76.28 c -0.28,0 -0.5,-0.22 -0.5,-0.5 V 56.94 c 0,-0.28 0.22,-0.5 0.5,-0.5 0.28,0 0.5,0.22 0.5,0.5 v 18.84 c 0,0.28 -0.22,0.5 -0.5,0.5 z"
   id="path294" />
		</g><g
   id="g300">
			<path
   class="keyboardsvg0"
   d="m 106.52,76.28 c -0.28,0 -0.5,-0.22 -0.5,-0.5 V 56.94 c 0,-0.28 0.22,-0.5 0.5,-0.5 0.28,0 0.5,0.22 0.5,0.5 v 18.84 c 0,0.28 -0.22,0.5 -0.5,0.5 z"
   id="path298" />
		</g><g
   id="g304">
			<path
   class="keyboardsvg0"
   d="m 125.88,76.28 c -0.28,0 -0.5,-0.22 -0.5,-0.5 V 56.94 c 0,-0.28 0.22,-0.5 0.5,-0.5 0.28,0 0.5,0.22 0.5,0.5 v 18.84 c 0,0.28 -0.22,0.5 -0.5,0.5 z"
   id="path302" />
		</g><g
   id="g308">
			<path
   class="keyboardsvg0"
   d="m 145.25,76.28 c -0.28,0 -0.5,-0.22 -0.5,-0.5 V 56.94 c 0,-0.28 0.22,-0.5 0.5,-0.5 0.28,0 0.5,0.22 0.5,0.5 v 18.84 c 0,0.28 -0.23,0.5 -0.5,0.5 z"
   id="path306" />
		</g><g
   id="g312">
			<path
   class="keyboardsvg0"
   d="m 164.61,76.28 c -0.28,0 -0.5,-0.22 -0.5,-0.5 V 56.94 c 0,-0.28 0.22,-0.5 0.5,-0.5 0.28,0 0.5,0.22 0.5,0.5 v 18.84 c 0,0.28 -0.23,0.5 -0.5,0.5 z"
   id="path310" />
		</g><g
   id="g316">
			<path
   class="keyboardsvg0"
   d="m 183.97,76.28 c -0.28,0 -0.5,-0.22 -0.5,-0.5 V 56.94 c 0,-0.28 0.22,-0.5 0.5,-0.5 0.28,0 0.5,0.22 0.5,0.5 v 18.84 c 0,0.28 -0.22,0.5 -0.5,0.5 z"
   id="path314" />
		</g><g
   id="g320">
			<path
   class="keyboardsvg0"
   d="m 29.07,98.2 c -0.28,0 -0.5,-0.22 -0.5,-0.5 V 78.86 c 0,-0.28 0.22,-0.5 0.5,-0.5 0.28,0 0.5,0.22 0.5,0.5 V 97.7 c 0,0.28 -0.22,0.5 -0.5,0.5 z"
   id="path318" />
		</g><g
   id="g324">
			<path
   class="keyboardsvg0"
   d="m 48.44,98.2 c -0.28,0 -0.5,-0.22 -0.5,-0.5 V 78.86 c 0,-0.28 0.22,-0.5 0.5,-0.5 0.28,0 0.5,0.22 0.5,0.5 V 97.7 c 0,0.28 -0.23,0.5 -0.5,0.5 z"
   id="path322" />
		</g><g
   id="g346">
			<path
   class="keyboardsvg0"
   d="m 67.8,98.2 c -0.28,0 -0.5,-0.22 -0.5,-0.5 V 78.86 c 0,-0.28 0.22,-0.5 0.5,-0.5 0.28,0 0.5,0.22 0.5,0.5 V 97.7 c 0,0.28 -0.23,0.5 -0.5,0.5 z"
   id="path344" />
		</g><g
   id="g350">
			<path
   class="keyboardsvg0"
   d="m 87.16,98.2 c -0.28,0 -0.5,-0.22 -0.5,-0.5 V 78.86 c 0,-0.28 0.22,-0.5 0.5,-0.5 0.28,0 0.5,0.22 0.5,0.5 V 97.7 c 0,0.28 -0.22,0.5 -0.5,0.5 z"
   id="path348" />
		</g><g
   id="g354">
			<path
   class="keyboardsvg0"
   d="m 106.52,98.2 c -0.28,0 -0.5,-0.22 -0.5,-0.5 V 78.86 c 0,-0.28 0.22,-0.5 0.5,-0.5 0.28,0 0.5,0.22 0.5,0.5 V 97.7 c 0,0.28 -0.22,0.5 -0.5,0.5 z"
   id="path352" />
		</g><g
   id="g358">
			<path
   class="keyboardsvg0"
   d="m 125.88,98.2 c -0.28,0 -0.5,-0.22 -0.5,-0.5 V 78.86 c 0,-0.28 0.22,-0.5 0.5,-0.5 0.28,0 0.5,0.22 0.5,0.5 V 97.7 c 0,0.28 -0.22,0.5 -0.5,0.5 z"
   id="path356" />
		</g><g
   id="g362">
			<path
   class="keyboardsvg0"
   d="m 145.25,98.2 c -0.28,0 -0.5,-0.22 -0.5,-0.5 V 78.86 c 0,-0.28 0.22,-0.5 0.5,-0.5 0.28,0 0.5,0.22 0.5,0.5 V 97.7 c 0,0.28 -0.23,0.5 -0.5,0.5 z"
   id="path360" />
		</g><g
   id="g366">
			<path
   class="keyboardsvg0"
   d="m 164.61,98.2 c -0.28,0 -0.5,-0.22 -0.5,-0.5 V 78.86 c 0,-0.28 0.22,-0.5 0.5,-0.5 0.28,0 0.5,0.22 0.5,0.5 V 97.7 c 0,0.28 -0.23,0.5 -0.5,0.5 z"
   id="path364" />
		</g><g
   id="g370">
			<path
   class="keyboardsvg0"
   d="m 183.97,98.2 c -0.28,0 -0.5,-0.22 -0.5,-0.5 V 78.86 c 0,-0.28 0.22,-0.5 0.5,-0.5 0.28,0 0.5,0.22 0.5,0.5 V 97.7 c 0,0.28 -0.22,0.5 -0.5,0.5 z"
   id="path368" />
		</g>
</svg>
