<?xml version="1.0" encoding="utf-8"?>
<!-- Generator: Adobe Illustrator 24.0.2, SVG Export Plug-In . SVG Version: 6.00 Build 0)  -->
<svg version="1.1" id="Layer_1" xmlns="http://www.w3.org/2000/svg" xmlns:xlink="http://www.w3.org/1999/xlink" x="0px" y="0px"
	 viewBox="0 0 212.6 138.9" style="enable-background:new 0 0 212.6 138.9;" xml:space="preserve">
<style type="text/css">
	.keyboardsvg0{fill:#FFFFFF;}
</style>
<g>
	<g>
		<path class="keyboardsvg0" d="M46.57,118.49c-9.85,0-18.06-7.9-18.4-17.79c-0.01-0.28,0.21-0.51,0.48-0.52c0.28,0.01,0.51,0.21,0.52,0.48
			c0.32,9.47,8.28,17.03,17.77,16.82c0.31,0.03,0.5,0.21,0.51,0.49c0.01,0.28-0.21,0.5-0.49,0.51
			C46.83,118.48,46.7,118.49,46.57,118.49z"/>
	</g>
	<g>
		<path class="keyboardsvg0" d="M165.64,118.49H46.9c-0.28,0-0.5-0.22-0.5-0.5s0.22-0.5,0.5-0.5h118.74c0.28,0,0.5,0.22,0.5,0.5
			S165.92,118.49,165.64,118.49z"/>
	</g>
	<g>
		<path class="keyboardsvg0" d="M166.09,118.49c-0.13,0-0.26,0-0.39,0c-0.28-0.01-0.5-0.23-0.49-0.51c0.01-0.27,0.23-0.49,0.5-0.49
			c0,0,0.01,0,0.01,0c0.12,0,0.25,0,0.37,0c9.31,0,17.08-7.47,17.4-16.82c0.01-0.28,0.24-0.48,0.52-0.48
			c0.28,0.01,0.49,0.24,0.48,0.52C184.15,110.59,175.94,118.49,166.09,118.49z"/>
	</g>
	<g>
		<path class="keyboardsvg0" d="M62.26,132.71h-2.7c-0.05,0-0.1,0-0.15-0.01l-0.64-0.12c-0.05-0.01-0.1-0.02-0.15-0.04l-0.3-0.12
			c-0.1-0.04-0.18-0.09-0.25-0.17l-0.2-0.2l-0.48-0.36H55.3c-0.04,0-0.07,0-0.11-0.01l-0.42-0.06l-0.55-0.13
			c-0.08-0.02-0.16-0.06-0.24-0.1l-0.36-0.24l-0.77-0.7c-0.05-0.05-0.09-0.1-0.12-0.16l-0.24-0.42c-0.03-0.05-0.05-0.11-0.07-0.17
			l-0.12-0.42c-0.01-0.04-0.02-0.07-0.02-0.11l-0.06-0.48l-0.01-2.01c0-0.08,0.01-0.15,0.03-0.22l-0.13-0.71l-0.14-0.37l-0.49-0.79
			l-0.71-0.66l-0.37-0.23l-0.31-0.12c-0.05-0.01-0.09-0.01-0.13-0.03l-9.99-3.27c-0.05-0.01-0.1-0.01-0.14-0.03l-0.96-0.3l-2.01-0.4
			l-1.03-0.11l-0.94,0H21.76l-0.73-0.06l-0.68-0.13c-0.04-0.01-0.09-0.02-0.13-0.04l-0.6-0.24l-0.63-0.34l-0.59-0.39
			c-0.05-0.04-0.1-0.08-0.15-0.13l-0.84-0.96c-0.03-0.04-0.06-0.08-0.09-0.13l-0.3-0.54c-0.03-0.05-0.05-0.1-0.06-0.15l-0.37-1.28
			c-0.02-0.06-0.03-0.13-0.03-0.2v-11.85H9.58c-0.2,0-0.51-0.08-0.65-0.22c-0.14-0.14-0.28-0.39-0.28-0.59V6.93
			c0-0.41,0.34-0.75,0.75-0.75h193.8c0.41,0,0.75,0.34,0.75,0.75v95.33c0,0.41-0.34,0.75-0.75,0.75h-7.17v11.25l-0.06,0.67
			l-0.13,0.72c-0.01,0.05-0.02,0.1-0.04,0.15l-0.24,0.6l-0.34,0.62c-0.03,0.05-0.06,0.09-0.09,0.13l-0.84,0.96
			c-0.04,0.05-0.09,0.09-0.15,0.13l-0.54,0.36l-0.59,0.33l-0.68,0.28c-0.04,0.02-0.09,0.03-0.13,0.04l-0.6,0.12l-0.74,0.07l-14.23,0
			l-1.06,0.12l-2.2,0.47l-1,0.34l-12.43,4.44l-1,0.25l-1,0.19l-1.07,0.13l-1.05,0l-20.21,0.03c-0.01,0.05-0.03,0.1-0.06,0.15
			l-0.12,0.24c-0.04,0.07-0.08,0.14-0.14,0.2l-0.12,0.12c-0.06,0.06-0.12,0.1-0.2,0.14l-0.24,0.12c-0.05,0.02-0.1,0.04-0.15,0.06
			l-0.24,0.06c-0.06,0.01-0.12,0.02-0.18,0.02h-4.86c-0.06,0-0.12-0.01-0.18-0.02l-0.24-0.06c-0.05-0.01-0.11-0.03-0.15-0.06
			l-0.5-0.29c-0.15-0.1-0.26-0.26-0.31-0.44l-0.07-0.27H84.38l-0.09,0.18c-0.02,0.04-0.04,0.08-0.07,0.11l-0.18,0.24
			c-0.02,0.03-0.05,0.06-0.07,0.08l-0.18,0.18c-0.1,0.1-0.24,0.17-0.38,0.2l-0.51,0.11c-0.06,0.01-0.12,0.02-0.18,0.02h-4.08
			c-0.05,0-0.1,0-0.15-0.01l-0.58-0.13c-0.13-0.03-0.25-0.1-0.35-0.2l-0.18-0.18c-0.03-0.03-0.05-0.05-0.07-0.08l-0.18-0.24
			c-0.03-0.04-0.05-0.07-0.07-0.12l-0.09-0.18l-6.04,0.04l-0.63,0.22l-0.25,0.17l-0.25,0.25l-0.16,0.24l-0.23,0.63l-0.05,0.32v1.75
			c0,0.1-0.02,0.2-0.06,0.29l-0.36,0.84c-0.03,0.07-0.07,0.13-0.11,0.18l-0.3,0.36c-0.03,0.04-0.06,0.07-0.1,0.1l-0.36,0.3
			c-0.06,0.05-0.12,0.08-0.18,0.11l-0.84,0.36c-0.09,0.04-0.19,0.06-0.29,0.06h-2.21l-0.94,0.69c-0.05,0.04-0.11,0.07-0.17,0.1
			l-0.3,0.12c-0.04,0.02-0.08,0.03-0.13,0.04l-0.6,0.12C62.36,132.71,62.31,132.71,62.26,132.71z M59.63,131.21l3.01-0.09l0.14-0.06
			l1.07-0.79c0.13-0.09,0.28-0.15,0.44-0.15h2.31l0.6-0.26l0.22-0.19l0.19-0.22l0.26-0.6v-1.59c0-0.04,0-0.13,0.01-0.17l0.06-0.42
			c0-0.03,0.01-0.07,0.02-0.1l0.12-0.42l0.21-0.51c0.02-0.04,0.04-0.08,0.07-0.12l0.24-0.36c0.03-0.04,0.06-0.08,0.09-0.11
			l0.36-0.36c0.04-0.04,0.07-0.07,0.11-0.09l0.36-0.24c0.04-0.03,0.08-0.05,0.12-0.07l0.42-0.18l0.51-0.15
			c0.03-0.01,0.07-0.02,0.1-0.02l0.42-0.06c0.04,0,0.07-0.01,0.11-0.01h6.36c0.41,0,0.75,0.34,0.75,0.75l0.07,0.2l0.14,0.15
			l0.19,0.04l4.17-0.06l0.11-0.15v-0.12c0-0.41,0.34-0.81,0.75-0.81h44.76c0.41,0,0.75,0.34,0.75,0.75l0.04,0.37l0.09,0.02
			l4.78-0.05l0.02-0.07v-0.27c0-0.41,0.34-0.75,0.75-0.75h21.84l0.93-0.12l0.91-0.17l0.92-0.23l0.92-0.29l12.53-4.5l2.36-0.5
			l1.22-0.13l14.24,0l0.59-0.06l0.45-0.09l0.54-0.22l0.86-0.53l0.72-0.83l0.26-0.47l0.17-0.44l0.16-1.13l0-11.92
			c0-0.41,0.34-0.75,0.75-0.75h7.17V7.68H10.15v93.83h7.17c0.41,0,0.75,0.34,0.75,0.75v12.5l0.3,1.07l0.22,0.4l0.72,0.83l0.95,0.57
			l0.45,0.17l0.54,0.11l0.58,0.05l14.09,0l1.16,0.12l1.07,0.19l1.11,0.25l0.94,0.29c0.06,0.01,0.11,0.02,0.15,0.03l10,3.27
			c0.06,0.01,0.13,0.02,0.17,0.04l0.48,0.18c0.05,0.02,0.09,0.04,0.13,0.07l0.48,0.3c0.03,0.02,0.06,0.04,0.09,0.07l0.88,0.82
			c0.03,0.03,0.06,0.06,0.08,0.09l0.3,0.42l0.35,0.61c0.02,0.03,0.03,0.07,0.05,0.1l0.18,0.48c0.01,0.04,0.03,0.08,0.03,0.12
			l0.19,1.13c0.02,0.13,0,0.27-0.05,0.39l0.05,2.01l0.08,0.28l0.15,0.25l0.72,0.6l0.65,0.13h2.29c0.16,0,0.32,0.05,0.45,0.15
			l0.72,0.54c0.03,0.02,0.06,0.04,0.08,0.07l0.21,0.16L59.63,131.21z"/>
	</g>
	<g>
		<g>
			<path class="keyboardsvg0" d="M176.92,85.13h-1.32c-0.14,0-0.25-0.11-0.25-0.25v-2.05c0-0.14,0.11-0.25,0.25-0.25h1.32
				c0.14,0,0.25,0.11,0.25,0.25v2.05C177.17,85.01,177.05,85.13,176.92,85.13z M175.84,84.63h0.82v-1.55h-0.82V84.63z"/>
		</g>
		<g>
			<path class="keyboardsvg0" d="M178.39,86.92c-0.08,0-0.15-0.03-0.2-0.09l-1.47-1.86c-0.04-0.04-0.05-0.1-0.05-0.16v-1.92
				c0-0.06,0.02-0.11,0.05-0.16l1.47-1.86c0.07-0.08,0.18-0.12,0.28-0.08c0.1,0.04,0.17,0.13,0.17,0.24v5.65
				c0,0.11-0.07,0.2-0.17,0.24C178.44,86.92,178.42,86.92,178.39,86.92z M177.17,84.72l0.97,1.23v-4.21l-0.97,1.23V84.72z"/>
		</g>
		<g>
			<path class="keyboardsvg0" d="M181.4,83.74h-0.5c0-0.64-0.38-1.21-0.97-1.46l0.2-0.46C180.9,82.15,181.4,82.9,181.4,83.74z"/>
		</g>
		<g>
			<g>
				<path class="keyboardsvg0" d="M181.15,83.99c-0.14,0-0.25-0.11-0.25-0.25c0-0.64-0.38-1.21-0.97-1.46c-0.13-0.05-0.19-0.2-0.13-0.33
					c0.05-0.13,0.2-0.19,0.33-0.13c0.77,0.33,1.27,1.08,1.27,1.92C181.4,83.88,181.28,83.99,181.15,83.99z"/>
			</g>
			<g>
				<path class="keyboardsvg0" d="M180.02,85.69c-0.1,0-0.19-0.06-0.23-0.15c-0.05-0.13,0.01-0.27,0.13-0.33c0.59-0.25,0.97-0.82,0.97-1.46
					c0-0.14,0.11-0.25,0.25-0.25s0.25,0.11,0.25,0.25c0,0.84-0.5,1.59-1.27,1.92C180.09,85.68,180.06,85.69,180.02,85.69z"/>
			</g>
		</g>
		<g>
			<path class="keyboardsvg0" d="M179.31,84.92c-0.14,0-0.25-0.11-0.25-0.25s0.11-0.25,0.25-0.25c0.37,0,0.67-0.3,0.67-0.67
				s-0.3-0.67-0.67-0.67c-0.14,0-0.25-0.11-0.25-0.25s0.11-0.25,0.25-0.25c0.65,0,1.17,0.53,1.17,1.17S179.96,84.92,179.31,84.92z"
				/>
		</g>
		<g>
			<path class="keyboardsvg0" d="M203.2,100.85c-0.28,0-0.5-0.22-0.5-0.5V7.55H9.9v92.8c0,0.28-0.22,0.5-0.5,0.5s-0.5-0.22-0.5-0.5V7.05
				c0-0.28,0.22-0.5,0.5-0.5h193.8c0.28,0,0.5,0.22,0.5,0.5v93.3C203.7,100.63,203.47,100.85,203.2,100.85z"/>
		</g>
		<g>
			<path class="keyboardsvg0" d="M203.2,31.45H9.4c-0.28,0-0.5-0.22-0.5-0.5s0.22-0.5,0.5-0.5h193.8c0.28,0,0.5,0.22,0.5,0.5
				S203.47,31.45,203.2,31.45z"/>
		</g>
		<g>
			<path class="keyboardsvg0" d="M203.2,34.44H9.4c-0.28,0-0.5-0.22-0.5-0.5s0.22-0.5,0.5-0.5h193.8c0.28,0,0.5,0.22,0.5,0.5
				S203.47,34.44,203.2,34.44z"/>
		</g>
		<g>
			<path class="keyboardsvg0" d="M203.2,54.37H9.4c-0.28,0-0.5-0.22-0.5-0.5s0.22-0.5,0.5-0.5h193.8c0.28,0,0.5,0.22,0.5,0.5
				S203.47,54.37,203.2,54.37z"/>
		</g>
		<g>
			<path class="keyboardsvg0" d="M203.2,57.36H9.4c-0.28,0-0.5-0.22-0.5-0.5s0.22-0.5,0.5-0.5h193.8c0.28,0,0.5,0.22,0.5,0.5
				S203.47,57.36,203.2,57.36z"/>
		</g>
		<g>
			<path class="keyboardsvg0" d="M203.2,76.28H9.4c-0.28,0-0.5-0.22-0.5-0.5s0.22-0.5,0.5-0.5h193.8c0.28,0,0.5,0.22,0.5,0.5
				S203.47,76.28,203.2,76.28z"/>
		</g>
		<g>
			<path class="keyboardsvg0" d="M203.2,79.27H9.4c-0.28,0-0.5-0.22-0.5-0.5s0.22-0.5,0.5-0.5h193.8c0.28,0,0.5,0.22,0.5,0.5
				S203.47,79.27,203.2,79.27z"/>
		</g>
		<g>
			<path class="keyboardsvg0" d="M203.2,98.2H9.4c-0.28,0-0.5-0.22-0.5-0.5s0.22-0.5,0.5-0.5h193.8c0.28,0,0.5,0.22,0.5,0.5
				S203.47,98.2,203.2,98.2z"/>
		</g>
		<g>
			<path class="keyboardsvg0" d="M203.2,101.19H9.4c-0.28,0-0.5-0.22-0.5-0.5s0.22-0.5,0.5-0.5h193.8c0.28,0,0.5,0.22,0.5,0.5
				S203.47,101.19,203.2,101.19z"/>
		</g>
		<g>
			<path class="keyboardsvg0" d="M29.07,54.28c-0.28,0-0.5-0.22-0.5-0.5V34.03c0-0.28,0.22-0.5,0.5-0.5s0.5,0.22,0.5,0.5v19.75
				C29.57,54.06,29.35,54.28,29.07,54.28z"/>
		</g>
		<g>
			<path class="keyboardsvg0" d="M48.44,54.28c-0.28,0-0.5-0.22-0.5-0.5V34.03c0-0.28,0.22-0.5,0.5-0.5s0.5,0.22,0.5,0.5v19.75
				C48.94,54.06,48.71,54.28,48.44,54.28z"/>
		</g>
		<g>
			<path class="keyboardsvg0" d="M67.8,54.28c-0.28,0-0.5-0.22-0.5-0.5V34.03c0-0.28,0.22-0.5,0.5-0.5s0.5,0.22,0.5,0.5v19.75
				C68.3,54.06,68.07,54.28,67.8,54.28z"/>
		</g>
		<g>
			<path class="keyboardsvg0" d="M87.16,54.28c-0.28,0-0.5-0.22-0.5-0.5V34.03c0-0.28,0.22-0.5,0.5-0.5s0.5,0.22,0.5,0.5v19.75
				C87.66,54.06,87.44,54.28,87.16,54.28z"/>
		</g>
		<g>
			<path class="keyboardsvg0" d="M106.52,54.28c-0.28,0-0.5-0.22-0.5-0.5V34.03c0-0.28,0.22-0.5,0.5-0.5s0.5,0.22,0.5,0.5v19.75
				C107.02,54.06,106.8,54.28,106.52,54.28z"/>
		</g>
		<g>
			<path class="keyboardsvg0" d="M125.88,54.28c-0.28,0-0.5-0.22-0.5-0.5V34.03c0-0.28,0.22-0.5,0.5-0.5s0.5,0.22,0.5,0.5v19.75
				C126.38,54.06,126.16,54.28,125.88,54.28z"/>
		</g>
		<g>
			<path class="keyboardsvg0" d="M145.25,54.28c-0.28,0-0.5-0.22-0.5-0.5V34.03c0-0.28,0.22-0.5,0.5-0.5s0.5,0.22,0.5,0.5v19.75
				C145.75,54.06,145.52,54.28,145.25,54.28z"/>
		</g>
		<g>
			<path class="keyboardsvg0" d="M164.61,54.28c-0.28,0-0.5-0.22-0.5-0.5V34.03c0-0.28,0.22-0.5,0.5-0.5s0.5,0.22,0.5,0.5v19.75
				C165.11,54.06,164.88,54.28,164.61,54.28z"/>
		</g>
		<g>
			<path class="keyboardsvg0" d="M183.97,54.28c-0.28,0-0.5-0.22-0.5-0.5V34.03c0-0.28,0.22-0.5,0.5-0.5s0.5,0.22,0.5,0.5v19.75
				C184.47,54.06,184.25,54.28,183.97,54.28z"/>
		</g>
		<g>
			<path class="keyboardsvg0" d="M29.07,76.28c-0.28,0-0.5-0.22-0.5-0.5V56.94c0-0.28,0.22-0.5,0.5-0.5s0.5,0.22,0.5,0.5v18.84
				C29.57,76.06,29.35,76.28,29.07,76.28z"/>
		</g>
		<g>
			<path class="keyboardsvg0" d="M48.44,76.28c-0.28,0-0.5-0.22-0.5-0.5V56.94c0-0.28,0.22-0.5,0.5-0.5s0.5,0.22,0.5,0.5v18.84
				C48.94,76.06,48.71,76.28,48.44,76.28z"/>
		</g>
		<g>
			<path class="keyboardsvg0" d="M67.8,76.28c-0.28,0-0.5-0.22-0.5-0.5V56.94c0-0.28,0.22-0.5,0.5-0.5s0.5,0.22,0.5,0.5v18.84
				C68.3,76.06,68.07,76.28,67.8,76.28z"/>
		</g>
		<g>
			<path class="keyboardsvg0" d="M87.16,76.28c-0.28,0-0.5-0.22-0.5-0.5V56.94c0-0.28,0.22-0.5,0.5-0.5s0.5,0.22,0.5,0.5v18.84
				C87.66,76.06,87.44,76.28,87.16,76.28z"/>
		</g>
		<g>
			<path class="keyboardsvg0" d="M106.52,76.28c-0.28,0-0.5-0.22-0.5-0.5V56.94c0-0.28,0.22-0.5,0.5-0.5s0.5,0.22,0.5,0.5v18.84
				C107.02,76.06,106.8,76.28,106.52,76.28z"/>
		</g>
		<g>
			<path class="keyboardsvg0" d="M125.88,76.28c-0.28,0-0.5-0.22-0.5-0.5V56.94c0-0.28,0.22-0.5,0.5-0.5s0.5,0.22,0.5,0.5v18.84
				C126.38,76.06,126.16,76.28,125.88,76.28z"/>
		</g>
		<g>
			<path class="keyboardsvg0" d="M145.25,76.28c-0.28,0-0.5-0.22-0.5-0.5V56.94c0-0.28,0.22-0.5,0.5-0.5s0.5,0.22,0.5,0.5v18.84
				C145.75,76.06,145.52,76.28,145.25,76.28z"/>
		</g>
		<g>
			<path class="keyboardsvg0" d="M164.61,76.28c-0.28,0-0.5-0.22-0.5-0.5V56.94c0-0.28,0.22-0.5,0.5-0.5s0.5,0.22,0.5,0.5v18.84
				C165.11,76.06,164.88,76.28,164.61,76.28z"/>
		</g>
		<g>
			<path class="keyboardsvg0" d="M183.97,76.28c-0.28,0-0.5-0.22-0.5-0.5V56.94c0-0.28,0.22-0.5,0.5-0.5s0.5,0.22,0.5,0.5v18.84
				C184.47,76.06,184.25,76.28,183.97,76.28z"/>
		</g>
		<g>
			<path class="keyboardsvg0" d="M29.07,76.28c-0.28,0-0.5-0.22-0.5-0.5V56.94c0-0.28,0.22-0.5,0.5-0.5s0.5,0.22,0.5,0.5v18.84
				C29.57,76.06,29.35,76.28,29.07,76.28z"/>
		</g>
		<g>
			<path class="keyboardsvg0" d="M48.44,76.28c-0.28,0-0.5-0.22-0.5-0.5V56.94c0-0.28,0.22-0.5,0.5-0.5s0.5,0.22,0.5,0.5v18.84
				C48.94,76.06,48.71,76.28,48.44,76.28z"/>
		</g>
		<g>
			<g>
				<path class="keyboardsvg0" d="M26.09,76.28c0,0-0.01,0-0.01,0c-0.28-0.01-0.49-0.24-0.49-0.51c0-0.16,0.35-16.21-7.15-18.43
					c-0.26-0.08-0.42-0.36-0.34-0.62c0.08-0.26,0.36-0.42,0.62-0.34c8.23,2.44,7.88,18.73,7.86,19.42
					C26.58,76.07,26.35,76.28,26.09,76.28z"/>
			</g>
			<g>
				<path class="keyboardsvg0" d="M26.08,54.28c-0.28,0-0.5-0.22-0.5-0.5c0-0.17-0.1-17.05-7.61-19.28c-0.26-0.08-0.42-0.36-0.34-0.62
					c0.08-0.26,0.36-0.42,0.62-0.34c8.22,2.44,8.33,19.51,8.33,20.23C26.58,54.06,26.36,54.28,26.08,54.28
					C26.08,54.28,26.08,54.28,26.08,54.28z"/>
			</g>
			<g>
				<path class="keyboardsvg0" d="M26.09,98.2c0,0-0.01,0-0.01,0c-0.28-0.01-0.49-0.24-0.49-0.51c0-0.16,0.35-16.21-7.15-18.43
					c-0.26-0.08-0.42-0.36-0.34-0.62s0.36-0.42,0.62-0.34c8.23,2.44,7.88,18.73,7.86,19.42C26.58,97.99,26.35,98.2,26.09,98.2z"/>
			</g>
			<g>
				<g>
					<path class="keyboardsvg0" d="M45.44,76.28c0,0-0.01,0-0.01,0c-0.28-0.01-0.49-0.24-0.49-0.51c0-0.16,0.35-16.21-7.15-18.43
						c-0.26-0.08-0.42-0.36-0.34-0.62c0.08-0.26,0.36-0.42,0.62-0.34c8.23,2.44,7.88,18.73,7.86,19.42
						C45.93,76.07,45.71,76.28,45.44,76.28z"/>
				</g>
				<g>
					<path class="keyboardsvg0" d="M45.44,54.28c-0.28,0-0.5-0.22-0.5-0.5c0-0.17-0.1-17.05-7.61-19.28c-0.26-0.08-0.42-0.36-0.34-0.62
						c0.08-0.26,0.36-0.42,0.62-0.34c8.22,2.44,8.33,19.51,8.33,20.23C45.94,54.06,45.72,54.28,45.44,54.28
						C45.44,54.28,45.44,54.28,45.44,54.28z"/>
				</g>
				<g>
					<path class="keyboardsvg0" d="M45.44,98.2c0,0-0.01,0-0.01,0c-0.28-0.01-0.49-0.24-0.49-0.51c0-0.16,0.35-16.21-7.15-18.43
						c-0.26-0.08-0.42-0.36-0.34-0.62s0.36-0.42,0.62-0.34c8.23,2.44,7.88,18.73,7.86,19.42C45.93,97.99,45.71,98.2,45.44,98.2z"/>
				</g>
			</g>
			<g>
				<path class="keyboardsvg0" d="M64.8,76.28c0,0-0.01,0-0.01,0c-0.28-0.01-0.49-0.24-0.49-0.51c0-0.16,0.35-16.21-7.15-18.43
					c-0.26-0.08-0.42-0.36-0.34-0.62c0.08-0.26,0.36-0.42,0.62-0.34c8.23,2.44,7.88,18.73,7.86,19.42
					C65.3,76.07,65.07,76.28,64.8,76.28z"/>
			</g>
			<g>
				<path class="keyboardsvg0" d="M64.81,54.28c-0.28,0-0.5-0.22-0.5-0.5c0-0.17-0.1-17.05-7.61-19.28c-0.26-0.08-0.42-0.36-0.34-0.62
					c0.08-0.26,0.36-0.42,0.62-0.34c8.23,2.44,8.33,19.51,8.33,20.23C65.31,54.06,65.08,54.28,64.81,54.28
					C64.81,54.28,64.81,54.28,64.81,54.28z"/>
			</g>
			<g>
				<path class="keyboardsvg0" d="M64.8,98.2c0,0-0.01,0-0.01,0c-0.28-0.01-0.49-0.24-0.49-0.51c0-0.16,0.35-16.21-7.15-18.43
					c-0.26-0.08-0.42-0.36-0.34-0.62c0.08-0.26,0.36-0.42,0.62-0.34c8.23,2.44,7.88,18.73,7.86,19.42
					C65.3,97.99,65.07,98.2,64.8,98.2z"/>
			</g>
			<g>
				<path class="keyboardsvg0" d="M84.17,76.28c0,0-0.01,0-0.01,0c-0.28-0.01-0.49-0.24-0.49-0.51c0-0.16,0.35-16.21-7.15-18.43
					c-0.26-0.08-0.42-0.36-0.34-0.62c0.08-0.26,0.36-0.42,0.62-0.34c8.23,2.44,7.88,18.73,7.86,19.42
					C84.66,76.07,84.44,76.28,84.17,76.28z"/>
			</g>
			<g>
				<path class="keyboardsvg0" d="M84.17,54.28c-0.28,0-0.5-0.22-0.5-0.5c0-0.17-0.1-17.05-7.61-19.28c-0.26-0.08-0.42-0.36-0.34-0.62
					c0.08-0.26,0.36-0.42,0.62-0.34c8.22,2.44,8.33,19.51,8.33,20.23C84.67,54.06,84.45,54.28,84.17,54.28
					C84.17,54.28,84.17,54.28,84.17,54.28z"/>
			</g>
			<g>
				<path class="keyboardsvg0" d="M84.17,98.2c0,0-0.01,0-0.01,0c-0.28-0.01-0.49-0.24-0.49-0.51c0-0.16,0.35-16.21-7.15-18.43
					c-0.26-0.08-0.42-0.36-0.34-0.62c0.08-0.26,0.36-0.42,0.62-0.34c8.23,2.44,7.88,18.73,7.86,19.42
					C84.66,97.99,84.44,98.2,84.17,98.2z"/>
			</g>
			<g>
				<path class="keyboardsvg0" d="M103.53,76.28c0,0-0.01,0-0.01,0c-0.28-0.01-0.49-0.24-0.49-0.51c0-0.16,0.35-16.21-7.15-18.43
					c-0.26-0.08-0.42-0.36-0.34-0.62c0.08-0.26,0.36-0.42,0.62-0.34c8.23,2.44,7.88,18.73,7.86,19.42
					C104.02,76.07,103.8,76.28,103.53,76.28z"/>
			</g>
			<g>
				<path class="keyboardsvg0" d="M103.53,54.28c-0.28,0-0.5-0.22-0.5-0.5c0-0.17-0.1-17.05-7.61-19.28c-0.26-0.08-0.42-0.36-0.34-0.62
					c0.08-0.26,0.36-0.42,0.62-0.34c8.22,2.44,8.33,19.51,8.33,20.23C104.03,54.06,103.81,54.28,103.53,54.28
					C103.53,54.28,103.53,54.28,103.53,54.28z"/>
			</g>
			<g>
				<path class="keyboardsvg0" d="M103.53,98.2c0,0-0.01,0-0.01,0c-0.28-0.01-0.49-0.24-0.49-0.51c0-0.16,0.35-16.21-7.15-18.43
					c-0.26-0.08-0.42-0.36-0.34-0.62c0.08-0.26,0.36-0.42,0.62-0.34c8.23,2.44,7.88,18.73,7.86,19.42
					C104.02,97.99,103.8,98.2,103.53,98.2z"/>
			</g>
		</g>
		<g>
			<g>
				<path class="keyboardsvg0" d="M186.96,76.28c-0.27,0-0.49-0.21-0.5-0.49c-0.02-0.69-0.37-16.98,7.87-19.42c0.26-0.08,0.54,0.07,0.62,0.34
					c0.08,0.27-0.07,0.54-0.34,0.62c-7.5,2.22-7.15,18.27-7.15,18.43c0.01,0.28-0.21,0.51-0.49,0.51
					C186.97,76.28,186.96,76.28,186.96,76.28z"/>
			</g>
			<g>
				<path class="keyboardsvg0" d="M186.96,54.28L186.96,54.28c-0.28,0-0.5-0.22-0.5-0.5c0-0.73,0.1-17.8,8.33-20.23
					c0.26-0.08,0.54,0.07,0.62,0.34c0.08,0.27-0.07,0.54-0.34,0.62c-7.51,2.22-7.61,19.11-7.61,19.28
					C187.46,54.06,187.23,54.28,186.96,54.28z"/>
			</g>
			<g>
				<path class="keyboardsvg0" d="M186.96,98.2c-0.27,0-0.49-0.21-0.5-0.49c-0.02-0.69-0.37-16.98,7.87-19.42c0.26-0.08,0.54,0.07,0.62,0.34
					s-0.07,0.54-0.34,0.62c-7.5,2.22-7.15,18.27-7.15,18.43c0.01,0.28-0.21,0.51-0.49,0.51C186.97,98.2,186.96,98.2,186.96,98.2z"/>
			</g>
			<g>
				<g>
					<path class="keyboardsvg0" d="M167.6,76.28c-0.27,0-0.49-0.21-0.5-0.49c-0.02-0.69-0.37-16.98,7.86-19.42c0.26-0.08,0.54,0.07,0.62,0.34
						c0.08,0.27-0.07,0.54-0.34,0.62c-7.5,2.22-7.15,18.27-7.15,18.43c0.01,0.28-0.21,0.51-0.49,0.51
						C167.61,76.28,167.6,76.28,167.6,76.28z"/>
				</g>
				<g>
					<path class="keyboardsvg0" d="M167.6,54.28L167.6,54.28c-0.28,0-0.5-0.22-0.5-0.5c0-0.73,0.1-17.8,8.33-20.23
						c0.26-0.08,0.54,0.07,0.62,0.34c0.08,0.27-0.07,0.54-0.34,0.62c-7.52,2.23-7.61,19.11-7.61,19.28
						C168.1,54.06,167.88,54.28,167.6,54.28z"/>
				</g>
				<g>
					<path class="keyboardsvg0" d="M167.6,98.2c-0.27,0-0.49-0.21-0.5-0.49c-0.02-0.69-0.37-16.98,7.86-19.42c0.26-0.08,0.54,0.07,0.62,0.34
						s-0.07,0.54-0.34,0.62c-7.5,2.22-7.15,18.27-7.15,18.43c0.01,0.28-0.21,0.51-0.49,0.51C167.61,98.2,167.6,98.2,167.6,98.2z"/>
				</g>
			</g>
			<g>
				<path class="keyboardsvg0" d="M148.24,76.28c-0.27,0-0.49-0.21-0.5-0.49c-0.02-0.69-0.37-16.98,7.86-19.42c0.26-0.08,0.54,0.07,0.62,0.34
					c0.08,0.27-0.07,0.54-0.34,0.62c-7.5,2.22-7.15,18.27-7.15,18.43c0.01,0.28-0.21,0.51-0.49,0.51
					C148.25,76.28,148.24,76.28,148.24,76.28z"/>
			</g>
			<g>
				<path class="keyboardsvg0" d="M148.23,54.28L148.23,54.28c-0.28,0-0.5-0.22-0.5-0.5c0-0.73,0.1-17.8,8.33-20.23
					c0.26-0.08,0.54,0.07,0.62,0.34c0.08,0.27-0.07,0.54-0.34,0.62c-7.52,2.23-7.61,19.11-7.61,19.28
					C148.73,54.06,148.51,54.28,148.23,54.28z"/>
			</g>
			<g>
				<path class="keyboardsvg0" d="M148.24,98.2c-0.27,0-0.49-0.21-0.5-0.49c-0.02-0.69-0.37-16.98,7.86-19.42c0.26-0.08,0.54,0.07,0.62,0.34
					s-0.07,0.54-0.34,0.62c-7.5,2.22-7.15,18.27-7.15,18.43c0.01,0.28-0.21,0.51-0.49,0.51C148.25,98.2,148.24,98.2,148.24,98.2z"/>
			</g>
			<g>
				<path class="keyboardsvg0" d="M128.88,76.28c-0.27,0-0.49-0.21-0.5-0.49c-0.02-0.69-0.37-16.98,7.87-19.42c0.26-0.08,0.54,0.07,0.62,0.34
					c0.08,0.27-0.07,0.54-0.34,0.62c-7.5,2.22-7.15,18.27-7.15,18.43c0.01,0.28-0.21,0.51-0.49,0.51
					C128.88,76.28,128.88,76.28,128.88,76.28z"/>
			</g>
			<g>
				<path class="keyboardsvg0" d="M128.87,54.28L128.87,54.28c-0.28,0-0.5-0.22-0.5-0.5c0-0.73,0.1-17.8,8.33-20.23
					c0.26-0.08,0.54,0.07,0.62,0.34c0.08,0.27-0.07,0.54-0.34,0.62c-7.51,2.22-7.61,19.11-7.61,19.28
					C129.37,54.06,129.15,54.28,128.87,54.28z"/>
			</g>
			<g>
				<path class="keyboardsvg0" d="M128.88,98.2c-0.27,0-0.49-0.21-0.5-0.49c-0.02-0.69-0.37-16.98,7.87-19.42c0.26-0.08,0.54,0.07,0.62,0.34
					s-0.07,0.54-0.34,0.62c-7.5,2.22-7.15,18.27-7.15,18.43c0.01,0.28-0.21,0.51-0.49,0.51C128.88,98.2,128.88,98.2,128.88,98.2z"/>
			</g>
			<g>
				<path class="keyboardsvg0" d="M109.51,76.28c-0.27,0-0.49-0.21-0.5-0.49c-0.02-0.69-0.37-16.98,7.86-19.42c0.26-0.08,0.54,0.07,0.62,0.34
					c0.08,0.27-0.07,0.54-0.34,0.62c-7.5,2.22-7.15,18.27-7.15,18.43c0.01,0.28-0.21,0.51-0.49,0.51
					C109.52,76.28,109.52,76.28,109.51,76.28z"/>
			</g>
			<g>
				<path class="keyboardsvg0" d="M109.51,54.28L109.51,54.28c-0.28,0-0.5-0.22-0.5-0.5c0-0.73,0.1-17.8,8.33-20.23
					c0.26-0.08,0.54,0.07,0.62,0.34c0.08,0.27-0.07,0.54-0.34,0.62c-7.52,2.23-7.61,19.11-7.61,19.28
					C110.01,54.06,109.79,54.28,109.51,54.28z"/>
			</g>
			<g>
				<path class="keyboardsvg0" d="M109.51,98.2c-0.27,0-0.49-0.21-0.5-0.49c-0.02-0.69-0.37-16.98,7.86-19.42c0.26-0.08,0.54,0.07,0.62,0.34
					s-0.07,0.54-0.34,0.62c-7.5,2.22-7.15,18.27-7.15,18.43c0.01,0.28-0.21,0.51-0.49,0.51C109.52,98.2,109.52,98.2,109.51,98.2z"/>
			</g>
		</g>
		<g>
			<path class="keyboardsvg0" d="M67.8,76.28c-0.28,0-0.5-0.22-0.5-0.5V56.94c0-0.28,0.22-0.5,0.5-0.5s0.5,0.22,0.5,0.5v18.84
				C68.3,76.06,68.07,76.28,67.8,76.28z"/>
		</g>
		<g>
			<path class="keyboardsvg0" d="M87.16,76.28c-0.28,0-0.5-0.22-0.5-0.5V56.94c0-0.28,0.22-0.5,0.5-0.5s0.5,0.22,0.5,0.5v18.84
				C87.66,76.06,87.44,76.28,87.16,76.28z"/>
		</g>
		<g>
			<path class="keyboardsvg0" d="M106.52,76.28c-0.28,0-0.5-0.22-0.5-0.5V56.94c0-0.28,0.22-0.5,0.5-0.5s0.5,0.22,0.5,0.5v18.84
				C107.02,76.06,106.8,76.28,106.52,76.28z"/>
		</g>
		<g>
			<path class="keyboardsvg0" d="M125.88,76.28c-0.28,0-0.5-0.22-0.5-0.5V56.94c0-0.28,0.22-0.5,0.5-0.5s0.5,0.22,0.5,0.5v18.84
				C126.38,76.06,126.16,76.28,125.88,76.28z"/>
		</g>
		<g>
			<path class="keyboardsvg0" d="M145.25,76.28c-0.28,0-0.5-0.22-0.5-0.5V56.94c0-0.28,0.22-0.5,0.5-0.5s0.5,0.22,0.5,0.5v18.84
				C145.75,76.06,145.52,76.28,145.25,76.28z"/>
		</g>
		<g>
			<path class="keyboardsvg0" d="M164.61,76.28c-0.28,0-0.5-0.22-0.5-0.5V56.94c0-0.28,0.22-0.5,0.5-0.5s0.5,0.22,0.5,0.5v18.84
				C165.11,76.06,164.88,76.28,164.61,76.28z"/>
		</g>
		<g>
			<path class="keyboardsvg0" d="M183.97,76.28c-0.28,0-0.5-0.22-0.5-0.5V56.94c0-0.28,0.22-0.5,0.5-0.5s0.5,0.22,0.5,0.5v18.84
				C184.47,76.06,184.25,76.28,183.97,76.28z"/>
		</g>
		<g>
			<path class="keyboardsvg0" d="M29.07,98.2c-0.28,0-0.5-0.22-0.5-0.5V78.86c0-0.28,0.22-0.5,0.5-0.5s0.5,0.22,0.5,0.5V97.7
				C29.57,97.98,29.35,98.2,29.07,98.2z"/>
		</g>
		<g>
			<path class="keyboardsvg0" d="M48.44,98.2c-0.28,0-0.5-0.22-0.5-0.5V78.86c0-0.28,0.22-0.5,0.5-0.5s0.5,0.22,0.5,0.5V97.7
				C48.94,97.98,48.71,98.2,48.44,98.2z"/>
		</g>
		<g>
			<g>
				<path class="keyboardsvg0" d="M51.58,118.33c-0.28,0-0.5-0.22-0.5-0.5v-17.14c0-0.28,0.22-0.5,0.5-0.5s0.5,0.22,0.5,0.5v17.14
					C52.08,118.1,51.85,118.33,51.58,118.33z"/>
			</g>
			<g>
				<path class="keyboardsvg0" d="M73.68,118.33c-0.28,0-0.5-0.22-0.5-0.5v-17.14c0-0.28,0.22-0.5,0.5-0.5s0.5,0.22,0.5,0.5v17.14
					C74.18,118.1,73.96,118.33,73.68,118.33z"/>
			</g>
			<g>
				<path class="keyboardsvg0" d="M161.47,118.33c-0.28,0-0.5-0.22-0.5-0.5v-17.14c0-0.28,0.22-0.5,0.5-0.5s0.5,0.22,0.5,0.5v17.14
					C161.97,118.1,161.74,118.33,161.47,118.33z"/>
			</g>
			<g>
				<path class="keyboardsvg0" d="M139.36,118.33c-0.28,0-0.5-0.22-0.5-0.5v-17.14c0-0.28,0.22-0.5,0.5-0.5s0.5,0.22,0.5,0.5v17.14
					C139.86,118.1,139.63,118.33,139.36,118.33z"/>
			</g>
		</g>
		<g>
			<path class="keyboardsvg0" d="M67.8,98.2c-0.28,0-0.5-0.22-0.5-0.5V78.86c0-0.28,0.22-0.5,0.5-0.5s0.5,0.22,0.5,0.5V97.7
				C68.3,97.98,68.07,98.2,67.8,98.2z"/>
		</g>
		<g>
			<path class="keyboardsvg0" d="M87.16,98.2c-0.28,0-0.5-0.22-0.5-0.5V78.86c0-0.28,0.22-0.5,0.5-0.5s0.5,0.22,0.5,0.5V97.7
				C87.66,97.98,87.44,98.2,87.16,98.2z"/>
		</g>
		<g>
			<path class="keyboardsvg0" d="M106.52,98.2c-0.28,0-0.5-0.22-0.5-0.5V78.86c0-0.28,0.22-0.5,0.5-0.5s0.5,0.22,0.5,0.5V97.7
				C107.02,97.98,106.8,98.2,106.52,98.2z"/>
		</g>
		<g>
			<path class="keyboardsvg0" d="M125.88,98.2c-0.28,0-0.5-0.22-0.5-0.5V78.86c0-0.28,0.22-0.5,0.5-0.5s0.5,0.22,0.5,0.5V97.7
				C126.38,97.98,126.16,98.2,125.88,98.2z"/>
		</g>
		<g>
			<path class="keyboardsvg0" d="M145.25,98.2c-0.28,0-0.5-0.22-0.5-0.5V78.86c0-0.28,0.22-0.5,0.5-0.5s0.5,0.22,0.5,0.5V97.7
				C145.75,97.98,145.52,98.2,145.25,98.2z"/>
		</g>
		<g>
			<path class="keyboardsvg0" d="M164.61,98.2c-0.28,0-0.5-0.22-0.5-0.5V78.86c0-0.28,0.22-0.5,0.5-0.5s0.5,0.22,0.5,0.5V97.7
				C165.11,97.98,164.88,98.2,164.61,98.2z"/>
		</g>
		<g>
			<path class="keyboardsvg0" d="M183.97,98.2c-0.28,0-0.5-0.22-0.5-0.5V78.86c0-0.28,0.22-0.5,0.5-0.5s0.5,0.22,0.5,0.5V97.7
				C184.47,97.98,184.25,98.2,183.97,98.2z"/>
		</g>
		<g>
			<path class="keyboardsvg0" d="M110.73,29.08h-9.15c-2.82,0-5.11-2.29-5.11-5.11v-9.88c0-2.82,2.29-5.11,5.11-5.11h9.15
				c2.82,0,5.11,2.29,5.11,5.11v9.88C115.83,26.79,113.54,29.08,110.73,29.08z M101.57,9.99c-2.26,0-4.11,1.84-4.11,4.11v9.88
				c0,2.26,1.84,4.11,4.11,4.11h9.15c2.26,0,4.11-1.84,4.11-4.11v-9.88c0-2.26-1.84-4.11-4.11-4.11H101.57z"/>
		</g>
		<g>
			<path class="keyboardsvg0" d="M110.47,26.59h-8.65c-1.64,0-2.97-1.33-2.97-2.97v-9.18c0-1.64,1.33-2.97,2.97-2.97h8.65
				c1.64,0,2.97,1.33,2.97,2.97v9.18C113.44,25.26,112.11,26.59,110.47,26.59z M101.82,12.47c-1.09,0-1.97,0.88-1.97,1.97v9.18
				c0,1.09,0.88,1.97,1.97,1.97h8.65c1.09,0,1.97-0.88,1.97-1.97v-9.18c0-1.09-0.88-1.97-1.97-1.97H101.82z"/>
		</g>
		<g>
			<path class="keyboardsvg0" d="M70.78,118.33c-0.01,0-0.01,0-0.02,0c-0.28-0.01-0.49-0.24-0.48-0.52c0-0.14,0.35-14.42-7.15-16.64
				c-0.26-0.08-0.42-0.36-0.34-0.62s0.36-0.42,0.62-0.34c8.24,2.44,7.88,17.01,7.86,17.63C71.27,118.11,71.05,118.33,70.78,118.33z"
				/>
		</g>
		<g>
			<path class="keyboardsvg0" d="M48.86,118.33c-0.01,0-0.01,0-0.02,0c-0.28-0.01-0.49-0.24-0.48-0.52c0-0.14,0.35-14.42-7.15-16.64
				c-0.26-0.08-0.42-0.36-0.34-0.62c0.08-0.26,0.36-0.42,0.62-0.34c8.24,2.44,7.88,17.01,7.86,17.63
				C49.36,118.11,49.13,118.33,48.86,118.33z"/>
		</g>
		<g>
			<g>
				<path class="keyboardsvg0" d="M142.01,118.33c-0.27,0-0.49-0.21-0.5-0.48c-0.02-0.62-0.37-15.2,7.86-17.63c0.26-0.08,0.54,0.07,0.62,0.34
					s-0.07,0.54-0.34,0.62c-7.5,2.22-7.15,16.5-7.15,16.64c0.01,0.28-0.21,0.51-0.48,0.52
					C142.01,118.33,142.01,118.33,142.01,118.33z"/>
			</g>
			<g>
				<path class="keyboardsvg0" d="M163.92,118.33c-0.27,0-0.49-0.21-0.5-0.48c-0.02-0.62-0.37-15.2,7.86-17.63c0.26-0.08,0.54,0.07,0.62,0.34
					s-0.07,0.54-0.34,0.62c-7.5,2.22-7.15,16.5-7.15,16.64c0.01,0.28-0.21,0.51-0.48,0.52
					C163.93,118.33,163.93,118.33,163.92,118.33z"/>
			</g>
		</g>
		<g>
			<g>
				<path class="keyboardsvg0" d="M20.86,46.61c0,1.72-0.99,3.24-2.98,3.24c-1.88,0-2.91-1.42-2.91-3.2c0-1.79,1.07-3.2,2.98-3.2
					C19.74,43.44,20.86,44.75,20.86,46.61z M15.95,46.62c0,1.32,0.67,2.45,1.97,2.45c1.41,0,1.97-1.16,1.97-2.45
					c0-1.31-0.63-2.41-1.97-2.41C16.55,44.22,15.95,45.31,15.95,46.62z M19.44,48.98l1.84,1.28l-0.56,0.64l-2.14-1.49L19.44,48.98z"
					/>
			</g>
			<g>
				<path class="keyboardsvg0" d="M34.79,49.76l-1.67-6.23h0.99c0.51,2.2,1.11,4.53,1.22,5.23h0.01c0.18-0.87,0.99-3.66,1.4-5.23h0.89
					c0.37,1.35,1.18,4.38,1.34,5.19h0.01c0.2-1.13,1.03-3.97,1.36-5.19h0.92l-1.81,6.23h-0.99c-0.37-1.42-1.13-4.21-1.3-5.02h-0.01
					c-0.2,0.96-0.96,3.62-1.35,5.02H34.79z"/>
			</g>
			<g>
				<path class="keyboardsvg0" d="M58.83,46.89h-3.11v2.09h3.41l-0.12,0.78h-4.21v-6.23h4.17v0.78h-3.25v1.79h3.11V46.89z"/>
			</g>
			<g>
				<path class="keyboardsvg0" d="M74.75,47.06v2.7h-0.92v-6.23h2.52c1.31,0,2.01,0.7,2.01,1.67c0,0.81-0.47,1.3-1.04,1.47
					c0.48,0.13,0.93,0.5,0.93,1.59v0.27c0,0.43-0.02,0.96,0.09,1.22h-0.9c-0.11-0.27-0.11-0.75-0.11-1.35v-0.12
					c0-0.85-0.24-1.22-1.34-1.22H74.75z M74.75,46.29h1.33c0.92,0,1.32-0.34,1.32-1.01c0-0.63-0.42-0.99-1.24-0.99h-1.41V46.29z"/>
			</g>
			<g>
				<path class="keyboardsvg0" d="M94.62,44.31h-2.01v-0.78h4.96v0.78h-2.01v5.45h-0.94V44.31z"/>
			</g>
		</g>
		<g>
			<g>
				<path class="keyboardsvg0" d="M16.24,69.89l-0.64,1.79h-0.93l2.22-6.23h1.16l2.32,6.23h-0.99l-0.66-1.79H16.24z M18.48,69.1
					c-0.57-1.58-0.89-2.44-1.03-2.93h-0.01c-0.15,0.54-0.51,1.58-0.97,2.93H18.48z"/>
			</g>
			<g>
				<path class="keyboardsvg0" d="M35.46,69.92c0.17,0.72,0.67,1.1,1.55,1.1c0.93,0,1.31-0.42,1.31-0.99c0-0.6-0.31-0.93-1.54-1.22
					c-1.53-0.36-2.02-0.89-2.02-1.76c0-0.96,0.71-1.71,2.13-1.71c1.53,0,2.16,0.86,2.24,1.7h-0.95c-0.1-0.52-0.43-0.97-1.33-0.97
					c-0.73,0-1.14,0.32-1.14,0.88c0,0.56,0.34,0.78,1.43,1.03c1.8,0.43,2.13,1.12,2.13,1.93c0,1.03-0.77,1.82-2.34,1.82
					c-1.59,0-2.3-0.84-2.43-1.83H35.46z"/>
			</g>
			<g>
				<path class="keyboardsvg0" d="M54.05,65.44h2.3c1.78,0,2.98,1.19,2.98,3.05c0,1.84-1.17,3.18-3.01,3.18h-2.26V65.44z M54.98,70.9h1.26
					c1.43,0,2.1-1.02,2.1-2.39c0-1.19-0.62-2.29-2.1-2.29h-1.27V70.9z"/>
			</g>
			<g>
				<path class="keyboardsvg0" d="M74.19,65.44h4.11v0.78H75.1v1.93h2.99v0.78H75.1v2.74h-0.92V65.44z"/>
			</g>
			<g>
				<path class="keyboardsvg0" d="M98.2,71.67h-0.71c-0.04-0.13-0.07-0.4-0.08-0.8c-0.29,0.45-0.84,0.89-1.93,0.89
					c-1.82,0-2.79-1.36-2.79-3.14c0-1.87,1.05-3.27,2.96-3.27c1.49,0,2.42,0.81,2.59,1.91h-0.93c-0.2-0.64-0.67-1.15-1.68-1.15
					c-1.43,0-1.97,1.14-1.97,2.47c0,1.24,0.55,2.41,1.94,2.41c1.36,0,1.69-0.9,1.69-1.86v-0.06h-1.7v-0.78h2.61V71.67z"/>
			</g>
		</g>
		<g>
			<g>
				<path class="keyboardsvg0" d="M34.7,93.89l3.76-4.75h-3.57v-0.78h4.65v0.76l-3.69,4.68h3.82l-0.13,0.78H34.7V93.89z"/>
			</g>
			<g>
				<path class="keyboardsvg0" d="M57.95,94.59l-1.62-2.49h-0.01l-1.62,2.49h-1.03l2.12-3.15l-2.05-3.08h1.09l1.53,2.36h0.01l1.57-2.36h1.02
					l-2.07,3l2.15,3.23H57.95z"/>
			</g>
			<g>
				<path class="keyboardsvg0" d="M79.25,92.79c-0.27,1.08-1.09,1.88-2.54,1.88c-1.9,0-2.85-1.41-2.85-3.17c0-1.7,0.95-3.23,2.89-3.23
					c1.52,0,2.33,0.86,2.51,1.9h-0.93c-0.21-0.64-0.64-1.15-1.61-1.15c-1.34,0-1.88,1.2-1.88,2.44c0,1.19,0.51,2.44,1.92,2.44
					c0.95,0,1.35-0.56,1.57-1.12H79.25z"/>
			</g>
			<g>
				<path class="keyboardsvg0" d="M94.73,94.59l-2.28-6.23h1l1.08,3.06c0.32,0.91,0.62,1.79,0.76,2.37h0.02c0.13-0.52,0.47-1.45,0.79-2.35
					l1.12-3.09h0.96l-2.35,6.23H94.73z"/>
			</g>
		</g>
		<g>
			<g>
				<path class="keyboardsvg0" d="M116.84,49.94v-2.27c0-0.06-0.01-0.12-0.04-0.17l-2.21-3.79h1.06c0.56,1,1.41,2.54,1.71,3.11
					c0.27-0.56,1.16-2.12,1.74-3.11h0.99l-2.27,3.8c-0.02,0.04-0.04,0.07-0.04,0.17v2.27H116.84z"/>
			</g>
			<g>
				<path class="keyboardsvg0" d="M135.48,43.71v3.74c0,1.42,0.78,1.81,1.56,1.81c0.91,0,1.54-0.43,1.54-1.81v-3.74h0.94v3.69
					c0,2.04-1.15,2.61-2.5,2.61c-1.33,0-2.49-0.62-2.49-2.56v-3.75H135.48z"/>
			</g>
			<g>
				<path class="keyboardsvg0" d="M156.82,43.71v6.23h-0.93v-6.23H156.82z"/>
			</g>
			<g>
				<path class="keyboardsvg0" d="M178.76,46.79c0,1.72-0.99,3.24-2.98,3.24c-1.87,0-2.91-1.42-2.91-3.2c0-1.79,1.07-3.2,2.98-3.2
					C177.64,43.62,178.76,44.93,178.76,46.79z M173.84,46.8c0,1.32,0.67,2.45,1.97,2.45c1.41,0,1.97-1.16,1.97-2.45
					c0-1.31-0.63-2.41-1.97-2.41C174.44,44.4,173.84,45.49,173.84,46.8z"/>
			</g>
			<g>
				<path class="keyboardsvg0" d="M193.8,43.71h2.43c1.25,0,2.1,0.69,2.1,1.83c0,1.24-0.91,1.88-2.14,1.88h-1.44v2.52h-0.94V43.71z
					 M194.74,46.66h1.38c0.82,0,1.25-0.38,1.25-1.09c0-0.74-0.51-1.09-1.22-1.09h-1.41V46.66z"/>
			</g>
		</g>
		<g>
			<g>
				<path class="keyboardsvg0" d="M115.46,65.36h0.93v2.57h3.14v-2.57h0.93v6.23h-0.93v-2.88h-3.14v2.88h-0.93V65.36z"/>
			</g>
			<g>
				<path class="keyboardsvg0" d="M137.53,69.73c0,1.41-0.54,1.94-1.66,1.94c-0.25,0-0.51-0.02-0.7-0.07v-0.76c0.12,0.02,0.39,0.04,0.59,0.04
					c0.73,0,0.83-0.53,0.83-1.11v-4.42h0.93V69.73z"/>
			</g>
			<g>
				<path class="keyboardsvg0" d="M153.87,65.36h0.93v3c0.46-0.48,2-2.02,2.95-3h1.15l-2.67,2.62l2.8,3.61h-1.13l-2.32-3.01l-0.78,0.7v2.31
					h-0.93V65.36z"/>
			</g>
			<g>
				<path class="keyboardsvg0" d="M174.56,65.36h0.93v5.45h3.25l-0.12,0.78h-4.06V65.36z"/>
			</g>
		</g>
		<g>
			<g>
				<path class="keyboardsvg0" d="M115.46,87.57h2.48c1.37,0,1.98,0.71,1.98,1.56c0,0.72-0.41,1.19-0.88,1.36c0.44,0.14,1.09,0.58,1.09,1.48
					c0,1.15-0.89,1.83-2.11,1.83h-2.54V87.57z M117.77,90.14c0.86,0,1.2-0.34,1.2-0.92c0-0.53-0.39-0.9-1.09-0.9h-1.51v1.81H117.77z
					 M116.37,93.05h1.49c0.78,0,1.29-0.36,1.29-1.09c0-0.64-0.42-1.07-1.42-1.07h-1.36V93.05z"/>
			</g>
			<g>
				<path class="keyboardsvg0" d="M135.12,93.8v-6.23h1.21c0.88,1.45,2.75,4.43,3.09,5.11h0.01c-0.06-0.77-0.06-1.77-0.06-2.79v-2.32h0.87
					v6.23h-1.14c-0.8-1.33-2.77-4.58-3.15-5.28h-0.01C136,89.2,136,90.3,136,91.42v2.38H135.12z"/>
			</g>
			<g>
				<path class="keyboardsvg0" d="M159.05,91.21c0-1.14,0.01-2.32,0.04-2.98h-0.04c-0.27,1.06-1.22,3.62-1.92,5.58h-0.83
					c-0.53-1.61-1.51-4.49-1.79-5.59h-0.03c0.05,0.72,0.07,2.09,0.07,3.15v2.44h-0.87v-6.23h1.39c0.67,1.88,1.48,4.28,1.7,5.1h0.01
					c0.15-0.64,1.12-3.27,1.82-5.1h1.35v6.23h-0.91V91.21z"/>
			</g>
			<g>
				<path class="keyboardsvg0" d="M174.65,92.26c0.13,0.61,0.62,0.92,1.22,0.92c0.77,0,1.16-0.31,1.16-0.91c0-0.52-0.26-0.84-1.25-1.11
					c-1.39-0.39-1.89-0.85-1.89-1.72c0-0.98,0.83-1.6,1.9-1.6c1.48,0,1.94,0.86,2.01,1.49h-0.87c-0.11-0.41-0.37-0.82-1.15-0.82
					c-0.75,0-1.01,0.39-1.01,0.83c0,0.5,0.26,0.77,1.26,1.03c1.47,0.39,1.9,0.99,1.9,1.81c0,1.1-0.81,1.7-2.1,1.69
					c-1.25,0-1.97-0.68-2.08-1.6H174.65z M175.59,94.67v-7.42h0.54v7.42H175.59z"/>
			</g>
		</g>
		<g>
			<g>
				<path class="keyboardsvg0" d="M12.34,39.43h3.28v0.55h-3.28V39.43z M13.76,36.63h0.5l-1.14,4.7h-0.52L13.76,36.63z M12.68,37.84h3.26
					l0,0.55h-3.26V37.84z M15.17,36.63h0.5l-1.14,4.7h-0.52L15.17,36.63z"/>
			</g>
			<g>
				<path class="keyboardsvg0" d="M32.28,41.34v-3.78c-0.23,0.15-0.68,0.32-0.94,0.36v-0.54c0.37-0.09,0.82-0.35,1.13-0.65h0.51v4.61H32.28z"
					/>
			</g>
			<g>
				<path class="keyboardsvg0" d="M50.51,41.34v-0.04c0-0.69,0.43-1.37,1.39-2.09c0.73-0.54,0.93-0.72,0.93-1.21c0-0.45-0.24-0.77-0.76-0.77
					c-0.54,0-0.79,0.29-0.88,0.82h-0.68c0.08-0.78,0.58-1.38,1.55-1.38c1.07,0,1.47,0.67,1.47,1.32c0,0.69-0.3,0.97-1.15,1.61
					c-0.63,0.47-0.94,0.82-1.05,1.14h2.39l-0.1,0.6H50.51z"/>
			</g>
			<g>
				<path class="keyboardsvg0" d="M69.84,37.86c0.07-0.57,0.48-1.19,1.5-1.19c0.98,0,1.43,0.58,1.43,1.2c0,0.56-0.33,0.84-0.61,0.95v0.02
					c0.39,0.13,0.8,0.46,0.8,1.15c0,0.72-0.45,1.44-1.63,1.44c-1.1,0-1.54-0.68-1.61-1.29h0.68c0.09,0.39,0.38,0.73,0.95,0.73
					c0.63,0,0.89-0.41,0.89-0.89c0-0.57-0.35-0.85-0.96-0.85h-0.35v-0.55h0.29c0.58,0,0.83-0.22,0.83-0.68
					c0-0.4-0.26-0.67-0.75-0.67c-0.54,0-0.73,0.29-0.81,0.63H69.84z"/>
			</g>
			<g>
				<path class="keyboardsvg0" d="M91.96,36.22c-0.61,0.79-1.11,1.83-1.11,3.12c0,1.18,0.41,2.28,1.11,3.2h-0.69
					c-0.54-0.72-1.05-1.81-1.05-3.21c0-1.38,0.53-2.42,1.05-3.11H91.96z"/>
			</g>
			<g>
				<path class="keyboardsvg0" d="M120.97,42.54c0.61-0.79,1.11-1.83,1.11-3.12c0-1.18-0.41-2.28-1.11-3.2h0.69
					c0.54,0.72,1.05,1.81,1.05,3.21c0,1.38-0.53,2.42-1.05,3.11H120.97z"/>
			</g>
			<g>
				<path class="keyboardsvg0" d="M142.14,41.42v0.79h-3.52v-0.79H142.14z"/>
			</g>
			<g>
				<path class="keyboardsvg0" d="M160.59,38.92v0.75h-1.74v-0.75H160.59z"/>
			</g>
			<g>
				<path class="keyboardsvg0" d="M179.63,37.63v1.64h1.59v0.42h-1.59v1.65h-0.45v-1.65h-1.59v-0.42h1.59v-1.64H179.63z"/>
			</g>
			<g>
				<path class="keyboardsvg0" d="M199.7,41.78c-0.39,0.2-0.78,0.28-1.25,0.28c-1.15,0-2.13-0.84-2.13-2.18c0-1.44,1.01-2.68,2.57-2.68
					c1.22,0,2.05,0.85,2.05,2.02c0,1.05-0.59,1.66-1.25,1.66c-0.28,0-0.54-0.19-0.52-0.61h-0.03c-0.25,0.41-0.57,0.61-0.99,0.61
					c-0.41,0-0.76-0.33-0.76-0.88c0-0.86,0.69-1.65,1.67-1.65c0.3,0,0.57,0.06,0.75,0.15l-0.24,1.26c-0.11,0.53-0.02,0.77,0.21,0.78
					c0.36,0.01,0.76-0.47,0.76-1.28c0-1.01-0.61-1.74-1.7-1.74c-1.15,0-2.11,0.9-2.11,2.32c0,1.17,0.77,1.88,1.81,1.88
					c0.4,0,0.77-0.08,1.06-0.24L199.7,41.78z M199.32,38.77c-0.07-0.02-0.19-0.05-0.35-0.05c-0.62,0-1.12,0.58-1.12,1.26
					c0,0.31,0.15,0.53,0.46,0.53c0.41,0,0.78-0.52,0.86-0.95L199.32,38.77z"/>
			</g>
			<g>
				<path class="keyboardsvg0" d="M13.75,59.4l-0.1,1.04l0.8-0.65l0.3,0.49l-1,0.44l0.99,0.45l-0.29,0.49l-0.81-0.66l0.11,1.05H13.2l0.1-1.05
					l-0.8,0.66l-0.29-0.49l0.99-0.45l-1-0.44l0.29-0.49l0.79,0.65L13.2,59.4H13.75z"/>
			</g>
			<g>
				<path class="keyboardsvg0" d="M32.83,64.25V63.1h-2.16v-0.61l2.07-2.82h0.74v2.86h0.59l-0.07,0.58h-0.52v1.15H32.83z M32.83,61.42
					c0-0.38,0-0.8,0.02-1.1c-0.19,0.36-1.03,1.52-1.52,2.19h1.5V61.42z"/>
			</g>
			<g>
				<path class="keyboardsvg0" d="M53.17,60.25h-1.92c-0.04,0.35-0.15,0.99-0.19,1.23c0.19-0.2,0.49-0.35,0.94-0.35c0.86,0,1.4,0.6,1.4,1.52
					c0,0.89-0.48,1.68-1.62,1.68c-0.84,0-1.46-0.46-1.57-1.24h0.7c0.1,0.4,0.39,0.69,0.9,0.69c0.6,0,0.9-0.43,0.9-1.07
					c0-0.57-0.23-1-0.86-1c-0.54,0-0.75,0.22-0.91,0.57l-0.64-0.11c0.13-0.6,0.32-1.92,0.39-2.51h2.59L53.17,60.25z"/>
			</g>
			<g>
				<path class="keyboardsvg0" d="M72.05,60.68c-0.08-0.31-0.28-0.56-0.74-0.56c-0.75,0-0.99,0.7-1.01,1.6c0.19-0.31,0.53-0.6,1.15-0.6
					c0.89,0,1.43,0.64,1.43,1.53c0,0.92-0.55,1.68-1.59,1.68c-1.29,0-1.68-1.03-1.68-2.32c0-1.25,0.42-2.44,1.73-2.44
					c0.96,0,1.34,0.61,1.4,1.11H72.05z M72.17,62.71c0-0.5-0.19-1.02-0.88-1.02c-0.55,0-0.93,0.34-0.93,1.01
					c0,0.38,0.19,1.07,0.91,1.07C71.91,63.77,72.17,63.26,72.17,62.71z"/>
			</g>
			<g>
				<path class="keyboardsvg0" d="M89.98,64.61l1.97-5.27h0.61l-1.96,5.27H89.98z"/>
			</g>
			<g>
				<path class="keyboardsvg0" d="M121.87,61.75v-1.04h0.71v1.04H121.87z M121.87,64.25v-1.04h0.71v1.04H121.87z"/>
			</g>
			<g>
				<path class="keyboardsvg0" d="M140.73,65.05c0.32-0.67,0.47-1.34,0.5-1.87h0.7c-0.05,0.73-0.36,1.48-0.65,1.87H140.73z M141.21,61.78
					v-1.07h0.72v1.07H141.21z"/>
			</g>
			<g>
				<path class="keyboardsvg0" d="M160.18,61.02c0.19-0.61,0.31-1.42,0.33-1.88h0.72c-0.04,0.6-0.25,1.42-0.48,1.88H160.18z"/>
			</g>
			<g>
				<path class="keyboardsvg0" d="M178.24,61.02c0.2-0.63,0.31-1.38,0.32-1.88h0.7c-0.03,0.63-0.29,1.48-0.48,1.88H178.24z M179.52,61.02
					c0.19-0.62,0.31-1.41,0.32-1.88h0.7c-0.03,0.58-0.26,1.44-0.48,1.88H179.52z"/>
			</g>
			<g>
				<path class="keyboardsvg0" d="M34.52,81.58v0.55c-0.79,1.07-1.54,2.69-1.76,4.04h-0.72c0.21-1.31,1.03-3.06,1.76-4h-2.35v-0.59H34.52z"/>
			</g>
			<g>
				<path class="keyboardsvg0" d="M50.53,84.86c0-0.64,0.44-1.01,0.82-1.16c-0.39-0.2-0.63-0.51-0.63-0.97c0-0.72,0.52-1.24,1.49-1.24
					c0.89,0,1.44,0.5,1.44,1.23c0,0.5-0.27,0.81-0.63,0.95c0.42,0.14,0.81,0.56,0.81,1.17c0,0.89-0.7,1.41-1.68,1.41
					C51.24,86.25,50.53,85.73,50.53,84.86z M53.12,84.83c0-0.56-0.36-0.85-0.94-0.85c-0.65,0-0.95,0.36-0.95,0.84
					c0,0.49,0.35,0.86,0.95,0.86C52.74,85.69,53.12,85.4,53.12,84.83z M51.4,82.74c0,0.37,0.25,0.68,0.8,0.68
					c0.53,0,0.77-0.24,0.77-0.66c0-0.39-0.25-0.71-0.78-0.71C51.63,82.05,51.4,82.33,51.4,82.74z"/>
			</g>
			<g>
				<path class="keyboardsvg0" d="M70.73,85.13c0.12,0.35,0.35,0.55,0.79,0.55c0.85,0,0.93-1.13,0.95-1.69c-0.21,0.36-0.61,0.52-1.08,0.52
					c-0.89,0-1.43-0.63-1.43-1.46c0-0.85,0.58-1.55,1.58-1.55c1.18,0,1.62,0.92,1.62,2.12c0,1.22-0.27,2.63-1.67,2.63
					c-0.96,0-1.36-0.56-1.47-1.11H70.73z M70.67,83.01c0,0.57,0.33,0.93,0.85,0.93c0.6,0,0.89-0.31,0.89-0.9
					c0-0.29-0.11-0.98-0.87-0.98C70.94,82.06,70.67,82.48,70.67,83.01z"/>
			</g>
			<g>
				<path class="keyboardsvg0" d="M89.44,84.69v-0.11c0-0.39,0.13-0.74,0.68-1.22c0.38-0.34,0.45-0.6,0.45-0.88c0-0.32-0.2-0.68-0.7-0.68
					c-0.5,0-0.72,0.31-0.79,0.76H88.4c0.03-0.46,0.33-1.32,1.48-1.32c1.05,0,1.39,0.72,1.39,1.25c0,0.48-0.16,0.79-0.67,1.26
					c-0.34,0.31-0.45,0.55-0.45,0.87v0.06H89.44z M89.44,86.17v-1h0.71v1H89.44z"/>
			</g>
			<g>
				<path class="keyboardsvg0" d="M121.02,84.51l-0.09-2.34v-0.85h0.74v0.85l-0.08,2.34H121.02z M120.95,86.17v-1h0.68v1H120.95z"/>
			</g>
			<g>
				<path class="keyboardsvg0" d="M140.71,85.97c0.38-0.81,0.47-1.42,0.51-1.87h0.7c-0.06,0.64-0.29,1.37-0.65,1.87H140.71z"/>
			</g>
			<g>
				<path class="keyboardsvg0" d="M160.12,85.17V84.1h0.73v1.07H160.12z"/>
			</g>
		</g>
		<g>
			<polygon class="keyboardsvg0" points="115.83,111.43 96.46,111.43 96.46,107.92 97.46,107.92 97.46,110.43 114.83,110.43 114.83,107.92 
				115.83,107.92 			"/>
		</g>
		<g>
			<path class="keyboardsvg0" d="M41.92,112.03h-3.96v-2.27h-1.99l3.98-6.81l3.98,6.81h-1.99V112.03z M38.96,111.03h1.96v-2.27h1.25
				l-2.23-3.82l-2.23,3.82h1.25V111.03z"/>
		</g>
		<g>
			<path class="keyboardsvg0" d="M174.42,112.03h-3.96v-2.27h-2l3.98-6.81l3.98,6.81h-1.99V112.03z M171.45,111.03h1.96v-2.27h1.25
				l-2.23-3.82l-2.23,3.82h1.25V111.03z"/>
		</g>
		<g>
			<g>
				<path class="keyboardsvg0" d="M57.45,105.88c0,1.16-0.34,2.41-1.65,2.41c-1.28,0-1.65-1.18-1.65-2.38c0-1.19,0.4-2.38,1.67-2.38
					C57.07,103.53,57.45,104.68,57.45,105.88z M54.88,105.91c0,0.87,0.14,1.81,0.93,1.81c0.79,0,0.92-0.89,0.92-1.84
					c0-0.89-0.14-1.78-0.9-1.78C55.05,104.1,54.88,104.9,54.88,105.91z"/>
			</g>
		</g>
		<g>
			<path class="keyboardsvg0" d="M15.93,90.67c0,0.33,0.03,0.7,0.05,0.8h-0.66c-0.03-0.08-0.05-0.25-0.06-0.44c-0.13,0.23-0.4,0.53-1.09,0.53
				c-0.85,0-1.21-0.55-1.21-1.09c0-0.8,0.63-1.16,1.7-1.16c0.24,0,0.46,0,0.59,0v-0.29c0-0.3-0.1-0.66-0.73-0.66
				c-0.56,0-0.66,0.27-0.73,0.54h-0.67c0.05-0.52,0.37-1.07,1.42-1.07c0.89,0,1.39,0.36,1.39,1.17V90.67z M15.25,89.76
				c-0.11,0-0.37,0-0.55,0c-0.69,0-1.04,0.19-1.04,0.66c0,0.35,0.24,0.61,0.66,0.61c0.82,0,0.93-0.55,0.93-1.16V89.76z"/>
			<path class="keyboardsvg0" d="M16.96,91.47v-5.11h0.69v5.11H16.96z"/>
			<path class="keyboardsvg0" d="M18.26,87.92h0.61v-1.03h0.69v1.03h0.77v0.55h-0.77v2.02c0,0.33,0.08,0.49,0.4,0.49c0.08,0,0.2,0,0.3-0.03
				v0.5c-0.16,0.06-0.38,0.07-0.56,0.07c-0.59,0-0.83-0.3-0.83-0.9v-2.15h-0.61V87.92z"/>
		</g>
		<g>
			<path class="keyboardsvg0" d="M146.65,110.5c0.1,0.37,0.38,0.58,0.84,0.58c0.5,0,0.69-0.21,0.69-0.51c0-0.31-0.16-0.45-0.81-0.61
				c-1.05-0.25-1.26-0.57-1.26-1.06c0-0.51,0.37-1.01,1.33-1.01c0.96,0,1.33,0.54,1.38,1.03h-0.67c-0.05-0.21-0.21-0.52-0.74-0.52
				c-0.47,0-0.61,0.22-0.61,0.44c0,0.25,0.14,0.37,0.78,0.52c1.11,0.26,1.32,0.63,1.32,1.15c0,0.62-0.49,1.09-1.42,1.09
				c-0.96,0-1.42-0.48-1.5-1.11H146.65z"/>
			<path class="keyboardsvg0" d="M149.98,107.98c0.54,1.61,0.86,2.58,0.95,2.93h0.01c0.11-0.39,0.36-1.2,0.91-2.93h0.7l-1.27,3.7
				c-0.36,1.04-0.63,1.31-1.39,1.31c-0.11,0-0.26-0.01-0.4-0.02v-0.58c0.09,0.01,0.19,0.02,0.29,0.02c0.44,0,0.61-0.18,0.81-0.74
				l-1.34-3.68H149.98z"/>
			<path class="keyboardsvg0" d="M153.17,108.89c0-0.31,0-0.62-0.01-0.92h0.67c0.01,0.1,0.03,0.35,0.03,0.52c0.17-0.31,0.48-0.61,1.04-0.61
				c0.51,0,0.85,0.26,0.98,0.62c0.2-0.33,0.53-0.62,1.14-0.62c0.59,0,1.13,0.35,1.13,1.3v2.33h-0.68v-2.25
				c0-0.39-0.14-0.81-0.67-0.81c-0.55,0-0.79,0.41-0.79,1.02v2.04h-0.68v-2.23c0-0.44-0.12-0.82-0.66-0.82
				c-0.54,0-0.8,0.42-0.8,1.08v1.97h-0.69V108.89z"/>
		</g>
		<g>
			<path class="keyboardsvg0" d="M31.49,21.28h-6.12c-2.09,0-3.78-1.7-3.78-3.78h1.5c0,1.26,1.02,2.28,2.28,2.28h6.12
				c1.26,0,2.28-1.02,2.28-2.28h1.5C35.27,19.59,33.58,21.28,31.49,21.28z"/>
		</g>
		<g>
			<path class="keyboardsvg0" d="M190.68,20.53h-1.5c0-1.26-1.02-2.28-2.28-2.28h-6.12c-1.26,0-2.28,1.02-2.28,2.28h-1.5
				c0-2.09,1.7-3.78,3.78-3.78h6.12C188.98,16.75,190.68,18.45,190.68,20.53z"/>
		</g>
		<g>
			<rect x="180.77" y="19.74" class="keyboardsvg0" width="6.12" height="1.5"/>
		</g>
		<g>
			<g>
				<path class="keyboardsvg0" d="M146.52,23.08h-6.27v-1.5h6.27c1.24,0,2.24-1.01,2.24-2.24s-1.01-2.24-2.24-2.24h-1.8v-1.5h1.8
					c2.06,0,3.74,1.68,3.74,3.74S148.58,23.08,146.52,23.08z"/>
			</g>
			<g>
				<g>
					<polygon class="keyboardsvg0" points="145.23,18.07 142.25,16.35 145.23,14.63 					"/>
				</g>
			</g>
		</g>
		<g>
			<g>
				<path class="keyboardsvg0" d="M197,92.81h-2.46v-1.5H197c0.87,0,1.57-0.71,1.57-1.57v-3.66h1.5v3.66C200.07,91.44,198.69,92.81,197,92.81
					z"/>
			</g>
			<g>
				<g>
					<polygon class="keyboardsvg0" points="195.04,93.78 192.06,92.06 195.04,90.34 					"/>
				</g>
			</g>
		</g>
		<g>
			<path class="keyboardsvg0" d="M64.92,17.24h-2.09l0.7-1.92h1.38c0.46,0,0.84,0.43,0.84,0.96v0C65.75,16.81,65.38,17.24,64.92,17.24z"/>
		</g>
		<g>
			<path class="keyboardsvg0" d="M64.37,19.98h-2.09l0.7-1.92h1.38c0.46,0,0.84,0.43,0.84,0.96v0C65.21,19.55,64.84,19.98,64.37,19.98z"/>
		</g>
		<g>
			<path class="keyboardsvg0" d="M68.9,17.24h-2.09l0.7-1.92h1.38c0.46,0,0.84,0.43,0.84,0.96v0C69.74,16.81,69.36,17.24,68.9,17.24z"/>
		</g>
		<g>
			<path class="keyboardsvg0" d="M71.89,19.23H69.8l0.7-1.92h1.38c0.46,0,0.84,0.43,0.84,0.96v0C72.73,18.8,72.35,19.23,71.89,19.23z"/>
		</g>
		<g>
			<path class="keyboardsvg0" d="M71.35,21.97h-2.09l0.7-1.92h1.38c0.46,0,0.84,0.43,0.84,0.96v0C72.18,21.54,71.81,21.97,71.35,21.97z"/>
		</g>
		<g>
			<g>
				<path class="keyboardsvg0" d="M68.36,19.98h-2.09l0.7-1.92h1.38c0.46,0,0.84,0.43,0.84,0.96v0C69.19,19.55,68.82,19.98,68.36,19.98z"/>
			</g>
			<g>
				<path class="keyboardsvg0" d="M67.81,22.72h-2.09l0.7-1.92h1.38c0.46,0,0.84,0.43,0.84,0.96v0C68.65,22.29,68.28,22.72,67.81,22.72z"/>
			</g>
		</g>
		<g>
			<path class="keyboardsvg0" d="M199.82,72.48h-6.24l-3.29-3.69l3.28-4.02h6.25V72.48z M194.03,71.48h4.79v-5.71h-4.78l-2.44,2.99
				L194.03,71.48z"/>
		</g>
		<g>
			
				<rect x="195.64" y="66.64" transform="matrix(0.7071 -0.7071 0.7071 0.7071 8.9247 158.7948)" class="keyboardsvg0" width="1" height="3.97"/>
		</g>
		<g>
			
				<rect x="194.16" y="68.12" transform="matrix(0.7071 -0.7071 0.7071 0.7071 8.9247 158.7948)" class="keyboardsvg0" width="3.97" height="1"/>
		</g>
		<g>
			<path class="keyboardsvg0" d="M65.49,111.29v1.23c0,0.78-0.63,1.41-1.41,1.41c-0.78,0-1.41-0.63-1.41-1.41v-1.23h-0.75v1.23
				c0,1.19,0.97,2.16,2.16,2.16s2.16-0.97,2.16-2.16v-1.23H65.49z"/>
		</g>
		<g>
			<rect x="62.21" y="114.68" class="keyboardsvg0" width="3.74" height="0.64"/>
		</g>
		<g>
			<path class="keyboardsvg0" d="M64.08,113.39L64.08,113.39c-0.52,0-0.94-0.42-0.94-0.94v-2.74c0-0.52,0.42-0.94,0.94-0.94l0,0
				c0.52,0,0.94,0.42,0.94,0.94v2.74C65.02,112.97,64.6,113.39,64.08,113.39z"/>
		</g>
	</g>
</g>
</svg>
