<svg id="Layer_1" data-name="Layer 1" xmlns="http://www.w3.org/2000/svg" width="32" height="32" viewBox="0 0 32 32">
  <defs>
    <style>
      .cls-1 {
        fill: #231f20;
      }
    </style>
  </defs>
  <title>sqfmi_logo_32x32</title>
  <g>
    <path class="cls-1" d="M26.64476,13.40452h-.26285a.36139.36139,0,0,0-.36139.36139v.29569a.32855.32855,0,0,1-.32854.32855h-.06571a.32855.32855,0,0,1-.32854-.32855v-.29569a.36139.36139,0,0,0-.36139-.36139h-.26285a.36139.36139,0,0,1-.36139-.36139v-.26285a.36139.36139,0,0,0-.36139-.36139H23.425a.36139.36139,0,0,0-.36139.36139v6.43944a.36139.36139,0,0,0,.36139.36139h.52568a.36139.36139,0,0,0,.36139-.36139v-4.2382a.32854.32854,0,0,1,.32854-.32854h.06571a.32855.32855,0,0,1,.32855.32854v.29571a.36138.36138,0,0,0,.36138.36139H25.922a.36139.36139,0,0,0,.36139-.36139v-.29571a.32854.32854,0,0,1,.32854-.32854h.06572a.32854.32854,0,0,1,.32854.32854v4.2382a.36139.36139,0,0,0,.36139.36139h.52568a.36138.36138,0,0,0,.36138-.36139V16.62425h0v-3.844a.36138.36138,0,0,0-.36138-.36139h-.5257a.36139.36139,0,0,0-.36139.36139v.26285A.36139.36139,0,0,1,26.64476,13.40452Z"/>
    <path class="cls-1" d="M19.31827,12.41889H16.72278a.36139.36139,0,0,0-.36139.36139v.26285A.36139.36139,0,0,1,16,13.40452h-.26285a.36139.36139,0,0,0-.36139.36139v5.45381a.36139.36139,0,0,0,.36139.36139h.52568a.36139.36139,0,0,0,.36139-.36139V16.98564a.36139.36139,0,0,1,.36139-.36139h3.21973a.36139.36139,0,0,0,.36138-.36139v-.52568a.36139.36139,0,0,0-.36138-.36139H16.98561a.36139.36139,0,0,1-.36139-.36139v-.98564a.36139.36139,0,0,1,.36139-.36139h3.21973a.36139.36139,0,0,0,.36138-.36139v-.5257a.36139.36139,0,0,0-.36138-.36139h-.88707Z"/>
    <path class="cls-1" d="M11.89322,12.78028a.36139.36139,0,0,0-.36139-.36139H9.0349a.36139.36139,0,0,0-.36139.36139v.26285a.36139.36139,0,0,1-.36139.36139H8.04927a.36139.36139,0,0,0-.36139.36139v4.4682a.36139.36139,0,0,0,.36139.36139h.26285a.36139.36139,0,0,1,.36139.36139v.26283a.36139.36139,0,0,0,.36139.36139h1.5113a.36139.36139,0,0,0,.36139-.36139V18.924a.32854.32854,0,0,1,.32854-.32854h.06571a.32855.32855,0,0,1,.32855.32854v.29568a.36139.36139,0,0,0,.36138.36139h.52568a.36139.36139,0,0,0,.36139-.36139V18.694a.36139.36139,0,0,0-.36139-.36139h-.29569a.32854.32854,0,0,1-.32854-.32854v-.06569a.32855.32855,0,0,1,.32854-.32855h.29569a.36138.36138,0,0,0,.36139-.36138V13.76591a.36139.36139,0,0,0-.36139-.36139H12.2546a.36138.36138,0,0,1-.36138-.36139Zm-.26283,1.8727v2.3655a.32855.32855,0,0,1-.32855.32854h-.06571a.32854.32854,0,0,1-.32854-.32854v-.29567a.36139.36139,0,0,0-.36139-.36139h-.52568a.36139.36139,0,0,0-.36139.36139v.52568a.36138.36138,0,0,0,.36139.36138h.2957a.32855.32855,0,0,1,.32854.32855v.06569a.32854.32854,0,0,1-.32854.32854H9.29772a.36139.36139,0,0,1-.36138-.36139v-3.9425a.36139.36139,0,0,1,.36138-.36139H11.269a.36139.36139,0,0,1,.36139.36139V14.653Z"/>
    <path class="cls-1" d="M30.75154,13.40452v5.8152a.36139.36139,0,0,0,.36139.36139h.52568A.36139.36139,0,0,0,32,19.21972V12.78028a.36139.36139,0,0,0-.36139-.36139h-.52568a.36139.36139,0,0,0-.36139.36139Z"/>
    <path class="cls-1" d="M4.20533,12.78028a.36138.36138,0,0,0-.36138-.36139H1.347a.36139.36139,0,0,0-.36138.36139v.26285a.36139.36139,0,0,1-.36139.36139H.36139A.36139.36139,0,0,0,0,13.76591v1.51132a.36139.36139,0,0,0,.36139.36139H.62424A.36139.36139,0,0,1,.98563,16v.26285a.36139.36139,0,0,0,.36138.36139H3.58112a.36139.36139,0,0,1,.36139.36139v.98562a.36139.36139,0,0,1-.36139.36139H1.60984a.36138.36138,0,0,1-.36138-.36139v-.26285A.36139.36139,0,0,0,.88707,17.347H.36139A.36139.36139,0,0,0,0,17.70841v.5257a.36139.36139,0,0,0,.36139.36139H.62424a.36139.36139,0,0,1,.36139.36139v.26283a.36139.36139,0,0,0,.36138.36139H3.844a.36138.36138,0,0,0,.36138-.36139v-.26283a.36139.36139,0,0,1,.36139-.36139h.26285a.36139.36139,0,0,0,.36139-.36139v-1.5113a.36139.36139,0,0,0-.36139-.36139H4.56672A.36139.36139,0,0,1,4.20533,16v-.26285a.36138.36138,0,0,0-.36138-.36139H1.60984a.36138.36138,0,0,1-.36138-.36139v-.98564a.36138.36138,0,0,1,.36138-.36139H3.58112a.36139.36139,0,0,1,.36139.36139v.26283a.36138.36138,0,0,0,.36138.36139h.52568a.36139.36139,0,0,0,.36139-.36139v-.52568a.36139.36139,0,0,0-.36139-.36139H4.56672a.36139.36139,0,0,1-.36139-.36139Z"/>
  </g>
</svg>
